<svg xmlns="http://www.w3.org/2000/svg" width="75" height="75" viewBox="0 0 75 75">
  <g id="_10-pre" data-name="10-pre" transform="translate(-223.044 -131.5)">
    <rect id="Rectangle_2" data-name="Rectangle 2" width="75" height="75" transform="translate(223.044 131.5)" fill="none"/>
    <g id="_10-10" data-name="10-10" transform="translate(225.044 134)">
      <path id="Path_2" data-name="Path 2" d="M26.5-.5h42a3.005,3.005,0,0,0,2,2v41q-6.013,21.013-27,27h-17q-21.938-7.436-27-30v-10Q4.562,6.936,26.5-.5Zm-4,21q11.511-.25,23,.5A15.163,15.163,0,0,1,50,31.5a74.145,74.145,0,0,1,7.5-7,60.728,60.728,0,0,1,.5,19l-8-8a43.094,43.094,0,0,1-2,9A9.468,9.468,0,0,1,45.5,46a107.758,107.758,0,0,1-25-.5,4.452,4.452,0,0,1-1.5-2,100.245,100.245,0,0,1,0-20A30.139,30.139,0,0,1,22.5,20.5Z" transform="translate(0.5 0.5)" fill="#abb8d4" fill-rule="evenodd" opacity="0.942"/>
    </g>
  </g>
</svg>
