<svg xmlns="http://www.w3.org/2000/svg" width="75" height="75" viewBox="0 0 75 75">
  <g id="_11-pre" data-name="11-pre" transform="translate(-358.897 -128.5)">
    <rect id="Rectangle_3" data-name="Rectangle 3" width="75" height="75" transform="translate(358.897 128.5)" fill="none"/>
    <g id="_11-11" data-name="11-11" transform="translate(360.897 137)">
      <path id="Path_3" data-name="Path 3" d="M15.5-.5h38a4.3,4.3,0,0,0,1.5,2,74.2,74.2,0,0,0,1.5,12l9-7.5a5.486,5.486,0,0,1,5,.5v44a5.486,5.486,0,0,1-5,.5L56,43.5l-1,12a4.3,4.3,0,0,0-1.5,2H1.5a3.005,3.005,0,0,0-2-2v-40A181.2,181.2,0,0,0,15.5-.5Zm1,17h22v24h-22Z" transform="translate(0.5 0.5)" fill="#abb8d4" fill-rule="evenodd" opacity="0.953"/>
    </g>
  </g>
</svg>
