<svg xmlns="http://www.w3.org/2000/svg" width="75" height="75" viewBox="0 0 75 75">
  <g id="_12-pre" data-name="12-pre" transform="translate(-580.149 -129.5)">
    <rect id="Rectangle_4" data-name="Rectangle 4" width="75" height="75" transform="translate(580.149 129.5)" fill="none"/>
    <g id="_12-12" data-name="12-12" transform="translate(582.149 137)">
      <path id="Path_4" data-name="Path 4" d="M19.5-.5h2A25.336,25.336,0,0,1,35,13.5Q39.433,7.884,43.5,2q13.46-6.017,17,8a15.6,15.6,0,0,1-4,9q9.249-1.121,14,6.5v8q-4.751,7.621-14,6.5,9.54,13.093-5,19.5h-2q-2.833-1.233-6-2.5Q39.433,51.116,35,45.5A54.709,54.709,0,0,1,25.5,58q-13.238,3.981-15-9.5a10.613,10.613,0,0,1,3-8q-10.25-.089-14-9v-4q3.7-9.134,14-9Q5.322,5.172,19.5-.5Zm-2,6a9.032,9.032,0,0,1,7.5,2q7.047,10.8,13.5,22Q32.047,40.7,25,51.5A7.126,7.126,0,0,1,17.5,53a9.207,9.207,0,0,1-2-4.5q3.788-6.817,8-13.5l-15-1q-6.382-4.066-1-9l16-1Q19.937,18.122,16,12.5A7.965,7.965,0,0,1,17.5,5.5Zm30,0q6.3-1.2,8,5l-8,13a114.674,114.674,0,0,0,15,1.5q5.972,4.427,0,9a114.675,114.675,0,0,0-15,1.5l8,13q-3.832,8.617-10.5,2Q41.938,45.124,38.5,40a94.281,94.281,0,0,0,6-10.5,54.81,54.81,0,0,0-6-10.5Q43.2,12.336,47.5,5.5Z" transform="translate(0.5 0.5)" fill="#abb8d4" fill-rule="evenodd" opacity="0.776"/>
    </g>
  </g>
</svg>
