<svg xmlns="http://www.w3.org/2000/svg" width="75" height="75" viewBox="0 0 75 75">
  <g id="_14-pre" data-name="14-pre" transform="translate(-907.033 -135)">
    <rect id="Rectangle_6" data-name="Rectangle 6" width="75" height="75" transform="translate(907.033 135)" fill="none"/>
    <g id="_14-14" data-name="14-14" transform="translate(909.033 137)">
      <path id="Path_6" data-name="Path 6" d="M28.5-.5h13q23,6,29,29v13q-6.173,23.673-30,29h-11Q5,65-.5,40.5v-11Q4.827,5.673,28.5-.5Zm0,23A63.621,63.621,0,0,1,45.5,35,77.2,77.2,0,0,1,29,47.5,40.622,40.622,0,0,1,27.5,35,85.094,85.094,0,0,1,28.5,22.5Z" transform="translate(0.5 0.5)" fill="#abb8d4" fill-rule="evenodd" opacity="0.951"/>
    </g>
  </g>
</svg>
