<svg xmlns="http://www.w3.org/2000/svg" width="75" height="75" viewBox="0 0 75 75">
  <g id="_15-pre" data-name="15-pre" transform="translate(-1071.49 -123)">
    <rect id="Rectangle_7" data-name="Rectangle 7" width="75" height="75" transform="translate(1071.49 123)" fill="none"/>
    <g id="_15-15" data-name="15-15" transform="translate(1073.49 137)">
      <path id="Path_7" data-name="Path 7" d="M6.5-.5h44a13.663,13.663,0,0,1,7.5,12L63.5,6a6.73,6.73,0,0,1,7,1.5v31a6.73,6.73,0,0,1-7,1.5L58,34.5a13.663,13.663,0,0,1-7.5,12H6.5a14.474,14.474,0,0,1-7-10V9.5A14.474,14.474,0,0,1,6.5-.5Zm9,19q7.705,1.924,4,8.5-6.2,3.584-8-3.5A7.625,7.625,0,0,1,15.5,18.5Z" transform="translate(0.5 0.5)" fill="#abb8d4" fill-rule="evenodd" opacity="0.96"/>
    </g>
  </g>
</svg>
