<svg xmlns="http://www.w3.org/2000/svg" width="75" height="75" viewBox="0 0 75 75">
  <g id="_16" data-name="16" transform="translate(-1232.344 -128.5)">
    <rect id="Rectangle_8" data-name="Rectangle 8" width="75" height="75" transform="translate(1232.344 128.5)" fill="none"/>
    <g id="_16-16" data-name="16-16" transform="translate(1237.344 130.5)">
      <path id="Path_8" data-name="Path 8" d="M13.5-.5h4a8.731,8.731,0,0,1,2,7h25a8.731,8.731,0,0,1,2-7h4a8.731,8.731,0,0,1,2,7,40.936,40.936,0,0,1,9,.5,30.141,30.141,0,0,1,3,3.5v56a11.49,11.49,0,0,1-4,4H3.5a8.04,8.04,0,0,1-4-5v-55A30.144,30.144,0,0,1,2.5,7a40.937,40.937,0,0,1,9-.5A8.731,8.731,0,0,1,13.5-.5Zm-5,13h3q-.072,8.071,7.5,5a12.935,12.935,0,0,0,.5-5h25q-1.018,8.6,7,5a9.106,9.106,0,0,0,1-5,4.6,4.6,0,0,1,4.5,2,50.441,50.441,0,0,1,.5,10H6.5A22.589,22.589,0,0,1,8.5,12.5Zm6,25q5.645,1.327,3,6.5Q9.472,44.263,14.5,37.5Zm17,0q7.216,2.629,1,7Q25.243,41.769,31.5,37.5Zm16,0q6.789,1.3,3,6.5Q42.472,44.263,47.5,37.5Zm-33,13q5.645,1.327,3,6.5Q9.472,57.263,14.5,50.5Zm17,0q7.241,2.691,1,7Q25.243,54.769,31.5,50.5Zm16,0q6.789,1.3,3,6.5Q42.472,57.263,47.5,50.5Z" transform="translate(0.5 0.5)" fill="#fff" fill-rule="evenodd" opacity="0.916"/>
    </g>
  </g>
</svg>
