<svg xmlns="http://www.w3.org/2000/svg" width="75" height="75" viewBox="0 0 75 75">
  <g id="_17-pre" data-name="17-pre" transform="translate(-1388.222 -133)">
    <rect id="Rectangle_9" data-name="Rectangle 9" width="75" height="75" transform="translate(1388.222 133)" fill="none"/>
    <g id="_17-17" data-name="17-17" transform="translate(1390.222 137)">
      <path id="Path_9" data-name="Path 9" d="M70.5,2.5v51a4.3,4.3,0,0,0-2,1.5l-46,1q-8.766,5.544-17,11.5H.5a1.618,1.618,0,0,0-1-2V4.5A30.144,30.144,0,0,1,2.5,1q33-1,66,0A4.3,4.3,0,0,0,70.5,2.5Zm-50,22q7.183,2.55,1,7Q14.453,28.569,20.5,24.5Zm14,0q7.184,2.55,1,7Q30.2,28.62,34.5,24.5Zm14,0q7.184,2.55,1,7Q44.2,28.62,48.5,24.5Z" transform="translate(0.5 -0.5)" fill="#abb8d4" fill-rule="evenodd" opacity="0.967"/>
    </g>
  </g>
</svg>
