<svg xmlns="http://www.w3.org/2000/svg" width="75" height="75" viewBox="0 0 75 75">
  <g id="_18-pre" data-name="18-pre" transform="translate(-94 -300)">
    <rect id="Rectangle_19" data-name="Rectangle 19" width="75" height="75" transform="translate(94 300)" fill="none"/>
    <g id="Group_64" data-name="Group 64" transform="translate(-0.03)">
      <rect id="Rectangle_18" data-name="Rectangle 18" width="75" height="75" transform="translate(94.03 300)" fill="none"/>
      <g id="_18-18" data-name="18-18" transform="translate(96.03 302)">
        <g id="Group_29" data-name="Group 29" transform="translate(34.125 0)">
          <path id="Path_10" data-name="Path 10" d="M34.5-.5h11q18.7,4.694,25,23v13a3.209,3.209,0,0,1-4.5,0Q64.506,4.969,34.5,4.5A4.01,4.01,0,0,1,34.5-.5Z" transform="translate(-33.625 0.5)" fill="#abb8d4" fill-rule="evenodd" opacity="0.775"/>
        </g>
        <g id="Group_30" data-name="Group 30" transform="translate(37.287 11)">
          <path id="Path_11" data-name="Path 11" d="M38.5,10.5q21.677,1.4,20,22.5a3.2,3.2,0,0,1-4-.5q-1.953-14.953-17-17Q35.682,12.607,38.5,10.5Z" transform="translate(-36.787 -10.5)" fill="#abb8d4" fill-rule="evenodd" opacity="0.75"/>
        </g>
        <g id="Group_31" data-name="Group 31" transform="translate(0 15)">
          <path id="Path_12" data-name="Path 12" d="M41.5,70.5h-9a74.5,74.5,0,0,1-10-5.5L5,47.5a27.887,27.887,0,0,1-5.5-13v-3Q1.042,18.2,14,14.5,33.738,20.735,22.5,38a27.286,27.286,0,0,0,10,9.5q14.547-10.017,22.5,6,2.052,8.654-5.5,13.5A44.106,44.106,0,0,1,41.5,70.5Z" transform="translate(0.5 -14.5)" fill="#abb8d4" fill-rule="evenodd" opacity="0.927"/>
        </g>
        <g id="Group_32" data-name="Group 32" transform="translate(33.065 24)">
          <path id="Path_13" data-name="Path 13" d="M36.5,23.5q15.314.238,8,13.5Q30.286,41.248,33,26.5A30.138,30.138,0,0,1,36.5,23.5Z" transform="translate(-32.565 -23.5)" fill="#abb8d4" fill-rule="evenodd" opacity="0.852"/>
        </g>
      </g>
    </g>
  </g>
</svg>
