<svg xmlns="http://www.w3.org/2000/svg" width="75" height="75" viewBox="0 0 75 75">
  <g id="_2" data-name="2" transform="translate(-242.337 -301.5)">
    <rect id="Rectangle_17" data-name="Rectangle 17" width="75" height="75" transform="translate(242.337 301.5)" fill="none"/>
    <g id="_2-2" data-name="2-2" transform="translate(244.337 306)">
      <g id="Group_33" data-name="Group 33" transform="translate(26.985 0)">
        <path id="Path_14" data-name="Path 14" d="M34.5-.5h7q9.914,4.939,6.5,16a9.219,9.219,0,0,1-9.5,6,9.032,9.032,0,0,0-2-7.5Q21.467,16.487,29,3.5A59.925,59.925,0,0,1,34.5-.5Z" transform="translate(-26.485 0.5)" fill="#fff" fill-rule="evenodd" opacity="0.876"/>
      </g>
      <g id="Group_34" data-name="Group 34" transform="translate(53.7 6)">
        <path id="Path_15" data-name="Path 15" d="M60.5,5.5q13.4,4.612,4,15.5Q50.194,23.2,54,9.5A11.441,11.441,0,0,1,60.5,5.5Z" transform="translate(-53.2 -5.5)" fill="#fff" fill-rule="evenodd" opacity="0.852"/>
      </g>
      <g id="Group_35" data-name="Group 35" transform="translate(0 14.887)">
        <path id="Path_16" data-name="Path 16" d="M-.5,49.5v-34a334.227,334.227,0,0,1,36-1v36A334.227,334.227,0,0,1-.5,49.5Zm11-26a49.873,49.873,0,0,1,14,1,9.864,9.864,0,0,1-6,1q-1,32-2,0A5.729,5.729,0,0,1,10.5,23.5Z" transform="translate(0.5 -14.387)" fill="#fff" fill-rule="evenodd" opacity="0.942"/>
      </g>
      <g id="Group_36" data-name="Group 36" transform="translate(21 23.938)">
        <path id="Path_17" data-name="Path 17" d="M70.5,26.5v19Q66.656,57.457,53.5,56a26.623,26.623,0,0,1-12,9.5h-9a19.9,19.9,0,0,1-12-12,128.431,128.431,0,0,0,16-.5L38,51.5q.75-13.991.5-28,14.509-.25,29,.5A11.324,11.324,0,0,1,70.5,26.5Z" transform="translate(-20.5 -23.438)" fill="#fff" fill-rule="evenodd" opacity="0.926"/>
      </g>
    </g>
  </g>
</svg>
