<svg xmlns="http://www.w3.org/2000/svg" width="75" height="75" viewBox="0 0 75 75">
  <g id="_3-pre" data-name="3-pre" transform="translate(-425.159 -299.5)">
    <rect id="Rectangle_16" data-name="Rectangle 16" width="75" height="75" transform="translate(425.159 299.5)" fill="none"/>
    <g id="_3-3" data-name="3-3" transform="translate(428.659 302)">
      <g id="Group_37" data-name="Group 37" transform="translate(0 0)">
        <path id="Path_18" data-name="Path 18" d="M27.5-.5h13a31.734,31.734,0,0,1,9,7.5q13.813,1.586,18,14.5v9q-4,4,0,8v9Q63.313,60.414,49.5,62a31.734,31.734,0,0,1-9,7.5h-13a30.275,30.275,0,0,1-10-7.5Q3.386,59.129-.5,45.5v-5a10,10,0,0,0,0-12v-5Q3.386,9.871,17.5,7A30.275,30.275,0,0,1,27.5-.5Zm2,7q10.1-1.7,15,7,13.1-.136,16,12.5a20.011,20.011,0,0,1-4,8.5q8.864,10.928-3,18.5-8.163.184-12,7-12.051,6.815-19-5-20.426-2.125-12-20.5Q2.124,16.086,22.5,14A25.2,25.2,0,0,1,29.5,6.5Z" transform="translate(0.5 0.5)" fill="#abb8d4" fill-rule="evenodd" opacity="0.848"/>
      </g>
      <g id="Group_38" data-name="Group 38" transform="translate(13.11 11.739)">
        <path id="Path_19" data-name="Path 19" d="M30.5,11.5q7.944-1.54,10,6a15.676,15.676,0,0,1-5,8q1.326,3.663,5,2.5A20.882,20.882,0,0,0,44,21.5q8.437-4.9,10.5,4.5.015,5.492-5.5,6.5-5.272-2.7-8.5,2a4.719,4.719,0,0,0,4,3q11.724-3.028,9.5,9-9.589,6.547-12.5-5-3.691-3.452-6,1.5a22.719,22.719,0,0,1,5,8.5q-3.231,9.166-11.5,4A9.624,9.624,0,0,1,27.5,51a29.482,29.482,0,0,1,5-8q-2.167-4.621-6-2A10.087,10.087,0,0,1,19,49.5Q9.134,46.623,14.5,38A9.624,9.624,0,0,1,19,36.5a12.333,12.333,0,0,0,6.5.5,3.625,3.625,0,0,0,0-5,11.71,11.71,0,0,1-12-2.5q-3.19-9.906,7-9.5a11.5,11.5,0,0,1,6,8q9.177-.963,1.5-7.5A8.029,8.029,0,0,1,30.5,11.5Z" transform="translate(-12.61 -11.239)" fill="#abb8d4" fill-rule="evenodd" opacity="0.834"/>
      </g>
    </g>
  </g>
</svg>
