<svg xmlns="http://www.w3.org/2000/svg" width="75" height="75" viewBox="0 0 75 75">
  <g id="_7-pre" data-name="7-pre" transform="translate(-1099.476 -299.5)">
    <rect id="Rectangle_12" data-name="Rectangle 12" width="75" height="75" transform="translate(1099.476 299.5)" fill="none"/>
    <g id="_7-7" data-name="7-7" transform="translate(1101.476 302)">
      <path id="Path_28" data-name="Path 28" d="M26.5-.5h17q22.611,7.609,27,31v8q-4.389,23.391-27,31h-17q-20.987-5.987-27-27v-16Q5.513,5.487,26.5-.5Zm2,7a30.318,30.318,0,0,1,23,5.5L12,51.5Q-1.137,29.493,17.5,12A49.818,49.818,0,0,1,28.5,6.5Zm28,11q13.977,18.789-1.5,37Q37.135,68.99,17.5,57,37.3,37.448,56.5,17.5Z" transform="translate(0.5 0.5)" fill="#abb8d4" fill-rule="evenodd" opacity="0.83"/>
    </g>
  </g>
</svg>
