<svg xmlns="http://www.w3.org/2000/svg" width="75" height="75" viewBox="0 0 75 75">
  <g id="_8-pre" data-name="8-pre" transform="translate(-1281.207 -290.5)">
    <rect id="Rectangle_11" data-name="Rectangle 11" width="75" height="75" transform="translate(1281.207 290.5)" fill="none"/>
    <g id="_8-8" data-name="8-8" transform="translate(1283.207 293)">
      <path id="Path_29" data-name="Path 29" d="M13.5-.5h13Q37.82,1.568,49.5,4q23.053,11.607,19,37a19.606,19.606,0,0,0,2,3.5v11a28.6,28.6,0,0,1-14,14h-13a9.578,9.578,0,0,0-2.5-2q-28.048,3.475-38-23A29.731,29.731,0,0,1,2.5,29a40.647,40.647,0,0,1-3-6.5v-7A23.977,23.977,0,0,1,13.5-.5Zm15,14a34.043,34.043,0,0,1,20,3.5q6.462,6.272-1,10.5a25.041,25.041,0,0,1-7-7.5,30.5,30.5,0,0,0-11,0q-6.27,4.722,1,8a77.055,77.055,0,0,1,20,7q8.074,13.88-7,20a29.2,29.2,0,0,1-22-3A9.112,9.112,0,0,1,18,41.5a5.9,5.9,0,0,1,5.5-.5q4.773,11.634,17,8,7.343-4.235,1-10a81.822,81.822,0,0,1-19-6q-7.324-7.587-1-16Z" transform="translate(0.5 0.5)" fill="#abb8d4" fill-rule="evenodd" opacity="0.915"/>
    </g>
  </g>
</svg>
