<svg xmlns="http://www.w3.org/2000/svg" width="75" height="75" viewBox="0 0 75 75">
  <g id="_9-pre" data-name="9-pre" transform="translate(-1393.222 -299.5)">
    <rect id="Rectangle_10" data-name="Rectangle 10" width="75" height="75" transform="translate(1393.222 299.5)" fill="none"/>
    <g id="_9-9" data-name="9-9" transform="translate(1400.222 302)">
      <path id="Path_30" data-name="Path 30" d="M21.5-.5h16q19.6,6.6,23,27v5q-4.324,26.6-29,38h-2v-10q-22.62-.793-30-22v-16Q5,5,21.5-.5Zm-7,23h12a98.433,98.433,0,0,1-.5,14q-3.895,7.592-3.5-2h-8Zm18,0h12a51.291,51.291,0,0,1-1.5,16l-3,3a24.939,24.939,0,0,1-.5-7h-7Z" transform="translate(0.5 0.5)" fill="#abb8d4" fill-rule="evenodd" opacity="0.94"/>
    </g>
  </g>
</svg>
