<?xml version="1.0" encoding="UTF-8"?>
<!DOCTYPE svg  PUBLIC '-//W3C//DTD SVG 1.1//EN'  'http://www.w3.org/Graphics/SVG/1.1/DTD/svg11.dtd'>
<svg version="1.1" xmlns="http://www.w3.org/2000/svg">
<defs>
<font id="Switzer-Extrabold" horiz-adv-x="591">
<font-face font-family="Switzer Extrabold" font-weight="800" ascent="800" bbox="-68 -239 1043 971" cap-height="680" descent="-200" panose-1="0 0 0 0 0 0 0 0 0 0" underline-position="-125" underline-thickness="50" unicode-range="U+0020-00FE" units-per-em="1000" x-height="541"/>
<missing-glyph/>
<glyph glyph-name="space" horiz-adv-x="184" unicode=" "/>
<glyph d="M87 209v471h173v-471h-173zM84 0v145h178v-145h-178z" glyph-name="exclam" horiz-adv-x="346" unicode="!"/>
<glyph d="M75 377l-31 303h175l-31 -303h-113zM293 377l-31 303h175l-32 -303h-112z" glyph-name="quotedbl" horiz-adv-x="481" unicode='"'/>
<glyph d="M115 0l29 139h-86v123h111l32 156h-76v122h101l29 140h144l-29 -140h132l29 140h144l-29 -140h86v-122h-111l-32 -156h76v-123h-101l-29 -139h-144l29 139h-132l-29 -139h-144zM313 262h132l32 156h-132z" glyph-name="numbersign" horiz-adv-x="790" unicode="#"/>
<glyph d="M218 -107v97q-143 32 -180 166q-6 22 -9 46h175q7 -64 70 -77q14 -3 28 -3q53 0 65 39q2 7 2 15q0 41 -64 66q-17 7 -60 20q-103 32 -144 64q-62 50 -63 136q0 93 75 150q45 33 105 44v94h141v-100q121 -32 157 -145q8 -26 11 -55h-177q-13 70 -76 71q-49 0 -57 -40 q-1 -6 -1 -12q0 -37 62 -62q18 -7 60 -19q106 -33 147 -65q61 -49 62 -130q0 -112 -92 -170q-42 -27 -96 -36v-94h-141z" glyph-name="dollar" horiz-adv-x="576" unicode="$"/>
<glyph d="M172 292q-108 0 -146 92q-16 40 -16 91q0 127 85 170q34 16 77 16q107 0 146 -92q17 -41 17 -94q0 -125 -86 -167q-34 -16 -77 -16zM151 0l400 643h144l-399 -643h-145zM172 392q39 2 39 83q-1 84 -39 85q-38 -2 -38 -85q1 -82 38 -83zM673 -11q-108 0 -146 92 q-16 40 -16 91q0 123 82 166q35 19 80 19q108 0 146 -92q17 -40 17 -93q0 -128 -89 -168q-33 -15 -74 -15zM673 88q39 2 39 84q-1 84 -39 85q-37 -2 -37 -85q1 -83 37 -84z" glyph-name="percent" horiz-adv-x="846" unicode="%"/>
<glyph d="M538 531q0 -94 -90 -144q-22 -13 -56 -26l117 -112q21 49 21 106h158q-1 -117 -67 -213l149 -142h-212l-43 40q-94 -58 -209 -58q-153 0 -223 89q-39 52 -39 121q1 123 119 188q-52 68 -52 134q0 99 86 150q57 34 134 34q120 0 176 -76q31 -41 31 -91zM277 517 q1 -34 34 -74q65 31 66 75q0 34 -32 45q-9 3 -18 3q-41 0 -49 -36q-1 -7 -1 -13zM218 210q0 -62 61 -81q22 -7 49 -7q41 0 79 19l-150 140q-1 1 -4 3l-4 4q-31 -32 -31 -78z" glyph-name="ampersand" horiz-adv-x="773" unicode="&amp;"/>
<glyph d="M75 377l-31 303h175l-31 -303h-113z" glyph-name="quotesingle" horiz-adv-x="263" unicode="'"/>
<glyph d="M193 -181q-149 233 -149 451q1 218 149 450h174q-136 -235 -136 -450q1 -217 136 -451h-174z" glyph-name="parenleft" horiz-adv-x="379" unicode="("/>
<glyph d="M185 -181h-173q136 235 136 451q-1 216 -136 450h173q149 -233 149 -450q-1 -219 -149 -451z" glyph-name="parenright" horiz-adv-x="379" unicode=")"/>
<glyph d="M375 394l-111 -80l-50 90l-50 -90l-111 80l70 77l-102 19l43 131l94 -44l-13 103h138l-13 -103l94 44l43 -131l-102 -20z" glyph-name="asterisk" horiz-adv-x="428" unicode="*"/>
<glyph d="M74 257v131h141v148h146v-148h140v-131h-140v-148h-146v148h-141z" glyph-name="plus" horiz-adv-x="576" unicode="+"/>
<glyph d="M44 0v177h177v-96q0 -121 -49 -216q-11 -21 -25 -43h-89q53 106 53 178h-67z" glyph-name="comma" horiz-adv-x="265" unicode=","/>
<glyph d="M45 199v147h282v-147h-282z" glyph-name="hyphen" horiz-adv-x="372" unicode="-"/>
<glyph d="M44 0v177h177v-177h-177z" glyph-name="period" horiz-adv-x="265" unicode="."/>
<glyph d="M0 0l218 680h176l-217 -680h-177z" glyph-name="slash" horiz-adv-x="394" unicode="/"/>
<glyph d="M288 -18q-152 0 -221 131q-44 85 -44 208q0 210 116 295q62 45 149 45q153 0 221 -132q44 -84 44 -208q0 -208 -115 -293q-63 -46 -150 -46zM288 126q73 0 85 141q2 26 2 54q0 179 -74 195q-7 1 -13 1q-74 0 -85 -145q-2 -24 -2 -51q0 -177 73 -193q7 -2 14 -2z" glyph-name="zero" horiz-adv-x="576" unicode="0"/>
<glyph d="M97 -1v131h117v323h-117v123h38q97 0 108 44q2 8 2 17v6h152v-513h117v-131h-417z" glyph-name="one" horiz-adv-x="576" unicode="1"/>
<glyph d="M39 -1v42q0 145 119 235q23 17 112 69q70 41 85 74q7 15 7 30q0 62 -54 71q-8 1 -16 1q-69 -2 -84 -76h-174q17 129 123 185q59 31 136 31q143 0 207 -92q36 -52 36 -118q0 -91 -97 -163q-14 -10 -109 -70q-77 -49 -102 -88h305v-131h-494z" glyph-name="two" horiz-adv-x="576" unicode="2"/>
<glyph d="M555 189q0 -99 -83 -157q-71 -50 -181 -50q-145 0 -221 97q-42 53 -52 125h174q18 -81 98 -82q82 0 90 62q1 7 1 13q-2 68 -115 69h-49v123h39q107 1 108 69q0 46 -46 59q-13 4 -28 4q-71 -2 -86 -76h-173q17 127 122 184q61 32 138 32q142 0 209 -88q38 -50 38 -113 q-1 -85 -70 -124q86 -49 87 -147z" glyph-name="three" horiz-adv-x="576" unicode="3"/>
<glyph d="M487 0h-174v120h-281v154l299 369h156v-391h73v-132h-73v-120zM157 252h156v199z" glyph-name="four" horiz-adv-x="576" unicode="4"/>
<glyph d="M551 216q0 -118 -86 -183q-68 -51 -169 -51q-146 0 -220 96q-38 50 -47 117h173q17 -71 93 -73q72 0 82 73q1 10 1 20q0 76 -58 92q-13 4 -28 4q-56 -1 -82 -45l-157 15l20 362h441v-131h-297l-6 -85q47 20 97 20q156 0 215 -111q28 -52 28 -120z" glyph-name="five" horiz-adv-x="576" unicode="5"/>
<glyph d="M308 -18h-1q-169 1 -240 137q-42 82 -42 202q0 210 121 295q66 45 157 45q147 0 217 -110q28 -44 39 -101h-177q-21 66 -85 67q-80 0 -101 -113q-3 -15 -4 -30q56 44 128 44q141 0 206 -87q38 -51 38 -123q0 -121 -97 -184q-67 -42 -159 -42zM303 122q66 0 80 55 q3 12 3 25q0 61 -54 76q-14 4 -29 4q-65 0 -80 -54q-3 -13 -3 -27q0 -62 56 -76q13 -3 27 -3z" glyph-name="six" horiz-adv-x="576" unicode="6"/>
<glyph d="M325 0h-182q35 282 212 512h-304v131h487v-108q-193 -258 -213 -535z" glyph-name="seven" horiz-adv-x="576" unicode="7"/>
<glyph d="M289 -18q-150 0 -220 86q-42 51 -42 121q1 95 90 146q-69 49 -70 129q0 107 92 161q62 36 150 36q140 0 205 -83q37 -49 37 -114q-1 -82 -72 -130q87 -59 92 -145q0 -111 -97 -168q-68 -39 -165 -39zM289 525q-58 0 -70 -49q-2 -10 -2 -20q0 -53 48 -66q12 -3 24 -3 q56 0 69 46q3 11 3 23q0 58 -54 68q-9 1 -18 1zM289 118q66 0 83 50q5 14 5 29q0 60 -56 76q-15 4 -32 4q-70 0 -85 -54q-3 -13 -3 -26q0 -58 54 -74q16 -5 34 -5z" glyph-name="eight" horiz-adv-x="576" unicode="8"/>
<glyph d="M29 437q0 121 96 182q66 42 159 42q163 0 233 -134q41 -81 41 -200q0 -209 -119 -296q-67 -49 -160 -49q-134 0 -206 93q-35 47 -48 109h178q20 -53 82 -58q91 2 105 131q-50 -41 -112 -41q-150 0 -213 94q-36 54 -36 127zM289 521q-64 0 -79 -56q-3 -14 -3 -28 q0 -66 54 -81q13 -4 28 -4q63 0 78 56q4 14 4 29q0 67 -57 81q-12 3 -25 3z" glyph-name="nine" horiz-adv-x="576" unicode="9"/>
<glyph d="M44 330v177h177v-177h-177zM44 0v177h177v-177h-177z" glyph-name="colon" horiz-adv-x="265" unicode=":"/>
<glyph d="M44 330v177h177v-177h-177zM44 0v177h177v-96q0 -121 -49 -216q-11 -21 -25 -43h-89q53 106 53 178h-67z" glyph-name="semicolon" horiz-adv-x="265" unicode=";"/>
<glyph d="M501 58l-427 200v130l427 200v-141l-274 -124l274 -124v-141z" glyph-name="less" horiz-adv-x="576" unicode="&lt;"/>
<glyph d="M74 373v132h427v-132h-427zM74 141v131h427v-131h-427z" glyph-name="equal" horiz-adv-x="576" unicode="="/>
<glyph d="M74 58v141l274 124l-274 124v141l427 -200v-130z" glyph-name="greater" horiz-adv-x="576" unicode="&gt;"/>
<glyph d="M515 497q0 -78 -66 -136q-11 -9 -34 -27q-54 -42 -70 -70q-14 -26 -14 -55h-173q0 106 79 173q13 11 39 30q49 36 59 58q7 14 7 28q0 45 -41 58q-12 3 -24 3q-72 0 -81 -83v-2h-174q18 136 123 193q58 31 133 31q136 0 200 -88q37 -50 37 -113zM156 0v145h177v-145h-177z " glyph-name="question" horiz-adv-x="549" unicode="?"/>
<glyph d="M729 15q-123 1 -153 88q-64 -86 -176 -90q-104 0 -150 68q-25 37 -25 88q2 115 131 160q85 29 211 31v14q-2 75 -71 76q-61 0 -72 -55q-1 -2 -1 -3h-173q15 116 117 168q59 29 135 29q148 0 208 -100q30 -51 30 -117v-203q0 -50 35 -61q8 -2 15 -2q89 0 101 154 q2 22 2 46q0 157 -108 264q-119 110 -288 113q-169 0 -282 -112q-110 -108 -116 -269v-15q0 -179 117 -290q111 -105 281 -105q121 0 213 37l20 -51q-96 -41 -233 -41q-203 0 -333 125q-126 122 -131 312v13q0 189 123 315q122 126 313 135q14 1 28 1q198 0 329 -118 q126 -114 134 -290v-20q0 -209 -125 -272q-47 -23 -106 -23zM398 183q0 -41 40 -52q11 -3 23 -3q56 0 88 49q18 30 18 66v23q-162 -11 -169 -83z" glyph-name="at" horiz-adv-x="993" unicode="@"/>
<glyph d="M513 0l-39 116h-247l-39 -116h-184l243 680h218l243 -680h-195zM330 419l-56 -165h154l-56 165l-21 79z" glyph-name="A" horiz-adv-x="712" unicode="A"/>
<glyph d="M55 0v680h288q157 0 222 -89q33 -46 33 -108q-1 -79 -68 -123q106 -44 107 -155q0 -140 -132 -186q-55 -19 -128 -19h-322zM339 537h-101v-127h97q71 7 76 62q0 56 -55 64q-9 1 -17 1zM370 280h-132v-137h134q66 0 76 52q2 9 2 17q0 55 -56 66q-11 2 -24 2z" glyph-name="B" horiz-adv-x="662" unicode="B"/>
<glyph d="M678 455h-191q-27 93 -121 94q-95 0 -130 -103q-15 -46 -15 -107q0 -155 87 -196q27 -12 58 -12q82 0 113 72q4 8 6 16h192q-31 -146 -158 -206q-67 -31 -149 -31q-182 0 -272 127q-64 92 -64 230q0 195 121 291q87 68 216 68q152 0 239 -97q52 -60 68 -146z" glyph-name="C" horiz-adv-x="702" unicode="C"/>
<glyph d="M55 0v680h274q191 0 285 -123q66 -88 66 -218q0 -187 -128 -277q-90 -62 -223 -62h-274zM329 148q116 0 151 103q13 39 13 88q0 137 -91 178q-33 15 -73 15h-91v-384h91z" glyph-name="D" horiz-adv-x="715" unicode="D"/>
<glyph d="M55 0v680h497v-144h-314v-119h274v-140h-274v-133h314v-144h-497z" glyph-name="E" horiz-adv-x="589" unicode="E"/>
<glyph d="M55 0v680h497v-144h-314v-145h274v-143h-274v-248h-183z" glyph-name="F" horiz-adv-x="583" unicode="F"/>
<glyph d="M677 0h-121l-15 68q-63 -86 -186 -86q-162 0 -250 117q-71 95 -71 240q0 195 121 291q87 68 216 68q152 0 239 -97q52 -60 68 -146h-191q-27 93 -121 94q-95 0 -130 -103q-15 -46 -15 -107q0 -147 84 -192q30 -16 67 -16q92 0 123 74q6 16 9 34h-115v135h288v-374z" glyph-name="G" horiz-adv-x="722" unicode="G"/>
<glyph d="M55 0v680h183v-259h239v259h182v-680h-182v273h-239v-273h-183z" glyph-name="H" horiz-adv-x="715" unicode="H"/>
<glyph d="M55 0v680h183v-680h-183z" glyph-name="I" horiz-adv-x="293" unicode="I"/>
<glyph d="M22 216h182q11 -84 72 -85q55 0 68 67q3 18 3 38v444h182v-434q0 -155 -104 -223q-62 -41 -149 -41q-163 0 -225 121q-24 49 -29 113z" glyph-name="J" horiz-adv-x="579" unicode="J"/>
<glyph d="M55 0v680h183v-315l230 315h206l-253 -334l271 -346h-224l-230 301v-301h-183z" glyph-name="K" horiz-adv-x="695" unicode="K"/>
<glyph d="M55 0v680h183v-532h284v-148h-467z" glyph-name="L" horiz-adv-x="545" unicode="L"/>
<glyph d="M55 0v680h238l129 -371l32 -115l31 115l129 371h232v-680h-183l11 475l-52 -176l-106 -299h-132l-107 302l-50 171l11 -473h-183z" glyph-name="M" horiz-adv-x="901" unicode="M"/>
<glyph d="M55 0v680h193l183 -318l56 -121l-10 439h182v-680h-193l-183 319l-55 119l10 -438h-183z" glyph-name="N" horiz-adv-x="715" unicode="N"/>
<glyph d="M381 -18q-185 0 -279 125q-68 93 -68 232q0 192 123 289q90 70 224 70q185 0 279 -126q68 -93 68 -233q0 -192 -123 -288q-90 -69 -224 -69zM381 131q107 0 144 105q16 45 16 103q0 147 -87 193q-33 17 -73 17q-104 0 -143 -101q-17 -47 -17 -109q0 -144 86 -190 q33 -18 74 -18z" glyph-name="O" horiz-adv-x="763" unicode="O"/>
<glyph d="M55 0v680h276q174 0 243 -105q35 -54 35 -128q0 -140 -116 -199q-67 -34 -160 -34h-95v-214h-183zM328 536h-90v-178h85q96 5 99 89q0 74 -68 87q-13 2 -26 2z" glyph-name="P" horiz-adv-x="637" unicode="P"/>
<glyph d="M381 -18q-185 0 -279 125q-68 93 -68 232q0 192 123 289q90 70 224 70q185 0 279 -126q68 -93 68 -233q-1 -149 -76 -242l76 -64l-76 -92l-95 80q-76 -39 -176 -39zM351 193l76 92l90 -75q27 55 27 129q0 144 -86 191q-34 19 -77 19q-107 0 -145 -103q-17 -46 -17 -107 q0 -145 88 -191q33 -17 74 -17q23 0 39 4z" glyph-name="Q" horiz-adv-x="763" unicode="Q"/>
<glyph d="M55 0v680h289q162 0 229 -94q35 -50 35 -117q-1 -108 -82 -158q41 -34 58 -102l50 -209h-189l-36 176q-10 49 -37 59q-15 6 -41 6h-93v-241h-183zM340 536h-102v-155h98q77 0 84 65q1 7 1 13q0 66 -62 76q-10 1 -19 1z" glyph-name="R" horiz-adv-x="657" unicode="R"/>
<glyph d="M219 503q0 -43 65 -63q10 -3 115 -26q126 -26 173 -80q42 -48 42 -125q0 -123 -107 -185q-74 -42 -176 -42q-186 0 -265 118q-33 51 -43 119h192q12 -77 86 -93q16 -3 32 -3q86 0 93 55q1 4 1 8q0 45 -68 68q-10 4 -118 29q-124 29 -170 84q-39 46 -39 117q0 107 90 166 q73 48 182 48q157 0 236 -96q45 -55 55 -134h-195q-18 88 -104 89q-60 0 -74 -37q-3 -9 -3 -17z" glyph-name="S" horiz-adv-x="638" unicode="S"/>
<glyph d="M226 0v532h-204v148h590v-148h-204v-532h-182z" glyph-name="T" horiz-adv-x="635" unicode="T"/>
<glyph d="M644 259q0 -155 -113 -229q-75 -48 -184 -48q-171 0 -249 110q-48 69 -48 167v421h182v-421q0 -98 72 -122q20 -7 43 -7q87 0 108 81q6 22 6 48v421h183v-421z" glyph-name="U" horiz-adv-x="693" unicode="U"/>
<glyph d="M198 680l142 -419l21 -87l21 87l142 419h184l-245 -680h-215l-244 680h194z" glyph-name="V" horiz-adv-x="712" unicode="V"/>
<glyph d="M645 0l-99 356l-17 79l-17 -79l-98 -356h-202l-197 680h195l93 -419l19 -90l20 90l116 419h153l115 -419l21 -92l18 92l93 419h185l-197 -680h-201z" glyph-name="W" horiz-adv-x="1058" unicode="W"/>
<glyph d="M465 0l-102 156l-29 51l-29 -51l-103 -156h-190l228 350l-212 330h211l85 -128l31 -57l31 57l85 128h190l-212 -326l227 -354h-211z" glyph-name="X" horiz-adv-x="689" unicode="X"/>
<glyph d="M233 0v231l-230 449h204l95 -212l28 -81l27 81l96 212h193l-231 -449v-231h-182z" glyph-name="Y" horiz-adv-x="649" unicode="Y"/>
<glyph d="M42 0v148l334 384h-334v148h541v-148l-333 -384h333v-148h-541z" glyph-name="Z" horiz-adv-x="626" unicode="Z"/>
<glyph d="M85 -181v901h294v-121h-120v-659h120v-121h-294z" glyph-name="bracketleft" horiz-adv-x="399" unicode="["/>
<glyph d="M394 0h-176l-218 680h177z" glyph-name="backslash" horiz-adv-x="394" unicode="\"/>
<glyph d="M313 -181h-293v121h120v659h-120v121h293v-901z" glyph-name="bracketright" horiz-adv-x="399" unicode="]"/>
<glyph d="M66 353l157 327h130l157 -327h-140l-82 185l-82 -185h-140z" glyph-name="asciicircum" horiz-adv-x="576" unicode="^"/>
<glyph d="M22 -148v130h399v-130h-399z" glyph-name="underscore" horiz-adv-x="443" unicode="_"/>
<glyph d="M373 588h-149l-96 132h178z" glyph-name="grave" unicode="`"/>
<glyph d="M218 361h-174q16 117 119 169q60 29 136 29q148 0 210 -99q31 -52 31 -119v-206q0 -81 14 -135h-178q-5 18 -9 61q-60 -79 -166 -79q-108 0 -153 71q-23 37 -23 86q2 115 130 160q85 29 211 31v13q-2 75 -74 76q-62 0 -73 -55q-1 -2 -1 -3zM198 152q0 -42 42 -52 q10 -2 21 -2q56 0 87 50q18 30 18 67v20q-164 -10 -168 -83z" glyph-name="a" unicode="a"/>
<glyph d="M219 0h-173v720h173v-233q50 71 132 72q123 0 183 -107q42 -74 42 -181q0 -177 -100 -250q-53 -39 -125 -39q-83 1 -132 69v-51zM309 419q-86 0 -90 -135v-13q2 -147 90 -149q83 0 89 132v17q-8 141 -89 148z" glyph-name="b" horiz-adv-x="600" unicode="b"/>
<glyph d="M539 343h-174q-12 75 -74 76q-83 0 -89 -132v-17q1 -147 94 -148q57 2 73 65h173q-23 -137 -140 -185q-50 -20 -110 -20q-149 0 -221 109q-47 73 -47 179q0 172 112 246q65 43 155 43q137 0 204 -96q35 -51 44 -120z" glyph-name="c" horiz-adv-x="563" unicode="c"/>
<glyph d="M250 -18q-125 0 -186 109q-40 73 -40 179q0 178 101 251q54 38 125 38q83 -1 131 -68v229h173v-720h-173v53q-50 -70 -131 -71zM291 122q86 0 90 135v13q-2 147 -90 149q-83 0 -89 -132v-17q8 -141 89 -148z" glyph-name="d" horiz-adv-x="600" unicode="d"/>
<glyph d="M569 178q-28 -123 -141 -171q-57 -25 -127 -25q-155 0 -229 110q-48 73 -48 178q0 170 112 245q66 44 159 44q152 0 223 -110q47 -72 47 -177v-38h-362q15 -113 98 -115q64 1 86 59h182zM295 422q-72 -2 -89 -93h179q-18 92 -90 93z" glyph-name="e" unicode="e"/>
<glyph d="M5 409v132h63q1 151 107 187q29 10 63 10q59 0 93 -17v-107h-12q-66 0 -76 -46q-2 -12 -2 -27h90v-132h-90v-409h-173v409h-63z" glyph-name="f" horiz-adv-x="335" unicode="f"/>
<glyph d="M248 0q-124 0 -184 106q-40 71 -40 173q0 172 100 243q53 37 124 37q84 -1 133 -66v48h173v-559q0 -132 -108 -189q-60 -32 -142 -32q-177 0 -239 117q-18 35 -24 78h173q7 -48 59 -61q14 -3 28 -3q76 9 80 88v88q-52 -67 -133 -68zM291 140q89 2 90 139q-4 137 -90 140 q-82 0 -89 -121v-19q9 -132 89 -139z" glyph-name="g" horiz-adv-x="600" unicode="g"/>
<glyph d="M46 0v720h173v-252q52 90 154 91q110 0 156 -86q25 -47 25 -113v-360h-174v325q-2 93 -73 94q-57 0 -79 -58q-9 -24 -9 -53v-308h-173z" glyph-name="h" horiz-adv-x="599" unicode="h"/>
<glyph d="M46 588v132h173v-132h-173zM46 0v541h173v-541h-173z" glyph-name="i" horiz-adv-x="265" unicode="i"/>
<glyph d="M46 588v132h173v-132h-173zM219 -39q0 -153 -106 -190q-29 -10 -64 -10q-44 0 -80 17v131h7q57 0 67 45q3 13 3 32v555h173v-580z" glyph-name="j" horiz-adv-x="265" unicode="j"/>
<glyph d="M46 0v720h173v-395l156 216h196l-186 -238l202 -303h-208l-160 243v-243h-173z" glyph-name="k" horiz-adv-x="590" unicode="k"/>
<glyph d="M46 0v720h173v-720h-173z" glyph-name="l" horiz-adv-x="265" unicode="l"/>
<glyph d="M46 0v541h173v-71q49 88 146 89q99 0 141 -82q2 -3 3 -6q55 87 160 88q106 0 150 -86q24 -47 24 -113v-360h-173v325q-1 93 -62 94q-49 0 -69 -57q-8 -24 -8 -54v-308h-173v325q-1 93 -62 94q-49 0 -69 -57q-8 -24 -8 -54v-308h-173z" glyph-name="m" horiz-adv-x="889" unicode="m"/>
<glyph d="M46 0v541h173v-73q52 90 154 91q110 0 156 -86q25 -47 25 -113v-360h-174v325q-2 93 -73 94q-57 0 -79 -58q-9 -24 -9 -53v-308h-173z" glyph-name="n" horiz-adv-x="599" unicode="n"/>
<glyph d="M296 -18q-152 0 -225 110q-47 73 -47 178q0 171 113 246q67 43 159 43q150 0 222 -109q49 -73 49 -180q0 -169 -111 -244q-67 -44 -160 -44zM296 122q92 2 93 148q-4 146 -93 149q-84 0 -93 -121q-1 -14 -1 -28q0 -137 82 -147q6 -1 12 -1z" glyph-name="o" unicode="o"/>
<glyph d="M219 -221h-173v762h173v-54q50 71 132 72q125 0 185 -109q40 -73 40 -179q0 -179 -101 -252q-53 -37 -124 -37q-83 1 -132 69v-272zM309 419q-86 0 -90 -135v-13q0 -137 78 -148q6 -1 12 -1q83 0 89 132v17q-8 141 -89 148z" glyph-name="p" horiz-adv-x="600" unicode="p"/>
<glyph d="M250 -18q-125 0 -186 109q-40 73 -40 179q0 178 101 251q54 38 125 38q83 -1 131 -68v50h173v-762h-173v274q-50 -70 -131 -71zM291 122q86 0 90 135v13q-2 147 -90 149q-83 0 -89 -132v-17q8 -141 89 -148z" glyph-name="q" horiz-adv-x="600" unicode="q"/>
<glyph d="M46 0v541h173v-74q50 90 136 92q39 -1 54 -18v-146q-29 6 -62 6q-119 0 -127 -113q-1 -8 -1 -16v-272h-173z" glyph-name="r" horiz-adv-x="419" unicode="r"/>
<glyph d="M201 388q0 -33 63 -47q16 -4 53 -11q110 -19 153 -46q59 -40 60 -116q0 -94 -88 -147q-66 -39 -158 -39q-175 0 -236 118q-18 35 -24 78h174q6 -51 65 -63q13 -2 26 -2q67 1 68 44q0 32 -61 46q-15 4 -50 10q-107 18 -149 46q-60 41 -61 120q0 87 73 138q61 42 151 42 q160 0 221 -106q23 -40 29 -92h-172q-15 66 -83 67q-44 0 -53 -30q-1 -5 -1 -10z" glyph-name="s" horiz-adv-x="551" unicode="s"/>
<glyph d="M68 182v227h-62v132h62v125h174v-125h108v-132h-108v-202q0 -56 31 -70q17 -7 44 -7h32v-131q-37 -17 -102 -17q-164 0 -178 170q-1 15 -1 30z" glyph-name="t" horiz-adv-x="369" unicode="t"/>
<glyph d="M374 233v308h174v-541h-174v71q-51 -88 -150 -89q-111 0 -155 88q-23 47 -23 111v360h173v-325q1 -93 71 -94q54 0 75 57q9 24 9 54z" glyph-name="u" horiz-adv-x="593" unicode="u"/>
<glyph d="M188 0l-187 541h187l98 -339l14 -69l14 69l98 339h178l-187 -541h-215z" glyph-name="v" unicode="v"/>
<glyph d="M536 0l-76 317l-9 67l-11 -67l-76 -317h-215l-139 541h184l61 -339l13 -77l16 77l83 339h175l84 -339l16 -75l12 75l61 339h176l-140 -541h-215z" glyph-name="w" horiz-adv-x="901" unicode="w"/>
<glyph d="M371 0l-68 119l-25 55l-26 -55l-67 -119h-180l179 278l-168 263h198l57 -102l25 -54l25 54l57 102h180l-168 -263l179 -278h-198z" glyph-name="x" horiz-adv-x="574" unicode="x"/>
<glyph d="M135 -238q-46 0 -83 16v132h33q58 0 85 32q18 23 32 61l8 24l-205 514h184l90 -266l19 -85l22 85l85 266h176l-222 -575q-55 -145 -130 -184q-40 -20 -94 -20z" glyph-name="y" horiz-adv-x="586" unicode="y"/>
<glyph d="M30 0v131l263 278h-253v132h458v-132l-263 -278h279v-131h-484z" glyph-name="z" horiz-adv-x="544" unicode="z"/>
<glyph d="M196 270q85 -23 96 -116q2 -18 2 -38v-99q0 -58 35 -71q16 -6 41 -6h34v-121h-118q-164 2 -165 166v127q0 68 -27 85q-21 12 -73 12v122q67 0 85 23q15 21 15 74v126q2 165 165 166h118v-121h-34q-58 0 -70 -35q-6 -17 -6 -42v-98q0 -111 -72 -145q-12 -5 -26 -9z" glyph-name="braceleft" horiz-adv-x="424" unicode="{"/>
<glyph d="M55 -221v941h174v-941h-174z" glyph-name="bar" horiz-adv-x="285" unicode="|"/>
<glyph d="M228 270q-85 23 -96 116q-2 18 -2 38v98q0 58 -35 71q-16 6 -41 6h-34v121h119q163 -2 164 -166v-126q0 -68 27 -85q21 -12 73 -12v-122q-67 0 -85 -23q-15 -21 -15 -74v-127q-2 -165 -164 -166h-119v121h34q58 0 70 35q6 17 6 42v99q0 111 72 145q12 5 26 9z" glyph-name="braceright" horiz-adv-x="424" unicode="}"/>
<glyph d="M74 258v130q55 35 103 35q41 0 112 -35t110 -35q49 1 102 35v-130q-54 -35 -102 -35q-41 0 -113 35q-70 34 -109 34q-48 -1 -103 -34z" glyph-name="asciitilde" horiz-adv-x="576" unicode="~"/>
<glyph glyph-name="nbspace" horiz-adv-x="184" unicode=" "/>
<glyph d="M262 507v-145h-178v145h178zM260 298v-471h-173v471h173z" glyph-name="exclamdown" horiz-adv-x="346" unicode="¡"/>
<glyph d="M224 -65v98q-124 30 -170 150q-22 58 -22 129q0 171 110 246q37 24 82 35v97h142v-96q120 -28 163 -140q12 -32 17 -69h-173q-13 76 -75 77q-85 0 -89 -138v-12q6 -144 94 -149q58 2 73 66h173q-25 -141 -146 -187q-18 -7 -37 -11v-96h-142z" glyph-name="cent" horiz-adv-x="576" unicode="¢"/>
<glyph d="M38 0v147h69q60 37 61 94q0 10 -3 20h-108v74h61q-49 74 -51 135q0 84 71 140q67 51 165 51q137 0 203 -92q34 -50 42 -119h-177q-13 70 -67 71q-54 -8 -59 -56q0 -32 43 -93q20 -28 26 -37h144v-74h-113q1 -6 1 -15q-1 -54 -45 -99h247v-147h-510z" glyph-name="sterling" horiz-adv-x="576" unicode="£"/>
<glyph d="M167 110l-92 92l56 56q-11 32 -11 64q0 37 12 65l-57 57l92 92l55 -55q32 12 67 12t65 -12l55 55l92 -92l-55 -56q12 -30 12 -66q0 -35 -12 -65l55 -55l-92 -92l-56 56q-29 -12 -64 -12q-37 0 -65 12zM289 253q38 0 53 39q5 15 5 30q0 50 -36 66q-11 4 -22 4 q-40 0 -53 -41q-5 -14 -5 -29q0 -47 35 -64q11 -5 23 -5z" glyph-name="currency" horiz-adv-x="576" unicode="¤"/>
<glyph d="M73 115v75h124v42h-124v75h99l-169 336h194l69 -166l27 -83l28 83l69 166h183l-169 -336h98v-75h-123v-42h123v-75h-123v-115h-182v115h-124z" glyph-name="yen" horiz-adv-x="576" unicode="¥"/>
<glyph d="M55 351v369h174v-369h-174zM55 -221v370h174v-370h-174z" glyph-name="brokenbar" horiz-adv-x="285" unicode="¦"/>
<glyph d="M566 2q0 -109 -93 -164q-63 -37 -148 -37q-140 0 -212 88q-36 46 -46 108h173q8 -53 61 -64q11 -2 22 -2q68 1 69 47q0 42 -64 64q-21 7 -71 19q-111 25 -155 55q-67 48 -68 136q0 86 71 137q6 5 11 8q-41 44 -41 112q0 90 73 144q61 45 147 45q147 0 212 -99 q27 -43 35 -99h-172q-13 67 -74 68q-48 0 -55 -36q-1 -5 -1 -10q0 -35 62 -54q18 -5 61 -14q113 -24 159 -54q75 -51 76 -149q-2 -86 -74 -139q42 -43 42 -110zM191 274q0 -41 69 -64q22 -7 73 -19q49 -11 73 -18q34 26 35 61q0 41 -65 63q-21 8 -73 19q-52 12 -77 20 q-34 -25 -35 -62z" glyph-name="section" horiz-adv-x="632" unicode="§"/>
<glyph d="M142 588v132h131v-132h-131zM318 588v132h131v-132h-131z" glyph-name="dieresis" unicode="¨"/>
<glyph d="M419 -50q-168 0 -278 108q-107 106 -107 265q0 164 110 270q110 105 275 105q171 0 280 -110q105 -106 105 -265q0 -161 -109 -267q-110 -106 -276 -106zM419 3q146 0 238 99q82 90 82 221q0 141 -95 233q-92 88 -225 88q-142 0 -234 -99q-85 -91 -85 -222 q0 -146 99 -238q90 -82 220 -82zM627 382h-157q-12 40 -49 41q-56 -2 -57 -99q1 -97 57 -98q38 1 48 38h157q-18 -118 -126 -150q-34 -10 -73 -10q-135 0 -191 97q-29 52 -29 123q0 134 95 191q52 31 123 31q114 0 169 -79q26 -37 33 -85z" glyph-name="copyright" horiz-adv-x="839" unicode="©"/>
<glyph d="M152 539h-127q9 77 83 108q35 14 76 14q97 0 135 -69q16 -30 16 -65v-122q0 -59 14 -83h-130q-7 15 -9 32q-34 -43 -98 -43q-71 0 -95 52q-8 19 -8 42q2 67 81 96q50 17 118 19v10q-2 30 -28 31q-22 -1 -28 -22zM135 415q4 -26 27 -28q30 0 42 32q4 13 4 27v13 q-72 -5 -73 -44z" glyph-name="ordfeminine" horiz-adv-x="359" unicode="ª"/>
<glyph d="M323 12l-278 182v152l278 183v-157l-156 -102l156 -102v-156zM644 12l-277 182v152l277 183v-157l-156 -102l156 -102v-156z" glyph-name="guillemotleft" horiz-adv-x="693" unicode="«"/>
<glyph d="M74 257v131h427v-279h-145v148h-282z" glyph-name="logicalnot" horiz-adv-x="576" unicode="¬"/>
<glyph glyph-name="softhyphen" horiz-adv-x="372" unicode="­"/>
<glyph d="M294 187q-127 0 -204 87q-62 70 -62 168q0 122 89 195q73 61 177 61q129 0 205 -87q61 -71 61 -169q0 -120 -87 -193q-75 -62 -179 -62zM294 241q102 0 159 75q42 54 42 126q0 99 -73 158q-55 44 -128 44q-100 0 -159 -75q-42 -55 -42 -127q0 -103 76 -161 q53 -40 125 -40zM179 312v272h128q86 0 110 -58q6 -16 6 -34q-1 -40 -27 -61q10 -12 15 -30l20 -89h-105l-11 66q-10 18 -20 20h-16v-86h-100zM302 506h-23v-39h22q24 2 25 19q-2 19 -24 20z" glyph-name="registered" horiz-adv-x="588" unicode="®"/>
<glyph d="M138 601v106h316v-106h-316z" glyph-name="macron" unicode="¯"/>
<glyph d="M180 320q-89 0 -138 68q-32 44 -32 101q0 90 68 140q44 32 102 32q89 0 138 -68q32 -46 32 -104q0 -89 -68 -137q-45 -32 -102 -32zM180 420q36 0 50 39q5 14 5 30q0 50 -35 66q-10 4 -20 4q-38 0 -52 -41q-4 -14 -4 -29q0 -49 35 -65q10 -4 21 -4z" glyph-name="degree" horiz-adv-x="359" unicode="°"/>
<glyph d="M74 329v132h141v147h146v-147h140v-132h-140v-147h-146v147h-141zM74 0v131h427v-131h-427z" glyph-name="plusminus" horiz-adv-x="576" unicode="±"/>
<glyph d="M16 263v29q0 96 87 153q14 9 41 25q50 28 59 44q3 8 3 15q0 30 -26 34q-3 1 -6 1q-30 -2 -40 -38h-120q11 86 86 120q34 15 74 15q98 0 138 -67q17 -29 17 -64q0 -58 -73 -107q-12 -8 -36 -23q-45 -27 -61 -42h164v-95h-307z" glyph-name="twosuperior" horiz-adv-x="345" unicode="²"/>
<glyph d="M339 379q0 -66 -62 -102q-43 -25 -103 -25q-97 0 -142 72q-19 29 -24 66h114q13 -41 52 -42q38 5 42 36q-2 33 -50 34h-41v80h33q47 1 48 36q0 23 -24 29q-5 1 -9 1q-33 -2 -43 -38h-114q10 85 84 119q34 16 74 16q95 0 136 -63q19 -30 19 -63q-1 -50 -41 -71 q50 -29 51 -85z" glyph-name="threesuperior" horiz-adv-x="345" unicode="³"/>
<glyph d="M219 588l66 132h178l-95 -132h-149z" glyph-name="acute" unicode="´"/>
<glyph d="M445 -181h-134v363h-3q-165 0 -236 105q-40 60 -40 144q0 151 118 214q67 35 160 35h346v-861h-134v739h-77v-739z" glyph-name="paragraph" horiz-adv-x="709" unicode="¶"/>
<glyph d="M209 245v132h173v-132h-173z" glyph-name="periodcentered" unicode="·"/>
<glyph d="M249 -124q0 26 -59 33h-2l48 91h76l-28 -49q80 -6 97 -53q3 -9 3 -18q-2 -99 -236 -101v59q100 4 101 38z" glyph-name="cedilla" unicode="¸"/>
<glyph d="M47 263v95h69v159h-69v88h13q73 6 77 42v1h112v-290h69v-95h-271z" glyph-name="onesuperior" horiz-adv-x="345" unicode="¹"/>
<glyph d="M190 311q-106 0 -149 80q-21 40 -21 93q0 114 83 157q38 20 87 20q104 0 148 -80q22 -42 22 -97q0 -112 -84 -154q-38 -19 -86 -19zM190 410q39 2 40 74q-1 74 -40 75q-39 0 -39 -75q1 -73 39 -74z" glyph-name="ordmasculine" horiz-adv-x="380" unicode="º"/>
<glyph d="M370 12v156l157 102l-157 102v157l278 -183v-152zM49 12v156l157 102l-157 102v157l278 -183v-152z" glyph-name="guillemotright" horiz-adv-x="693" unicode="»"/>
<glyph d="M47 263v95h69v159h-69v88h13q73 6 77 42v1h112v-290h69v-95h-271zM191 0l400 643h144l-399 -643h-145zM805 0h-119v70h-169v105l173 210h115v-226h37v-89h-37v-70zM595 159h91v112z" glyph-name="onequarter" horiz-adv-x="846" unicode="¼"/>
<glyph d="M47 263v95h69v159h-69v88h13q73 6 77 42v1h112v-290h69v-95h-271zM170 0l399 643h145l-400 -643h-144zM518 0v29q0 96 87 153q13 9 40 25q50 28 59 44q3 8 3 15q-6 30 -32 34q-31 -2 -39 -37h-120q11 85 86 119q34 15 74 15q97 0 137 -66q17 -30 17 -64q0 -58 -72 -106 q-12 -9 -37 -24q-46 -28 -62 -43h166v-94h-307z" glyph-name="onehalf" horiz-adv-x="846" unicode="½"/>
<glyph d="M339 379q0 -66 -62 -102q-43 -25 -103 -25q-97 0 -142 72q-19 29 -24 66h114q13 -41 52 -42q38 5 42 36q-2 33 -50 34h-41v80h33q47 1 48 36q0 23 -24 29q-5 1 -9 1q-33 -2 -43 -38h-114q10 85 84 119q34 16 74 16q95 0 136 -63q19 -30 19 -63q-1 -50 -41 -71 q50 -29 51 -85zM189 0l399 643h145l-400 -643h-144zM805 0h-119v70h-169v105l173 210h115v-226h37v-89h-37v-70zM595 159h91v112z" glyph-name="threequarters" horiz-adv-x="846" unicode="¾"/>
<glyph d="M393 507v-145h-178v145h178zM33 10q0 78 66 136q11 10 34 28q54 41 70 69q14 26 14 55h174q0 -106 -79 -173q-13 -11 -38 -29q-49 -36 -60 -58q-7 -14 -7 -29q0 -45 41 -58q12 -3 24 -3q72 0 81 84v2h173q-17 -138 -125 -194q-57 -30 -131 -30q-135 0 -200 87 q-37 50 -37 113z" glyph-name="questiondown" horiz-adv-x="549" unicode="¿"/>
<glyph d="M434 727h-148l-96 132h178zM513 0l-39 116h-247l-39 -116h-184l243 680h218l243 -680h-195zM330 419l-56 -165h154l-56 165l-21 79z" glyph-name="Agrave" horiz-adv-x="712" unicode="À"/>
<glyph d="M280 727l67 132h178l-96 -132h-149zM513 0l-39 116h-247l-39 -116h-184l243 680h218l243 -680h-195zM330 419l-56 -165h154l-56 165l-21 79z" glyph-name="Aacute" horiz-adv-x="712" unicode="Á"/>
<glyph d="M410 727l-52 67l-53 -67h-148l100 132h201l100 -132h-148zM513 0l-39 116h-247l-39 -116h-184l243 680h218l243 -680h-195zM330 419l-56 -165h154l-56 165l-21 79z" glyph-name="Acircumflex" horiz-adv-x="712" unicode="Â"/>
<glyph d="M275 727h-94q0 107 72 128q13 4 27 4q27 0 85 -25q27 -12 41 -12q25 0 34 35v2h94q0 -107 -72 -128q-13 -4 -27 -4q-27 0 -84 25q-29 12 -43 12q-26 0 -33 -35v-2zM513 0l-39 116h-247l-39 -116h-184l243 680h218l243 -680h-195zM330 419l-56 -165h154l-56 165l-21 79z " glyph-name="Atilde" horiz-adv-x="712" unicode="Ã"/>
<glyph d="M204 727v132h131v-132h-131zM380 727v132h131v-132h-131zM513 0l-39 116h-247l-39 -116h-184l243 680h218l243 -680h-195zM330 419l-56 -165h154l-56 165l-21 79z" glyph-name="Adieresis" horiz-adv-x="712" unicode="Ä"/>
<glyph d="M357 727q-71 0 -107 55q-19 30 -19 66q0 69 56 104q32 19 70 19q72 0 107 -55q20 -31 20 -68q0 -68 -57 -102q-31 -19 -70 -19zM357 798q32 0 41 33q2 9 2 17q0 39 -29 50q-7 2 -14 2q-30 0 -39 -34q-2 -9 -2 -18q0 -40 30 -49q6 -1 11 -1zM513 0l-39 116h-247l-39 -116 h-184l243 680h218l243 -680h-195zM330 419l-56 -165h154l-56 165l-21 79z" glyph-name="Aring" horiz-adv-x="712" unicode="Å"/>
<glyph d="M461 0v144h-219l-54 -144h-184l271 680h672v-144h-304v-120h265v-139h-265v-133h304v-144h-486zM293 281h168v255h-72z" glyph-name="AE" horiz-adv-x="984" unicode="Æ"/>
<glyph d="M340 -124q0 25 -56 32q-2 1 -4 1l40 76q-167 19 -240 154q-46 85 -46 200q0 195 121 291q87 68 216 68q152 0 239 -97q52 -60 68 -146h-191q-27 93 -121 94q-95 0 -130 -103q-15 -46 -15 -107q0 -155 87 -196q27 -12 58 -12q82 0 113 72q4 8 6 16h192q-31 -146 -158 -206 q-58 -26 -126 -30l-18 -32q80 -6 97 -53q3 -9 3 -18q-2 -99 -235 -101v59q99 4 100 38z" glyph-name="Ccedilla" horiz-adv-x="702" unicode="Ç"/>
<glyph d="M375 727h-149l-95 132h178zM55 0v680h497v-144h-314v-119h274v-140h-274v-133h314v-144h-497z" glyph-name="Egrave" horiz-adv-x="589" unicode="È"/>
<glyph d="M221 727l67 132h178l-96 -132h-149zM55 0v680h497v-144h-314v-119h274v-140h-274v-133h314v-144h-497z" glyph-name="Eacute" horiz-adv-x="589" unicode="É"/>
<glyph d="M351 727l-53 67l-52 -67h-148l100 132h201l100 -132h-148zM55 0v680h497v-144h-314v-119h274v-140h-274v-133h314v-144h-497z" glyph-name="Ecircumflex" horiz-adv-x="589" unicode="Ê"/>
<glyph d="M145 727v132h131v-132h-131zM321 727v132h131v-132h-131zM55 0v680h497v-144h-314v-119h274v-140h-274v-133h314v-144h-497z" glyph-name="Edieresis" horiz-adv-x="589" unicode="Ë"/>
<glyph d="M224 727h-149l-96 132h178zM55 0v680h183v-680h-183z" glyph-name="Igrave" horiz-adv-x="293" unicode="Ì"/>
<glyph d="M70 727l66 132h178l-96 -132h-148zM55 0v680h183v-680h-183z" glyph-name="Iacute" horiz-adv-x="293" unicode="Í"/>
<glyph d="M199 727l-52 67l-53 -67h-148l100 132h201l100 -132h-148zM55 0v680h183v-680h-183z" glyph-name="Icircumflex" horiz-adv-x="293" unicode="Î"/>
<glyph d="M-7 727v132h131v-132h-131zM169 727v132h131v-132h-131zM55 0v680h183v-680h-183z" glyph-name="Idieresis" horiz-adv-x="293" unicode="Ï"/>
<glyph d="M55 0v273h-48v149h48v258h274q191 0 285 -123q66 -88 66 -218q0 -187 -128 -277q-90 -62 -223 -62h-274zM329 148q116 0 151 103q13 39 13 88q0 137 -91 178q-33 15 -73 15h-91v-110h124v-149h-124v-125h91z" glyph-name="Eth" horiz-adv-x="715" unicode="Ð"/>
<glyph d="M275 727h-94q0 107 72 128q13 4 27 4q27 0 85 -25q27 -12 41 -12q25 0 34 35v2h94q0 -107 -72 -128q-13 -4 -27 -4q-27 0 -84 25q-29 12 -43 12q-26 0 -33 -35v-2zM55 0v680h193l183 -318l56 -121l-10 439h182v-680h-193l-183 319l-55 119l10 -438h-183z" glyph-name="Ntilde" horiz-adv-x="715" unicode="Ñ"/>
<glyph d="M458 727h-149l-95 132h178zM381 -18q-185 0 -279 125q-68 93 -68 232q0 192 123 289q90 70 224 70q185 0 279 -126q68 -93 68 -233q0 -192 -123 -288q-90 -69 -224 -69zM381 131q107 0 144 105q16 45 16 103q0 147 -87 193q-33 17 -73 17q-104 0 -143 -101 q-17 -47 -17 -109q0 -144 86 -190q33 -18 74 -18z" glyph-name="Ograve" horiz-adv-x="763" unicode="Ò"/>
<glyph d="M304 727l67 132h178l-96 -132h-149zM381 -18q-185 0 -279 125q-68 93 -68 232q0 192 123 289q90 70 224 70q185 0 279 -126q68 -93 68 -233q0 -192 -123 -288q-90 -69 -224 -69zM381 131q107 0 144 105q16 45 16 103q0 147 -87 193q-33 17 -73 17q-104 0 -143 -101 q-17 -47 -17 -109q0 -144 86 -190q33 -18 74 -18z" glyph-name="Oacute" horiz-adv-x="763" unicode="Ó"/>
<glyph d="M434 727l-53 67l-52 -67h-148l99 132h202l100 -132h-148zM381 -18q-185 0 -279 125q-68 93 -68 232q0 192 123 289q90 70 224 70q185 0 279 -126q68 -93 68 -233q0 -192 -123 -288q-90 -69 -224 -69zM381 131q107 0 144 105q16 45 16 103q0 147 -87 193q-33 17 -73 17 q-104 0 -143 -101q-17 -47 -17 -109q0 -144 86 -190q33 -18 74 -18z" glyph-name="Ocircumflex" horiz-adv-x="763" unicode="Ô"/>
<glyph d="M299 727h-94q0 107 72 128q13 4 27 4q27 0 85 -25q27 -12 41 -12q25 0 33 35q1 1 1 2h94q0 -107 -72 -128q-13 -4 -27 -4q-27 0 -84 25q-29 12 -43 12q-26 0 -33 -35v-2zM381 -18q-185 0 -279 125q-68 93 -68 232q0 192 123 289q90 70 224 70q185 0 279 -126 q68 -93 68 -233q0 -192 -123 -288q-90 -69 -224 -69zM381 131q107 0 144 105q16 45 16 103q0 147 -87 193q-33 17 -73 17q-104 0 -143 -101q-17 -47 -17 -109q0 -144 86 -190q33 -18 74 -18z" glyph-name="Otilde" horiz-adv-x="763" unicode="Õ"/>
<glyph d="M228 727v132h131v-132h-131zM404 727v132h131v-132h-131zM381 -18q-185 0 -279 125q-68 93 -68 232q0 192 123 289q90 70 224 70q185 0 279 -126q68 -93 68 -233q0 -192 -123 -288q-90 -69 -224 -69zM381 131q107 0 144 105q16 45 16 103q0 147 -87 193q-33 17 -73 17 q-104 0 -143 -101q-17 -47 -17 -109q0 -144 86 -190q33 -18 74 -18z" glyph-name="Odieresis" horiz-adv-x="763" unicode="Ö"/>
<glyph d="M163 106l-92 92l125 125l-125 124l92 93l125 -125l125 125l92 -93l-125 -124l125 -125l-92 -92l-125 125z" glyph-name="multiply" horiz-adv-x="576" unicode="×"/>
<glyph d="M60 -47l77 115q-103 98 -103 271q0 192 123 289q90 70 224 70q87 0 158 -31l40 60h124l-78 -116q103 -98 103 -272q0 -192 -123 -288q-90 -69 -224 -69q-86 0 -158 30l-40 -59h-123zM221 339q0 -69 21 -115l208 310q-30 15 -69 15q-104 0 -143 -101q-17 -47 -17 -109z M381 131q107 0 144 105q16 45 16 103q0 68 -20 117l-209 -310q30 -15 69 -15z" glyph-name="Oslash" horiz-adv-x="763" unicode="Ø"/>
<glyph d="M424 727h-149l-96 132h178zM644 259q0 -155 -113 -229q-75 -48 -184 -48q-171 0 -249 110q-48 69 -48 167v421h182v-421q0 -98 72 -122q20 -7 43 -7q87 0 108 81q6 22 6 48v421h183v-421z" glyph-name="Ugrave" horiz-adv-x="693" unicode="Ù"/>
<glyph d="M270 727l66 132h178l-95 -132h-149zM644 259q0 -155 -113 -229q-75 -48 -184 -48q-171 0 -249 110q-48 69 -48 167v421h182v-421q0 -98 72 -122q20 -7 43 -7q87 0 108 81q6 22 6 48v421h183v-421z" glyph-name="Uacute" horiz-adv-x="693" unicode="Ú"/>
<glyph d="M399 727l-52 67l-53 -67h-148l100 132h202l100 -132h-149zM644 259q0 -155 -113 -229q-75 -48 -184 -48q-171 0 -249 110q-48 69 -48 167v421h182v-421q0 -98 72 -122q20 -7 43 -7q87 0 108 81q6 22 6 48v421h183v-421z" glyph-name="Ucircumflex" horiz-adv-x="693" unicode="Û"/>
<glyph d="M193 727v132h131v-132h-131zM369 727v132h131v-132h-131zM644 259q0 -155 -113 -229q-75 -48 -184 -48q-171 0 -249 110q-48 69 -48 167v421h182v-421q0 -98 72 -122q20 -7 43 -7q87 0 108 81q6 22 6 48v421h183v-421z" glyph-name="Udieresis" horiz-adv-x="693" unicode="Ü"/>
<glyph d="M257 727l66 132h178l-96 -132h-148zM233 0v231l-230 449h204l95 -212l28 -81l27 81l96 212h193l-231 -449v-231h-182z" glyph-name="Yacute" horiz-adv-x="649" unicode="Ý"/>
<glyph d="M55 0v680h183v-96h93q174 0 243 -105q35 -54 35 -128q0 -140 -116 -199q-67 -34 -160 -34h-95v-118h-183zM328 441h-90v-179h85q96 5 99 89q0 72 -65 87q-14 3 -29 3z" glyph-name="Thorn" horiz-adv-x="637" unicode="Þ"/>
<glyph d="M632 205q0 -116 -91 -178q-67 -45 -167 -45q-61 0 -107 18v122h76q95 0 113 63q3 13 3 26q0 73 -81 89q-18 3 -39 3h-44v123h15q93 2 94 86q0 57 -48 77q-19 8 -41 8q-85 0 -95 -94q-1 -12 -1 -24v-479h-173v468q0 171 122 237q61 32 144 32q170 0 235 -105 q31 -49 31 -112q-1 -89 -66 -137q119 -53 120 -178z" glyph-name="germandbls" horiz-adv-x="652" unicode="ß"/>
<glyph d="M373 588h-149l-96 132h178zM218 361h-174q16 117 119 169q60 29 136 29q148 0 210 -99q31 -52 31 -119v-206q0 -81 14 -135h-178q-5 18 -9 61q-60 -79 -166 -79q-108 0 -153 71q-23 37 -23 86q2 115 130 160q85 29 211 31v13q-2 75 -74 76q-62 0 -73 -55q-1 -2 -1 -3z M198 152q0 -42 42 -52q10 -2 21 -2q56 0 87 50q18 30 18 67v20q-164 -10 -168 -83z" glyph-name="agrave" unicode="à"/>
<glyph d="M219 588l66 132h178l-95 -132h-149zM218 361h-174q16 117 119 169q60 29 136 29q148 0 210 -99q31 -52 31 -119v-206q0 -81 14 -135h-178q-5 18 -9 61q-60 -79 -166 -79q-108 0 -153 71q-23 37 -23 86q2 115 130 160q85 29 211 31v13q-2 75 -74 76q-62 0 -73 -55 q-1 -2 -1 -3zM198 152q0 -42 42 -52q10 -2 21 -2q56 0 87 50q18 30 18 67v20q-164 -10 -168 -83z" glyph-name="aacute" unicode="á"/>
<glyph d="M348 588l-52 67l-53 -67h-148l100 132h201l100 -132h-148zM218 361h-174q16 117 119 169q60 29 136 29q148 0 210 -99q31 -52 31 -119v-206q0 -81 14 -135h-178q-5 18 -9 61q-60 -79 -166 -79q-108 0 -153 71q-23 37 -23 86q2 115 130 160q85 29 211 31v13q-2 75 -74 76 q-62 0 -73 -55q-1 -2 -1 -3zM198 152q0 -42 42 -52q10 -2 21 -2q56 0 87 50q18 30 18 67v20q-164 -10 -168 -83z" glyph-name="acircumflex" unicode="â"/>
<glyph d="M213 588h-94q0 107 72 128q13 4 27 4q28 0 86 -25q28 -12 41 -12q26 0 33 35v2h94q0 -107 -72 -128q-13 -4 -27 -4q-27 0 -83 25q-29 12 -43 12q-25 0 -34 -35v-2zM218 361h-174q16 117 119 169q60 29 136 29q148 0 210 -99q31 -52 31 -119v-206q0 -81 14 -135h-178 q-5 18 -9 61q-60 -79 -166 -79q-108 0 -153 71q-23 37 -23 86q2 115 130 160q85 29 211 31v13q-2 75 -74 76q-62 0 -73 -55q-1 -2 -1 -3zM198 152q0 -42 42 -52q10 -2 21 -2q56 0 87 50q18 30 18 67v20q-164 -10 -168 -83z" glyph-name="atilde" unicode="ã"/>
<glyph d="M142 588v132h131v-132h-131zM318 588v132h131v-132h-131zM218 361h-174q16 117 119 169q60 29 136 29q148 0 210 -99q31 -52 31 -119v-206q0 -81 14 -135h-178q-5 18 -9 61q-60 -79 -166 -79q-108 0 -153 71q-23 37 -23 86q2 115 130 160q85 29 211 31v13q-2 75 -74 76 q-62 0 -73 -55q-1 -2 -1 -3zM198 152q0 -42 42 -52q10 -2 21 -2q56 0 87 50q18 30 18 67v20q-164 -10 -168 -83z" glyph-name="adieresis" unicode="ä"/>
<glyph d="M296 588q-73 0 -108 56q-18 29 -18 65q0 70 57 105q31 18 69 18q72 0 107 -56q19 -30 19 -67q0 -69 -57 -103q-31 -18 -69 -18zM296 659q30 0 40 32q2 9 2 18q0 40 -30 49q-6 2 -12 2q-33 0 -40 -36q-2 -7 -2 -15q0 -40 31 -49q6 -1 11 -1zM218 361h-174q16 117 119 169 q60 29 136 29q148 0 210 -99q31 -52 31 -119v-206q0 -81 14 -135h-178q-5 18 -9 61q-60 -79 -166 -79q-108 0 -153 71q-23 37 -23 86q2 115 130 160q85 29 211 31v13q-2 75 -74 76q-62 0 -73 -55q-1 -2 -1 -3zM198 152q0 -42 42 -52q10 -2 21 -2q56 0 87 50q18 30 18 67v20 q-164 -10 -168 -83z" glyph-name="aring" unicode="å"/>
<glyph d="M223 361h-174q15 116 117 168q60 30 136 30q107 -1 171 -53q64 53 162 53q150 0 222 -108q47 -72 47 -175v-40h-356q12 -116 93 -117q63 1 85 59h182q-26 -121 -137 -170q-59 -26 -130 -26q-146 1 -217 110q-60 -110 -219 -110q-104 0 -152 66q-28 39 -28 90 q0 114 120 160q6 2 10 3q86 29 217 31v11q-2 75 -77 76q-61 -1 -72 -58zM635 422q-68 -2 -84 -90h174q-18 89 -90 90zM261 98q60 0 92 49q19 30 19 65v24q-170 -9 -175 -84q0 -41 42 -51q11 -3 22 -3z" glyph-name="ae" horiz-adv-x="931" unicode="æ"/>
<glyph d="M267 -124q0 26 -59 33h-2l41 76q-137 19 -193 137q-30 64 -30 148q0 172 112 246q65 43 155 43q137 0 204 -96q35 -51 44 -120h-174q-12 75 -74 76q-83 0 -89 -132v-17q1 -147 94 -148q57 2 73 65h173q-23 -137 -140 -185q-38 -15 -82 -19l-18 -32q80 -6 97 -53 q3 -9 3 -18q-2 -99 -235 -101v59q99 4 100 38z" glyph-name="ccedilla" horiz-adv-x="563" unicode="ç"/>
<glyph d="M373 588h-149l-96 132h178zM569 178q-28 -123 -141 -171q-57 -25 -127 -25q-155 0 -229 110q-48 73 -48 178q0 170 112 245q66 44 159 44q152 0 223 -110q47 -72 47 -177v-38h-362q15 -113 98 -115q64 1 86 59h182zM295 422q-72 -2 -89 -93h179q-18 92 -90 93z" glyph-name="egrave" unicode="è"/>
<glyph d="M219 588l66 132h178l-95 -132h-149zM569 178q-28 -123 -141 -171q-57 -25 -127 -25q-155 0 -229 110q-48 73 -48 178q0 170 112 245q66 44 159 44q152 0 223 -110q47 -72 47 -177v-38h-362q15 -113 98 -115q64 1 86 59h182zM295 422q-72 -2 -89 -93h179q-18 92 -90 93z " glyph-name="eacute" unicode="é"/>
<glyph d="M348 588l-52 67l-53 -67h-148l100 132h201l100 -132h-148zM569 178q-28 -123 -141 -171q-57 -25 -127 -25q-155 0 -229 110q-48 73 -48 178q0 170 112 245q66 44 159 44q152 0 223 -110q47 -72 47 -177v-38h-362q15 -113 98 -115q64 1 86 59h182zM295 422q-72 -2 -89 -93 h179q-18 92 -90 93z" glyph-name="ecircumflex" unicode="ê"/>
<glyph d="M142 588v132h131v-132h-131zM318 588v132h131v-132h-131zM569 178q-28 -123 -141 -171q-57 -25 -127 -25q-155 0 -229 110q-48 73 -48 178q0 170 112 245q66 44 159 44q152 0 223 -110q47 -72 47 -177v-38h-362q15 -113 98 -115q64 1 86 59h182zM295 422q-72 -2 -89 -93 h179q-18 92 -90 93z" glyph-name="edieresis" unicode="ë"/>
<glyph d="M210 588h-149l-96 132h178zM46 0v541h173v-541h-173z" glyph-name="igrave" horiz-adv-x="265" unicode="ì"/>
<glyph d="M56 588l66 132h178l-96 -132h-148zM46 0v541h173v-541h-173z" glyph-name="iacute" horiz-adv-x="265" unicode="í"/>
<glyph d="M185 588l-52 67l-53 -67h-148l100 132h201l100 -132h-148zM46 0v541h173v-541h-173z" glyph-name="icircumflex" horiz-adv-x="265" unicode="î"/>
<glyph d="M-21 588v132h131v-132h-131zM155 588v132h131v-132h-131zM46 0v541h173v-541h-173z" glyph-name="idieresis" horiz-adv-x="265" unicode="ï"/>
<glyph d="M296 -18q-152 0 -225 104q-47 68 -47 165q0 159 113 229q66 41 159 41q22 0 32 -1q-20 31 -49 65l-146 -41v72l90 25q-44 41 -102 79h204q30 -24 44 -37l133 37v-72l-77 -22q142 -162 142 -357q0 -166 -110 -241q-67 -46 -161 -46zM296 122q90 8 93 129q-8 124 -93 130 q-86 0 -93 -111q-1 -10 -1 -19q0 -120 83 -128q6 -1 11 -1z" glyph-name="eth" unicode="ð"/>
<glyph d="M217 588h-94q0 107 72 128q13 4 27 4q28 0 86 -25q28 -12 41 -12q26 0 33 35v2h94q0 -107 -72 -128q-13 -4 -27 -4q-27 0 -83 25q-29 12 -43 12q-25 0 -33 -35q-1 -1 -1 -2zM46 0v541h173v-73q52 90 154 91q110 0 156 -86q25 -47 25 -113v-360h-174v325q-2 93 -73 94 q-57 0 -79 -58q-9 -24 -9 -53v-308h-173z" glyph-name="ntilde" horiz-adv-x="599" unicode="ñ"/>
<glyph d="M373 588h-149l-96 132h178zM296 -18q-152 0 -225 110q-47 73 -47 178q0 171 113 246q67 43 159 43q150 0 222 -109q49 -73 49 -180q0 -169 -111 -244q-67 -44 -160 -44zM296 122q92 2 93 148q-4 146 -93 149q-84 0 -93 -121q-1 -14 -1 -28q0 -137 82 -147q6 -1 12 -1z " glyph-name="ograve" unicode="ò"/>
<glyph d="M219 588l66 132h178l-95 -132h-149zM296 -18q-152 0 -225 110q-47 73 -47 178q0 171 113 246q67 43 159 43q150 0 222 -109q49 -73 49 -180q0 -169 -111 -244q-67 -44 -160 -44zM296 122q92 2 93 148q-4 146 -93 149q-84 0 -93 -121q-1 -14 -1 -28q0 -137 82 -147 q6 -1 12 -1z" glyph-name="oacute" unicode="ó"/>
<glyph d="M348 588l-52 67l-53 -67h-148l100 132h201l100 -132h-148zM296 -18q-152 0 -225 110q-47 73 -47 178q0 171 113 246q67 43 159 43q150 0 222 -109q49 -73 49 -180q0 -169 -111 -244q-67 -44 -160 -44zM296 122q92 2 93 148q-4 146 -93 149q-84 0 -93 -121q-1 -14 -1 -28 q0 -137 82 -147q6 -1 12 -1z" glyph-name="ocircumflex" unicode="ô"/>
<glyph d="M213 588h-94q0 107 72 128q13 4 27 4q28 0 86 -25q28 -12 41 -12q26 0 33 35v2h94q0 -107 -72 -128q-13 -4 -27 -4q-27 0 -83 25q-29 12 -43 12q-25 0 -34 -35v-2zM296 -18q-152 0 -225 110q-47 73 -47 178q0 171 113 246q67 43 159 43q150 0 222 -109q49 -73 49 -180 q0 -169 -111 -244q-67 -44 -160 -44zM296 122q92 2 93 148q-4 146 -93 149q-84 0 -93 -121q-1 -14 -1 -28q0 -137 82 -147q6 -1 12 -1z" glyph-name="otilde" unicode="õ"/>
<glyph d="M142 588v132h131v-132h-131zM318 588v132h131v-132h-131zM296 -18q-152 0 -225 110q-47 73 -47 178q0 171 113 246q67 43 159 43q150 0 222 -109q49 -73 49 -180q0 -169 -111 -244q-67 -44 -160 -44zM296 122q92 2 93 148q-4 146 -93 149q-84 0 -93 -121q-1 -14 -1 -28 q0 -137 82 -147q6 -1 12 -1z" glyph-name="odieresis" unicode="ö"/>
<glyph d="M218 465v131h140v-131h-140zM74 258v130h427v-130h-427zM218 47v131h140v-131h-140z" glyph-name="divide" horiz-adv-x="576" unicode="÷"/>
<glyph d="M305 -18q-50 0 -92 12l-25 -52h-89l42 84q-109 71 -117 224v20q0 169 115 244q69 45 166 45q50 0 92 -12l25 51h88l-41 -84q107 -70 115 -221q1 -12 1 -23q0 -165 -111 -241q-71 -47 -169 -47zM198 270q0 -57 17 -92l117 238q-12 3 -27 3q-106 -2 -107 -149zM305 122 q102 0 106 137v11q0 55 -16 93l-117 -238q12 -3 27 -3z" glyph-name="oslash" horiz-adv-x="609" unicode="ø"/>
<glyph d="M374 588h-149l-96 132h178zM374 233v308h174v-541h-174v71q-51 -88 -150 -89q-111 0 -155 88q-23 47 -23 111v360h173v-325q1 -93 71 -94q54 0 75 57q9 24 9 54z" glyph-name="ugrave" horiz-adv-x="593" unicode="ù"/>
<glyph d="M220 588l66 132h178l-95 -132h-149zM374 233v308h174v-541h-174v71q-51 -88 -150 -89q-111 0 -155 88q-23 47 -23 111v360h173v-325q1 -93 71 -94q54 0 75 57q9 24 9 54z" glyph-name="uacute" horiz-adv-x="593" unicode="ú"/>
<glyph d="M349 588l-52 67l-53 -67h-148l100 132h201l100 -132h-148zM374 233v308h174v-541h-174v71q-51 -88 -150 -89q-111 0 -155 88q-23 47 -23 111v360h173v-325q1 -93 71 -94q54 0 75 57q9 24 9 54z" glyph-name="ucircumflex" horiz-adv-x="593" unicode="û"/>
<glyph d="M143 588v132h131v-132h-131zM319 588v132h131v-132h-131zM374 233v308h174v-541h-174v71q-51 -88 -150 -89q-111 0 -155 88q-23 47 -23 111v360h173v-325q1 -93 71 -94q54 0 75 57q9 24 9 54z" glyph-name="udieresis" horiz-adv-x="593" unicode="ü"/>
<glyph d="M215 588l67 132h178l-96 -132h-149zM135 -238q-46 0 -83 16v132h33q58 0 85 32q18 23 32 61l8 24l-205 514h184l90 -266l19 -85l22 85l85 266h176l-222 -575q-55 -145 -130 -184q-40 -20 -94 -20z" glyph-name="yacute" horiz-adv-x="586" unicode="ý"/>
<glyph d="M219 -221h-173v941h173v-233q50 71 132 72q123 0 183 -107q42 -74 42 -181q0 -177 -100 -250q-53 -39 -125 -39q-83 1 -132 69v-272zM309 419q-86 0 -90 -135v-13q2 -147 90 -149q83 0 89 132v17q-8 141 -89 148z" glyph-name="thorn" horiz-adv-x="600" unicode="þ"/>
</font>
</defs>
</svg>
