<?xml version="1.0" encoding="UTF-8"?>
<!DOCTYPE svg  PUBLIC '-//W3C//DTD SVG 1.1//EN'  'http://www.w3.org/Graphics/SVG/1.1/DTD/svg11.dtd'>
<svg version="1.1" xmlns="http://www.w3.org/2000/svg">
<defs>
<font id="Switzer-Medium" horiz-adv-x="576">
<font-face font-family="Switzer Medium" font-weight="500" ascent="800" bbox="-45 -234 1019 956" cap-height="680" descent="-200" panose-1="0 0 0 0 0 0 0 0 0 0" underline-position="-125" underline-thickness="50" unicode-range="U+0020-00FE" units-per-em="1000" x-height="533"/>
<missing-glyph/>
<glyph glyph-name="space" horiz-adv-x="196" unicode=" "/>
<glyph d="M108 176v504h106v-504h-106zM99 0v116h124v-116h-124z" glyph-name="exclam" horiz-adv-x="322" unicode="!"/>
<glyph d="M77 431l-20 249h114l-20 -249h-74zM255 431l-20 249h113l-19 -249h-74z" glyph-name="quotedbl" horiz-adv-x="406" unicode='"'/>
<glyph d="M110 0l32 157h-89v82h106l42 202h-81v81h97l33 158h96l-33 -158h167l33 158h96l-33 -158h90v-81h-106l-42 -202h81v-82h-98l-32 -157h-96l32 157h-167l-32 -157h-96zM255 239h167l42 202h-167z" glyph-name="numbersign" horiz-adv-x="719" unicode="#"/>
<glyph d="M236 -107v99q-144 25 -184 154q-7 20 -10 42h108q11 -80 93 -103q27 -8 58 -8q91 0 115 60q7 17 7 36q0 60 -73 89q-15 5 -115 32q-107 28 -146 76q-32 42 -32 104q0 86 71 138q45 33 108 41v97h101v-99q128 -25 166 -137q8 -26 11 -54h-109q-17 105 -131 106 q-84 0 -103 -62q-4 -14 -4 -30q0 -54 72 -81q11 -4 113 -30q111 -29 150 -80q31 -40 31 -100q0 -113 -97 -165q-44 -23 -99 -29v-96h-101z" glyph-name="dollar" unicode="$"/>
<glyph d="M172 293q-108 0 -143 96q-13 37 -13 85q0 128 86 168q32 14 70 14q104 0 141 -92q15 -39 15 -90q0 -130 -88 -168q-31 -13 -68 -13zM123 0l450 643h100l-449 -643h-101zM172 365q67 4 68 109q-7 103 -68 109q-66 -2 -67 -109q8 -102 67 -109zM623 -9q-106 0 -142 93 q-14 39 -14 88q0 128 85 168q32 15 71 15q104 0 141 -93q15 -39 15 -90q0 -132 -90 -169q-30 -12 -66 -12zM623 63q67 4 68 109q-5 106 -68 110q-60 0 -66 -90q-1 -10 -1 -20q8 -102 67 -109z" glyph-name="percent" horiz-adv-x="796" unicode="%"/>
<glyph d="M498 539q0 -89 -86 -139q-23 -13 -61 -29l164 -159q27 64 27 143h105q-1 -120 -58 -214l147 -141h-141l-69 66q-91 -79 -221 -79q-141 0 -208 85q-39 51 -39 118q0 117 111 181q12 7 26 14q-60 69 -65 131q-1 9 -1 17q0 89 78 133q48 27 112 27q109 0 157 -75 q22 -36 22 -79zM234 533q0 -42 45 -90q7 -8 14 -15q79 35 96 73q6 15 6 31q0 42 -37 63q-18 10 -40 10q-56 0 -77 -42q-7 -15 -7 -30zM167 195q0 -76 70 -105q33 -13 76 -13q86 1 145 53l-181 171q-5 5 -14 13l-12 12q-83 -48 -84 -131z" glyph-name="ampersand" horiz-adv-x="750" unicode="&amp;"/>
<glyph d="M77 431l-20 249h114l-20 -249h-74z" glyph-name="quotesingle" horiz-adv-x="228" unicode="'"/>
<glyph d="M208 -181q-149 233 -149 451q1 218 149 450h106q-141 -238 -141 -450q1 -214 141 -451h-106z" glyph-name="parenleft" horiz-adv-x="333" unicode="("/>
<glyph d="M125 -181h-106q141 238 141 451q-1 213 -141 450h106q149 -233 149 -450q-1 -219 -149 -451z" glyph-name="parenright" horiz-adv-x="333" unicode=")"/>
<glyph d="M306 431l-69 -51l-55 91l-55 -91l-69 51l69 79l-103 24l27 82l97 -41l-9 105h86l-9 -106l97 42l26 -82l-102 -24z" glyph-name="asterisk" horiz-adv-x="363" unicode="*"/>
<glyph d="M89 277v84h156v156h86v-156h155v-84h-155v-157h-86v157h-156z" glyph-name="plus" unicode="+"/>
<glyph d="M56 0v123h124v-66q0 -117 -45 -205q-6 -10 -11 -20h-58q38 105 40 168h-50z" glyph-name="comma" horiz-adv-x="236" unicode=","/>
<glyph d="M63 227v91h269v-91h-269z" glyph-name="hyphen" horiz-adv-x="396" unicode="-"/>
<glyph d="M56 0v123h124v-123h-124z" glyph-name="period" horiz-adv-x="236" unicode="."/>
<glyph d="M0 0l243 680h107l-242 -680h-108z" glyph-name="slash" horiz-adv-x="350" unicode="/"/>
<glyph d="M288 -13q-153 0 -217 138q-37 80 -37 196q0 219 121 298q57 37 133 37q152 0 216 -137q37 -81 37 -198q0 -220 -122 -298q-56 -36 -131 -36zM288 78q103 0 133 133q11 48 11 110q0 188 -91 232q-24 12 -53 12q-104 0 -134 -133q-11 -49 -11 -111q0 -184 89 -230 q26 -13 56 -13z" glyph-name="zero" unicode="0"/>
<glyph d="M129 0v83h122v422h-122v82h65q65 0 73 29q2 8 2 16v11h94v-560h121v-83h-355z" glyph-name="one" unicode="1"/>
<glyph d="M57 0v28q0 137 114 223q26 19 120 73q81 47 102 86q13 23 13 49q0 84 -73 102q-19 5 -39 5q-110 -2 -130 -109h-109q18 133 131 179q48 20 109 20q137 0 192 -93q27 -45 27 -103q0 -91 -93 -159q-18 -13 -114 -71q-93 -56 -123 -107q-11 -19 -17 -40h352v-83h-462z" glyph-name="two" unicode="2"/>
<glyph d="M537 181q0 -104 -89 -157q-63 -37 -157 -37q-155 0 -221 106q-26 42 -34 96h109q20 -111 145 -112q117 0 135 81q3 14 3 28q-2 103 -165 104h-31v82h25q152 1 153 96q0 78 -79 94q-18 4 -39 4q-115 -2 -135 -109h-107q18 130 128 178q51 21 115 21q142 0 199 -90 q27 -43 27 -97q-1 -94 -87 -132q104 -45 105 -156z" glyph-name="three" unicode="3"/>
<glyph d="M456 0h-109v144h-306v96l317 403h98v-415h89v-84h-89v-144zM134 228h213v280z" glyph-name="four" unicode="4"/>
<glyph d="M539 215q0 -128 -93 -189q-61 -39 -149 -39q-163 0 -225 113q-20 38 -27 84h107q16 -97 123 -106q11 -1 21 -1q111 0 132 94q4 20 4 42q0 98 -73 129q-28 12 -64 12q-87 -1 -129 -63l-96 9l20 343h418v-84h-332l-10 -159q60 43 138 43q163 0 215 -123q20 -47 20 -105z " glyph-name="five" unicode="5"/>
<glyph d="M547 207q0 -121 -95 -181q-61 -39 -145 -39h-2q-170 1 -232 152q-31 75 -31 182q0 218 124 298q59 37 139 37q143 0 209 -117q20 -36 30 -80h-109q-33 105 -134 106q-119 0 -150 -143q-8 -38 -9 -83q61 81 172 82q134 0 196 -88q37 -53 37 -126zM304 77q92 0 122 68 q11 26 11 58q0 85 -69 116q-29 13 -64 13q-93 0 -124 -70q-11 -26 -11 -59q0 -84 71 -114q29 -12 64 -12z" glyph-name="six" unicode="6"/>
<glyph d="M281 0h-112q47 306 233 559h-346v84h461v-68q-201 -273 -236 -575z" glyph-name="seven" unicode="7"/>
<glyph d="M292 -13q-143 0 -208 82q-36 47 -36 110q1 108 104 156q-81 48 -82 140q0 99 87 149q57 32 135 32q133 0 191 -79q32 -44 32 -102q-1 -93 -85 -140q96 -44 105 -138q1 -9 1 -17q0 -113 -102 -164q-60 -29 -142 -29zM292 569q-81 0 -108 -55q-9 -20 -9 -43q0 -73 69 -93 q22 -7 48 -7q79 0 107 54q11 20 11 45q0 72 -70 93q-22 6 -48 6zM292 74q98 0 127 64q10 22 10 47q0 73 -70 100q-30 11 -67 11q-97 0 -127 -63q-10 -23 -10 -49q0 -71 69 -98q30 -12 68 -12z" glyph-name="eight" unicode="8"/>
<glyph d="M280 656h2q178 -1 233 -169q23 -69 23 -162q0 -219 -122 -299q-60 -39 -139 -39q-137 0 -202 106q-24 38 -35 85h109q26 -91 116 -99q9 -1 16 -1q134 0 153 181q1 19 2 39q-59 -80 -160 -81q-137 0 -198 92q-36 54 -36 130q0 122 95 180q61 37 143 37zM284 566 q-91 0 -121 -69q-11 -26 -11 -58q0 -92 72 -122q27 -11 60 -11q89 0 119 71q12 28 12 62q0 87 -71 116q-27 11 -60 11z" glyph-name="nine" unicode="9"/>
<glyph d="M56 365v124h124v-124h-124zM56 0v123h124v-123h-124z" glyph-name="colon" horiz-adv-x="236" unicode=":"/>
<glyph d="M56 365v124h124v-124h-124zM56 0v123h124v-66q0 -117 -45 -205q-6 -10 -11 -20h-58q38 105 40 168h-50z" glyph-name="semicolon" horiz-adv-x="236" unicode=";"/>
<glyph d="M486 79l-397 200v81l397 200v-95l-296 -146l296 -145v-95z" glyph-name="less" unicode="&lt;"/>
<glyph d="M89 381v83h397v-83h-397zM89 174v83h397v-83h-397z" glyph-name="equal" unicode="="/>
<glyph d="M89 79v95l296 145l-296 146v95l397 -200v-81z" glyph-name="greater" unicode="&gt;"/>
<glyph d="M483 506q0 -77 -60 -130q-11 -10 -35 -28q-57 -43 -76 -75q-25 -41 -25 -97h-106q0 115 76 184q14 12 42 34q51 38 65 63q12 23 12 49q0 79 -73 97q-18 4 -38 4q-113 -2 -129 -118h-107q19 139 131 185q48 19 106 19q137 0 192 -90q25 -43 25 -97zM172 0v116h124v-116 h-124z" glyph-name="question" horiz-adv-x="528" unicode="?"/>
<glyph d="M738 16q-110 1 -130 96q-56 -85 -164 -96q-14 -1 -26 -1q-101 0 -149 66q-26 37 -26 86q2 114 121 153q88 29 239 31v15q-2 121 -110 122q-105 -2 -121 -101h-107q17 125 123 170q49 20 109 20q147 0 194 -112q18 -43 18 -98v-201q2 -84 65 -85q69 0 97 96q14 51 14 121 q0 166 -109 276q-113 112 -282 113q-169 0 -281 -114q-111 -111 -115 -280v-11q0 -178 114 -291q112 -109 282 -109q121 0 205 35l16 -44q-92 -38 -221 -38q-195 0 -321 123q-124 121 -129 309v15q0 190 120 316q119 125 305 134q13 1 25 1q191 0 316 -119 q123 -117 129 -297v-17q0 -187 -99 -254q-45 -30 -102 -30zM350 178q0 -58 57 -75q18 -5 38 -5q76 0 124 58q34 41 34 90v36q-214 -2 -246 -69q-7 -16 -7 -35z" glyph-name="at" horiz-adv-x="983" unicode="@"/>
<glyph d="M554 0l-58 153h-310l-58 -153h-112l262 680h131l262 -680h-117zM321 506l-101 -265h242l-101 265l-20 66z" glyph-name="A" horiz-adv-x="688" unicode="A"/>
<glyph d="M73 0v680h250q144 0 204 -84q31 -43 31 -101q0 -95 -86 -135q-3 -1 -5 -2q110 -33 126 -132q3 -16 3 -32q0 -125 -113 -172q-54 -22 -126 -22h-284zM320 591h-135v-200h133q91 0 117 60q8 18 8 38q0 72 -69 94q-25 8 -54 8zM343 304h-158v-215h169q88 0 117 61 q10 22 10 47q0 72 -72 97q-29 10 -66 10z" glyph-name="B" horiz-adv-x="635" unicode="B"/>
<glyph d="M647 478h-117q-26 87 -111 113q-28 8 -58 8q-119 0 -170 -110q-28 -63 -28 -150q0 -169 96 -230q44 -28 102 -28q104 0 152 83q9 16 15 34h118q-35 -127 -149 -181q-63 -30 -136 -30q-173 0 -256 130q-56 89 -56 222q0 197 118 291q80 63 197 63q140 0 221 -92 q46 -52 62 -123z" glyph-name="C" horiz-adv-x="686" unicode="C"/>
<glyph d="M73 0v680h233q191 0 282 -125q63 -87 63 -216q0 -191 -130 -280q-87 -59 -215 -59h-233zM306 91q145 0 202 111q29 58 29 137q0 161 -108 221q-53 29 -123 29h-121v-498h121z" glyph-name="D" horiz-adv-x="701" unicode="D"/>
<glyph d="M73 0v680h469v-90h-357v-194h319v-89h-319v-217h357v-90h-469z" glyph-name="E" horiz-adv-x="584" unicode="E"/>
<glyph d="M73 0v680h469v-90h-357v-214h319v-90h-319v-286h-112z" glyph-name="F" unicode="F"/>
<glyph d="M646 0h-81l-9 96q-63 -108 -202 -109q-162 0 -244 123q-61 91 -61 229q0 197 118 291q80 63 197 63q140 0 221 -92q46 -52 62 -123h-117q-28 90 -115 114q-26 7 -54 7q-119 0 -170 -110q-28 -63 -28 -150q0 -167 96 -229q45 -29 105 -29q110 0 154 92q18 41 21 94h-161 v87h268v-354z" glyph-name="G" horiz-adv-x="706" unicode="G"/>
<glyph d="M73 0v680h112v-285h330v285h112v-680h-112v304h-330v-304h-112z" glyph-name="H" horiz-adv-x="700" unicode="H"/>
<glyph d="M73 0v680h112v-680h-112z" glyph-name="I" horiz-adv-x="258" unicode="I"/>
<glyph d="M29 207h112q13 -125 111 -126q79 0 103 81q8 28 8 63v455h112v-445q0 -150 -97 -213q-53 -35 -126 -35q-132 0 -190 101q-29 51 -33 119z" glyph-name="J" horiz-adv-x="540" unicode="J"/>
<glyph d="M73 0v680h112v-326l293 326h136l-305 -334l315 -346h-146l-293 321v-321h-112z" glyph-name="K" horiz-adv-x="638" unicode="K"/>
<glyph d="M73 0v680h112v-589h329v-91h-441z" glyph-name="L" horiz-adv-x="544" unicode="L"/>
<glyph d="M73 0v680h151l192 -471l23 -72l23 72l190 471h147v-680h-112l3 551l-49 -146l-165 -405h-80l-166 406l-48 142l3 -548h-112z" glyph-name="M" horiz-adv-x="872" unicode="M"/>
<glyph d="M73 0v680h117l285 -444l43 -80l-3 524h112v-680h-117l-284 442l-44 83l3 -525h-112z" glyph-name="N" horiz-adv-x="700" unicode="N"/>
<glyph d="M376 -13q-179 0 -266 128q-61 90 -61 224q0 195 120 289q84 65 207 65q174 0 262 -124q64 -92 64 -230q0 -194 -121 -288q-83 -64 -205 -64zM376 81q128 0 182 110q30 62 30 148q0 163 -96 227q-50 33 -116 33q-127 0 -182 -109q-31 -63 -31 -151q0 -161 96 -225 q50 -33 117 -33z" glyph-name="O" horiz-adv-x="751" unicode="O"/>
<glyph d="M73 0v680h242q157 0 223 -97q34 -52 34 -122q0 -132 -108 -188q-62 -32 -147 -32h-132v-241h-112zM314 590h-129v-259h126q107 0 137 76q9 24 9 53q0 87 -74 117q-31 13 -69 13z" glyph-name="P" horiz-adv-x="610" unicode="P"/>
<glyph d="M376 -13q-179 0 -266 128q-61 90 -61 224q0 195 120 289q84 65 207 65q174 0 262 -124q64 -92 64 -230q-1 -166 -91 -262l91 -76l-57 -69l-109 91q-68 -36 -160 -36zM376 81q42 0 75 12l-100 84l57 70l121 -101q59 71 59 193q0 163 -96 227q-50 33 -116 33 q-129 0 -183 -111q-30 -63 -30 -149q0 -163 98 -227q49 -31 115 -31z" glyph-name="Q" horiz-adv-x="751" unicode="Q"/>
<glyph d="M73 0v680h255q145 0 207 -86q33 -47 33 -110q-1 -114 -96 -161q55 -30 77 -119l51 -204h-118l-41 182q-15 67 -54 83q-24 10 -69 10h-133v-275h-112zM325 590h-140v-225h138q96 0 122 68q8 21 8 45q0 77 -69 103q-27 9 -59 9z" glyph-name="R" horiz-adv-x="630" unicode="R"/>
<glyph d="M164 512q0 -63 77 -91q21 -7 127 -29q119 -25 164 -72q44 -47 44 -124q0 -120 -106 -175q-64 -34 -152 -34q-195 0 -261 143q-15 31 -22 68h117q31 -118 167 -119q109 0 135 66q7 17 7 36q0 70 -81 100q-22 8 -128 31q-116 26 -160 71q-43 45 -43 120q0 91 78 145 q65 45 163 45q161 0 230 -110q28 -44 38 -103h-119q-29 120 -152 121q-94 0 -117 -57q-6 -16 -6 -32z" glyph-name="S" horiz-adv-x="611" unicode="S"/>
<glyph d="M256 0v586h-227v94h565v-94h-226v-586h-112z" glyph-name="T" horiz-adv-x="623" unicode="T"/>
<glyph d="M620 259q0 -157 -110 -228q-69 -44 -167 -44q-160 0 -233 109q-44 67 -44 163v421h112v-421q0 -122 85 -165q35 -17 80 -17q109 0 148 91q17 40 17 91v421h112v-421z" glyph-name="U" horiz-adv-x="685" unicode="U"/>
<glyph d="M134 680l193 -506l20 -68l20 68l193 506h111l-262 -680h-130l-263 680h118z" glyph-name="V" horiz-adv-x="688" unicode="V"/>
<glyph d="M679 0l-137 470l-16 60l-15 -60l-137 -470h-129l-212 680h119l146 -507l16 -59l14 59l146 507h111l146 -507l15 -59l14 59l145 507h114l-212 -680h-128z" glyph-name="W" horiz-adv-x="1052" unicode="W"/>
<glyph d="M505 0l-155 218l-28 45l-29 -45l-154 -218h-119l243 351l-226 329h130l136 -189l31 -51l31 51l133 189h119l-225 -327l243 -353h-130z" glyph-name="X" horiz-adv-x="655" unicode="X"/>
<glyph d="M253 0v247l-241 433h126l145 -267l30 -69l29 69l145 267h119l-241 -433v-247h-112z" glyph-name="Y" horiz-adv-x="619" unicode="Y"/>
<glyph d="M49 0v94l390 492h-390v94h519v-94l-390 -492h390v-94h-519z" glyph-name="Z" horiz-adv-x="618" unicode="Z"/>
<glyph d="M103 -181v901h227v-76h-120v-749h120v-76h-227z" glyph-name="bracketleft" horiz-adv-x="350" unicode="["/>
<glyph d="M350 0h-107l-243 680h108z" glyph-name="backslash" horiz-adv-x="350" unicode="\"/>
<glyph d="M246 -181h-226v76h120v749h-120v76h226v-901z" glyph-name="bracketright" horiz-adv-x="350" unicode="]"/>
<glyph d="M101 382l146 298h81l146 -298h-87l-99 210l-100 -210h-87z" glyph-name="asciicircum" unicode="^"/>
<glyph d="M29 -94v81h380v-81h-380z" glyph-name="underscore" horiz-adv-x="438" unicode="_"/>
<glyph d="M343 599h-100l-115 121h127z" glyph-name="grave" unicode="`"/>
<glyph d="M166 359h-107q19 134 137 174q42 14 94 14q149 0 198 -109q19 -44 19 -100v-208q0 -87 18 -130h-112q-10 27 -12 78q-58 -81 -158 -90q-11 -1 -20 -1q-126 0 -167 82q-15 31 -15 71q2 113 120 154q88 29 239 31v12q-2 119 -118 120q-99 -2 -116 -98zM149 144 q0 -51 55 -68q18 -5 39 -5q80 0 126 63q31 42 31 94v24q-213 -2 -244 -73q-7 -16 -7 -35z" glyph-name="a" unicode="a"/>
<glyph d="M172 0h-107v720h107v-249q54 75 145 76q132 0 190 -114q35 -68 35 -165q0 -183 -108 -250q-51 -31 -117 -31q-93 1 -145 73v-60zM303 457q-107 0 -127 -130q-4 -28 -4 -59q0 -151 86 -183q21 -8 45 -8q103 0 125 124q5 31 5 67q0 149 -85 181q-21 8 -45 8z" glyph-name="b" horiz-adv-x="581" unicode="b"/>
<glyph d="M516 347h-107q-16 94 -98 108q-13 2 -26 2q-107 0 -131 -123q-6 -31 -6 -68q0 -148 90 -181q23 -9 50 -9q95 0 122 93q2 6 3 10h106q-25 -146 -154 -182q-37 -10 -79 -10q-144 0 -208 113q-39 69 -39 166q0 180 115 248q56 33 131 33q129 0 192 -93q30 -45 39 -107z" glyph-name="c" horiz-adv-x="554" unicode="c"/>
<glyph d="M265 -13q-134 0 -192 115q-34 68 -34 164q0 184 110 251q50 30 116 30q94 -1 145 -74v247h107v-720h-107v65q-54 -77 -145 -78zM279 77q105 0 126 125q5 30 5 64q0 146 -83 182q-22 9 -48 9q-102 0 -125 -121q-6 -32 -6 -70q0 -146 84 -180q22 -9 47 -9z" glyph-name="d" horiz-adv-x="581" unicode="d"/>
<glyph d="M538 174q-32 -138 -158 -175q-41 -12 -88 -12q-148 0 -213 113q-40 68 -40 166q0 179 115 247q56 34 133 34q146 0 210 -113q37 -67 37 -162v-26h-386q8 -139 103 -165q19 -5 41 -5q107 1 134 98h112zM287 458q-114 0 -135 -135q-1 -3 -1 -4h272q-18 127 -119 138 q-9 1 -17 1z" glyph-name="e" unicode="e"/>
<glyph d="M5 450v83h72v28q2 171 149 172q37 0 59 -10v-72h-10q-72 0 -86 -45q-6 -19 -6 -46v-27h102v-83h-102v-450h-106v450h-72z" glyph-name="f" horiz-adv-x="286" unicode="f"/>
<glyph d="M257 -3q-128 0 -185 112q-33 67 -33 162q0 182 107 247q48 29 111 29q101 -1 153 -70v56h107v-550q0 -140 -108 -193q-51 -24 -117 -24q-158 0 -215 110q-18 33 -24 74h107q12 -74 88 -93q20 -5 43 -5q114 0 119 119v10v90q-55 -74 -153 -74zM279 87q106 0 126 124 q5 29 5 61q0 139 -80 175q-24 10 -51 10q-106 0 -126 -125q-5 -29 -5 -61q0 -144 85 -176q21 -8 46 -8z" glyph-name="g" horiz-adv-x="582" unicode="g"/>
<glyph d="M65 0v720h107v-258q55 84 161 85q128 0 166 -105q14 -38 14 -86v-356h-106v334q0 116 -95 124h-12q-72 0 -108 -66q-20 -36 -20 -79v-313h-107z" glyph-name="h" horiz-adv-x="578" unicode="h"/>
<glyph d="M65 599v121h107v-121h-107zM65 0v533h107v-533h-107z" glyph-name="i" horiz-adv-x="236" unicode="i"/>
<glyph d="M65 599v121h107v-121h-107zM172 -62q-2 -171 -150 -172q-36 0 -56 10v78h9q70 0 84 44q6 18 6 46v589h107v-595z" glyph-name="j" horiz-adv-x="236" unicode="j"/>
<glyph d="M65 0v720h107v-413l212 226h128l-230 -237l244 -296h-133l-221 266v-266h-107z" glyph-name="k" horiz-adv-x="539" unicode="k"/>
<glyph d="M65 0v720h107v-720h-107z" glyph-name="l" horiz-adv-x="236" unicode="l"/>
<glyph d="M65 0v533h107v-68q52 81 150 82q111 -1 150 -92q54 91 163 92q117 0 157 -97q16 -41 16 -94v-356h-107v334q-2 123 -95 124q-65 0 -98 -66q-18 -36 -18 -79v-313h-107v334q-5 121 -95 124q-65 0 -98 -66q-18 -36 -18 -79v-313h-107z" glyph-name="m" horiz-adv-x="873" unicode="m"/>
<glyph d="M65 0v533h107v-71q55 84 161 85q128 0 166 -105q14 -38 14 -86v-356h-106v334q0 116 -95 124h-12q-72 0 -108 -66q-20 -36 -20 -79v-313h-107z" glyph-name="n" horiz-adv-x="578" unicode="n"/>
<glyph d="M288 -13q-147 0 -211 114q-38 68 -38 165q0 178 114 247q58 34 135 34q144 0 209 -112q40 -70 40 -169q0 -177 -115 -245q-57 -34 -134 -34zM288 77q115 0 136 131q4 27 4 58q0 150 -91 183q-23 8 -49 8q-109 0 -134 -121q-6 -32 -6 -70q0 -150 93 -182q22 -7 47 -7z" glyph-name="o" unicode="o"/>
<glyph d="M172 -220h-107v753h107v-64q54 77 145 78q134 0 192 -115q34 -68 34 -164q0 -184 -110 -251q-50 -30 -116 -30q-94 1 -145 74v-281zM304 457q-105 0 -127 -125q-5 -30 -5 -64q0 -148 85 -183q22 -8 47 -8q100 0 123 118q7 33 7 73q0 145 -83 180q-22 9 -47 9z" glyph-name="p" horiz-adv-x="582" unicode="p"/>
<glyph d="M265 -13q-134 0 -192 115q-34 68 -34 164q0 184 110 251q50 30 116 30q94 -1 145 -74v60h107v-753h-107v285q-54 -77 -145 -78zM279 77q105 0 126 125q5 30 5 64q0 146 -83 182q-22 9 -48 9q-102 0 -125 -121q-6 -32 -6 -70q0 -146 84 -180q22 -9 47 -9z" glyph-name="q" horiz-adv-x="582" unicode="q"/>
<glyph d="M65 0v533h107v-79q52 92 152 93q35 -1 51 -14v-94q-23 7 -57 7q-125 0 -143 -117q-3 -19 -3 -38v-291h-107z" glyph-name="r" horiz-adv-x="383" unicode="r"/>
<glyph d="M150 393q0 -49 67 -69q9 -2 108 -21q107 -20 142 -67q24 -33 24 -82q0 -90 -86 -137q-57 -30 -134 -30q-167 0 -221 123q-13 29 -19 64h107q14 -82 96 -100q19 -4 40 -4q87 0 106 53q4 12 4 24q0 48 -65 67q-9 3 -105 21q-107 21 -142 68q-24 34 -24 84q0 82 70 127 q53 33 130 33q171 0 214 -140q7 -23 10 -48h-107q-15 93 -100 102q-11 1 -22 1q-70 0 -88 -45q-5 -12 -5 -24z" glyph-name="s" horiz-adv-x="523" unicode="s"/>
<glyph d="M79 159v291h-72v83h72v123h107v-123h115v-83h-115v-285q0 -63 34 -80q22 -10 58 -10h21v-78q-21 -10 -67 -10q-151 4 -153 172z" glyph-name="t" horiz-adv-x="316" unicode="t"/>
<glyph d="M401 221v312h106v-533h-106v72q-53 -84 -159 -85q-127 0 -164 105q-13 38 -13 85v356h107v-334q2 -122 103 -123q70 0 106 66q20 37 20 79z" glyph-name="u" horiz-adv-x="572" unicode="u"/>
<glyph d="M200 0l-196 533h115l137 -396l13 -51l13 51l136 396h109l-196 -533h-131z" glyph-name="v" horiz-adv-x="531" unicode="v"/>
<glyph d="M531 0l-106 379l-11 60l-12 -60l-106 -379h-132l-154 533h115l98 -396l13 -60l14 60l112 396h113l113 -396l12 -57l12 57l98 396h110l-155 -533h-134z" glyph-name="w" horiz-adv-x="830" unicode="w"/>
<glyph d="M400 0l-114 164l-26 45l-26 -45l-111 -164h-118l197 277l-182 256h129l99 -144l26 -46l26 46l97 144h117l-182 -256l197 -277h-129z" glyph-name="x" horiz-adv-x="534" unicode="x"/>
<glyph d="M103 -233q-29 0 -59 10v82h29q51 0 74 23q25 26 56 100l16 37l-214 514h115l132 -332l23 -73l23 73l128 332h109l-242 -595q-47 -115 -95 -147q-36 -24 -95 -24z" glyph-name="y" horiz-adv-x="540" unicode="y"/>
<glyph d="M30 0v83l304 367h-292v83h419v-83l-304 -367h321v-83h-448z" glyph-name="z" horiz-adv-x="508" unicode="z"/>
<glyph d="M138 270q69 -12 86 -71q7 -27 7 -66v-160q0 -61 39 -73q14 -5 35 -5h36v-76h-85q-131 2 -132 135v175q0 70 -25 88q-22 15 -75 15v76q68 0 86 25q14 22 14 77v175q2 134 132 135h85v-76h-36q-59 0 -70 -41q-4 -16 -4 -37v-160q0 -95 -49 -122q-19 -10 -44 -14z" glyph-name="braceleft" horiz-adv-x="361" unicode="{"/>
<glyph d="M73 -221v941h107v-941h-107z" glyph-name="bar" horiz-adv-x="254" unicode="|"/>
<glyph d="M223 270q-69 11 -86 71q-7 27 -7 65v160q0 60 -37 73q-16 5 -38 5h-35v76h85q130 -2 131 -135v-175q0 -70 26 -88q21 -14 74 -14v-76q-68 0 -86 -26q-14 -22 -14 -77v-175q-2 -134 -131 -135h-85v76h35q59 0 71 40q4 16 4 38v160q0 94 49 122q18 10 44 15z" glyph-name="braceright" horiz-adv-x="361" unicode="}"/>
<glyph d="M89 279v80q51 34 96 34q39 0 109 -35q64 -32 96 -32q46 1 96 33v-80q-50 -34 -96 -34q-39 0 -109 35q-64 32 -96 32q-45 -1 -96 -33z" glyph-name="asciitilde" unicode="~"/>
<glyph glyph-name="nbspace" horiz-adv-x="196" unicode=" "/>
<glyph d="M223 489v-116h-124v116h124zM214 313v-504h-106v504h106z" glyph-name="exclamdown" horiz-adv-x="322" unicode="¡"/>
<glyph d="M243 -57v97q-126 24 -172 146q-21 58 -21 129q0 181 116 248q35 20 77 28v99h102v-98q115 -19 161 -123q15 -34 21 -72h-107q-17 96 -98 111q-13 2 -26 2q-111 0 -132 -132q-5 -30 -5 -63q0 -149 88 -185q24 -9 52 -9q96 0 122 101q1 4 2 7h107q-28 -141 -147 -181 q-19 -6 -38 -9v-96h-102z" glyph-name="cent" unicode="¢"/>
<glyph d="M56 0v90h68q73 44 74 119q0 20 -8 40h-118v71h75q-49 65 -60 103q-8 26 -8 52q0 89 74 141q58 40 145 40q140 0 200 -97q26 -42 32 -99h-108q-17 105 -123 106q-88 0 -107 -63q-4 -15 -4 -30q0 -42 47 -107q29 -41 33 -46h178v-71h-143q5 -20 5 -37q-1 -71 -63 -122h285 v-90h-474z" glyph-name="sterling" unicode="£"/>
<glyph d="M155 129l-57 57l55 56q-18 37 -18 76q0 43 19 78l-56 57l57 57l56 -56q34 20 78 20q43 -1 77 -20l55 55l57 -57l-55 -55q19 -37 19 -79q0 -41 -19 -77l55 -55l-57 -57l-55 55q-35 -19 -77 -19q-44 0 -78 20zM289 231q49 0 71 45q9 20 9 42q0 55 -42 79q-18 10 -38 10 q-50 0 -72 -46q-9 -20 -9 -43q0 -55 43 -78q18 -9 38 -9z" glyph-name="currency" unicode="¤"/>
<glyph d="M97 108v71h134v64h-134v71h105l-190 329h120l129 -235l30 -68l30 68l129 235h113l-190 -329h105v-71h-134v-64h134v-71h-134v-108h-113v108h-134z" glyph-name="yen" unicode="¥"/>
<glyph d="M73 354v366h107v-366h-107zM73 -221v366h107v-366h-107z" glyph-name="brokenbar" horiz-adv-x="254" unicode="¦"/>
<glyph d="M539 -10q0 -108 -94 -156q-54 -28 -126 -28q-144 0 -208 96q-27 40 -35 92h107q14 -86 96 -104q19 -4 39 -4q89 0 109 60q5 14 5 30q0 62 -77 90q-17 7 -120 31q-112 26 -152 73q-34 41 -34 104q0 77 70 131q9 6 17 11q-39 40 -39 105q0 91 74 139q53 33 128 33 q150 0 203 -112q17 -35 22 -77h-106q-17 108 -120 109q-75 0 -94 -54q-5 -14 -5 -29q0 -57 72 -82q16 -5 117 -27q113 -25 154 -72q36 -42 36 -108q0 -86 -81 -141q-1 -1 -2 -1q44 -42 44 -109zM147 279q0 -58 78 -86q16 -6 123 -31q46 -11 75 -22q55 39 56 92q0 63 -77 91 q-19 7 -122 30q-48 11 -77 22q-55 -38 -56 -96z" glyph-name="section" horiz-adv-x="627" unicode="§"/>
<glyph d="M179 599v121h89v-121h-89zM309 599v121h89v-121h-89z" glyph-name="dieresis" unicode="¨"/>
<glyph d="M424 -44q-166 0 -273 108q-102 105 -102 261q0 164 110 268q105 100 265 100q166 0 273 -108q102 -104 102 -260q0 -161 -108 -266q-107 -103 -267 -103zM424 -2q147 0 240 100q85 92 85 227q0 144 -97 238q-93 88 -228 88q-145 0 -239 -99q-87 -93 -87 -227 q0 -148 100 -241q92 -86 226 -86zM619 407h-97q-26 68 -96 71q-80 0 -103 -87q-8 -30 -8 -67q0 -119 72 -146q18 -7 39 -7q64 0 91 59l4 10h97q-24 -106 -123 -136q-31 -9 -66 -9q-126 0 -181 98q-30 55 -30 131q0 140 92 199q50 32 118 32q106 0 160 -76q22 -32 31 -72z " glyph-name="copyright" horiz-adv-x="848" unicode="©"/>
<glyph d="M119 540h-88q11 81 88 107q27 9 59 9q98 0 128 -73q10 -26 10 -55v-125q0 -55 12 -79h-89q-7 15 -9 43q-38 -51 -105 -51q-78 0 -100 55q-7 17 -7 36q2 67 76 95q56 18 135 18v8q-2 55 -56 56q-45 -1 -54 -44zM106 413q0 -31 36 -36q5 -1 10 -1q45 0 67 40q10 19 10 40 v13q-122 -3 -123 -56z" glyph-name="ordfeminine" horiz-adv-x="350" unicode="ª"/>
<glyph d="M318 33l-255 190v95l255 190v-113l-166 -124l166 -126v-112zM610 33l-255 190v95l255 190v-113l-166 -124l166 -126v-112z" glyph-name="guillemotleft" horiz-adv-x="688" unicode="«"/>
<glyph d="M89 277v84h397v-241h-86v157h-311z" glyph-name="logicalnot" unicode="¬"/>
<glyph glyph-name="softhyphen" horiz-adv-x="396" unicode="­"/>
<glyph d="M281 218q-120 0 -190 84q-54 65 -54 154q0 116 84 184q67 53 160 53q119 0 189 -83q54 -64 54 -153q0 -114 -83 -183q-67 -56 -160 -56zM281 260q97 0 153 73q41 53 41 124q0 96 -71 152q-53 42 -123 42q-98 0 -154 -74q-40 -52 -40 -121q0 -100 73 -156q52 -40 121 -40z M178 324v272h113q77 0 97 -53q5 -15 5 -31q-1 -43 -34 -62q17 -13 25 -41l20 -85h-66l-14 70q-7 29 -27 33q-6 1 -15 1h-39v-104h-65zM287 546h-44v-74h43q44 2 45 37q0 32 -35 36q-5 1 -9 1z" glyph-name="registered" horiz-adv-x="561" unicode="®"/>
<glyph d="M160 621v77h257v-77h-257z" glyph-name="macron" unicode="¯"/>
<glyph d="M175 341q-85 0 -130 65q-27 41 -27 92q0 85 65 131q41 27 92 27q84 0 130 -65q28 -41 28 -93q0 -84 -65 -129q-41 -28 -93 -28zM175 411q44 0 63 45q8 20 8 42q0 56 -40 78q-15 8 -31 8q-43 0 -62 -44q-8 -19 -8 -42q0 -56 38 -78q16 -9 32 -9z" glyph-name="degree" horiz-adv-x="350" unicode="°"/>
<glyph d="M89 324v84h156v156h86v-156h155v-84h-155v-157h-86v157h-156zM89 0v84h397v-84h-397z" glyph-name="plusminus" unicode="±"/>
<glyph d="M27 262v21q0 90 83 146q15 10 44 26q56 32 68 53q7 12 7 25q0 44 -42 51q-6 1 -12 1q-52 -2 -62 -54h-87q11 88 90 116q28 9 60 9q94 0 127 -66q13 -26 13 -56q0 -59 -68 -105l-39 -24q-66 -39 -83 -65q-4 -7 -7 -12h196v-66h-288z" glyph-name="twosuperior" horiz-adv-x="345" unicode="²"/>
<glyph d="M328 373q0 -70 -66 -102q-37 -18 -88 -18q-101 0 -141 74q-13 24 -17 53h85q13 -57 73 -58q59 0 66 44q1 5 1 10q-2 50 -81 51h-26v62h20q75 1 76 49q0 41 -45 46q-6 1 -11 1q-55 -2 -65 -54h-85q11 85 86 114q30 11 65 11q94 0 129 -63q13 -25 13 -54q-1 -54 -47 -76 q57 -29 58 -90z" glyph-name="threesuperior" horiz-adv-x="345" unicode="³"/>
<glyph d="M234 599l88 121h126l-114 -121h-100z" glyph-name="acute" unicode="´"/>
<glyph d="M404 -181h-102v414h-7q-152 0 -218 94q-38 55 -38 130q0 130 105 188q63 35 152 35h273v-861h-101v768h-64v-768z" glyph-name="paragraph" horiz-adv-x="631" unicode="¶"/>
<glyph d="M235 245v120h107v-120h-107z" glyph-name="periodcentered" unicode="·"/>
<glyph d="M281 -131q0 24 -39 33q-16 3 -41 6l50 92h59l-30 -54q85 -13 87 -72q-2 -92 -204 -95v48q117 4 118 42z" glyph-name="cedilla" unicode="¸"/>
<glyph d="M66 262v66h71v217h-71v65h29q52 0 56 24q1 4 1 8v5h78v-319h71v-66h-235z" glyph-name="onesuperior" horiz-adv-x="345" unicode="¹"/>
<glyph d="M178 316q-102 0 -141 83q-17 37 -17 86q0 118 85 156q32 15 73 15q101 0 139 -82q18 -39 18 -89q0 -119 -87 -156q-32 -13 -70 -13zM178 386q66 2 67 99q-6 94 -67 99q-67 -2 -68 -99q4 -96 68 -99z" glyph-name="ordmasculine" horiz-adv-x="355" unicode="º"/>
<glyph d="M370 33v112l166 126l-166 124v113l255 -190v-95zM78 33v112l165 126l-165 124v113l254 -190v-95z" glyph-name="guillemotright" horiz-adv-x="688" unicode="»"/>
<glyph d="M66 262v66h71v217h-71v65h29q52 0 56 24q1 4 1 8v5h78v-319h71v-66h-235zM169 0l450 643h100l-449 -643h-101zM736 0h-87v79h-176v77l183 229h80v-240h47v-66h-47v-79zM537 145h112v143z" glyph-name="onequarter" horiz-adv-x="796" unicode="¼"/>
<glyph d="M66 262v66h71v217h-71v65h29q52 0 56 24q1 4 1 8v5h78v-319h71v-66h-235zM140 0l449 643h101l-450 -643h-100zM478 0v21q0 90 82 146q15 10 45 27q56 31 68 51q7 13 7 26q0 45 -42 51q-6 1 -11 1q-53 -2 -63 -54h-87q11 89 90 117q28 9 60 9q95 0 128 -68q12 -25 12 -55 q0 -58 -68 -104q-13 -8 -38 -23q-66 -40 -83 -66q-4 -7 -7 -12h196v-67h-289z" glyph-name="onehalf" horiz-adv-x="796" unicode="½"/>
<glyph d="M328 373q0 -70 -66 -102q-37 -18 -88 -18q-101 0 -141 74q-13 24 -17 53h85q13 -57 73 -58q59 0 66 44q1 5 1 10q-2 50 -81 51h-26v62h20q75 1 76 49q0 41 -45 46q-6 1 -11 1q-55 -2 -65 -54h-85q11 85 86 114q30 11 65 11q94 0 129 -63q13 -25 13 -54q-1 -54 -47 -76 q57 -29 58 -90zM166 0l449 643h101l-450 -643h-100zM736 0h-87v79h-176v77l183 229h80v-240h47v-66h-47v-79zM537 145h112v143z" glyph-name="threequarters" horiz-adv-x="796" unicode="¾"/>
<glyph d="M356 489v-116h-124v116h124zM45 -17q0 77 60 130q11 10 35 29q57 43 76 75q24 41 24 96h107q0 -114 -76 -183q-13 -12 -42 -33q-51 -39 -65 -65q-12 -23 -12 -49q0 -79 73 -97q18 -4 38 -4q113 2 129 118h107q-19 -140 -133 -186q-47 -18 -105 -18q-136 0 -190 90 q-26 43 -26 97z" glyph-name="questiondown" horiz-adv-x="528" unicode="¿"/>
<glyph d="M405 745h-100l-115 121h127zM554 0l-58 153h-310l-58 -153h-112l262 680h131l262 -680h-117zM321 506l-101 -265h242l-101 265l-20 66z" glyph-name="Agrave" horiz-adv-x="688" unicode="À"/>
<glyph d="M296 745l88 121h127l-115 -121h-100zM554 0l-58 153h-310l-58 -153h-112l262 680h131l262 -680h-117zM321 506l-101 -265h242l-101 265l-20 66z" glyph-name="Aacute" horiz-adv-x="688" unicode="Á"/>
<glyph d="M418 745l-67 72l-67 -72h-97l99 121h129l100 -121h-97zM554 0l-58 153h-310l-58 -153h-112l262 680h131l262 -680h-117zM321 506l-101 -265h242l-101 265l-20 66z" glyph-name="Acircumflex" horiz-adv-x="688" unicode="Â"/>
<glyph d="M254 745h-62q0 103 68 119q9 2 19 2q39 0 88 -34q31 -22 46 -22q30 0 34 54v2h62q0 -105 -70 -119q-9 -2 -17 -2q-38 0 -86 33q-33 22 -48 22q-30 0 -34 -53v-2zM554 0l-58 153h-310l-58 -153h-112l262 680h131l262 -680h-117zM321 506l-101 -265h242l-101 265l-20 66z " glyph-name="Atilde" horiz-adv-x="688" unicode="Ã"/>
<glyph d="M241 745v121h89v-121h-89zM371 745v121h89v-121h-89zM554 0l-58 153h-310l-58 -153h-112l262 680h131l262 -680h-117zM321 506l-101 -265h242l-101 265l-20 66z" glyph-name="Adieresis" horiz-adv-x="688" unicode="Ä"/>
<glyph d="M350 745q-63 0 -92 51q-14 25 -14 54q0 62 51 92q25 14 55 14q62 0 92 -50q15 -26 15 -56q0 -62 -51 -91q-26 -14 -56 -14zM350 799q36 0 45 34q2 9 2 17q0 38 -32 49q-7 2 -15 2q-35 0 -44 -34q-2 -9 -2 -17q0 -38 31 -49q8 -2 15 -2zM554 0l-58 153h-310l-58 -153h-112 l262 680h131l262 -680h-117zM321 506l-101 -265h242l-101 265l-20 66z" glyph-name="Aring" horiz-adv-x="688" unicode="Å"/>
<glyph d="M466 0v171h-262l-74 -171h-114l302 680h603v-90h-343v-197h306v-89h-306v-214h343v-90h-455zM243 260h223v330h-79z" glyph-name="AE" horiz-adv-x="964" unicode="Æ"/>
<glyph d="M358 -131q0 24 -39 33q-16 3 -41 6l44 81q-162 16 -231 153q-42 83 -42 197q0 197 118 291q80 63 197 63q140 0 221 -92q46 -52 62 -123h-117q-26 87 -111 113q-28 8 -58 8q-119 0 -170 -110q-28 -63 -28 -150q0 -169 96 -230q44 -28 102 -28q104 0 152 83q9 16 15 34 h118q-35 -127 -148 -181q-55 -26 -118 -29l-23 -42q85 -13 87 -72q-2 -92 -204 -95v48q117 4 118 42z" glyph-name="Ccedilla" horiz-adv-x="686" unicode="Ç"/>
<glyph d="M363 745h-100l-114 121h126zM73 0v680h469v-90h-357v-194h319v-89h-319v-217h357v-90h-469z" glyph-name="Egrave" horiz-adv-x="584" unicode="È"/>
<glyph d="M255 745l87 121h127l-115 -121h-99zM73 0v680h469v-90h-357v-194h319v-89h-319v-217h357v-90h-469z" glyph-name="Eacute" horiz-adv-x="584" unicode="É"/>
<glyph d="M377 745l-67 72l-68 -72h-97l100 121h128l100 -121h-96zM73 0v680h469v-90h-357v-194h319v-89h-319v-217h357v-90h-469z" glyph-name="Ecircumflex" horiz-adv-x="584" unicode="Ê"/>
<glyph d="M199 745v121h89v-121h-89zM330 745v121h88v-121h-88zM73 0v680h469v-90h-357v-194h319v-89h-319v-217h357v-90h-469z" glyph-name="Edieresis" horiz-adv-x="584" unicode="Ë"/>
<glyph d="M183 745h-99l-115 121h126zM73 0v680h112v-680h-112z" glyph-name="Igrave" horiz-adv-x="258" unicode="Ì"/>
<glyph d="M75 745l88 121h126l-115 -121h-99zM73 0v680h112v-680h-112z" glyph-name="Iacute" horiz-adv-x="258" unicode="Í"/>
<glyph d="M197 745l-67 72l-68 -72h-97l100 121h128l100 -121h-96zM73 0v680h112v-680h-112z" glyph-name="Icircumflex" horiz-adv-x="258" unicode="Î"/>
<glyph d="M20 745v121h88v-121h-88zM150 745v121h88v-121h-88zM73 0v680h112v-680h-112z" glyph-name="Idieresis" horiz-adv-x="258" unicode="Ï"/>
<glyph d="M73 0v304h-60v94h60v282h233q191 0 282 -125q63 -87 63 -216q0 -191 -130 -280q-87 -59 -215 -59h-233zM306 91q145 0 202 111q29 58 29 137q0 161 -108 221q-53 29 -123 29h-121v-191h175v-94h-175v-213h121z" glyph-name="Eth" horiz-adv-x="701" unicode="Ð"/>
<glyph d="M254 745h-62q0 103 68 119q9 2 19 2q39 0 88 -34q31 -22 46 -22q30 0 34 54v2h62q0 -105 -70 -119q-9 -2 -17 -2q-38 0 -86 33q-33 22 -48 22q-30 0 -34 -53v-2zM73 0v680h117l285 -444l43 -80l-3 524h112v-680h-117l-284 442l-44 83l3 -525h-112z" glyph-name="Ntilde" horiz-adv-x="700" unicode="Ñ"/>
<glyph d="M430 745h-100l-115 121h127zM376 -13q-179 0 -266 128q-61 90 -61 224q0 195 120 289q84 65 207 65q174 0 262 -124q64 -92 64 -230q0 -194 -121 -288q-83 -64 -205 -64zM376 81q128 0 182 110q30 62 30 148q0 163 -96 227q-50 33 -116 33q-127 0 -182 -109 q-31 -63 -31 -151q0 -161 96 -225q50 -33 117 -33z" glyph-name="Ograve" horiz-adv-x="751" unicode="Ò"/>
<glyph d="M321 745l88 121h127l-115 -121h-100zM376 -13q-179 0 -266 128q-61 90 -61 224q0 195 120 289q84 65 207 65q174 0 262 -124q64 -92 64 -230q0 -194 -121 -288q-83 -64 -205 -64zM376 81q128 0 182 110q30 62 30 148q0 163 -96 227q-50 33 -116 33q-127 0 -182 -109 q-31 -63 -31 -151q0 -161 96 -225q50 -33 117 -33z" glyph-name="Oacute" horiz-adv-x="751" unicode="Ó"/>
<glyph d="M443 745l-67 72l-67 -72h-97l99 121h129l100 -121h-97zM376 -13q-179 0 -266 128q-61 90 -61 224q0 195 120 289q84 65 207 65q174 0 262 -124q64 -92 64 -230q0 -194 -121 -288q-83 -64 -205 -64zM376 81q128 0 182 110q30 62 30 148q0 163 -96 227q-50 33 -116 33 q-127 0 -182 -109q-31 -63 -31 -151q0 -161 96 -225q50 -33 117 -33z" glyph-name="Ocircumflex" horiz-adv-x="751" unicode="Ô"/>
<glyph d="M280 745h-63q0 103 68 119q9 2 19 2q39 0 88 -34q31 -22 46 -22q30 0 34 54v2h62q0 -105 -70 -119q-9 -2 -17 -2q-38 0 -86 33q-33 22 -48 22q-30 0 -33 -53v-2zM376 -13q-179 0 -266 128q-61 90 -61 224q0 195 120 289q84 65 207 65q174 0 262 -124q64 -92 64 -230 q0 -194 -121 -288q-83 -64 -205 -64zM376 81q128 0 182 110q30 62 30 148q0 163 -96 227q-50 33 -116 33q-127 0 -182 -109q-31 -63 -31 -151q0 -161 96 -225q50 -33 117 -33z" glyph-name="Otilde" horiz-adv-x="751" unicode="Õ"/>
<glyph d="M266 745v121h89v-121h-89zM396 745v121h89v-121h-89zM376 -13q-179 0 -266 128q-61 90 -61 224q0 195 120 289q84 65 207 65q174 0 262 -124q64 -92 64 -230q0 -194 -121 -288q-83 -64 -205 -64zM376 81q128 0 182 110q30 62 30 148q0 163 -96 227q-50 33 -116 33 q-127 0 -182 -109q-31 -63 -31 -151q0 -161 96 -225q50 -33 117 -33z" glyph-name="Odieresis" horiz-adv-x="751" unicode="Ö"/>
<glyph d="M162 133l-60 60l127 126l-126 127l59 58l126 -126l126 126l59 -58l-126 -127l127 -126l-60 -60l-126 127z" glyph-name="multiply" unicode="×"/>
<glyph d="M75 -35l72 106q-98 94 -98 268q0 195 120 289q84 65 207 65q96 0 168 -40l42 62h90l-72 -106q98 -97 98 -270q0 -194 -121 -288q-83 -64 -205 -64q-97 0 -169 40l-42 -62h-90zM163 339q1 -109 47 -176l277 406q-47 30 -111 30q-127 0 -182 -109q-31 -63 -31 -151zM376 81 q128 0 182 110q30 62 30 148q-1 111 -47 178l-277 -406q47 -30 112 -30z" glyph-name="Oslash" horiz-adv-x="751" unicode="Ø"/>
<glyph d="M397 745h-100l-114 121h126zM620 259q0 -157 -110 -228q-69 -44 -167 -44q-160 0 -233 109q-44 67 -44 163v421h112v-421q0 -122 85 -165q35 -17 80 -17q109 0 148 91q17 40 17 91v421h112v-421z" glyph-name="Ugrave" horiz-adv-x="685" unicode="Ù"/>
<glyph d="M288 745l88 121h127l-115 -121h-100zM620 259q0 -157 -110 -228q-69 -44 -167 -44q-160 0 -233 109q-44 67 -44 163v421h112v-421q0 -122 85 -165q35 -17 80 -17q109 0 148 91q17 40 17 91v421h112v-421z" glyph-name="Uacute" horiz-adv-x="685" unicode="Ú"/>
<glyph d="M410 745l-67 72l-67 -72h-97l99 121h129l100 -121h-97zM620 259q0 -157 -110 -228q-69 -44 -167 -44q-160 0 -233 109q-44 67 -44 163v421h112v-421q0 -122 85 -165q35 -17 80 -17q109 0 148 91q17 40 17 91v421h112v-421z" glyph-name="Ucircumflex" horiz-adv-x="685" unicode="Û"/>
<glyph d="M233 745v121h89v-121h-89zM363 745v121h89v-121h-89zM620 259q0 -157 -110 -228q-69 -44 -167 -44q-160 0 -233 109q-44 67 -44 163v421h112v-421q0 -122 85 -165q35 -17 80 -17q109 0 148 91q17 40 17 91v421h112v-421z" glyph-name="Udieresis" horiz-adv-x="685" unicode="Ü"/>
<glyph d="M262 745l88 121h126l-115 -121h-99zM253 0v247l-241 433h126l145 -267l30 -69l29 69l145 267h119l-241 -433v-247h-112z" glyph-name="Yacute" horiz-adv-x="619" unicode="Ý"/>
<glyph d="M73 0v680h112v-105h130q157 0 223 -97q34 -52 34 -122q0 -132 -108 -189q-62 -32 -147 -32h-132v-135h-112zM314 485h-129v-260h126q108 0 137 78q9 24 9 52q0 84 -71 116q-32 14 -72 14z" glyph-name="Thorn" horiz-adv-x="610" unicode="Þ"/>
<glyph d="M581 197q0 -124 -102 -178q-61 -32 -147 -32q-67 0 -106 13v77h86q140 0 160 94q3 14 3 29q-2 128 -169 129h-27v81h10q132 5 136 112q0 83 -69 109q-25 9 -56 9q-119 0 -127 -126q-1 -10 -1 -19v-495h-107v489q0 168 122 220q49 21 111 21q158 0 212 -105q22 -44 22 -98 q-1 -99 -81 -145q129 -50 130 -185z" glyph-name="germandbls" horiz-adv-x="615" unicode="ß"/>
<glyph d="M343 599h-100l-115 121h127zM166 359h-107q19 134 137 174q42 14 94 14q149 0 198 -109q19 -44 19 -100v-208q0 -87 18 -130h-112q-10 27 -12 78q-58 -81 -158 -90q-11 -1 -20 -1q-126 0 -167 82q-15 31 -15 71q2 113 120 154q88 29 239 31v12q-2 119 -118 120 q-99 -2 -116 -98zM149 144q0 -51 55 -68q18 -5 39 -5q80 0 126 63q31 42 31 94v24q-213 -2 -244 -73q-7 -16 -7 -35z" glyph-name="agrave" unicode="à"/>
<glyph d="M234 599l88 121h126l-114 -121h-100zM166 359h-107q19 134 137 174q42 14 94 14q149 0 198 -109q19 -44 19 -100v-208q0 -87 18 -130h-112q-10 27 -12 78q-58 -81 -158 -90q-11 -1 -20 -1q-126 0 -167 82q-15 31 -15 71q2 113 120 154q88 29 239 31v12q-2 119 -118 120 q-99 -2 -116 -98zM149 144q0 -51 55 -68q18 -5 39 -5q80 0 126 63q31 42 31 94v24q-213 -2 -244 -73q-7 -16 -7 -35z" glyph-name="aacute" unicode="á"/>
<glyph d="M356 599l-67 72l-68 -72h-96l99 121h128l100 -121h-96zM166 359h-107q19 134 137 174q42 14 94 14q149 0 198 -109q19 -44 19 -100v-208q0 -87 18 -130h-112q-10 27 -12 78q-58 -81 -158 -90q-11 -1 -20 -1q-126 0 -167 82q-15 31 -15 71q2 113 120 154q88 29 239 31v12 q-2 119 -118 120q-99 -2 -116 -98zM149 144q0 -51 55 -68q18 -5 39 -5q80 0 126 63q31 42 31 94v24q-213 -2 -244 -73q-7 -16 -7 -35z" glyph-name="acircumflex" unicode="â"/>
<glyph d="M192 599h-62q0 103 68 119q9 2 19 2q39 0 87 -34q31 -22 46 -22q31 0 34 54v2h62q0 -104 -68 -119q-9 -2 -18 -2q-38 0 -86 33q-33 22 -48 22q-30 0 -34 -53v-2zM166 359h-107q19 134 137 174q42 14 94 14q149 0 198 -109q19 -44 19 -100v-208q0 -87 18 -130h-112 q-10 27 -12 78q-58 -81 -158 -90q-11 -1 -20 -1q-126 0 -167 82q-15 31 -15 71q2 113 120 154q88 29 239 31v12q-2 119 -118 120q-99 -2 -116 -98zM149 144q0 -51 55 -68q18 -5 39 -5q80 0 126 63q31 42 31 94v24q-213 -2 -244 -73q-7 -16 -7 -35z" glyph-name="atilde" unicode="ã"/>
<glyph d="M179 599v121h89v-121h-89zM309 599v121h89v-121h-89zM166 359h-107q19 134 137 174q42 14 94 14q149 0 198 -109q19 -44 19 -100v-208q0 -87 18 -130h-112q-10 27 -12 78q-58 -81 -158 -90q-11 -1 -20 -1q-126 0 -167 82q-15 31 -15 71q2 113 120 154q88 29 239 31v12 q-2 119 -118 120q-99 -2 -116 -98zM149 144q0 -51 55 -68q18 -5 39 -5q80 0 126 63q31 42 31 94v24q-213 -2 -244 -73q-7 -16 -7 -35z" glyph-name="adieresis" unicode="ä"/>
<glyph d="M288 599q-63 0 -92 51q-14 25 -14 54q0 62 51 92q25 14 55 14q61 0 92 -50q15 -26 15 -56q0 -62 -52 -91q-25 -14 -55 -14zM288 653q33 0 44 31q3 10 3 20q0 37 -31 48q-8 3 -16 3q-35 0 -44 -34q-2 -9 -2 -17q0 -38 31 -49q8 -2 15 -2zM166 359h-107q19 134 137 174 q42 14 94 14q149 0 198 -109q19 -44 19 -100v-208q0 -87 18 -130h-112q-10 27 -12 78q-58 -81 -158 -90q-11 -1 -20 -1q-126 0 -167 82q-15 31 -15 71q2 113 120 154q88 29 239 31v12q-2 119 -118 120q-99 -2 -116 -98zM149 144q0 -51 55 -68q18 -5 39 -5q80 0 126 63 q31 42 31 94v24q-213 -2 -244 -73q-7 -16 -7 -35z" glyph-name="aring" unicode="å"/>
<glyph d="M169 358h-107q17 127 126 170q48 19 107 19q120 -1 177 -74q63 74 175 74q148 0 211 -113q36 -65 36 -157v-29h-381q7 -147 108 -169q15 -3 32 -3q104 1 133 98h111q-31 -135 -154 -174q-42 -13 -90 -13q-140 0 -204 109q-4 8 -8 15q-52 -102 -177 -121q-23 -3 -47 -3 q-105 0 -151 68q-25 37 -25 84q2 111 120 152q84 27 244 29v17q-2 119 -115 120q-104 -1 -121 -99zM647 458q-111 0 -131 -132q-1 -4 -1 -6h270q-16 117 -108 135q-15 3 -30 3zM244 71q82 0 130 59q31 39 31 86v32q-221 -2 -252 -71q-6 -15 -6 -32q0 -51 54 -68q20 -6 43 -6 z" glyph-name="ae" horiz-adv-x="936" unicode="æ"/>
<glyph d="M286 -131q0 24 -36 32q-17 4 -43 7l43 81q-130 15 -183 132q-28 63 -28 145q0 180 115 248q56 33 131 33q129 0 192 -93q30 -45 39 -107h-107q-16 94 -98 108q-13 2 -26 2q-107 0 -131 -123q-6 -31 -6 -68q0 -148 90 -181q23 -9 50 -9q95 0 122 93q2 6 3 10h106 q-24 -144 -150 -181q-29 -8 -60 -10l-23 -42q83 -14 86 -72q-2 -92 -204 -95v48q117 4 118 42z" glyph-name="ccedilla" horiz-adv-x="554" unicode="ç"/>
<glyph d="M343 599h-100l-115 121h127zM538 174q-32 -138 -158 -175q-41 -12 -88 -12q-148 0 -213 113q-40 68 -40 166q0 179 115 247q56 34 133 34q146 0 210 -113q37 -67 37 -162v-26h-386q8 -139 103 -165q19 -5 41 -5q107 1 134 98h112zM287 458q-114 0 -135 -135q-1 -3 -1 -4 h272q-18 127 -119 138q-9 1 -17 1z" glyph-name="egrave" unicode="è"/>
<glyph d="M234 599l88 121h126l-114 -121h-100zM538 174q-32 -138 -158 -175q-41 -12 -88 -12q-148 0 -213 113q-40 68 -40 166q0 179 115 247q56 34 133 34q146 0 210 -113q37 -67 37 -162v-26h-386q8 -139 103 -165q19 -5 41 -5q107 1 134 98h112zM287 458q-114 0 -135 -135 q-1 -3 -1 -4h272q-18 127 -119 138q-9 1 -17 1z" glyph-name="eacute" unicode="é"/>
<glyph d="M356 599l-67 72l-68 -72h-96l99 121h128l100 -121h-96zM538 174q-32 -138 -158 -175q-41 -12 -88 -12q-148 0 -213 113q-40 68 -40 166q0 179 115 247q56 34 133 34q146 0 210 -113q37 -67 37 -162v-26h-386q8 -139 103 -165q19 -5 41 -5q107 1 134 98h112zM287 458 q-114 0 -135 -135q-1 -3 -1 -4h272q-18 127 -119 138q-9 1 -17 1z" glyph-name="ecircumflex" unicode="ê"/>
<glyph d="M179 599v121h89v-121h-89zM309 599v121h89v-121h-89zM538 174q-32 -138 -158 -175q-41 -12 -88 -12q-148 0 -213 113q-40 68 -40 166q0 179 115 247q56 34 133 34q146 0 210 -113q37 -67 37 -162v-26h-386q8 -139 103 -165q19 -5 41 -5q107 1 134 98h112zM287 458 q-114 0 -135 -135q-1 -3 -1 -4h272q-18 127 -119 138q-9 1 -17 1z" glyph-name="edieresis" unicode="ë"/>
<glyph d="M173 599h-100l-115 121h127zM65 0v533h107v-533h-107z" glyph-name="igrave" horiz-adv-x="236" unicode="ì"/>
<glyph d="M64 599l88 121h126l-114 -121h-100zM65 0v533h107v-533h-107z" glyph-name="iacute" horiz-adv-x="236" unicode="í"/>
<glyph d="M186 599l-67 72l-68 -72h-96l99 121h128l100 -121h-96zM65 0v533h107v-533h-107z" glyph-name="icircumflex" horiz-adv-x="236" unicode="î"/>
<glyph d="M9 599v121h89v-121h-89zM139 599v121h89v-121h-89zM65 0v533h107v-533h-107z" glyph-name="idieresis" horiz-adv-x="236" unicode="ï"/>
<glyph d="M288 -13q-148 0 -212 110q-37 64 -37 154q0 168 115 233q57 32 134 32q40 0 76 -9q-35 51 -78 95l-130 -46v60l83 30q-37 32 -102 74h140q31 -21 55 -41l116 41v-60l-69 -24q158 -159 158 -374q0 -171 -112 -240q-58 -35 -137 -35zM288 77q115 0 136 122q4 24 4 52 q0 135 -88 167q-24 8 -52 8q-112 0 -135 -116q-5 -28 -5 -59q0 -136 91 -166q23 -8 49 -8z" glyph-name="eth" unicode="ð"/>
<glyph d="M193 599h-62q0 102 66 119q10 2 20 2q39 0 88 -34q31 -22 46 -22q30 0 34 54v2h62q0 -104 -68 -119q-9 -2 -18 -2q-38 0 -86 33q-33 22 -48 22q-30 0 -34 -53v-2zM65 0v533h107v-71q55 84 161 85q128 0 166 -105q14 -38 14 -86v-356h-106v334q0 116 -95 124h-12 q-72 0 -108 -66q-20 -36 -20 -79v-313h-107z" glyph-name="ntilde" horiz-adv-x="578" unicode="ñ"/>
<glyph d="M343 599h-100l-115 121h127zM288 -13q-147 0 -211 114q-38 68 -38 165q0 178 114 247q58 34 135 34q144 0 209 -112q40 -70 40 -169q0 -177 -115 -245q-57 -34 -134 -34zM288 77q115 0 136 131q4 27 4 58q0 150 -91 183q-23 8 -49 8q-109 0 -134 -121q-6 -32 -6 -70 q0 -150 93 -182q22 -7 47 -7z" glyph-name="ograve" unicode="ò"/>
<glyph d="M234 599l88 121h126l-114 -121h-100zM288 -13q-147 0 -211 114q-38 68 -38 165q0 178 114 247q58 34 135 34q144 0 209 -112q40 -70 40 -169q0 -177 -115 -245q-57 -34 -134 -34zM288 77q115 0 136 131q4 27 4 58q0 150 -91 183q-23 8 -49 8q-109 0 -134 -121 q-6 -32 -6 -70q0 -150 93 -182q22 -7 47 -7z" glyph-name="oacute" unicode="ó"/>
<glyph d="M356 599l-67 72l-68 -72h-96l99 121h128l100 -121h-96zM288 -13q-147 0 -211 114q-38 68 -38 165q0 178 114 247q58 34 135 34q144 0 209 -112q40 -70 40 -169q0 -177 -115 -245q-57 -34 -134 -34zM288 77q115 0 136 131q4 27 4 58q0 150 -91 183q-23 8 -49 8 q-109 0 -134 -121q-6 -32 -6 -70q0 -150 93 -182q22 -7 47 -7z" glyph-name="ocircumflex" unicode="ô"/>
<glyph d="M192 599h-62q0 103 68 119q9 2 19 2q39 0 87 -34q31 -22 46 -22q31 0 34 54v2h62q0 -104 -68 -119q-9 -2 -18 -2q-38 0 -86 33q-33 22 -48 22q-30 0 -34 -53v-2zM288 -13q-147 0 -211 114q-38 68 -38 165q0 178 114 247q58 34 135 34q144 0 209 -112q40 -70 40 -169 q0 -177 -115 -245q-57 -34 -134 -34zM288 77q115 0 136 131q4 27 4 58q0 150 -91 183q-23 8 -49 8q-109 0 -134 -121q-6 -32 -6 -70q0 -150 93 -182q22 -7 47 -7z" glyph-name="otilde" unicode="õ"/>
<glyph d="M179 599v121h89v-121h-89zM309 599v121h89v-121h-89zM288 -13q-147 0 -211 114q-38 68 -38 165q0 178 114 247q58 34 135 34q144 0 209 -112q40 -70 40 -169q0 -177 -115 -245q-57 -34 -134 -34zM288 77q115 0 136 131q4 27 4 58q0 150 -91 183q-23 8 -49 8 q-109 0 -134 -121q-6 -32 -6 -70q0 -150 93 -182q22 -7 47 -7z" glyph-name="odieresis" unicode="ö"/>
<glyph d="M241 458v89h94v-89h-94zM89 279v80h397v-80h-397zM241 81v89h94v-89h-94z" glyph-name="divide" unicode="÷"/>
<glyph d="M293 -13q-51 0 -99 16l-27 -53h-70l42 83q-100 73 -100 233q0 177 115 246q59 35 139 35q54 0 100 -17l27 53h70l-42 -82q100 -74 100 -235q0 -177 -117 -245q-59 -34 -138 -34zM145 266q1 -93 41 -143l164 324q-24 10 -57 10q-115 0 -141 -121q-7 -32 -7 -70zM293 77 q126 0 145 140q3 23 3 49q-1 94 -40 143l-164 -322q24 -10 56 -10z" glyph-name="oslash" horiz-adv-x="587" unicode="ø"/>
<glyph d="M340 599h-99l-115 121h127zM401 221v312h106v-533h-106v72q-53 -84 -159 -85q-127 0 -164 105q-13 38 -13 85v356h107v-334q2 -122 103 -123q70 0 106 66q20 37 20 79z" glyph-name="ugrave" horiz-adv-x="572" unicode="ù"/>
<glyph d="M232 599l88 121h126l-114 -121h-100zM401 221v312h106v-533h-106v72q-53 -84 -159 -85q-127 0 -164 105q-13 38 -13 85v356h107v-334q2 -122 103 -123q70 0 106 66q20 37 20 79z" glyph-name="uacute" horiz-adv-x="572" unicode="ú"/>
<glyph d="M354 599l-67 72l-68 -72h-96l99 121h128l100 -121h-96zM401 221v312h106v-533h-106v72q-53 -84 -159 -85q-127 0 -164 105q-13 38 -13 85v356h107v-334q2 -122 103 -123q70 0 106 66q20 37 20 79z" glyph-name="ucircumflex" horiz-adv-x="572" unicode="û"/>
<glyph d="M177 599v121h88v-121h-88zM307 599v121h89v-121h-89zM401 221v312h106v-533h-106v72q-53 -84 -159 -85q-127 0 -164 105q-13 38 -13 85v356h107v-334q2 -122 103 -123q70 0 106 66q20 37 20 79z" glyph-name="udieresis" horiz-adv-x="572" unicode="ü"/>
<glyph d="M211 599l88 121h127l-115 -121h-100zM103 -233q-29 0 -59 10v82h29q51 0 74 23q25 26 56 100l16 37l-214 514h115l132 -332l23 -73l23 73l128 332h109l-242 -595q-47 -115 -95 -147q-36 -24 -95 -24z" glyph-name="yacute" horiz-adv-x="540" unicode="ý"/>
<glyph d="M172 -220h-107v940h107v-249q54 75 145 76q132 0 190 -114q35 -68 35 -165q0 -183 -108 -250q-51 -31 -117 -31q-93 1 -145 73v-280zM303 457q-107 0 -127 -130q-4 -28 -4 -59q0 -151 86 -183q21 -8 45 -8q103 0 125 124q5 31 5 67q0 149 -85 181q-21 8 -45 8z" glyph-name="thorn" horiz-adv-x="581" unicode="þ"/>
</font>
</defs>
</svg>
