<?xml version="1.0" encoding="UTF-8"?>
<!DOCTYPE svg  PUBLIC '-//W3C//DTD SVG 1.1//EN'  'http://www.w3.org/Graphics/SVG/1.1/DTD/svg11.dtd'>
<svg version="1.1" xmlns="http://www.w3.org/2000/svg">
<defs>
<font id="Switzer-Black" horiz-adv-x="596">
<font-face font-family="Switzer Black" font-weight="900" ascent="800" bbox="-75 -240 1050 976" cap-height="680" descent="-200" panose-1="0 0 0 0 0 0 0 0 0 0" underline-position="-125" underline-thickness="50" unicode-range="U+0020-00FE" units-per-em="1000" x-height="543"/>
<missing-glyph/>
<glyph glyph-name="space" horiz-adv-x="180" unicode=" "/>
<glyph d="M80 219v461h194v-461h-194zM80 0v154h194v-154h-194z" glyph-name="exclam" horiz-adv-x="354" unicode="!"/>
<glyph d="M75 361l-35 319h194l-35 -319h-124zM305 361l-35 319h194l-35 -319h-124z" glyph-name="quotedbl" horiz-adv-x="504" unicode='"'/>
<glyph d="M117 0l28 134h-85v135h112l30 142h-75v135h102l28 134h158l-28 -134h122l28 134h158l-28 -134h85v-135h-112l-30 -142h75v-135h-102l-28 -134h-158l28 134h-122l-28 -134h-158zM330 269h122l30 142h-122z" glyph-name="numbersign" horiz-adv-x="812" unicode="#"/>
<glyph d="M212 -107v98q-143 34 -179 170q-5 22 -8 45h195q6 -57 60 -68q11 -2 22 -2q41 0 49 31q1 5 1 10q0 35 -59 59q-16 6 -54 18q-104 34 -145 68q-62 52 -62 136q0 96 76 154q44 33 104 45v93h154v-101q123 -36 156 -155q6 -23 9 -47h-198q-12 59 -59 60q-37 0 -42 -32 q-1 -4 -1 -7q0 -33 60 -56q16 -7 52 -18q106 -35 148 -69q59 -50 60 -129q0 -115 -96 -175q-40 -24 -89 -34v-94h-154z" glyph-name="dollar" horiz-adv-x="576" unicode="$"/>
<glyph d="M172 292q-110 0 -148 93q-16 40 -16 91q0 126 85 169q35 17 79 17q107 0 147 -90q18 -42 18 -96q0 -123 -84 -166q-36 -18 -81 -18zM160 0l384 643h158l-384 -643h-158zM172 400q30 2 30 76q-1 76 -30 77q-29 -2 -29 -77q1 -75 29 -76zM689 -12q-108 0 -147 91 q-17 40 -17 93q0 123 83 167q36 19 81 19q109 0 148 -93q17 -40 17 -93q0 -125 -86 -167q-35 -17 -79 -17zM689 96q30 2 30 76q-1 76 -30 77q-29 -2 -29 -77q1 -75 29 -76z" glyph-name="percent" horiz-adv-x="862" unicode="%"/>
<glyph d="M550 528q0 -95 -89 -144q-23 -13 -56 -26l103 -97q18 45 18 94h174q-1 -114 -69 -212l149 -143h-233l-36 34q-94 -53 -204 -53q-160 0 -229 91q-38 51 -38 120q1 122 114 186q-48 67 -48 130q0 103 90 156q59 35 138 35q124 0 183 -77q33 -43 33 -94zM290 512 q1 -29 27 -64q53 30 54 66q0 30 -28 38q-7 2 -13 2q-36 -7 -40 -42zM234 215q0 -60 62 -75q17 -4 37 -4q27 0 56 11l-137 127q-18 -27 -18 -59z" glyph-name="ampersand" horiz-adv-x="780" unicode="&amp;"/>
<glyph d="M75 361l-35 319h194l-35 -319h-124z" glyph-name="quotesingle" horiz-adv-x="274" unicode="'"/>
<glyph d="M189 -181q-149 233 -149 451q1 218 149 450h194q-134 -234 -134 -450q1 -218 134 -451h-194z" glyph-name="parenleft" horiz-adv-x="393" unicode="("/>
<glyph d="M204 -181h-194q134 234 134 451q-1 217 -134 450h194q149 -233 149 -450q-1 -219 -149 -451z" glyph-name="parenright" horiz-adv-x="393" unicode=")"/>
<glyph d="M397 383l-124 -90l-49 90l-49 -90l-124 90l70 75l-101 18l48 147l92 -45l-13 102h154l-13 -102l92 45l48 -147l-101 -18z" glyph-name="asterisk" horiz-adv-x="448" unicode="*"/>
<glyph d="M70 251v146h136v145h164v-145h136v-146h-136v-145h-164v145h-136z" glyph-name="plus" horiz-adv-x="576" unicode="+"/>
<glyph d="M40 0v194h194v-105q0 -124 -51 -221q-13 -23 -29 -49h-98q57 111 57 181h-73z" glyph-name="comma" horiz-adv-x="274" unicode=","/>
<glyph d="M40 190v165h285v-165h-285z" glyph-name="hyphen" horiz-adv-x="365" unicode="-"/>
<glyph d="M40 0v194h194v-194h-194z" glyph-name="period" horiz-adv-x="274" unicode="."/>
<glyph d="M0 0l210 680h198l-210 -680h-198z" glyph-name="slash" horiz-adv-x="408" unicode="/"/>
<glyph d="M288 -19q-155 0 -224 132q-44 84 -44 208q0 208 115 294q64 47 153 47q155 0 224 -133q44 -84 44 -208q0 -207 -115 -293q-64 -47 -153 -47zM288 141q69 2 69 180q-1 180 -69 181q-69 -2 -69 -181q1 -179 69 -180z" glyph-name="zero" horiz-adv-x="576" unicode="0"/>
<glyph d="M87 -1v146h116v292h-116v136h30q105 0 118 46q2 9 2 19v5h170v-498h116v-146h-436z" glyph-name="one" horiz-adv-x="576" unicode="1"/>
<glyph d="M33 -1v46q0 148 121 238q22 17 111 69q67 39 80 71q4 12 4 23q0 53 -46 60q-7 1 -12 1q-56 -2 -69 -65h-194q17 127 121 185q62 35 143 35q145 0 213 -93q38 -53 38 -121q0 -91 -98 -164q-13 -10 -108 -70q-62 -39 -87 -69h287v-146h-504z" glyph-name="two" horiz-adv-x="576" unicode="2"/>
<glyph d="M560 191q0 -97 -82 -157q-73 -53 -187 -53q-145 0 -223 96q-44 56 -55 131h194q16 -71 83 -72q69 0 75 54q1 5 1 10q-2 57 -99 58h-55v136h44q93 1 94 61q0 37 -37 49q-11 3 -23 3q-58 -2 -71 -65h-194q17 126 121 184q63 36 145 36q141 0 211 -87q42 -53 42 -118 q-1 -83 -65 -122q80 -50 81 -144z" glyph-name="three" horiz-adv-x="576" unicode="3"/>
<glyph d="M497 0h-194v113h-274v171l294 359h174v-384h67v-146h-67v-113zM164 259h139v174z" glyph-name="four" horiz-adv-x="576" unicode="4"/>
<glyph d="M555 217q0 -116 -85 -182q-70 -54 -174 -54q-143 0 -220 93q-42 53 -52 124h194q16 -60 77 -62q56 0 65 59q1 10 1 20q0 68 -51 81q-9 2 -19 2q-46 -1 -68 -40l-175 17l20 368h448v-146h-287l-4 -64q41 15 84 15q155 0 216 -107q30 -54 30 -124z" glyph-name="five" horiz-adv-x="576" unicode="5"/>
<glyph d="M309 -19h-1q-168 0 -241 132q-47 83 -47 208q0 207 120 293q68 48 163 48q151 0 222 -112q28 -45 39 -103h-198q-18 54 -70 55q-73 0 -88 -115v-4q50 34 114 34q143 0 208 -86q39 -52 39 -123q0 -120 -96 -183q-68 -44 -164 -44zM303 136q57 0 66 49q1 8 1 16 q0 54 -48 64q-9 2 -19 2q-54 0 -65 -47q-2 -10 -2 -19q0 -55 51 -64q8 -1 16 -1z" glyph-name="six" horiz-adv-x="576" unicode="6"/>
<glyph d="M339 0h-204q32 275 205 497h-290v146h494v-121q-191 -253 -205 -522z" glyph-name="seven" horiz-adv-x="576" unicode="7"/>
<glyph d="M288 -19q-153 0 -225 87q-43 53 -43 124q1 92 87 143q-66 49 -67 126q0 110 94 165q64 36 154 36q143 0 209 -84q39 -50 39 -117q-1 -80 -69 -127q88 -55 89 -142q0 -113 -99 -171q-69 -40 -169 -40zM288 511q-51 0 -57 -48q-1 -6 -1 -11q0 -49 42 -58q8 -2 16 -2 q47 0 56 43q2 9 2 17q0 52 -47 58q-6 1 -11 1zM288 132q58 0 70 48q3 10 3 21q0 56 -51 68q-11 2 -22 2q-58 0 -70 -48q-3 -11 -3 -22q0 -54 49 -66q12 -3 24 -3z" glyph-name="eight" horiz-adv-x="576" unicode="8"/>
<glyph d="M285 662h2q160 -1 232 -129q45 -83 45 -205q0 -209 -120 -297q-69 -50 -165 -50q-135 0 -208 92q-38 48 -51 113h199q9 -44 67 -45q75 2 90 106q-44 -31 -98 -31q-154 0 -218 96q-35 53 -35 125q0 119 95 181q68 44 165 44zM291 507q-55 0 -65 -51q-2 -9 -2 -19 q0 -57 47 -69q10 -2 20 -2q54 0 65 50q2 11 2 21q0 59 -50 68q-9 2 -17 2z" glyph-name="nine" horiz-adv-x="576" unicode="9"/>
<glyph d="M40 319v194h194v-194h-194zM40 0v194h194v-194h-194z" glyph-name="colon" horiz-adv-x="274" unicode=":"/>
<glyph d="M40 319v194h194v-194h-194zM40 0v194h194v-105q0 -124 -51 -221q-13 -23 -29 -49h-98q57 111 57 181h-73z" glyph-name="semicolon" horiz-adv-x="274" unicode=";"/>
<glyph d="M506 51l-436 200v146l436 200v-156l-267 -117l267 -117v-156z" glyph-name="less" horiz-adv-x="576" unicode="&lt;"/>
<glyph d="M70 371v146h436v-146h-436zM70 131v146h436v-146h-436z" glyph-name="equal" horiz-adv-x="576" unicode="="/>
<glyph d="M70 51v156l267 117l-267 117v156l436 -200v-146z" glyph-name="greater" horiz-adv-x="576" unicode="&gt;"/>
<glyph d="M525 494q0 -78 -69 -138l-33 -27q-53 -41 -67 -67q-11 -21 -11 -43h-194q0 104 81 171q12 11 36 28q48 35 58 55q5 12 5 23q0 35 -33 45q-9 3 -18 3q-58 0 -66 -73v-2h-194q17 136 123 196q61 34 139 34q137 0 204 -88q39 -52 39 -117zM151 0v154h194v-154h-194z" glyph-name="question" horiz-adv-x="555" unicode="?"/>
<glyph d="M726 14q-126 1 -160 86q-56 -87 -172 -88q-103 0 -149 68q-25 38 -25 90q2 116 133 162q84 29 203 31v13q-2 61 -59 62q-48 -1 -58 -45h-194q15 115 117 168q62 32 142 32q147 0 211 -97q35 -53 35 -123v-203q0 -42 29 -53q8 -3 16 -3q95 0 101 175v20q0 154 -107 260 q-121 110 -291 113q-168 0 -282 -111q-110 -108 -116 -266v-17q0 -180 117 -290q111 -103 281 -103q124 0 215 38l22 -54q-98 -41 -237 -41q-206 0 -337 126q-127 122 -131 313v11q0 189 124 315q123 126 316 135q14 1 28 1q201 0 333 -118q127 -113 135 -288v-20 q0 -217 -135 -278q-47 -21 -105 -21zM413 185q0 -38 37 -46q8 -2 16 -2q50 0 76 47q14 26 14 58v19q-142 -6 -143 -76z" glyph-name="at" horiz-adv-x="996" unicode="@"/>
<glyph d="M501 0l-34 105h-227l-34 -105h-206l237 680h245l237 -680h-218zM333 392l-43 -134h128l-43 134l-21 84z" glyph-name="A" horiz-adv-x="719" unicode="A"/>
<glyph d="M50 0v680h299q161 0 227 -91q34 -47 34 -110q-1 -76 -62 -118q101 -45 102 -153q0 -146 -140 -191q-55 -17 -127 -17h-333zM345 520h-91v-104h86q60 1 61 51q-2 52 -56 53zM379 273h-125v-113h124q59 6 63 57q0 49 -50 55q-6 1 -12 1z" glyph-name="B" horiz-adv-x="670" unicode="B"/>
<glyph d="M687 448h-213q-24 85 -106 86q-90 0 -118 -104q-11 -40 -11 -91q0 -156 88 -186q20 -7 41 -7q77 0 101 71q2 5 3 9h215q-30 -153 -162 -214q-68 -31 -152 -31q-186 0 -278 128q-65 92 -65 230q0 195 123 291q88 69 220 69q156 0 245 -99q54 -62 69 -152z" glyph-name="C" horiz-adv-x="707" unicode="C"/>
<glyph d="M50 0v680h286q192 0 287 -123q66 -88 66 -218q0 -186 -129 -276q-90 -63 -224 -63h-286zM336 165q106 0 135 101q9 33 9 73q0 131 -86 166q-27 10 -58 10h-82v-350h82z" glyph-name="D" horiz-adv-x="719" unicode="D"/>
<glyph d="M50 0v680h505v-160h-301v-97h261v-155h-261v-108h301v-160h-505z" glyph-name="E" horiz-adv-x="590" unicode="E"/>
<glyph d="M50 0v680h505v-160h-301v-124h261v-160h-261v-236h-204z" glyph-name="F" horiz-adv-x="585" unicode="F"/>
<glyph d="M687 0h-134l-16 61q-62 -80 -182 -80q-163 0 -253 116q-72 96 -72 242q0 195 123 291q88 69 220 69q156 0 245 -99q54 -62 69 -152h-213q-24 85 -106 86q-90 0 -118 -104q-11 -40 -11 -91q0 -142 81 -181q25 -12 55 -12q87 0 113 68q3 8 5 16h-101v150h295v-380z" glyph-name="G" horiz-adv-x="727" unicode="G"/>
<glyph d="M50 0v680h204v-251h211v251h204v-680h-204v264h-211v-264h-204z" glyph-name="H" horiz-adv-x="719" unicode="H"/>
<glyph d="M50 0v680h204v-680h-204z" glyph-name="I" horiz-adv-x="304" unicode="I"/>
<glyph d="M20 219h204q9 -72 59 -73q52 0 58 75q1 9 1 18v441h204v-431q0 -157 -108 -227q-64 -41 -155 -41q-170 0 -233 124q-25 50 -30 114z" glyph-name="J" horiz-adv-x="591" unicode="J"/>
<glyph d="M50 0v680h204v-310l211 310h227l-236 -333l257 -347h-248l-211 293v-293h-204z" glyph-name="K" horiz-adv-x="713" unicode="K"/>
<glyph d="M50 0v680h204v-515h271v-165h-475z" glyph-name="L" horiz-adv-x="545" unicode="L"/>
<glyph d="M50 0v680h264l110 -340l34 -127l34 127l110 340h258v-680h-204l13 451l-53 -185l-87 -266h-148l-89 270l-51 179l13 -449h-204z" glyph-name="M" horiz-adv-x="910" unicode="M"/>
<glyph d="M50 0v680h216l152 -279l59 -131l-12 410h204v-680h-216l-153 281l-58 129l12 -410h-204z" glyph-name="N" horiz-adv-x="719" unicode="N"/>
<glyph d="M383 -19q-189 0 -284 126q-69 93 -69 232q0 194 125 290q91 70 228 70q189 0 284 -127q69 -93 69 -233q0 -193 -125 -289q-92 -69 -228 -69zM383 146q100 0 132 102q12 40 12 91q0 142 -84 182q-27 13 -60 13q-98 0 -131 -101q-13 -41 -13 -94q0 -141 84 -181 q27 -12 60 -12z" glyph-name="O" horiz-adv-x="766" unicode="O"/>
<glyph d="M50 0v680h286q179 0 249 -107q35 -55 35 -130q0 -143 -119 -203q-68 -34 -163 -34h-84v-206h-204zM332 520h-78v-154h73q83 2 84 77q-8 73 -79 77z" glyph-name="P" horiz-adv-x="645" unicode="P"/>
<glyph d="M383 -19q-189 0 -284 126q-69 93 -69 232q0 194 125 290q91 70 228 70q189 0 284 -127q69 -93 69 -233q-1 -144 -72 -236l72 -60l-82 -99l-91 76q-80 -39 -180 -39zM351 198l82 99l78 -66q19 45 19 108q0 141 -84 182q-29 13 -63 13q-101 0 -134 -101q-13 -41 -13 -94 q0 -141 86 -181q28 -12 61 -12q12 0 27 2z" glyph-name="Q" horiz-adv-x="766" unicode="Q"/>
<glyph d="M50 0v680h299q166 0 235 -96q36 -51 36 -119q-1 -106 -78 -158q38 -33 53 -96l50 -211h-211l-35 174q-8 43 -30 52q-12 5 -34 5h-81v-231h-204zM345 520h-91v-134h86q70 2 71 67q-2 66 -66 67z" glyph-name="R" horiz-adv-x="665" unicode="R"/>
<glyph d="M236 500q0 -38 64 -56q20 -5 69 -15q120 -22 170 -52q86 -54 87 -164q0 -125 -109 -189q-76 -43 -182 -43q-189 0 -270 118q-36 54 -45 127h215q9 -71 73 -87q14 -3 29 -3q79 1 80 52q0 39 -67 59q-20 7 -70 18q-121 26 -170 57q-82 53 -83 156q0 111 93 172 q75 49 188 49q158 0 239 -93q49 -58 59 -142h-218q-15 79 -89 80q-50 0 -61 -32q-2 -6 -2 -12z" glyph-name="S" horiz-adv-x="646" unicode="S"/>
<glyph d="M217 0v515h-197v165h598v-165h-197v-515h-204z" glyph-name="T" horiz-adv-x="638" unicode="T"/>
<glyph d="M651 259q0 -156 -116 -230q-76 -48 -187 -48q-175 0 -254 111q-49 69 -49 167v421h204v-421q0 -90 67 -109q15 -4 32 -4q79 0 95 77q4 17 4 36v421h204v-421z" glyph-name="U" horiz-adv-x="696" unicode="U"/>
<glyph d="M218 680l126 -392l21 -91l21 91l127 392h206l-239 -680h-241l-239 680h218z" glyph-name="V" horiz-adv-x="719" unicode="V"/>
<glyph d="M635 0l-88 321l-17 82l-17 -82l-87 -321h-224l-192 680h218l76 -392l20 -101l22 101l107 392h166l106 -392l22 -101l20 101l77 392h206l-192 -680h-223z" glyph-name="W" horiz-adv-x="1060" unicode="W"/>
<glyph d="M453 0l-86 137l-29 52l-29 -52l-87 -137h-212l223 350l-208 330h236l69 -109l31 -60l32 60l70 109h211l-208 -326l223 -354h-236z" glyph-name="X" horiz-adv-x="699" unicode="X"/>
<glyph d="M227 0v226l-227 454h228l80 -195l27 -84l27 84l80 195h216l-227 -454v-226h-204z" glyph-name="Y" horiz-adv-x="658" unicode="Y"/>
<glyph d="M40 0v165l316 350h-316v165h548v-165l-316 -350h316v-165h-548z" glyph-name="Z" horiz-adv-x="628" unicode="Z"/>
<glyph d="M80 -181v901h314v-135h-120v-631h120v-135h-314z" glyph-name="bracketleft" horiz-adv-x="414" unicode="["/>
<glyph d="M408 0h-198l-210 680h198z" glyph-name="backslash" horiz-adv-x="408" unicode="\"/>
<glyph d="M334 -181h-314v135h120v631h-120v135h314v-901z" glyph-name="bracketright" horiz-adv-x="414" unicode="]"/>
<glyph d="M55 344l160 336h146l160 -336h-156l-77 177l-77 -177h-156z" glyph-name="asciicircum" horiz-adv-x="576" unicode="^"/>
<glyph d="M20 -164v145h405v-145h-405z" glyph-name="underscore" horiz-adv-x="445" unicode="_"/>
<glyph d="M382 585h-164l-90 135h194z" glyph-name="grave" unicode="`"/>
<glyph d="M234 362h-194q15 114 117 167q63 33 145 33q148 0 213 -97q35 -53 35 -123v-205q0 -79 13 -137h-199q-4 19 -7 57q-57 -76 -163 -76q-103 0 -149 68q-25 38 -25 90q2 116 133 162q84 29 203 31v13q-2 61 -61 62q-51 -1 -61 -45zM213 154q0 -38 37 -46q8 -2 16 -2 q50 0 76 47q14 26 14 58v19q-142 -6 -143 -76z" glyph-name="a" unicode="a"/>
<glyph d="M234 0h-194v720h194v-227q50 68 127 69q123 0 183 -107q42 -75 42 -183q0 -177 -100 -252q-53 -39 -125 -39q-80 1 -127 66v-47zM311 407q-76 -2 -77 -135q1 -135 77 -136q75 2 76 136q-1 134 -76 135z" glyph-name="b" horiz-adv-x="606" unicode="b"/>
<glyph d="M546 342h-194q-10 64 -59 65q-73 -2 -74 -136q1 -134 79 -135q44 2 57 53h194q-23 -137 -140 -186q-52 -22 -115 -22q-151 0 -224 109q-50 74 -50 181q0 171 112 246q68 45 161 45q139 0 208 -98q36 -51 45 -122z" glyph-name="c" horiz-adv-x="566" unicode="c"/>
<glyph d="M245 -19q-123 0 -183 107q-42 75 -42 183q0 177 100 252q53 39 125 39q80 -1 127 -66v224h194v-720h-194v50q-50 -68 -127 -69zM295 136q76 2 77 135q-1 135 -77 136q-75 -2 -76 -136q1 -134 76 -135z" glyph-name="d" horiz-adv-x="606" unicode="d"/>
<glyph d="M578 179q-26 -118 -136 -170q-62 -28 -138 -28q-156 0 -232 109q-52 74 -52 181q0 170 113 245q69 46 165 46q154 0 228 -110q48 -74 48 -180v-42h-355q15 -97 85 -98q51 1 71 47h203zM298 411q-59 -2 -76 -79h152q-18 78 -76 79z" glyph-name="e" unicode="e"/>
<glyph d="M5 397v146h60q4 141 103 182q33 14 74 14q65 0 103 -19v-117h-12q-62 0 -72 -46l-2 -14h86v-146h-86v-397h-194v397h-60z" glyph-name="f" horiz-adv-x="350" unicode="f"/>
<glyph d="M245 1q-123 0 -184 105q-41 72 -41 175q0 172 100 243q53 38 125 38q80 -1 127 -64v45h194v-562q0 -129 -107 -187q-64 -34 -152 -34q-181 0 -244 117q-20 36 -26 81h194q5 -39 48 -50q13 -3 25 -3q56 0 66 47q2 13 2 28v88q-50 -66 -127 -67zM295 156q76 2 77 125 q-1 125 -77 126q-75 -2 -76 -126q1 -124 76 -125z" glyph-name="g" horiz-adv-x="606" unicode="g"/>
<glyph d="M40 0v720h194v-249q51 90 151 91q106 0 153 -81q28 -50 28 -120v-361h-194v322q-1 84 -63 85q-52 0 -69 -57q-6 -20 -6 -44v-306h-194z" glyph-name="h" horiz-adv-x="606" unicode="h"/>
<glyph d="M40 585v135h194v-135h-194zM40 0v543h194v-543h-194z" glyph-name="i" horiz-adv-x="274" unicode="i"/>
<glyph d="M40 585v135h194v-135h-194zM234 -32q0 -147 -97 -192q-36 -16 -80 -16q-49 0 -87 19v147h7q53 0 61 44q2 13 2 29v544h194v-575z" glyph-name="j" horiz-adv-x="274" unicode="j"/>
<glyph d="M40 0v720h194v-386l138 209h217l-173 -237l190 -306h-231l-141 233v-233h-194z" glyph-name="k" horiz-adv-x="606" unicode="k"/>
<glyph d="M40 0v720h194v-720h-194z" glyph-name="l" horiz-adv-x="274" unicode="l"/>
<glyph d="M40 0v543h194v-70q49 88 144 89q100 -1 142 -86q55 85 159 86q103 0 149 -83q26 -49 26 -118v-361h-194v322q-1 84 -52 85q-44 0 -59 -55q-5 -21 -5 -46v-306h-194v322q-1 84 -52 85q-44 0 -59 -55q-5 -21 -5 -46v-306h-194z" glyph-name="m" horiz-adv-x="894" unicode="m"/>
<glyph d="M40 0v543h194v-72q51 90 151 91q106 0 153 -81q28 -50 28 -120v-361h-194v322q-1 84 -63 85q-52 0 -69 -57q-6 -20 -6 -44v-306h-194z" glyph-name="n" horiz-adv-x="606" unicode="n"/>
<glyph d="M298 -19q-153 0 -227 109q-51 74 -51 181q0 170 113 245q69 46 165 46q152 0 227 -108q51 -75 51 -183q0 -167 -112 -243q-69 -47 -166 -47zM298 136q78 2 79 135q-1 135 -79 136q-78 -2 -79 -136q1 -134 79 -135z" glyph-name="o" unicode="o"/>
<glyph d="M234 -221h-194v764h194v-50q50 68 127 69q123 0 183 -107q42 -75 42 -183q0 -177 -100 -252q-53 -39 -125 -39q-80 1 -127 66v-268zM311 407q-76 -2 -77 -135q1 -135 77 -136q75 2 76 136q-1 134 -76 135z" glyph-name="p" horiz-adv-x="606" unicode="p"/>
<glyph d="M245 -19q-123 0 -183 107q-42 75 -42 183q0 177 100 252q53 39 125 39q80 -1 127 -66v47h194v-764h-194v271q-50 -68 -127 -69zM295 136q76 2 77 135q-1 135 -77 136q-75 -2 -76 -136q1 -134 76 -135z" glyph-name="q" horiz-adv-x="606" unicode="q"/>
<glyph d="M40 0v543h194v-71q48 89 131 90q39 -1 55 -19v-162q-31 6 -64 6q-121 -2 -122 -121v-266h-194z" glyph-name="r" horiz-adv-x="430" unicode="r"/>
<glyph d="M217 386q0 -28 62 -41q14 -3 45 -8q112 -19 156 -47q61 -41 62 -118q0 -94 -87 -149q-69 -42 -167 -42q-180 0 -242 119q-18 36 -24 79h194q5 -43 57 -51q10 -2 20 -2q54 1 55 34q0 27 -60 39q-12 3 -42 8q-109 19 -152 47q-61 42 -62 122q0 89 74 142q63 44 158 44 q161 0 226 -102q26 -43 32 -98h-193q-12 54 -70 55q-35 0 -41 -25q-1 -3 -1 -6z" glyph-name="s" horiz-adv-x="560" unicode="s"/>
<glyph d="M65 189v208h-60v146h60v126h194v-126h106v-146h-106v-177q0 -54 32 -67q15 -6 38 -6h36v-147q-43 -19 -114 -19q-163 0 -183 163q-3 22 -3 45z" glyph-name="t" horiz-adv-x="385" unicode="t"/>
<glyph d="M366 237v306h194v-543h-194v72q-50 -90 -148 -91q-106 0 -152 84q-26 48 -26 117v361h194v-322q1 -84 60 -85q50 0 66 57q6 20 6 44z" glyph-name="u" horiz-adv-x="600" unicode="u"/>
<glyph d="M185 0l-185 543h209l86 -321l15 -74l14 74l86 321h200l-185 -543h-240z" glyph-name="v" horiz-adv-x="610" unicode="v"/>
<glyph d="M538 0l-67 298l-9 66l-10 -66l-67 -298h-240l-135 543h206l49 -321l12 -80l17 80l75 321h194l75 -321l16 -80l13 80l49 321h197l-135 -543h-240z" glyph-name="w" horiz-adv-x="923" unicode="w"/>
<glyph d="M362 0l-54 105l-25 57l-25 -57l-54 -105h-199l174 279l-164 264h219l44 -88l25 -58l25 58l44 88h199l-163 -264l173 -279h-219z" glyph-name="x" horiz-adv-x="586" unicode="x"/>
<glyph d="M145 -240q-52 0 -90 19v147h34q66 0 94 44q11 17 18 40l6 19l-202 514h206l77 -245l18 -87l21 87l71 245h197l-215 -568q-59 -156 -143 -196q-41 -19 -92 -19z" glyph-name="y" horiz-adv-x="600" unicode="y"/>
<glyph d="M30 0v146l251 251h-241v146h470v-146l-251 -251h266v-146h-495z" glyph-name="z" horiz-adv-x="555" unicode="z"/>
<glyph d="M214 270q94 -29 100 -141v-18v-81q0 -58 34 -70q17 -6 42 -6h34v-135h-129q-174 2 -175 175v113q0 66 -27 83q-21 12 -73 12v136q67 0 85 22q15 21 15 73v112q2 174 175 175h129v-135h-34q-58 0 -70 -34q-6 -17 -6 -42v-80q0 -120 -87 -154q-7 -3 -13 -5z" glyph-name="braceleft" horiz-adv-x="444" unicode="{"/>
<glyph d="M50 -221v941h194v-941h-194z" glyph-name="bar" horiz-adv-x="294" unicode="|"/>
<glyph d="M230 270q-94 29 -100 141v18v80q0 58 -34 70q-17 6 -42 6h-34v135h129q174 -2 175 -175v-112q0 -66 27 -83q21 -12 73 -12v-136q-67 0 -85 -22q-15 -21 -15 -73v-113q-2 -174 -175 -175h-129v135h34q58 0 70 34q6 17 6 42v81q0 120 87 154q7 3 13 5z" glyph-name="braceright" horiz-adv-x="444" unicode="}"/>
<glyph d="M70 251v146q55 35 104 35q42 0 114 -35q73 -35 114 -35q50 1 104 35v-146q-55 -35 -104 -35q-42 0 -114 35q-73 35 -114 35q-50 -1 -104 -35z" glyph-name="asciitilde" horiz-adv-x="576" unicode="~"/>
<glyph glyph-name="nbspace" horiz-adv-x="180" unicode=" "/>
<glyph d="M274 513v-154h-194v154h194zM274 294v-461h-194v461h194z" glyph-name="exclamdown" horiz-adv-x="354" unicode="¡"/>
<glyph d="M218 -67v98q-125 32 -170 153q-22 57 -22 127q0 173 114 247q36 23 78 34v98h154v-96q124 -30 165 -148q11 -31 15 -64h-194q-10 64 -59 65q-73 -2 -74 -136q1 -134 79 -135q44 2 57 53h194q-24 -140 -145 -188q-19 -7 -38 -12v-96h-154z" glyph-name="cent" horiz-adv-x="576" unicode="¢"/>
<glyph d="M32 0v165h71q55 33 56 86q0 6 -2 13h-105v76h58q-46 65 -46 128q0 84 71 140q68 54 170 54q134 0 202 -89q38 -52 46 -126h-198q-12 59 -49 60q-42 -2 -43 -44q0 -29 42 -89q17 -24 23 -34h134v-76h-104v-8q-1 -48 -40 -91h235v-165h-521z" glyph-name="sterling" horiz-adv-x="576" unicode="£"/>
<glyph d="M171 104l-103 103l57 57q-10 26 -10 59q0 34 10 61l-57 57l103 103l56 -56q30 11 62 11q34 0 61 -10l55 55l103 -103l-55 -55q10 -32 10 -63q0 -30 -10 -61l55 -55l-103 -103l-56 56q-29 -9 -60 -9q-34 0 -61 10zM289 260q35 0 47 38q4 12 4 25q0 47 -33 61q-9 4 -18 4 q-35 0 -47 -39q-4 -13 -4 -26q0 -45 32 -59q10 -4 19 -4z" glyph-name="currency" horiz-adv-x="576" unicode="¤"/>
<glyph d="M66 117v76h120v36h-120v76h96l-162 338h217l50 -145l27 -86l27 86l50 145h205l-162 -338h96v-76h-120v-36h120v-76h-120v-117h-204v117h-120z" glyph-name="yen" horiz-adv-x="576" unicode="¥"/>
<glyph d="M50 350v370h194v-370h-194zM50 -221v371h194v-371h-194z" glyph-name="brokenbar" horiz-adv-x="294" unicode="¦"/>
<glyph d="M574 6q0 -110 -93 -167q-65 -39 -154 -39q-141 0 -214 87q-39 47 -49 111h194q5 -45 53 -52q7 -1 14 -1q54 1 55 34q0 36 -62 56q-19 6 -62 16q-112 26 -156 56q-69 49 -70 138q0 88 70 140q5 3 9 6q-41 45 -41 114q0 89 73 146q63 48 153 48q149 0 216 -98 q30 -44 38 -102h-193q-12 54 -60 55q-37 -6 -42 -34q0 -29 60 -45q15 -5 51 -12q114 -25 162 -56q77 -53 78 -153q-2 -85 -72 -138q42 -45 42 -110zM205 272q0 -36 66 -56q20 -6 65 -17q44 -10 65 -16q27 22 28 51q0 35 -63 55q-18 6 -61 16q-48 12 -72 19q-27 -21 -28 -52z " glyph-name="section" horiz-adv-x="634" unicode="§"/>
<glyph d="M131 585v135h144v-135h-144zM321 585v135h144v-135h-144z" glyph-name="dieresis" unicode="¨"/>
<glyph d="M418 -52q-170 0 -280 109q-108 107 -108 266q0 164 111 271q110 105 277 105q172 0 282 -109q106 -107 106 -267q0 -162 -110 -268q-110 -107 -278 -107zM418 5q144 0 235 98q83 89 83 220q0 138 -94 230q-91 89 -224 89q-141 0 -232 -97q-86 -92 -86 -222 q0 -144 98 -235q90 -83 220 -83zM629 374h-175q-12 30 -34 32q-41 -2 -41 -82q1 -80 41 -81q27 1 33 28h176q-17 -120 -127 -153q-35 -11 -76 -11q-135 0 -192 96q-30 51 -30 121q0 132 95 188q53 31 125 31q117 0 172 -80q26 -38 33 -89z" glyph-name="copyright" horiz-adv-x="836" unicode="©"/>
<glyph d="M162 539h-139q9 74 82 107q37 16 81 16q98 0 137 -67q18 -31 18 -68v-122q0 -60 14 -84h-142q-7 13 -10 29q-33 -41 -95 -41q-66 0 -91 48q-11 21 -11 47q2 67 83 97q49 17 112 19v10q-1 23 -19 24q-15 -1 -20 -15zM144 416q2 -25 21 -26q23 0 33 29q3 12 3 24v12 q-56 -5 -57 -39z" glyph-name="ordfeminine" horiz-adv-x="362" unicode="ª"/>
<glyph d="M325 5l-285 180v170l285 180v-170l-154 -95l154 -95v-170zM655 5l-285 180v170l285 180v-170l-154 -95l154 -95v-170z" glyph-name="guillemotleft" horiz-adv-x="695" unicode="«"/>
<glyph d="M70 251v146h436v-291h-164v145h-272z" glyph-name="logicalnot" horiz-adv-x="576" unicode="¬"/>
<glyph glyph-name="softhyphen" horiz-adv-x="365" unicode="­"/>
<glyph d="M298 178q-130 0 -209 87q-64 73 -64 173q0 124 90 198q76 63 183 63q131 0 210 -88q63 -72 63 -173q0 -121 -89 -196q-76 -64 -184 -64zM298 235q103 0 162 76q41 54 41 127q0 100 -73 159q-56 45 -130 45q-100 0 -159 -75q-44 -56 -44 -129q0 -104 76 -162 q55 -41 127 -41zM179 308v272h133q90 0 113 -59q7 -16 7 -35q-1 -41 -26 -61q10 -12 13 -27l20 -90h-117l-10 65q-5 15 -13 16h-9v-81h-111zM307 493h-17v-28h16q17 2 18 14q-2 13 -17 14z" glyph-name="registered" unicode="®"/>
<glyph d="M131 595v115h334v-115h-334z" glyph-name="macron" unicode="¯"/>
<glyph d="M181 314q-91 0 -141 68q-33 46 -33 104q0 92 69 143q46 33 105 33q91 0 141 -69q33 -47 33 -107q0 -89 -68 -139q-46 -33 -106 -33zM181 423q35 0 47 38q4 12 4 25q0 47 -33 61q-9 4 -18 4q-35 0 -47 -39q-4 -13 -4 -26q0 -45 32 -59q10 -4 19 -4z" glyph-name="degree" horiz-adv-x="362" unicode="°"/>
<glyph d="M70 331v146h136v145h164v-145h136v-146h-136v-145h-164v145h-136zM70 0v146h436v-146h-436z" glyph-name="plusminus" horiz-adv-x="576" unicode="±"/>
<glyph d="M13 264v31q0 98 89 156q13 9 39 23q48 27 55 42q3 6 3 12q-4 26 -26 29q-24 -2 -32 -32h-130q11 86 86 121q35 16 77 16q98 0 140 -66q19 -31 19 -67q0 -58 -73 -107q-12 -8 -36 -23q-35 -21 -49 -32h151v-103h-313z" glyph-name="twosuperior" horiz-adv-x="345" unicode="²"/>
<glyph d="M342 381q0 -65 -61 -102q-44 -27 -107 -27q-95 0 -142 70q-20 32 -26 71h123q11 -36 45 -37q33 2 34 31q-2 27 -40 28h-46v86h37q39 1 40 32q0 17 -19 23q-4 1 -7 1q-28 -2 -36 -32h-124q11 85 85 121q35 16 76 16q95 0 138 -63q21 -31 21 -65q-1 -48 -40 -71 q48 -28 49 -82z" glyph-name="threesuperior" horiz-adv-x="345" unicode="³"/>
<glyph d="M214 585l60 135h194l-90 -135h-164z" glyph-name="acute" unicode="´"/>
<glyph d="M458 -181h-144v347h-2q-168 0 -241 107q-41 62 -41 150q0 157 122 222q68 35 162 35h369v-861h-144v730h-81v-730z" glyph-name="paragraph" horiz-adv-x="733" unicode="¶"/>
<glyph d="M201 245v135h194v-135h-194z" glyph-name="periodcentered" unicode="·"/>
<glyph d="M239 -122q0 25 -53 32h-2l48 90h80l-27 -47q82 -6 100 -51q4 -10 4 -20q-2 -103 -245 -103v62q94 4 95 37z" glyph-name="cedilla" unicode="¸"/>
<glyph d="M41 264v103h68v141h-68v96h8q80 5 84 44v1h122v-282h68v-103h-282z" glyph-name="onesuperior" horiz-adv-x="345" unicode="¹"/>
<glyph d="M194 309q-108 0 -152 81q-22 41 -22 94q0 114 84 158q40 20 90 20q106 0 151 -80q23 -42 23 -98q0 -112 -84 -155q-40 -20 -90 -20zM194 418q31 2 31 66q-1 66 -31 67q-31 -2 -31 -67q1 -65 31 -66z" glyph-name="ordmasculine" horiz-adv-x="388" unicode="º"/>
<glyph d="M370 5v170l154 95l-154 95v170l285 -180v-170zM40 5v170l154 95l-154 95v170l285 -180v-170z" glyph-name="guillemotright" horiz-adv-x="695" unicode="»"/>
<glyph d="M41 264v103h68v141h-68v96h8q80 5 84 44v1h122v-282h68v-103h-282zM198 0l384 643h158l-384 -643h-158zM826 0h-129v67h-166v114l170 204h125v-222h34v-96h-34v-67zM613 163h84v103z" glyph-name="onequarter" horiz-adv-x="862" unicode="¼"/>
<glyph d="M41 264v103h68v141h-68v96h8q80 5 84 44v1h122v-282h68v-103h-282zM179 0l384 643h158l-384 -643h-158zM530 0v31q0 98 89 156q13 9 39 23q48 27 55 42q3 6 3 12q-4 26 -26 29q-24 -2 -32 -32h-130q11 86 86 121q35 16 77 16q98 0 140 -66q19 -31 19 -67q0 -58 -73 -107 q-12 -8 -36 -23q-35 -21 -49 -32h151v-103h-313z" glyph-name="onehalf" horiz-adv-x="862" unicode="½"/>
<glyph d="M342 381q0 -65 -61 -102q-44 -27 -107 -27q-95 0 -142 70q-20 32 -26 71h123q11 -36 45 -37q33 2 34 31q-2 27 -40 28h-46v86h37q39 1 40 32q0 17 -19 23q-4 1 -7 1q-28 -2 -36 -32h-124q11 85 85 121q35 16 76 16q95 0 138 -63q21 -31 21 -65q-1 -48 -40 -71 q48 -28 49 -82zM196 0l384 643h158l-384 -643h-158zM826 0h-129v67h-166v114l170 204h125v-222h34v-96h-34v-67zM613 163h84v103z" glyph-name="threequarters" horiz-adv-x="862" unicode="¾"/>
<glyph d="M404 513v-154h-194v154h194zM30 19q0 78 69 138l33 27q53 41 67 67q11 21 11 43h194q0 -104 -81 -171q-12 -11 -36 -28q-48 -35 -58 -55q-5 -12 -5 -23q0 -35 33 -45q9 -3 18 -3q58 0 66 73v2h194q-17 -136 -123 -196q-61 -34 -139 -34q-137 0 -204 88q-39 52 -39 117z " glyph-name="questiondown" horiz-adv-x="555" unicode="¿"/>
<glyph d="M444 722h-164l-90 135h194zM501 0l-34 105h-227l-34 -105h-206l237 680h245l237 -680h-218zM333 392l-43 -134h128l-43 134l-21 84z" glyph-name="Agrave" horiz-adv-x="719" unicode="À"/>
<glyph d="M276 722l60 135h194l-90 -135h-164zM501 0l-34 105h-227l-34 -105h-206l237 680h245l237 -680h-218zM333 392l-43 -134h128l-43 134l-21 84z" glyph-name="Aacute" horiz-adv-x="719" unicode="Á"/>
<glyph d="M408 722l-48 65l-48 -65h-164l100 135h224l100 -135h-164zM501 0l-34 105h-227l-34 -105h-206l237 680h245l237 -680h-218zM333 392l-43 -134h128l-43 134l-21 84z" glyph-name="Acircumflex" horiz-adv-x="719" unicode="Â"/>
<glyph d="M282 722h-104q0 109 74 131q15 4 29 4q23 0 84 -22q27 -9 40 -9q24 0 32 29q1 1 1 2h104q0 -109 -74 -131q-15 -4 -29 -4q-23 0 -83 21q-27 10 -41 10q-24 0 -32 -29q-1 -1 -1 -2zM501 0l-34 105h-227l-34 -105h-206l237 680h245l237 -680h-218zM333 392l-43 -134h128 l-43 134l-21 84z" glyph-name="Atilde" horiz-adv-x="719" unicode="Ã"/>
<glyph d="M193 722v135h144v-135h-144zM383 722v135h144v-135h-144zM501 0l-34 105h-227l-34 -105h-206l237 680h245l237 -680h-218zM333 392l-43 -134h128l-43 134l-21 84z" glyph-name="Adieresis" horiz-adv-x="719" unicode="Ä"/>
<glyph d="M360 722q-74 0 -112 56q-20 31 -20 70q0 72 59 108q33 20 73 20q74 0 112 -56q21 -32 21 -72q0 -70 -59 -106q-33 -20 -74 -20zM360 798q31 0 39 33q2 9 2 17q0 41 -30 50q-6 1 -11 1q-31 0 -39 -36q-1 -7 -1 -15q0 -41 30 -49q6 -1 10 -1zM501 0l-34 105h-227l-34 -105 h-206l237 680h245l237 -680h-218zM333 392l-43 -134h128l-43 134l-21 84z" glyph-name="Aring" horiz-adv-x="719" unicode="Å"/>
<glyph d="M459 0v135h-205l-48 -135h-206l262 680h693v-160h-292v-97h252v-155h-252v-108h292v-160h-496zM308 288h151v232h-69z" glyph-name="AE" horiz-adv-x="990" unicode="Æ"/>
<glyph d="M335 -122q0 25 -53 32h-2l40 74q-170 20 -245 157q-45 84 -45 198q0 195 123 291q88 69 220 69q156 0 245 -99q54 -62 69 -152h-213q-24 85 -106 86q-90 0 -118 -104q-11 -40 -11 -91q0 -156 88 -186q20 -7 41 -7q77 0 101 71q2 5 3 9h215q-30 -152 -161 -213 q-59 -27 -129 -31l-16 -29q82 -6 100 -51q4 -10 4 -20q-2 -103 -245 -103v62q94 4 95 37z" glyph-name="Ccedilla" horiz-adv-x="707" unicode="Ç"/>
<glyph d="M379 722h-164l-90 135h194zM50 0v680h505v-160h-301v-97h261v-155h-261v-108h301v-160h-505z" glyph-name="Egrave" horiz-adv-x="590" unicode="È"/>
<glyph d="M211 722l60 135h194l-90 -135h-164zM50 0v680h505v-160h-301v-97h261v-155h-261v-108h301v-160h-505z" glyph-name="Eacute" horiz-adv-x="590" unicode="É"/>
<glyph d="M343 722l-48 65l-48 -65h-164l100 135h224l100 -135h-164zM50 0v680h505v-160h-301v-97h261v-155h-261v-108h301v-160h-505z" glyph-name="Ecircumflex" horiz-adv-x="590" unicode="Ê"/>
<glyph d="M128 722v135h144v-135h-144zM318 722v135h144v-135h-144zM50 0v680h505v-160h-301v-97h261v-155h-261v-108h301v-160h-505z" glyph-name="Edieresis" horiz-adv-x="590" unicode="Ë"/>
<glyph d="M236 722h-164l-90 135h194zM50 0v680h204v-680h-204z" glyph-name="Igrave" horiz-adv-x="304" unicode="Ì"/>
<glyph d="M68 722l60 135h194l-90 -135h-164zM50 0v680h204v-680h-204z" glyph-name="Iacute" horiz-adv-x="304" unicode="Í"/>
<glyph d="M200 722l-48 65l-48 -65h-164l100 135h224l100 -135h-164zM50 0v680h204v-680h-204z" glyph-name="Icircumflex" horiz-adv-x="304" unicode="Î"/>
<glyph d="M-15 722v135h144v-135h-144zM175 722v135h144v-135h-144zM50 0v680h204v-680h-204z" glyph-name="Idieresis" horiz-adv-x="304" unicode="Ï"/>
<glyph d="M50 0v264h-45v165h45v251h286q192 0 287 -123q66 -88 66 -218q0 -186 -129 -276q-90 -63 -224 -63h-286zM336 165q106 0 135 101q9 33 9 73q0 131 -86 166q-27 10 -58 10h-82v-86h109v-165h-109v-99h82z" glyph-name="Eth" horiz-adv-x="719" unicode="Ð"/>
<glyph d="M282 722h-104q0 109 74 131q15 4 29 4q23 0 84 -22q27 -9 40 -9q24 0 32 29q1 1 1 2h104q0 -109 -74 -131q-15 -4 -29 -4q-23 0 -83 21q-27 10 -41 10q-24 0 -32 -29q-1 -1 -1 -2zM50 0v680h216l152 -279l59 -131l-12 410h204v-680h-216l-153 281l-58 129l12 -410h-204z " glyph-name="Ntilde" horiz-adv-x="719" unicode="Ñ"/>
<glyph d="M467 722h-164l-90 135h194zM383 -19q-189 0 -284 126q-69 93 -69 232q0 194 125 290q91 70 228 70q189 0 284 -127q69 -93 69 -233q0 -193 -125 -289q-92 -69 -228 -69zM383 146q100 0 132 102q12 40 12 91q0 142 -84 182q-27 13 -60 13q-98 0 -131 -101q-13 -41 -13 -94 q0 -141 84 -181q27 -12 60 -12z" glyph-name="Ograve" horiz-adv-x="766" unicode="Ò"/>
<glyph d="M299 722l60 135h194l-90 -135h-164zM383 -19q-189 0 -284 126q-69 93 -69 232q0 194 125 290q91 70 228 70q189 0 284 -127q69 -93 69 -233q0 -193 -125 -289q-92 -69 -228 -69zM383 146q100 0 132 102q12 40 12 91q0 142 -84 182q-27 13 -60 13q-98 0 -131 -101 q-13 -41 -13 -94q0 -141 84 -181q27 -12 60 -12z" glyph-name="Oacute" horiz-adv-x="766" unicode="Ó"/>
<glyph d="M431 722l-48 65l-48 -65h-164l100 135h224l100 -135h-164zM383 -19q-189 0 -284 126q-69 93 -69 232q0 194 125 290q91 70 228 70q189 0 284 -127q69 -93 69 -233q0 -193 -125 -289q-92 -69 -228 -69zM383 146q100 0 132 102q12 40 12 91q0 142 -84 182q-27 13 -60 13 q-98 0 -131 -101q-13 -41 -13 -94q0 -141 84 -181q27 -12 60 -12z" glyph-name="Ocircumflex" horiz-adv-x="766" unicode="Ô"/>
<glyph d="M305 722h-104q0 109 74 131q15 4 29 4q23 0 84 -22q27 -9 40 -9q24 0 32 29q1 1 1 2h104q0 -109 -74 -131q-15 -4 -29 -4q-23 0 -83 21q-27 10 -41 10q-24 0 -32 -29q-1 -1 -1 -2zM383 -19q-189 0 -284 126q-69 93 -69 232q0 194 125 290q91 70 228 70q189 0 284 -127 q69 -93 69 -233q0 -193 -125 -289q-92 -69 -228 -69zM383 146q100 0 132 102q12 40 12 91q0 142 -84 182q-27 13 -60 13q-98 0 -131 -101q-13 -41 -13 -94q0 -141 84 -181q27 -12 60 -12z" glyph-name="Otilde" horiz-adv-x="766" unicode="Õ"/>
<glyph d="M216 722v135h144v-135h-144zM406 722v135h144v-135h-144zM383 -19q-189 0 -284 126q-69 93 -69 232q0 194 125 290q91 70 228 70q189 0 284 -127q69 -93 69 -233q0 -193 -125 -289q-92 -69 -228 -69zM383 146q100 0 132 102q12 40 12 91q0 142 -84 182q-27 13 -60 13 q-98 0 -131 -101q-13 -41 -13 -94q0 -141 84 -181q27 -12 60 -12z" glyph-name="Odieresis" horiz-adv-x="766" unicode="Ö"/>
<glyph d="M164 97l-103 103l124 124l-124 124l103 103l124 -124l124 124l103 -103l-124 -124l124 -124l-103 -103l-124 124z" glyph-name="multiply" horiz-adv-x="576" unicode="×"/>
<glyph d="M55 -50l79 118q-104 97 -104 271q0 194 125 290q91 70 228 70q84 0 155 -28l39 59h134l-79 -118q104 -99 104 -273q0 -193 -125 -289q-92 -69 -228 -69q-85 0 -155 28l-39 -59h-134zM239 339q0 -50 13 -94l187 278q-27 11 -56 11q-98 0 -131 -101q-13 -41 -13 -94z M383 146q100 0 132 102q12 40 12 91q0 54 -14 96l-186 -278q27 -11 56 -11z" glyph-name="Oslash" horiz-adv-x="766" unicode="Ø"/>
<glyph d="M432 722h-164l-90 135h194zM651 259q0 -156 -116 -230q-76 -48 -187 -48q-175 0 -254 111q-49 69 -49 167v421h204v-421q0 -90 67 -109q15 -4 32 -4q79 0 95 77q4 17 4 36v421h204v-421z" glyph-name="Ugrave" horiz-adv-x="696" unicode="Ù"/>
<glyph d="M264 722l60 135h194l-90 -135h-164zM651 259q0 -156 -116 -230q-76 -48 -187 -48q-175 0 -254 111q-49 69 -49 167v421h204v-421q0 -90 67 -109q15 -4 32 -4q79 0 95 77q4 17 4 36v421h204v-421z" glyph-name="Uacute" horiz-adv-x="696" unicode="Ú"/>
<glyph d="M396 722l-48 65l-48 -65h-164l100 135h224l100 -135h-164zM651 259q0 -156 -116 -230q-76 -48 -187 -48q-175 0 -254 111q-49 69 -49 167v421h204v-421q0 -90 67 -109q15 -4 32 -4q79 0 95 77q4 17 4 36v421h204v-421z" glyph-name="Ucircumflex" horiz-adv-x="696" unicode="Û"/>
<glyph d="M181 722v135h144v-135h-144zM371 722v135h144v-135h-144zM651 259q0 -156 -116 -230q-76 -48 -187 -48q-175 0 -254 111q-49 69 -49 167v421h204v-421q0 -90 67 -109q15 -4 32 -4q79 0 95 77q4 17 4 36v421h204v-421z" glyph-name="Udieresis" horiz-adv-x="696" unicode="Ü"/>
<glyph d="M255 722l60 135h194l-90 -135h-164zM227 0v226l-227 454h228l80 -195l27 -84l27 84l80 195h216l-227 -454v-226h-204z" glyph-name="Yacute" horiz-adv-x="658" unicode="Ý"/>
<glyph d="M50 0v680h204v-93h82q179 0 249 -107q35 -55 35 -130q0 -143 -119 -203q-68 -34 -163 -34h-84v-113h-204zM332 427h-78v-154h73q83 2 84 77q-8 73 -79 77z" glyph-name="Thorn" horiz-adv-x="645" unicode="Þ"/>
<glyph d="M648 208q0 -117 -90 -179q-69 -48 -171 -48q-64 0 -108 19v136h73q83 0 99 55q3 11 3 23q0 66 -74 79q-15 2 -31 2h-49v136h17q80 2 81 78q0 49 -42 68q-17 7 -37 7q-72 0 -83 -82q-2 -14 -2 -28v-474h-194v462q0 171 121 240q65 37 155 37q173 0 242 -104 q34 -52 34 -117q-1 -87 -62 -134q117 -54 118 -176z" glyph-name="germandbls" horiz-adv-x="663" unicode="ß"/>
<glyph d="M382 585h-164l-90 135h194zM234 362h-194q15 114 117 167q63 33 145 33q148 0 213 -97q35 -53 35 -123v-205q0 -79 13 -137h-199q-4 19 -7 57q-57 -76 -163 -76q-103 0 -149 68q-25 38 -25 90q2 116 133 162q84 29 203 31v13q-2 61 -61 62q-51 -1 -61 -45zM213 154 q0 -38 37 -46q8 -2 16 -2q50 0 76 47q14 26 14 58v19q-142 -6 -143 -76z" glyph-name="agrave" unicode="à"/>
<glyph d="M214 585l60 135h194l-90 -135h-164zM234 362h-194q15 114 117 167q63 33 145 33q148 0 213 -97q35 -53 35 -123v-205q0 -79 13 -137h-199q-4 19 -7 57q-57 -76 -163 -76q-103 0 -149 68q-25 38 -25 90q2 116 133 162q84 29 203 31v13q-2 61 -61 62q-51 -1 -61 -45z M213 154q0 -38 37 -46q8 -2 16 -2q50 0 76 47q14 26 14 58v19q-142 -6 -143 -76z" glyph-name="aacute" unicode="á"/>
<glyph d="M346 585l-48 65l-48 -65h-164l100 135h224l100 -135h-164zM234 362h-194q15 114 117 167q63 33 145 33q148 0 213 -97q35 -53 35 -123v-205q0 -79 13 -137h-199q-4 19 -7 57q-57 -76 -163 -76q-103 0 -149 68q-25 38 -25 90q2 116 133 162q84 29 203 31v13q-2 61 -61 62 q-51 -1 -61 -45zM213 154q0 -38 37 -46q8 -2 16 -2q50 0 76 47q14 26 14 58v19q-142 -6 -143 -76z" glyph-name="acircumflex" unicode="â"/>
<glyph d="M220 585h-104q0 109 74 131q15 4 29 4q23 0 84 -22q27 -9 40 -9q24 0 32 29q1 1 1 2h104q0 -109 -74 -131q-15 -4 -29 -4q-23 0 -83 21q-27 10 -41 10q-24 0 -32 -29q-1 -1 -1 -2zM234 362h-194q15 114 117 167q63 33 145 33q148 0 213 -97q35 -53 35 -123v-205 q0 -79 13 -137h-199q-4 19 -7 57q-57 -76 -163 -76q-103 0 -149 68q-25 38 -25 90q2 116 133 162q84 29 203 31v13q-2 61 -61 62q-51 -1 -61 -45zM213 154q0 -38 37 -46q8 -2 16 -2q50 0 76 47q14 26 14 58v19q-142 -6 -143 -76z" glyph-name="atilde" unicode="ã"/>
<glyph d="M131 585v135h144v-135h-144zM321 585v135h144v-135h-144zM234 362h-194q15 114 117 167q63 33 145 33q148 0 213 -97q35 -53 35 -123v-205q0 -79 13 -137h-199q-4 19 -7 57q-57 -76 -163 -76q-103 0 -149 68q-25 38 -25 90q2 116 133 162q84 29 203 31v13q-2 61 -61 62 q-51 -1 -61 -45zM213 154q0 -38 37 -46q8 -2 16 -2q50 0 76 47q14 26 14 58v19q-142 -6 -143 -76z" glyph-name="adieresis" unicode="ä"/>
<glyph d="M298 585q-74 0 -112 56q-20 31 -20 70q0 72 59 108q33 20 73 20q74 0 112 -56q21 -32 21 -72q0 -70 -59 -106q-33 -20 -74 -20zM298 661q31 0 39 33q2 9 2 17q0 41 -30 50q-6 1 -11 1q-31 0 -39 -36q-1 -7 -1 -15q0 -41 30 -49q6 -1 10 -1zM234 362h-194q15 114 117 167 q63 33 145 33q148 0 213 -97q35 -53 35 -123v-205q0 -79 13 -137h-199q-4 19 -7 57q-57 -76 -163 -76q-103 0 -149 68q-25 38 -25 90q2 116 133 162q84 29 203 31v13q-2 61 -61 62q-51 -1 -61 -45zM213 154q0 -38 37 -46q8 -2 16 -2q50 0 76 47q14 26 14 58v19 q-142 -6 -143 -76z" glyph-name="aring" unicode="å"/>
<glyph d="M239 362h-194q15 115 117 168q62 32 142 32q102 -1 169 -48q64 48 158 48q154 0 227 -109q49 -73 49 -178v-42h-349q12 -100 79 -101q51 1 71 47h203q-26 -118 -136 -170q-62 -28 -138 -28q-145 1 -217 106q-62 -106 -219 -106q-104 0 -153 66q-28 38 -28 90 q0 119 128 165q3 1 5 2q86 29 209 31v10q-2 61 -65 62q-48 -1 -58 -45zM631 411q-54 -2 -70 -76h145q-17 75 -75 76zM266 106q52 0 80 46q16 26 16 59v22q-148 -6 -149 -79q0 -38 37 -46q8 -2 16 -2z" glyph-name="ae" horiz-adv-x="929" unicode="æ"/>
<glyph d="M261 -122q0 25 -53 32h-2l40 74q-136 19 -194 136q-32 65 -32 151q0 171 112 246q68 45 161 45q139 0 208 -98q36 -51 45 -122h-194q-10 64 -59 65q-73 -2 -74 -136q1 -134 79 -135q44 2 57 53h194q-22 -134 -135 -184q-42 -19 -90 -23l-17 -29q82 -6 100 -51 q4 -10 4 -20q-2 -103 -245 -103v62q94 4 95 37z" glyph-name="ccedilla" horiz-adv-x="566" unicode="ç"/>
<glyph d="M382 585h-164l-90 135h194zM578 179q-26 -118 -136 -170q-62 -28 -138 -28q-156 0 -232 109q-52 74 -52 181q0 170 113 245q69 46 165 46q154 0 228 -110q48 -74 48 -180v-42h-355q15 -97 85 -98q51 1 71 47h203zM298 411q-59 -2 -76 -79h152q-18 78 -76 79z" glyph-name="egrave" unicode="è"/>
<glyph d="M214 585l60 135h194l-90 -135h-164zM578 179q-26 -118 -136 -170q-62 -28 -138 -28q-156 0 -232 109q-52 74 -52 181q0 170 113 245q69 46 165 46q154 0 228 -110q48 -74 48 -180v-42h-355q15 -97 85 -98q51 1 71 47h203zM298 411q-59 -2 -76 -79h152q-18 78 -76 79z" glyph-name="eacute" unicode="é"/>
<glyph d="M346 585l-48 65l-48 -65h-164l100 135h224l100 -135h-164zM578 179q-26 -118 -136 -170q-62 -28 -138 -28q-156 0 -232 109q-52 74 -52 181q0 170 113 245q69 46 165 46q154 0 228 -110q48 -74 48 -180v-42h-355q15 -97 85 -98q51 1 71 47h203zM298 411q-59 -2 -76 -79 h152q-18 78 -76 79z" glyph-name="ecircumflex" unicode="ê"/>
<glyph d="M131 585v135h144v-135h-144zM321 585v135h144v-135h-144zM578 179q-26 -118 -136 -170q-62 -28 -138 -28q-156 0 -232 109q-52 74 -52 181q0 170 113 245q69 46 165 46q154 0 228 -110q48 -74 48 -180v-42h-355q15 -97 85 -98q51 1 71 47h203zM298 411q-59 -2 -76 -79 h152q-18 78 -76 79z" glyph-name="edieresis" unicode="ë"/>
<glyph d="M221 585h-164l-90 135h194zM40 0v543h194v-543h-194z" glyph-name="igrave" horiz-adv-x="274" unicode="ì"/>
<glyph d="M53 585l60 135h194l-90 -135h-164zM40 0v543h194v-543h-194z" glyph-name="iacute" horiz-adv-x="274" unicode="í"/>
<glyph d="M185 585l-48 65l-48 -65h-164l100 135h224l100 -135h-164zM40 0v543h194v-543h-194z" glyph-name="icircumflex" horiz-adv-x="274" unicode="î"/>
<glyph d="M-30 585v135h144v-135h-144zM160 585v135h144v-135h-144zM40 0v543h194v-543h-194z" glyph-name="idieresis" horiz-adv-x="274" unicode="ï"/>
<glyph d="M298 -19q-155 0 -229 103q-49 69 -49 167q0 159 114 230q69 41 164 41h20q-16 25 -42 58l-150 -40v76l92 24q-47 44 -102 80h224q28 -24 41 -36l138 36v-76l-80 -21q137 -162 137 -352q0 -167 -112 -243q-69 -47 -166 -47zM298 136q78 2 79 115q-1 115 -79 116 q-78 -2 -79 -116q1 -114 79 -115z" glyph-name="eth" unicode="ð"/>
<glyph d="M225 585h-104q0 109 74 131q15 4 29 4q23 0 84 -22q27 -9 40 -9q24 0 32 29q1 1 1 2h104q0 -109 -74 -131q-15 -4 -29 -4q-23 0 -83 21q-27 10 -41 10q-24 0 -32 -29q-1 -1 -1 -2zM40 0v543h194v-72q51 90 151 91q106 0 153 -81q28 -50 28 -120v-361h-194v322 q-1 84 -63 85q-52 0 -69 -57q-6 -20 -6 -44v-306h-194z" glyph-name="ntilde" horiz-adv-x="606" unicode="ñ"/>
<glyph d="M382 585h-164l-90 135h194zM298 -19q-153 0 -227 109q-51 74 -51 181q0 170 113 245q69 46 165 46q152 0 227 -108q51 -75 51 -183q0 -167 -112 -243q-69 -47 -166 -47zM298 136q78 2 79 135q-1 135 -79 136q-78 -2 -79 -136q1 -134 79 -135z" glyph-name="ograve" unicode="ò"/>
<glyph d="M214 585l60 135h194l-90 -135h-164zM298 -19q-153 0 -227 109q-51 74 -51 181q0 170 113 245q69 46 165 46q152 0 227 -108q51 -75 51 -183q0 -167 -112 -243q-69 -47 -166 -47zM298 136q78 2 79 135q-1 135 -79 136q-78 -2 -79 -136q1 -134 79 -135z" glyph-name="oacute" unicode="ó"/>
<glyph d="M346 585l-48 65l-48 -65h-164l100 135h224l100 -135h-164zM298 -19q-153 0 -227 109q-51 74 -51 181q0 170 113 245q69 46 165 46q152 0 227 -108q51 -75 51 -183q0 -167 -112 -243q-69 -47 -166 -47zM298 136q78 2 79 135q-1 135 -79 136q-78 -2 -79 -136 q1 -134 79 -135z" glyph-name="ocircumflex" unicode="ô"/>
<glyph d="M220 585h-104q0 109 74 131q15 4 29 4q23 0 84 -22q27 -9 40 -9q24 0 32 29q1 1 1 2h104q0 -109 -74 -131q-15 -4 -29 -4q-23 0 -83 21q-27 10 -41 10q-24 0 -32 -29q-1 -1 -1 -2zM298 -19q-153 0 -227 109q-51 74 -51 181q0 170 113 245q69 46 165 46q152 0 227 -108 q51 -75 51 -183q0 -167 -112 -243q-69 -47 -166 -47zM298 136q78 2 79 135q-1 135 -79 136q-78 -2 -79 -136q1 -134 79 -135z" glyph-name="otilde" unicode="õ"/>
<glyph d="M131 585v135h144v-135h-144zM321 585v135h144v-135h-144zM298 -19q-153 0 -227 109q-51 74 -51 181q0 170 113 245q69 46 165 46q152 0 227 -108q51 -75 51 -183q0 -167 -112 -243q-69 -47 -166 -47zM298 136q78 2 79 135q-1 135 -79 136q-78 -2 -79 -136q1 -134 79 -135 z" glyph-name="odieresis" unicode="ö"/>
<glyph d="M211 467v144h154v-144h-154zM70 251v146h436v-146h-436zM211 37v144h154v-144h-154z" glyph-name="divide" horiz-adv-x="576" unicode="÷"/>
<glyph d="M308 -19q-47 0 -89 11l-25 -52h-94l41 85q-112 70 -120 223q-1 12 -1 23q0 169 116 245q72 46 172 46q47 0 89 -11l25 52h94l-41 -85q113 -71 121 -228v-19q0 -165 -113 -241q-72 -49 -175 -49zM214 271q0 -43 11 -74l101 209q-7 1 -18 1q-93 -2 -94 -136zM308 136 q93 2 94 135q0 44 -11 75l-101 -209q7 -1 18 -1z" glyph-name="oslash" horiz-adv-x="616" unicode="ø"/>
<glyph d="M384 585h-164l-90 135h194zM366 237v306h194v-543h-194v72q-50 -90 -148 -91q-106 0 -152 84q-26 48 -26 117v361h194v-322q1 -84 60 -85q50 0 66 57q6 20 6 44z" glyph-name="ugrave" horiz-adv-x="600" unicode="ù"/>
<glyph d="M216 585l60 135h194l-90 -135h-164zM366 237v306h194v-543h-194v72q-50 -90 -148 -91q-106 0 -152 84q-26 48 -26 117v361h194v-322q1 -84 60 -85q50 0 66 57q6 20 6 44z" glyph-name="uacute" horiz-adv-x="600" unicode="ú"/>
<glyph d="M348 585l-48 65l-48 -65h-164l100 135h224l100 -135h-164zM366 237v306h194v-543h-194v72q-50 -90 -148 -91q-106 0 -152 84q-26 48 -26 117v361h194v-322q1 -84 60 -85q50 0 66 57q6 20 6 44z" glyph-name="ucircumflex" horiz-adv-x="600" unicode="û"/>
<glyph d="M133 585v135h144v-135h-144zM323 585v135h144v-135h-144zM366 237v306h194v-543h-194v72q-50 -90 -148 -91q-106 0 -152 84q-26 48 -26 117v361h194v-322q1 -84 60 -85q50 0 66 57q6 20 6 44z" glyph-name="udieresis" horiz-adv-x="600" unicode="ü"/>
<glyph d="M216 585l60 135h194l-90 -135h-164zM145 -240q-52 0 -90 19v147h34q66 0 94 44q11 17 18 40l6 19l-202 514h206l77 -245l18 -87l21 87l71 245h197l-215 -568q-59 -156 -143 -196q-41 -19 -92 -19z" glyph-name="yacute" horiz-adv-x="600" unicode="ý"/>
<glyph d="M234 -221h-194v941h194v-227q50 68 127 69q123 0 183 -107q42 -75 42 -183q0 -177 -100 -252q-53 -39 -125 -39q-80 1 -127 66v-268zM311 407q-76 -2 -77 -135q1 -135 77 -136q75 2 76 136q-1 134 -76 135z" glyph-name="thorn" horiz-adv-x="606" unicode="þ"/>
</font>
</defs>
</svg>
