<svg width="31" height="31" viewBox="0 0 31 31" fill="none" xmlns="http://www.w3.org/2000/svg">
<rect width="31" height="31" rx="2" fill="#EFEFEF"/>
<path d="M11.8398 11.9287L8.54492 21H7.19824L10.9922 11.0469H11.8604L11.8398 11.9287ZM14.6016 21L11.2998 11.9287L11.2793 11.0469H12.1475L15.9551 21H14.6016ZM14.4307 17.3154V18.3955H8.83887V17.3154H14.4307ZM21.458 19.7354V15.9277C21.458 15.6361 21.3988 15.3831 21.2803 15.1689C21.1663 14.9502 20.9932 14.7816 20.7607 14.6631C20.5283 14.5446 20.2412 14.4854 19.8994 14.4854C19.5804 14.4854 19.3001 14.54 19.0586 14.6494C18.8216 14.7588 18.6348 14.9023 18.498 15.0801C18.3659 15.2578 18.2998 15.4492 18.2998 15.6543H17.0352C17.0352 15.39 17.1035 15.1279 17.2402 14.8682C17.377 14.6084 17.5729 14.3737 17.8281 14.1641C18.0879 13.9499 18.3978 13.7812 18.7578 13.6582C19.1224 13.5306 19.528 13.4668 19.9746 13.4668C20.5124 13.4668 20.9863 13.5579 21.3965 13.7402C21.8112 13.9225 22.1348 14.1982 22.3672 14.5674C22.6042 14.932 22.7227 15.39 22.7227 15.9414V19.3867C22.7227 19.6328 22.7432 19.8949 22.7842 20.1729C22.8298 20.4508 22.8958 20.6901 22.9824 20.8906V21H21.6631C21.5993 20.8542 21.5492 20.6605 21.5127 20.4189C21.4762 20.1729 21.458 19.945 21.458 19.7354ZM21.6768 16.5156L21.6904 17.4043H20.4121C20.0521 17.4043 19.7308 17.4339 19.4482 17.4932C19.1657 17.5479 18.9287 17.6322 18.7373 17.7461C18.5459 17.86 18.4001 18.0036 18.2998 18.1768C18.1995 18.3454 18.1494 18.5436 18.1494 18.7715C18.1494 19.0039 18.2018 19.2158 18.3066 19.4072C18.4115 19.5986 18.5687 19.7513 18.7783 19.8652C18.9925 19.9746 19.2546 20.0293 19.5645 20.0293C19.9518 20.0293 20.2936 19.9473 20.5898 19.7832C20.8861 19.6191 21.1208 19.4186 21.2939 19.1816C21.4717 18.9447 21.5674 18.7145 21.5811 18.4912L22.1211 19.0996C22.0892 19.291 22.0026 19.5029 21.8613 19.7354C21.7201 19.9678 21.5309 20.1911 21.2939 20.4053C21.0615 20.6149 20.7835 20.7904 20.46 20.9316C20.141 21.0684 19.7809 21.1367 19.3799 21.1367C18.8786 21.1367 18.4388 21.0387 18.0605 20.8428C17.6868 20.6468 17.3952 20.3848 17.1855 20.0566C16.9805 19.724 16.8779 19.3525 16.8779 18.9424C16.8779 18.5459 16.9554 18.1973 17.1104 17.8965C17.2653 17.5911 17.4886 17.3382 17.7803 17.1377C18.0719 16.9326 18.4229 16.7777 18.833 16.6729C19.2432 16.568 19.7012 16.5156 20.207 16.5156H21.6768Z" fill="#484848"/>
</svg>
