<svg width="31" height="31" viewBox="0 0 31 31" fill="none" xmlns="http://www.w3.org/2000/svg">
<rect width="31" height="31" rx="2" fill="black"/>
<path d="M12.8398 11.9287L9.54492 21H8.19824L11.9922 11.0469H12.8604L12.8398 11.9287ZM15.6016 21L12.2998 11.9287L12.2793 11.0469H13.1475L16.9551 21H15.6016ZM15.4307 17.3154V18.3955H9.83887V17.3154H15.4307ZM22.458 19.7354V15.9277C22.458 15.6361 22.3988 15.3831 22.2803 15.1689C22.1663 14.9502 21.9932 14.7816 21.7607 14.6631C21.5283 14.5446 21.2412 14.4854 20.8994 14.4854C20.5804 14.4854 20.3001 14.54 20.0586 14.6494C19.8216 14.7588 19.6348 14.9023 19.498 15.0801C19.3659 15.2578 19.2998 15.4492 19.2998 15.6543H18.0352C18.0352 15.39 18.1035 15.1279 18.2402 14.8682C18.377 14.6084 18.5729 14.3737 18.8281 14.1641C19.0879 13.9499 19.3978 13.7812 19.7578 13.6582C20.1224 13.5306 20.528 13.4668 20.9746 13.4668C21.5124 13.4668 21.9863 13.5579 22.3965 13.7402C22.8112 13.9225 23.1348 14.1982 23.3672 14.5674C23.6042 14.932 23.7227 15.39 23.7227 15.9414V19.3867C23.7227 19.6328 23.7432 19.8949 23.7842 20.1729C23.8298 20.4508 23.8958 20.6901 23.9824 20.8906V21H22.6631C22.5993 20.8542 22.5492 20.6605 22.5127 20.4189C22.4762 20.1729 22.458 19.945 22.458 19.7354ZM22.6768 16.5156L22.6904 17.4043H21.4121C21.0521 17.4043 20.7308 17.4339 20.4482 17.4932C20.1657 17.5479 19.9287 17.6322 19.7373 17.7461C19.5459 17.86 19.4001 18.0036 19.2998 18.1768C19.1995 18.3454 19.1494 18.5436 19.1494 18.7715C19.1494 19.0039 19.2018 19.2158 19.3066 19.4072C19.4115 19.5986 19.5687 19.7513 19.7783 19.8652C19.9925 19.9746 20.2546 20.0293 20.5645 20.0293C20.9518 20.0293 21.2936 19.9473 21.5898 19.7832C21.8861 19.6191 22.1208 19.4186 22.2939 19.1816C22.4717 18.9447 22.5674 18.7145 22.5811 18.4912L23.1211 19.0996C23.0892 19.291 23.0026 19.5029 22.8613 19.7354C22.7201 19.9678 22.5309 20.1911 22.2939 20.4053C22.0615 20.6149 21.7835 20.7904 21.46 20.9316C21.141 21.0684 20.7809 21.1367 20.3799 21.1367C19.8786 21.1367 19.4388 21.0387 19.0605 20.8428C18.6868 20.6468 18.3952 20.3848 18.1855 20.0566C17.9805 19.724 17.8779 19.3525 17.8779 18.9424C17.8779 18.5459 17.9554 18.1973 18.1104 17.8965C18.2653 17.5911 18.4886 17.3382 18.7803 17.1377C19.0719 16.9326 19.4229 16.7777 19.833 16.6729C20.2432 16.568 20.7012 16.5156 21.207 16.5156H22.6768Z" fill="white"/>
</svg>
