<svg width="41" height="41" viewBox="0 0 41 41" fill="none" xmlns="http://www.w3.org/2000/svg">
<g clip-path="url(#clip0_3712_546)">
<path d="M40.2461 20.75C40.2461 9.98045 31.5156 1.25 20.7461 1.25C9.97654 1.25 1.24609 9.98045 1.24609 20.75C1.24609 31.5196 9.97654 40.25 20.7461 40.25C31.5156 40.25 40.2461 31.5196 40.2461 20.75Z" stroke="url(#paint0_linear_3712_546)" stroke-opacity="0.2"/>
<path d="M20.9974 19.3564C20.3907 19.3564 19.7976 19.5443 19.2932 19.8965C18.7887 20.2487 18.3955 20.7493 18.1634 21.3349C17.9312 21.9206 17.8704 22.5651 17.9888 23.1868C18.1072 23.8085 18.3993 24.3796 18.8283 24.8279C19.2573 25.2761 19.8039 25.5814 20.3989 25.705C20.994 25.8287 21.6108 25.7652 22.1713 25.5226C22.7318 25.2801 23.2109 24.8693 23.5479 24.3422C23.885 23.8151 24.0649 23.1954 24.0649 22.5615C24.0639 21.7118 23.7405 20.8971 23.1654 20.2962C22.5903 19.6954 21.8106 19.3574 20.9974 19.3564ZM20.9974 24.4846C20.6334 24.4846 20.2775 24.3718 19.9748 24.1605C19.6722 23.9492 19.4363 23.6488 19.297 23.2974C19.1577 22.946 19.1212 22.5594 19.1922 22.1863C19.2632 21.8133 19.4385 21.4706 19.6959 21.2017C19.9533 20.9327 20.2813 20.7496 20.6383 20.6754C20.9953 20.6012 21.3654 20.6393 21.7017 20.7848C22.038 20.9304 22.3255 21.1768 22.5277 21.4931C22.7299 21.8093 22.8379 22.1811 22.8379 22.5615C22.8374 23.0714 22.6433 23.5602 22.2982 23.9207C21.9532 24.2812 21.4853 24.484 20.9974 24.4846ZM28.9753 21.4165C26.9416 18.4778 24.0337 16.7923 20.9974 16.7923C17.961 16.7923 15.0531 18.4778 13.0197 21.4165C12.7886 21.7494 12.6641 22.1502 12.6641 22.5615C12.6641 22.9728 12.7886 23.3736 13.0197 23.7065C15.0534 26.6452 17.961 28.3307 20.9974 28.3307C24.0337 28.3307 26.9416 26.6452 28.975 23.7065C29.2062 23.3736 29.3307 22.9728 29.3307 22.5615C29.3308 22.1503 29.2064 21.7495 28.9753 21.4165ZM27.9808 22.9553C26.154 25.5948 23.674 27.0487 20.9974 27.0487C18.3208 27.0487 15.8407 25.5948 14.014 22.9553C13.9345 22.8407 13.8914 22.7029 13.8915 22.5614C13.8915 22.42 13.9344 22.2822 14.014 22.1677C15.8407 19.5282 18.3208 18.0743 20.9974 18.0743C23.674 18.0743 26.154 19.5282 27.9811 22.1677C28.0606 22.2823 28.1033 22.4201 28.1033 22.5615C28.1032 22.703 28.0603 22.8408 27.9808 22.9553ZM20.9974 16.1512C20.8347 16.1512 20.6786 16.0837 20.5636 15.9635C20.4485 15.8433 20.3839 15.6802 20.3839 15.5102V12.3051C20.3839 12.1351 20.4485 11.972 20.5636 11.8518C20.6786 11.7316 20.8347 11.6641 20.9974 11.6641C21.1601 11.6641 21.3161 11.7316 21.4312 11.8518C21.5462 11.972 21.6109 12.1351 21.6109 12.3051V15.5102C21.6109 15.6802 21.5462 15.8433 21.4312 15.9635C21.3161 16.0837 21.1601 16.1512 20.9974 16.1512ZM28.5883 14.6945L26.6165 17.1497C26.5115 17.2783 26.3621 17.3583 26.2009 17.3723C26.0397 17.3863 25.8797 17.3333 25.7557 17.2246C25.6318 17.116 25.5539 16.9606 25.5391 16.7923C25.5243 16.624 25.5737 16.4563 25.6766 16.3259L27.6483 13.8707C27.7529 13.7405 27.9026 13.659 28.0647 13.6441C28.2268 13.6293 28.3879 13.6823 28.5125 13.7915C28.6372 13.9008 28.7152 14.0573 28.7294 14.2266C28.7436 14.396 28.6928 14.5643 28.5883 14.6945ZM16.8559 17.2289C16.7942 17.283 16.7229 17.3239 16.646 17.3492C16.5692 17.3745 16.4884 17.3837 16.4081 17.3763C16.3279 17.369 16.2498 17.3452 16.1783 17.3063C16.1069 17.2674 16.0435 17.2142 15.9917 17.1497L14.02 14.6945C13.9682 14.63 13.9291 14.5555 13.9049 14.4752C13.8807 14.395 13.8719 14.3105 13.8789 14.2266C13.8859 14.1428 13.9087 14.0612 13.9459 13.9865C13.9831 13.9119 14.0341 13.8456 14.0958 13.7915C14.2204 13.6823 14.3815 13.6293 14.5436 13.6441C14.7057 13.659 14.8555 13.7405 14.96 13.8707L16.9317 16.3259C16.9835 16.3904 17.0227 16.4649 17.0469 16.5452C17.0711 16.6255 17.0799 16.71 17.0729 16.7938C17.0658 16.8777 17.0431 16.9593 17.0058 17.0339C16.9686 17.1086 16.9177 17.1748 16.8559 17.2289Z" fill="black"/>
</g>
<defs>
<linearGradient id="paint0_linear_3712_546" x1="0.746095" y1="20.75" x2="40.7461" y2="20.75" gradientUnits="userSpaceOnUse">
<stop stop-color="#26B7FF"/>
<stop offset="1" stop-color="#1D4AFE"/>
</linearGradient>
<clipPath id="clip0_3712_546">
<rect width="41" height="41" fill="white"/>
</clipPath>
</defs>
</svg>
