<svg id="analytics-icon-h" xmlns="http://www.w3.org/2000/svg" width="24" height="23.995" viewBox="0 0 24 23.995">
  <path id="Path_28" data-name="Path 28" d="M8.578,11.974V1.039C8.578.3,8.884,0,9.623,0h4.8a.878.878,0,0,1,1,1V22.977A.888.888,0,0,1,14.4,23.993H9.579a.882.882,0,0,1-1-1.005V11.973Z" fill="#fff"/>
  <path id="Path_29" data-name="Path 29" d="M24,15.431v7.531c0,.711-.319,1.031-1.029,1.031h-4.8a.887.887,0,0,1-1.017-1.015V7.863a.875.875,0,0,1,1-1h4.852A.874.874,0,0,1,24,7.847q0,3.792,0,7.584Z" fill="#fff"/>
  <path id="Path_30" data-name="Path 30" d="M6.845,18.889v4.1a.884.884,0,0,1-1,1q-2.426,0-4.852,0A.878.878,0,0,1,0,23Q0,18.851,0,14.7a.866.866,0,0,1,.975-.974q2.453,0,4.9,0a.865.865,0,0,1,.963.958q0,2.1,0,4.207Z" fill="#fff"/>
</svg>
