<svg width="18" height="18" viewBox="0 0 18 18" fill="none" xmlns="http://www.w3.org/2000/svg">
<path d="M10.879 17.9983C11.4808 17.9983 12.0056 17.4735 12.0056 16.8716V14.2403H12.758C13.2094 14.2403 13.5103 13.9393 13.5103 13.488V5.97266H4.48975V13.4881C4.48975 13.9395 4.79067 14.2404 5.24205 14.2404H5.99442V16.8717C5.99442 17.4735 6.51914 17.9984 7.1211 17.9984C7.72289 17.9984 8.24767 17.4735 8.24767 16.8717V14.2404H9.75234V16.8717C9.75228 17.4735 10.2771 17.9983 10.879 17.9983Z" fill="black"/>
<path d="M15.3894 13.4881C15.9912 13.4881 16.5159 12.9633 16.5159 12.3614V7.09886C16.5159 6.5002 15.9912 5.97266 15.3894 5.97266C14.7875 5.97266 14.2627 6.5002 14.2627 7.09886V12.3614C14.2627 12.9632 14.7874 13.4881 15.3894 13.4881Z" fill="black"/>
<path d="M2.61094 13.4881C3.21284 13.4881 3.73763 12.9633 3.73763 12.3614V7.09886C3.73763 6.5002 3.2129 5.97266 2.61094 5.97266C2.0091 5.97266 1.48438 6.5002 1.48438 7.09886V12.3614C1.48437 12.9632 2.0091 13.4881 2.61094 13.4881Z" fill="black"/>
<path d="M12.6074 0.113521C12.457 -0.0378405 12.2331 -0.0378405 12.0827 0.113521L11.0737 1.11918L11.0271 1.16567C10.4288 0.866067 9.75804 0.716447 9.01102 0.715005C9.00736 0.715005 9.00376 0.714885 9.00009 0.714885H8.99997C8.99619 0.714885 8.9927 0.715005 8.98892 0.715005C8.24196 0.716447 7.57116 0.866067 6.97292 1.16567L6.92625 1.11918L5.91729 0.113521C5.76677 -0.0378405 5.54297 -0.0378405 5.39257 0.113521C5.24205 0.264043 5.24205 0.487422 5.39257 0.637823L6.36862 1.61405C6.05412 1.82403 5.76893 2.08099 5.52093 2.37488C4.92719 3.07865 4.54849 3.99457 4.49641 4.98696C4.49593 4.99729 4.49491 5.0075 4.49443 5.01783C4.49125 5.0854 4.48975 5.15333 4.48975 5.22151H13.5103C13.5103 5.15333 13.5086 5.0854 13.5056 5.01783C13.5051 5.0075 13.5041 4.99729 13.5035 4.98696C13.4515 3.99457 13.0727 3.07859 12.479 2.37494C12.2311 2.08105 11.9458 1.82409 11.6313 1.61411L12.6074 0.637883C12.758 0.487422 12.758 0.264043 12.6074 0.113521ZM7.11966 3.90796C6.80841 3.90796 6.55608 3.65563 6.55608 3.34438C6.55608 3.03313 6.80841 2.7808 7.11966 2.7808C7.43091 2.7808 7.68324 3.03313 7.68324 3.34438C7.68324 3.65563 7.43091 3.90796 7.11966 3.90796ZM10.8803 3.90796C10.5691 3.90796 10.3168 3.65563 10.3168 3.34438C10.3168 3.03313 10.5691 2.7808 10.8803 2.7808C11.1916 2.7808 11.4439 3.03313 11.4439 3.34438C11.4439 3.65563 11.1916 3.90796 10.8803 3.90796Z" fill="black"/>
</svg>
