<svg xmlns="http://www.w3.org/2000/svg" width="26.129" height="31.021" viewBox="0 0 26.129 31.021">
  <path id="apple-icon" d="M25.582,24.174a16.866,16.866,0,0,1-1.668,3,15.236,15.236,0,0,1-2.148,2.6A4.168,4.168,0,0,1,19,30.985a6.92,6.92,0,0,1-2.551-.609,7.318,7.318,0,0,0-2.746-.607,7.566,7.566,0,0,0-2.824.607,7.6,7.6,0,0,1-2.44.641,3.924,3.924,0,0,1-2.824-1.248,16,16,0,0,1-2.247-2.688A18.593,18.593,0,0,1,1,22.361a17.281,17.281,0,0,1-1-5.625,10.273,10.273,0,0,1,1.349-5.374A7.913,7.913,0,0,1,4.174,8.5a7.6,7.6,0,0,1,3.82-1.078,8.994,8.994,0,0,1,2.954.688,9.5,9.5,0,0,0,2.343.689,14.022,14.022,0,0,0,2.6-.812,8.589,8.589,0,0,1,3.532-.627A7.5,7.5,0,0,1,25.3,10.457a6.535,6.535,0,0,0-3.466,5.936,6.549,6.549,0,0,0,2.15,4.934,7.066,7.066,0,0,0,2.148,1.409q-.258.749-.548,1.438ZM19.6.621a6.618,6.618,0,0,1-1.7,4.341,5.78,5.78,0,0,1-4.8,2.37,4.831,4.831,0,0,1-.036-.588,6.8,6.8,0,0,1,1.8-4.386A6.929,6.929,0,0,1,17.055.71,6.537,6.537,0,0,1,19.563,0,5.636,5.636,0,0,1,19.6.621Z"/>
</svg>
