<svg width="24" height="21" viewBox="0 0 24 21" fill="none" xmlns="http://www.w3.org/2000/svg">
<path d="M23.9789 10.7864C23.9637 10.7739 23.9417 10.7699 23.9245 10.7757C23.9036 10.7821 23.8844 10.7877 23.8663 10.793L23.8575 10.7956C23.8128 10.8087 23.7743 10.8198 23.7361 10.8352C23.1326 11.075 22.6575 11.4858 22.2836 12.091C22.1912 12.2405 22.1197 12.396 22.0627 12.551C22.1562 12.0296 22.1778 11.8264 22.1944 11.243C22.1951 11.2185 22.1951 11.1936 22.1951 11.1689C22.1951 11.1014 22.1951 11.0376 22.2099 10.9794C22.2276 10.9105 22.2631 10.8417 22.2975 10.7752C22.3072 10.7564 22.3169 10.7376 22.3249 10.721C22.3277 10.7178 22.3366 10.7123 22.3401 10.7118C22.5127 10.6854 22.6653 10.6121 22.8068 10.4878C22.9494 10.3619 23.0666 10.2078 23.1553 10.0296C23.4738 9.39099 23.6332 8.68513 23.6291 7.93186C23.6288 7.8592 23.6202 7.78845 23.6108 7.71152C23.6066 7.67705 23.6022 7.6418 23.5986 7.60528C23.5966 7.58525 23.5843 7.56744 23.5664 7.55878C23.5488 7.55024 23.5275 7.55084 23.5097 7.56161C23.4989 7.56835 23.4897 7.57382 23.4813 7.57869C23.4651 7.58832 23.4528 7.59584 23.4411 7.60426C23.1695 7.79898 22.9299 8.04141 22.7289 8.32462C22.4009 8.78751 22.2102 9.31092 22.1588 9.88672C22.1537 9.82254 22.1485 9.75835 22.1434 9.69417L22.1416 9.67089C22.1214 9.41926 22.1006 9.15903 22.0836 8.90313C22.0794 8.83834 22.0669 8.7753 22.0549 8.7143C22.0316 8.59706 22.0097 8.48631 22.0448 8.37027C22.0528 8.34405 22.0596 8.31764 22.0663 8.29129C22.0829 8.22602 22.1631 8.1255 22.2862 8.0156L22.2909 8.01145C22.3363 7.97295 22.5696 7.75952 22.7019 7.33735C22.8362 6.90844 22.8261 6.46029 22.8187 6.13304L22.8185 6.12432C22.8086 5.67448 22.76 5.33551 22.6609 5.02505C22.6481 4.98535 22.6328 4.94618 22.6167 4.90504C22.6084 4.88362 22.5998 4.86149 22.591 4.83833C22.5838 4.81872 22.5665 4.80446 22.5462 4.80109L22.5363 4.80019C22.5187 4.80019 22.5023 4.80807 22.4912 4.82166L22.3949 4.93903C21.9331 5.5022 21.7063 6.1627 21.7205 6.90225C21.7229 7.03248 21.7327 7.16609 21.7499 7.30402C21.6326 6.899 21.4949 6.50474 21.3384 6.12546C21.3352 6.11716 21.3331 6.10688 21.3328 6.09815L21.3317 6.0463C21.3301 5.97147 21.3284 5.89405 21.3316 5.81789C21.3321 5.80526 21.3403 5.78258 21.3573 5.76026C21.3815 5.72832 21.4083 5.6971 21.4361 5.66462C21.4835 5.60951 21.5324 5.55261 21.5711 5.48764C21.6959 5.27866 21.7545 5.03178 21.7554 4.71062C21.7571 4.33254 21.6988 3.93468 21.5718 3.45843C21.5023 3.19862 21.3976 2.86109 21.2024 2.55508C21.1892 2.53451 21.1744 2.51514 21.1586 2.49462C21.1515 2.48554 21.1441 2.47585 21.1365 2.46545C21.1254 2.45059 21.1101 2.44193 21.0855 2.44193C21.0658 2.44337 21.0482 2.45456 21.0384 2.47194C20.7935 2.91402 20.6715 3.3863 20.6657 3.91579C20.6608 4.35727 20.7297 4.73715 20.8162 5.03738C20.5962 4.63548 20.3517 4.24718 20.0867 3.87885L20.0806 3.87049C20.0746 3.86249 20.0721 3.85858 20.0725 3.86135C20.0559 3.74218 20.0443 3.64683 20.0363 3.56382C20.0365 3.56256 20.038 3.55558 20.0504 3.53488C20.0679 3.50505 20.0871 3.47581 20.1075 3.44489C20.1484 3.38269 20.1907 3.31833 20.2177 3.24626C20.2994 3.02874 20.3178 2.78204 20.2737 2.49234C20.1769 1.85114 19.8942 1.27377 19.4097 0.727145C19.3599 0.67102 19.3048 0.621392 19.2465 0.568937L19.2303 0.554319C19.2075 0.533686 19.1841 0.512571 19.1605 0.490254C19.1455 0.475937 19.1239 0.470583 19.1031 0.476719C19.0833 0.482975 19.0681 0.499337 19.0634 0.51967L19.0528 0.56611C19.0456 0.596909 19.04 0.621212 19.0359 0.645635C18.9707 1.03484 18.9754 1.45171 19.0505 1.9202C19.125 2.38484 19.2734 2.78559 19.501 3.13371C19.1596 2.73139 18.8275 2.39356 18.4804 2.09417C18.4788 2.09212 18.4765 2.08593 18.4764 2.08436C18.5035 1.85066 18.4459 1.63049 18.3 1.41129C18.1086 1.12321 17.8425 0.90364 17.5092 0.758786C17.3098 0.672283 17.1032 0.595706 16.9009 0.520692C16.804 0.48472 16.7071 0.448867 16.6073 0.410428C16.507 0.370545 16.4641 0.363447 16.4408 0.384982C16.4109 0.412894 16.4181 0.436716 16.4311 0.480028L16.4354 0.494164C16.5577 0.906106 16.7199 1.23191 16.9316 1.49015C17.3202 1.96472 17.7747 2.20582 18.3203 2.22711C18.3394 2.22826 18.3546 2.23355 18.3608 2.23836C18.4376 2.29587 18.4942 2.34189 18.5442 2.38749C18.7022 2.53198 18.8579 2.68592 19.0102 2.84803C18.7837 2.70727 18.5068 2.64375 18.195 2.65951C18.0243 2.66811 17.8549 2.69313 17.6911 2.71732L17.6848 2.71828C17.6364 2.72538 17.5882 2.73242 17.5402 2.73921C17.4349 2.75347 17.3288 2.77212 17.2351 2.78848C17.1971 2.79528 17.1064 2.81591 17.0856 2.85988C17.0784 2.87492 17.079 2.89141 17.0871 2.90638C17.0944 2.91944 17.1023 2.93171 17.111 2.9429C17.3815 3.2939 17.6901 3.52508 18.0544 3.64954C18.4986 3.80209 18.9065 3.78952 19.2731 3.61008C19.3292 3.57922 19.3968 3.56358 19.474 3.56358C19.5323 3.56358 19.5761 3.57278 19.5906 3.57609C19.6123 3.5797 19.6417 3.59185 19.6478 3.59967C19.8757 3.89943 20.0921 4.21957 20.2942 4.5559C20.1235 4.38987 19.9008 4.27792 19.5975 4.20501C19.3317 4.14167 19.0599 4.12807 18.7972 4.11484L18.7092 4.11039C18.6267 4.10618 18.5443 4.10094 18.4595 4.09559L18.3171 4.08681C18.2987 4.08681 18.2812 4.09571 18.2705 4.11051C18.2587 4.12645 18.2558 4.14714 18.2628 4.16573C18.2685 4.18125 18.2789 4.20862 18.2843 4.21777C18.5614 4.68132 18.8869 5.00195 19.2791 5.19805C19.6625 5.38959 20.0089 5.44024 20.3584 5.35668C20.3988 5.34694 20.4457 5.34176 20.4941 5.34176C20.6427 5.34176 20.7464 5.38712 20.7681 5.42911C20.9604 5.82571 21.132 6.23783 21.2799 6.6582C21.1247 6.44423 20.9077 6.27044 20.6329 6.14044C20.3599 6.01159 20.0757 5.89381 19.796 5.77789C19.6759 5.7282 19.5552 5.67833 19.4351 5.62732C19.4172 5.6195 19.3961 5.62112 19.3794 5.63213C19.363 5.64302 19.3533 5.66119 19.3533 5.68074C19.3533 5.71828 19.7521 6.82519 20.3314 7.26137C20.5677 7.43931 20.8587 7.62236 21.2257 7.63097C21.3355 7.63319 21.4491 7.64871 21.5349 7.74622C21.548 7.76174 21.5654 7.77384 21.5843 7.78027C21.6136 7.7899 21.6217 7.80782 21.6361 7.86894C21.755 8.36799 21.8416 8.88237 21.8949 9.4047C21.8787 9.3517 21.86 9.29817 21.8385 9.24397C21.7089 8.91522 21.4907 8.62756 21.1519 8.33863C20.9773 8.18909 20.7944 8.04429 20.6176 7.90419L20.6092 7.89757C20.5286 7.83375 20.4482 7.77017 20.3681 7.7058C20.3516 7.69251 20.3355 7.67879 20.3167 7.66279L20.2668 7.61996C20.2493 7.60516 20.2232 7.60209 20.2028 7.61232C20.1818 7.62297 20.1692 7.64498 20.1708 7.6685C20.1733 7.70381 20.1753 7.7372 20.1771 7.76926L20.1781 7.78424C20.1821 7.85023 20.1858 7.91249 20.1925 7.97397C20.2551 8.57258 20.4331 9.07234 20.7366 9.50179C20.9245 9.76726 21.194 10.0917 21.6142 10.2452C21.7165 10.2827 21.7907 10.3396 21.8701 10.4416C21.9451 10.5371 21.959 10.6244 21.9574 10.7342C21.9502 11.1944 21.9174 11.6508 21.8596 12.0978C21.8461 11.9734 21.8174 11.8454 21.7735 11.7123C21.6824 11.4368 21.5406 11.1689 21.3397 10.8934C21.1664 10.6548 20.986 10.4154 20.8115 10.1838L20.7999 10.1683C20.7307 10.0766 20.6616 9.98472 20.5943 9.89485C20.5817 9.87638 20.5634 9.86976 20.5529 9.86609C20.538 9.85881 20.5202 9.85809 20.5044 9.86483C20.4888 9.87144 20.4769 9.8845 20.4717 9.9005L20.4697 9.90676C20.4668 9.91518 20.4645 9.92264 20.4633 9.9301C20.343 10.6475 20.4168 11.2903 20.6889 11.8953C20.8217 12.1911 21 12.5261 21.3142 12.7671C21.4577 12.8771 21.571 13.0315 21.6332 13.2016C21.6464 13.2383 21.6459 13.2541 21.6444 13.2603C21.5114 13.8112 21.3376 14.3425 21.1264 14.8454C21.1808 14.5804 21.1771 14.302 21.115 14.0135C21.0269 13.6047 20.8754 13.2086 20.7403 12.8693L20.6998 12.7677C20.6365 12.6087 20.5727 12.4484 20.5068 12.2823C20.4985 12.2611 20.4783 12.2466 20.4514 12.2453C20.4303 12.2453 20.4108 12.2574 20.4007 12.277L20.3794 12.3169C20.3701 12.3344 20.3614 12.3507 20.3539 12.3676C20.0821 12.9808 19.9903 13.6094 20.0812 14.236C20.1462 14.684 20.2563 15.0048 20.4382 15.2763C20.5323 15.4165 20.6218 15.5728 20.638 15.765C20.6419 15.8105 20.6401 15.8418 20.6198 15.8775C20.3904 16.2793 20.1332 16.6584 19.8514 17.0107C19.8525 17.0088 19.8535 17.0069 19.8546 17.0049C20.0573 16.6346 20.0634 16.2341 20.0427 15.8912C20.0249 15.5972 19.9912 15.3036 19.9588 15.0198L19.9569 15.0034C19.9438 14.8897 19.9309 14.7761 19.919 14.6622C19.9121 14.5977 19.9045 14.5331 19.8966 14.4676L19.8862 14.3789C19.8839 14.3593 19.872 14.3424 19.8548 14.3338C19.8228 14.3171 19.771 14.3429 19.715 14.4091C19.3306 14.8638 19.092 15.3776 19.0058 15.9364C18.9165 16.5158 18.9649 17.0116 19.1541 17.4521C19.1591 17.4639 19.159 17.4878 19.1589 17.4958L19.1488 17.7493C19.1473 17.7675 19.1376 17.7881 19.1297 17.7957C18.7458 18.1655 18.3231 18.4869 17.8696 18.7544C18.0843 18.5603 18.2386 18.3071 18.3387 17.9862C18.4495 17.6306 18.5064 17.2605 18.5616 16.9016L18.5664 16.8697C18.586 16.7436 18.6064 16.6177 18.6272 16.4891L18.6507 16.3437C18.6541 16.3225 18.6457 16.3014 18.6293 16.2887C18.613 16.2757 18.5894 16.2726 18.5706 16.2806L18.5501 16.2891C18.5282 16.2981 18.5091 16.3061 18.4912 16.3153C17.6337 16.7435 17.0693 17.7423 17.149 18.6901C17.1615 18.8386 17.148 18.978 17.1074 19.1161C17.1036 19.1287 17.0915 19.1424 17.0865 19.1447C16.6793 19.3164 16.2921 19.4417 15.9024 19.5277C15.8824 19.5324 15.8665 19.5467 15.86 19.566C15.8535 19.5854 15.8574 19.6065 15.8708 19.6224C15.9131 19.6726 15.95 19.7265 15.9803 19.783C15.9928 19.8061 16.0225 19.818 16.0446 19.8122C16.3621 19.7398 16.6712 19.646 16.9638 19.5333C16.9874 19.5238 17.0054 19.5192 17.0223 19.522C17.0874 19.5307 17.1562 19.544 17.2325 19.563C17.2483 19.5668 17.2613 19.5741 17.2616 19.5734C17.4283 19.9059 17.7149 20.1176 18.138 20.2207C18.23 20.2427 18.3249 20.259 18.4201 20.269C18.5197 20.2795 18.6308 20.2849 18.7502 20.2849C18.9157 20.2849 19.0336 20.2747 19.0351 20.2746C19.4018 20.2335 19.715 20.151 19.9923 20.0222C20.1061 19.9694 20.2358 19.8984 20.3355 19.7715C20.3546 19.7472 20.3514 19.7122 20.3282 19.6918C20.0465 19.4431 19.7596 19.2625 19.4511 19.1395C18.9939 18.9579 18.5775 18.9087 18.1694 18.9872C18.1084 18.999 18.0488 19.0139 17.991 19.0311C18.3728 18.8029 18.7383 18.5346 19.0836 18.229C19.0902 18.223 19.1011 18.2177 19.1096 18.2162C19.166 18.2068 19.2411 18.1953 19.3178 18.1898C19.3249 18.1898 19.3339 18.1932 19.335 18.1935C19.543 18.4263 19.811 18.5395 20.1543 18.5395C20.1718 18.5395 20.1893 18.5391 20.2068 18.5385C20.5801 18.5265 20.9554 18.4239 21.3224 18.2335C21.5891 18.0944 21.8671 17.9324 22.0926 17.6908C22.1426 17.6371 22.1872 17.5764 22.2266 17.5228L22.2305 17.5175C22.2479 17.4939 22.2655 17.4701 22.2836 17.4465C22.2935 17.4338 22.2977 17.4175 22.2951 17.401C22.2923 17.3851 22.2831 17.371 22.2674 17.3608C22.2634 17.3586 22.168 17.3074 22.0808 17.2737C21.4972 17.0481 20.9079 17.025 20.3459 17.2062C20.1618 17.2653 19.9887 17.3541 19.82 17.4768C20.1319 17.1143 20.4206 16.7169 20.6828 16.2893C20.6856 16.2848 20.6931 16.2726 20.6955 16.2704C20.7184 16.2558 20.7419 16.2419 20.7653 16.2283C20.8072 16.2037 20.8506 16.1782 20.8914 16.1479C20.9258 16.1222 20.9355 16.1216 20.9703 16.1439C21.0195 16.1759 21.0767 16.1925 21.1266 16.2055C21.4183 16.2803 21.7124 16.243 22.0377 16.0903C22.3349 15.951 22.5634 15.7307 22.7661 15.5136C23.061 15.1968 23.2536 14.911 23.3725 14.6141C23.3975 14.5518 23.4153 14.4873 23.4338 14.42C23.4414 14.3917 23.4493 14.3634 23.4576 14.3356C23.4666 14.3058 23.4508 14.2742 23.4213 14.2638L23.3969 14.2619C23.2766 14.2619 22.2039 14.2796 21.5765 14.8883C21.44 15.0208 21.3177 15.1615 21.206 15.3157C21.4542 14.79 21.6646 14.2361 21.8343 13.661L21.8367 13.6526C21.8388 13.6456 21.8419 13.6349 21.8439 13.632L22.008 13.4067C22.0141 13.3977 22.0149 13.3977 22.0245 13.3977C22.0288 13.3977 22.0335 13.398 22.0388 13.3983L22.0739 13.4004C22.196 13.408 22.2679 13.4069 22.327 13.3976C22.5607 13.3607 22.7716 13.2431 22.9717 13.0378C23.4398 12.5578 23.7619 11.9589 23.9566 11.2071C23.9775 11.1265 23.9833 11.0452 23.9896 10.9589C23.9923 10.9198 23.9954 10.8795 23.9999 10.8379C24.0017 10.8179 23.9939 10.7989 23.9789 10.7864Z" fill="#3444FB"/>
<path d="M8.0976 19.5276C7.70834 19.4416 7.32118 19.3163 6.91381 19.1446C6.90894 19.1423 6.89685 19.1287 6.89306 19.1164C6.85245 18.978 6.83886 18.8385 6.85137 18.6901C6.93114 17.7422 6.3667 16.7434 5.50943 16.3153C5.4912 16.306 5.47219 16.298 5.4503 16.289L5.42996 16.2806C5.41065 16.2724 5.38713 16.2758 5.37155 16.2883C5.35471 16.3013 5.34635 16.3225 5.34978 16.3437L5.37324 16.489C5.39405 16.6177 5.41444 16.7435 5.43399 16.8695L5.43893 16.9024C5.49397 17.2604 5.55088 17.6306 5.66174 17.9862C5.76178 18.3071 5.91614 18.5603 6.13083 18.7543C5.67726 18.4869 5.25461 18.1654 4.87076 17.7958C4.8627 17.788 4.85314 17.7675 4.85175 17.7505L4.84147 17.4968C4.84141 17.4878 4.84129 17.4639 4.8464 17.452C5.03547 17.0116 5.08389 16.5158 4.99456 15.9364C4.90842 15.3776 4.66984 14.8638 4.28539 14.4091C4.2404 14.3558 4.20069 14.3289 4.16737 14.3289C4.15925 14.3289 4.15191 14.3305 4.14613 14.3335C4.12845 14.3423 4.11648 14.3593 4.11413 14.379L4.10384 14.4675C4.0959 14.5332 4.08826 14.5976 4.08141 14.6623C4.06956 14.7761 4.05656 14.8897 4.04351 15.0034L4.04164 15.0198C4.00916 15.3037 3.97547 15.5972 3.95767 15.8912C3.93697 16.234 3.94311 16.6345 4.14577 17.0049C4.14686 17.0068 4.14782 17.0088 4.1489 17.0107C3.86719 16.6584 3.61003 16.2793 3.3806 15.8776C3.36033 15.8418 3.35858 15.8105 3.36237 15.765C3.37867 15.5727 3.46807 15.4164 3.56221 15.2763C3.74406 15.0048 3.85414 14.684 3.91917 14.236C4.01006 13.6094 3.91827 12.9809 3.64648 12.3676C3.63903 12.3507 3.6303 12.3344 3.62098 12.3169L3.59974 12.2769C3.58958 12.2573 3.56786 12.2444 3.54494 12.2455C3.52208 12.2467 3.50193 12.2612 3.49363 12.2822C3.4277 12.4485 3.36394 12.6087 3.30059 12.7677L3.26011 12.8693C3.125 13.2086 2.97347 13.6048 2.8854 14.0135C2.82332 14.302 2.81953 14.5804 2.87397 14.8454C2.66271 14.3426 2.48904 13.8112 2.35604 13.2603C2.35453 13.2541 2.35405 13.2383 2.36723 13.2016C2.42943 13.0314 2.5427 12.877 2.68623 12.767C3.00042 12.526 3.17866 12.1911 3.31154 11.8952C3.58362 11.2902 3.65743 10.6474 3.53712 9.93009C3.53586 9.92257 3.53357 9.91511 3.53087 9.90699L3.5287 9.9005C3.52347 9.88443 3.51156 9.87144 3.4958 9.86464C3.4804 9.85821 3.46103 9.85941 3.44906 9.8653C3.43702 9.8697 3.4188 9.87637 3.40695 9.89376C3.33885 9.98471 3.26973 10.0765 3.20056 10.1682L3.18895 10.1837C3.0145 10.4154 2.83409 10.6548 2.66072 10.8933C2.45987 11.1689 2.31802 11.4367 2.227 11.7122C2.18309 11.8453 2.1544 11.9734 2.14086 12.0978C2.08305 11.6508 2.05027 11.1944 2.04311 10.7342C2.04143 10.6243 2.05538 10.5371 2.1304 10.4415C2.2098 10.3396 2.28397 10.2827 2.38624 10.2451C2.80642 10.0916 3.07597 9.76719 3.26384 9.50173C3.56732 9.07228 3.74532 8.57257 3.808 7.97403C3.81468 7.91243 3.81847 7.85011 3.82238 7.78418L3.82334 7.7692C3.82521 7.73714 3.82719 7.70375 3.82972 7.66838C3.83128 7.64492 3.81871 7.6229 3.79771 7.61226C3.77738 7.60203 3.75134 7.60504 3.73365 7.62002L3.68378 7.66273C3.66501 7.67873 3.64895 7.69244 3.63229 7.7058C3.55222 7.7701 3.47185 7.83375 3.39131 7.89757L3.38289 7.90419C3.20609 8.04423 3.02322 8.18902 2.84859 8.33857C2.50973 8.62755 2.29155 8.91522 2.16192 9.24396C2.1405 9.29816 2.12173 9.35176 2.10561 9.40482C2.15891 8.88243 2.24547 8.36798 2.36434 7.86888C2.37878 7.80782 2.38684 7.78989 2.41649 7.78015C2.43514 7.77383 2.45253 7.76168 2.46522 7.74664C2.55142 7.64865 2.66493 7.63313 2.7749 7.6309C3.14184 7.6223 3.43287 7.43925 3.6691 7.26131C4.24834 6.82507 4.64717 5.71821 4.64717 5.68067C4.64717 5.66112 4.63742 5.6429 4.62088 5.63189C4.60458 5.62112 4.58256 5.61962 4.56596 5.62702C4.44528 5.67821 4.32461 5.72808 4.19967 5.77975C3.92476 5.89374 3.64053 6.01153 3.36755 6.14032C3.09282 6.27032 2.87572 6.44416 2.72052 6.65807C2.86844 6.23777 3.03994 5.82571 3.23196 5.42971C3.25403 5.387 3.35774 5.34164 3.50644 5.34164C3.55481 5.34164 3.60167 5.34681 3.64215 5.35656C3.99153 5.44029 4.33797 5.38952 4.7214 5.19793C5.11367 5.00182 5.43911 4.6812 5.7163 4.21746C5.7216 4.2085 5.732 4.18113 5.7376 4.16579C5.74464 4.14702 5.74181 4.12633 5.73014 4.11063C5.71931 4.09571 5.70199 4.0868 5.67991 4.0868C5.67973 4.0868 5.67961 4.0868 5.67943 4.0868L5.54095 4.09553C5.45607 4.10088 5.37366 4.10611 5.29125 4.11032L5.20324 4.11478C4.94048 4.12801 4.6687 4.14161 4.40282 4.20495C4.09957 4.27786 3.87694 4.38981 3.70622 4.55583C3.90828 4.21951 4.12466 3.89948 4.35259 3.59973C4.35872 3.59179 4.38814 3.57964 4.41226 3.57561C4.42429 3.57278 4.46808 3.56358 4.52631 3.56358C4.60355 3.56358 4.67117 3.57928 4.7285 3.6108C5.09273 3.78892 5.50179 3.80215 5.94591 3.6496C6.31021 3.52514 6.61875 3.29396 6.88921 2.94307C6.89799 2.93177 6.90593 2.91943 6.91315 2.90644C6.92139 2.89146 6.92193 2.87498 6.91471 2.85994C6.89378 2.81603 6.80319 2.79539 6.76505 2.78854C6.67145 2.77217 6.56539 2.75353 6.46024 2.73927C6.41206 2.73253 6.36381 2.72549 6.31545 2.71834L6.30925 2.71737C6.14539 2.69319 5.97599 2.66817 5.80533 2.65956C5.49349 2.64362 5.21659 2.70727 4.98999 2.84815C5.14236 2.68597 5.29804 2.53209 5.45613 2.38754C5.50612 2.34194 5.56267 2.29599 5.63973 2.2383C5.64568 2.23373 5.66084 2.22837 5.67943 2.22729C6.22558 2.20593 6.68005 1.96483 7.06865 1.49033C7.28034 1.23202 7.44263 0.906223 7.56493 0.49428L7.56914 0.480144C7.58219 0.436832 7.58941 0.413011 7.5594 0.385099C7.53624 0.363563 7.49545 0.36994 7.38946 0.411928C7.29321 0.448923 7.19636 0.484836 7.09692 0.521711C6.89715 0.595762 6.69051 0.672339 6.4911 0.758842C6.15784 0.903696 5.89171 1.12326 5.70024 1.41135C5.55442 1.63055 5.4968 1.85078 5.52393 2.08346C5.52375 2.08604 5.52146 2.09224 5.5211 2.09296C5.17322 2.39332 4.84068 2.73145 4.49924 3.13389C4.72693 2.78577 4.87533 2.38496 4.94981 1.92032C5.02488 1.45189 5.02963 1.03495 4.96442 0.645751C4.96027 0.621388 4.95468 0.597025 4.94752 0.566527L4.93687 0.519545C4.93206 0.499393 4.9169 0.483091 4.89699 0.476835C4.87708 0.47094 4.85476 0.476173 4.8399 0.49031C4.81608 0.512748 4.79274 0.533922 4.76994 0.554495L4.75388 0.568993C4.69553 0.621569 4.64043 0.671196 4.59056 0.727321C4.10601 1.27395 3.8234 1.85132 3.72661 2.49245C3.68252 2.78222 3.7008 3.02892 3.78256 3.24644C3.80963 3.3185 3.85185 3.38287 3.8939 3.44675C3.91315 3.47593 3.9324 3.50522 3.95003 3.5353C3.96302 3.5569 3.9641 3.56249 3.96404 3.56147C3.95604 3.64719 3.94455 3.74272 3.92903 3.85737C3.92837 3.85882 3.92621 3.86219 3.91929 3.87133L3.91369 3.87909C3.64871 4.24742 3.40424 4.63572 3.18425 5.03762C3.27076 4.73744 3.33963 4.3575 3.33476 3.91602C3.32887 3.38648 3.20693 2.9142 2.96186 2.472C2.95217 2.4548 2.93461 2.44361 2.91001 2.44192C2.89214 2.44192 2.87494 2.45077 2.86369 2.46586C2.85635 2.47609 2.84889 2.48572 2.84179 2.49486C2.82597 2.51531 2.81117 2.53468 2.79794 2.55538C2.60279 2.86138 2.49812 3.19879 2.42864 3.4586C2.30166 3.93509 2.24331 4.33296 2.24499 4.71079C2.24595 5.03196 2.30448 5.27884 2.42925 5.48776C2.46805 5.55278 2.51689 5.60969 2.56598 5.66696C2.59203 5.69734 2.61879 5.72856 2.64304 5.76056C2.66 5.78282 2.66818 5.8055 2.66866 5.81813C2.67185 5.89429 2.67017 5.9717 2.66854 6.04654L2.6674 6.09827C2.66722 6.10717 2.66517 6.1174 2.66211 6.12522C2.50546 6.50474 2.36777 6.89918 2.25034 7.30426C2.26761 7.16633 2.27735 7.03278 2.27982 6.90249C2.29402 6.16294 2.06717 5.5025 1.60542 4.93926L1.50917 4.82202C1.49804 4.80824 1.48156 4.80042 1.464 4.80042L1.45437 4.80127C1.4338 4.8047 1.41647 4.81895 1.40932 4.83838C1.40053 4.86178 1.39193 4.88386 1.38357 4.90521C1.36745 4.94648 1.35223 4.98558 1.33936 5.02534C1.24028 5.33569 1.19167 5.67472 1.18181 6.12444L1.18163 6.13322C1.17423 6.4604 1.16406 6.90862 1.29845 7.33753C1.43073 7.75976 1.66401 7.97313 1.70925 8.01145L1.71406 8.01578C1.8372 8.12568 1.91739 8.2262 1.93399 8.29147C1.94067 8.31781 1.94746 8.34422 1.9554 8.37033C1.99053 8.48649 1.96858 8.59718 1.94488 8.7167C1.93309 8.77704 1.92081 8.83936 1.91654 8.90331C1.89958 9.15921 1.87877 9.41944 1.85861 9.67107L1.85681 9.69434C1.85164 9.75853 1.84646 9.82272 1.84135 9.8869C1.78998 9.3111 1.59929 8.78769 1.2712 8.32479C1.07028 8.04158 0.830744 7.79928 0.559083 7.60443C0.547353 7.59601 0.535021 7.58849 0.518539 7.57869C0.510538 7.57406 0.501274 7.56852 0.490025 7.56148C0.473062 7.55132 0.451285 7.55042 0.43378 7.55896C0.415854 7.56768 0.403522 7.58543 0.401477 7.60552C0.397807 7.64191 0.393536 7.67716 0.389025 7.71374C0.379941 7.78863 0.371339 7.85937 0.370978 7.93204C0.366948 8.6853 0.526299 9.39116 0.84476 10.0298C0.933489 10.2079 1.05073 10.3621 1.19336 10.488C1.33478 10.6123 1.4874 10.6855 1.65962 10.7119C1.66341 10.7125 1.67243 10.718 1.67382 10.7191C1.68314 10.7378 1.69283 10.7566 1.70251 10.7754C1.73692 10.8419 1.77247 10.9106 1.79016 10.9796C1.8049 11.0378 1.8049 11.1016 1.8049 11.169C1.8049 11.1938 1.8049 11.2187 1.80568 11.2431C1.82222 11.8266 1.84394 12.0298 1.9373 12.5512C1.88033 12.3962 1.80881 12.2407 1.71647 12.0912C1.34254 11.4859 0.867499 11.0751 0.264203 10.8354C0.225824 10.82 0.187325 10.8088 0.14269 10.7958L0.133787 10.7932C0.11568 10.7879 0.0964904 10.7823 0.0759775 10.776C0.0574498 10.7699 0.0363353 10.7741 0.0212364 10.7866C0.0061976 10.799 -0.00168272 10.8181 0.000302399 10.838C0.00475388 10.8793 0.00782179 10.9196 0.0106491 10.9589C0.0168451 11.045 0.0226801 11.1263 0.0435539 11.2068C0.238216 11.9587 0.560407 12.5575 1.02847 13.0376C1.22861 13.2429 1.43951 13.3606 1.67322 13.3974C1.73217 13.4066 1.80423 13.4078 1.92623 13.4002L1.96136 13.3981C1.96671 13.3978 1.97141 13.3975 1.97568 13.3975C1.9853 13.3975 1.98608 13.3975 1.99276 13.4074L2.1562 13.6318C2.15831 13.6347 2.16138 13.6454 2.16348 13.6527L2.16589 13.6608C2.33552 14.2359 2.54601 14.7898 2.79421 15.3155C2.6825 15.1613 2.56008 15.0205 2.42365 14.8881C1.79623 14.2794 0.723547 14.2617 0.603297 14.2617L0.588319 14.2619L0.578874 14.2636C0.549398 14.2741 0.533457 14.3056 0.542541 14.3353C0.550902 14.3632 0.558722 14.3915 0.567686 14.4247C0.58483 14.4871 0.602636 14.5515 0.6276 14.6138C0.746467 14.9109 0.939143 15.1966 1.23408 15.5134C1.43675 15.7306 1.66522 15.9508 1.96232 16.09C2.2877 16.2428 2.5815 16.2801 2.87367 16.2053C2.92336 16.1922 2.98051 16.1757 3.02965 16.1438C3.06466 16.1214 3.07423 16.1221 3.10864 16.1477C3.14942 16.178 3.1928 16.2035 3.2349 16.2282C3.25818 16.2418 3.28164 16.2556 3.30354 16.2694C3.30703 16.2724 3.31449 16.2846 3.31726 16.2891C3.57941 16.7167 3.86822 17.1141 4.18006 17.4766C4.01139 17.3538 3.8382 17.265 3.65424 17.2059C3.0921 17.0248 2.50288 17.0478 1.91931 17.2735C1.83221 17.3072 1.73674 17.3583 1.73036 17.362C1.71701 17.3707 1.70781 17.3849 1.70492 17.4012C1.70239 17.4172 1.70654 17.4336 1.71629 17.4461C1.73451 17.4698 1.75214 17.4936 1.76958 17.5173L1.77343 17.5225C1.81284 17.5761 1.85747 17.6368 1.90752 17.6906C2.13292 17.9322 2.4109 18.0942 2.67775 18.2333C3.04469 18.4237 3.41994 18.5263 3.79314 18.5383C3.81071 18.5389 3.82827 18.5393 3.84578 18.5393C4.18908 18.5393 4.45708 18.4261 4.66365 18.1947C4.66617 18.1929 4.67514 18.1895 4.68007 18.1894C4.75899 18.195 4.83401 18.2065 4.89007 18.2159C4.89891 18.2174 4.9098 18.2227 4.9166 18.2289C5.26171 18.5344 5.62721 18.8026 6.00902 19.0308C5.95115 19.0136 5.89153 18.9987 5.83054 18.9867C5.4225 18.9083 5.00611 18.9575 4.54887 19.1392C4.2404 19.2621 3.95352 19.4428 3.67181 19.6914C3.64859 19.7118 3.64534 19.7469 3.66447 19.7712C3.76415 19.898 3.89384 19.9691 4.0076 20.0218C4.28503 20.1507 4.5982 20.2332 4.96533 20.2742C4.96641 20.2743 5.08437 20.2845 5.2498 20.2845C5.36921 20.2845 5.48031 20.2792 5.57987 20.2687C5.67504 20.2587 5.76996 20.2424 5.86206 20.2202C6.28507 20.1172 6.57171 19.9055 6.73593 19.5767C6.73888 19.5739 6.75151 19.5666 6.76751 19.5627C6.84385 19.5437 6.91255 19.5304 6.97788 19.5216C6.99328 19.5192 7.01247 19.5233 7.03665 19.5331C7.32876 19.6456 7.6379 19.7394 7.95485 19.8117C7.95931 19.8128 7.96394 19.8133 7.96857 19.8133C7.98987 19.8133 8.00948 19.8016 8.01982 19.7825C8.05008 19.7262 8.08696 19.6722 8.12936 19.6219C8.14266 19.6061 8.14663 19.5851 8.14007 19.5656C8.13382 19.5467 8.11794 19.5324 8.0976 19.5276Z" fill="#3444FB"/>
<path d="M14.8536 11.7652L17.2706 9.40913C17.3526 9.32924 17.3822 9.20965 17.3467 9.10083C17.3114 8.99189 17.2173 8.91249 17.1039 8.89606L13.764 8.41103L12.27 5.38445C12.2193 5.28176 12.1148 5.2168 12.0003 5.2168C11.8858 5.2168 11.7812 5.28188 11.7306 5.38445L10.2372 8.41103L6.8967 8.89606C6.78343 8.91249 6.68929 8.99195 6.65392 9.10083C6.61849 9.20965 6.64802 9.32924 6.73001 9.40913L9.14705 11.7652L8.57678 15.0917C8.55741 15.2045 8.60378 15.3185 8.69642 15.3858C8.78894 15.4531 8.91166 15.462 9.01314 15.4087L12.0004 13.8383L14.9877 15.4087C15.0317 15.4319 15.0798 15.4432 15.1276 15.4432C15.19 15.4432 15.252 15.4239 15.3044 15.3858C15.397 15.3186 15.4435 15.2045 15.4241 15.0917L14.8536 11.7652Z" fill="#3444FB"/>
</svg>