<svg width="16" height="13" viewBox="0 0 16 13" fill="none" xmlns="http://www.w3.org/2000/svg">
<path d="M16 1.84841V10.3441C15.9925 10.3573 15.9796 10.3698 15.9778 10.3836C15.8723 11.2564 15.0664 12.1045 13.8843 12.0995C9.9485 12.0829 6.01268 12.0857 2.07686 12.0976C0.918216 12.1011 -0.00343407 11.1957 9.61884e-06 10.029C0.00783618 7.38517 9.16018e-06 4.74135 0.00345285 2.09752C0.00501816 0.990292 0.891607 0.101193 1.99891 0.100254C6.00235 0.0971243 10.0058 0.0974372 14.0095 0.100254C14.9015 0.10088 15.6738 0.692986 15.9224 1.54954C15.9508 1.64812 15.9743 1.74858 16 1.8481V1.84841ZM14.656 7.37985C14.6601 7.29504 14.6638 7.24966 14.6638 7.20428C14.6638 5.52842 14.6645 3.85225 14.6638 2.17638C14.6638 1.69381 14.404 1.43469 13.9213 1.43469C9.97449 1.43437 6.02771 1.43406 2.08093 1.43469C1.59757 1.43469 1.33866 1.6935 1.33835 2.17638C1.33772 4.29476 1.33804 6.41314 1.33835 8.53152C1.33835 8.58003 1.34399 8.62822 1.34712 8.67673C1.36246 8.68612 1.3778 8.69551 1.39314 8.70521C1.42914 8.65482 1.45919 8.59849 1.5024 8.5553C2.26689 7.78857 3.0339 7.02403 3.7984 6.25729C4.05386 6.00098 4.35439 5.8614 4.72068 5.87674C5.04438 5.89051 5.30986 6.02664 5.53495 6.25447C5.79699 6.52017 6.06183 6.78305 6.33107 7.05282C6.3846 7.0018 6.42624 6.96362 6.46631 6.92388C7.45309 5.93777 8.43985 4.95103 9.42662 3.96491C9.9964 3.39534 10.6692 3.39315 11.2386 3.96116C11.8726 4.59363 12.5053 5.22705 13.1383 5.86046C13.6348 6.35712 14.131 6.85409 14.656 7.37985Z" fill="black"/>
<path d="M16 1.84841V10.3441C15.9925 10.3573 15.9796 10.3698 15.9778 10.3836C15.8723 11.2564 15.0664 12.1045 13.8843 12.0995C9.9485 12.0829 6.01268 12.0857 2.07686 12.0976C0.918216 12.1011 -0.00343407 11.1957 9.61884e-06 10.029C0.00783618 7.38517 9.16018e-06 4.74135 0.00345285 2.09752C0.00501816 0.990292 0.891607 0.101193 1.99891 0.100254C6.00235 0.0971243 10.0058 0.0974372 14.0095 0.100254C14.9015 0.10088 15.6738 0.692986 15.9224 1.54954C15.9508 1.64812 15.9743 1.74858 16 1.8481V1.84841ZM14.656 7.37985C14.6601 7.29504 14.6638 7.24966 14.6638 7.20428C14.6638 5.52842 14.6645 3.85225 14.6638 2.17638C14.6638 1.69381 14.404 1.43469 13.9213 1.43469C9.97449 1.43437 6.02771 1.43406 2.08093 1.43469C1.59757 1.43469 1.33866 1.6935 1.33835 2.17638C1.33772 4.29476 1.33804 6.41314 1.33835 8.53152C1.33835 8.58003 1.34399 8.62822 1.34712 8.67673C1.36246 8.68612 1.3778 8.69551 1.39314 8.70521C1.42914 8.65482 1.45919 8.59849 1.5024 8.5553C2.26689 7.78857 3.0339 7.02403 3.7984 6.25729C4.05386 6.00098 4.35439 5.8614 4.72068 5.87674C5.04438 5.89051 5.30986 6.02664 5.53495 6.25447C5.79699 6.52017 6.06183 6.78305 6.33107 7.05282C6.3846 7.0018 6.42624 6.96362 6.46631 6.92388C7.45309 5.93777 8.43985 4.95103 9.42662 3.96491C9.9964 3.39534 10.6692 3.39315 11.2386 3.96116C11.8726 4.59363 12.5053 5.22705 13.1383 5.86046C13.6348 6.35712 14.131 6.85409 14.656 7.37985Z" fill="url(#paint0_linear_1128_488)" style="mix-blend-mode:lighten"/>
<path d="M4.66493 3.42538C4.66744 4.16395 4.08201 4.75543 3.34413 4.7595C2.60749 4.76356 2.00797 4.17553 2.00296 3.4429C1.99764 2.70308 2.59591 2.09908 3.33411 2.09815C4.06918 2.09721 4.66212 2.68869 4.66493 3.42507V3.42538Z" fill="black"/>
<path d="M4.66493 3.42538C4.66744 4.16395 4.08201 4.75543 3.34413 4.7595C2.60749 4.76356 2.00797 4.17553 2.00296 3.4429C1.99764 2.70308 2.59591 2.09908 3.33411 2.09815C4.06918 2.09721 4.66212 2.68869 4.66493 3.42507V3.42538Z" fill="url(#paint1_linear_1128_488)" style="mix-blend-mode:lighten"/>
<defs>
<linearGradient id="paint0_linear_1128_488" x1="16" y1="2.3483" x2="3.19477" y2="14.085" gradientUnits="userSpaceOnUse">
<stop stop-color="#00CCFF"/>
<stop offset="1" stop-color="#1D4AFE"/>
</linearGradient>
<linearGradient id="paint1_linear_1128_488" x1="4.66494" y1="2.59715" x2="2.00334" y2="4.42744" gradientUnits="userSpaceOnUse">
<stop stop-color="#00CCFF"/>
<stop offset="1" stop-color="#1D4AFE"/>
</linearGradient>
</defs>
</svg>
