<svg width="24" height="25" viewBox="0 0 24 25" fill="none" xmlns="http://www.w3.org/2000/svg">
<path d="M23.1429 0.0703125H0.857143C0.384 0.0703125 0 0.454306 0 0.927441C0 1.40058 0.384 1.78457 0.857143 1.78457H3.51257V23.2128C3.51257 23.5351 3.69257 23.8299 3.97971 23.9765C4.26514 24.1222 4.60971 24.0973 4.872 23.9079L12.0849 18.6991L19.2977 23.9079C19.4546 24.0211 20.0606 24.0425 20.19 23.9765C20.4771 23.8299 20.6571 23.5351 20.6571 23.2128V1.78457H23.1429C23.6169 1.78457 24 1.40058 24 0.927441C24 0.454306 23.6169 0.0703125 23.1429 0.0703125Z" fill="#1E2123"/>
</svg>
