<svg width="127" height="53" viewBox="0 0 127 53" fill="none" xmlns="http://www.w3.org/2000/svg">
<rect x="0.66333" y="0.666016" width="125.33" height="51" rx="4.5" fill="white"/>
<rect x="0.66333" y="0.666016" width="125.33" height="51" rx="4.5" stroke="#EDEDED"/>
<path d="M43.6553 33.3299L37.7612 24.7672L44.2949 17.166H42.8003L41.5207 18.6474L37.0947 23.7988L32.8787 17.6736L32.5294 17.166H27.3487L28.6122 19.0022L34.2181 27.1472L27.3284 35.166H28.8231L34.8843 28.1146L39.3884 34.659L39.7379 35.1662H44.9186L43.6551 33.33L43.6553 33.3299ZM40.3537 33.9941L35.6742 27.1952L35.0079 26.2274L29.5778 18.3379H31.9136L36.3049 24.7182L36.9712 25.686L42.6895 33.994H40.3537V33.9941Z" fill="black"/>
<path d="M58.9448 22.3066V20.9842H66.8248V22.3066H63.648V31.166H62.1167V22.3066H58.9448ZM68.6673 31.166L66.4202 23.5297H67.9564L69.4529 29.1376H69.5274L71.0288 23.5297H72.5651L74.0565 29.1127H74.1311L75.6176 23.5297H77.1538L74.9117 31.166H73.3953L71.8442 25.6525H71.7298L70.1787 31.166H68.6673ZM78.0045 31.166V23.5297H79.491V31.166H78.0045ZM78.7552 22.3514C78.4967 22.3514 78.2747 22.2652 78.0891 22.0929C77.9068 21.9172 77.8156 21.7084 77.8156 21.4664C77.8156 21.2212 77.9068 21.0124 78.0891 20.84C78.2747 20.6644 78.4967 20.5765 78.7552 20.5765C79.0138 20.5765 79.2342 20.6644 79.4165 20.84C79.6021 21.0124 79.6949 21.2212 79.6949 21.4664C79.6949 21.7084 79.6021 21.9172 79.4165 22.0929C79.2342 22.2652 79.0138 22.3514 78.7552 22.3514ZM84.4955 23.5297V24.7228H80.3243V23.5297H84.4955ZM81.4429 21.7001H82.9294V28.9238C82.9294 29.2122 82.9725 29.4293 83.0587 29.5751C83.1449 29.7176 83.2559 29.8154 83.3918 29.8684C83.531 29.9181 83.6818 29.943 83.8442 29.943C83.9635 29.943 84.0679 29.9347 84.1574 29.9181C84.2469 29.9016 84.3165 29.8883 84.3662 29.8784L84.6347 31.1064C84.5485 31.1395 84.4259 31.1726 84.2668 31.2058C84.1077 31.2422 83.9088 31.2621 83.6702 31.2654C83.2791 31.2721 82.9145 31.2025 82.5765 31.0566C82.2384 30.9108 81.965 30.6854 81.7561 30.3805C81.5473 30.0756 81.4429 29.6928 81.4429 29.2321V21.7001ZM89.1445 23.5297V24.7228H84.9733V23.5297H89.1445ZM86.0919 21.7001H87.5784V28.9238C87.5784 29.2122 87.6215 29.4293 87.7077 29.5751C87.7939 29.7176 87.9049 29.8154 88.0408 29.8684C88.18 29.9181 88.3308 29.943 88.4932 29.943C88.6125 29.943 88.7169 29.9347 88.8064 29.9181C88.8959 29.9016 88.9655 29.8883 89.0152 29.8784L89.2837 31.1064C89.1975 31.1395 89.0749 31.1726 88.9158 31.2058C88.7567 31.2422 88.5578 31.2621 88.3192 31.2654C87.9281 31.2721 87.5635 31.2025 87.2254 31.0566C86.8874 30.9108 86.6139 30.6854 86.4051 30.3805C86.1963 30.0756 86.0919 29.6928 86.0919 29.2321V21.7001ZM93.438 31.3201C92.6856 31.3201 92.0377 31.1594 91.4941 30.8379C90.9539 30.5131 90.5362 30.0574 90.2413 29.4707C89.9496 28.8807 89.8038 28.1897 89.8038 27.3975C89.8038 26.6154 89.9496 25.926 90.2413 25.3294C90.5362 24.7328 90.9472 24.2671 91.4742 23.9324C92.0045 23.5976 92.6243 23.4302 93.3336 23.4302C93.7645 23.4302 94.1821 23.5015 94.5864 23.644C94.9908 23.7865 95.3537 24.0102 95.6752 24.3152C95.9967 24.6201 96.2503 25.0162 96.4359 25.5034C96.6215 25.9873 96.7143 26.5756 96.7143 27.2683V27.7953H90.644V26.6816H95.2576C95.2576 26.2905 95.1781 25.9442 95.019 25.6426C94.8599 25.3377 94.6361 25.0974 94.3478 24.9217C94.0628 24.746 93.728 24.6582 93.3435 24.6582C92.9259 24.6582 92.5613 24.7609 92.2498 24.9664C91.9415 25.1686 91.7029 25.4338 91.5339 25.7619C91.3682 26.0867 91.2853 26.4397 91.2853 26.8208V27.6909C91.2853 28.2013 91.3748 28.6355 91.5538 28.9934C91.7361 29.3514 91.9896 29.6248 92.3144 29.8137C92.6392 29.9993 93.0187 30.0922 93.4529 30.0922C93.7346 30.0922 93.9915 30.0524 94.2235 29.9728C94.4555 29.89 94.656 29.7673 94.8251 29.6049C94.9941 29.4425 95.1234 29.242 95.2129 29.0034L96.6198 29.2569C96.5071 29.6712 96.3049 30.0342 96.0133 30.3457C95.7249 30.6539 95.362 30.8942 94.9245 31.0666C94.4903 31.2356 93.9948 31.3201 93.438 31.3201ZM97.8036 31.166V23.5297H99.2404V24.7427H99.3199C99.4591 24.3317 99.7044 24.0086 100.056 23.7733C100.41 23.5346 100.811 23.4153 101.259 23.4153C101.352 23.4153 101.461 23.4186 101.587 23.4252C101.716 23.4319 101.817 23.4402 101.89 23.4501V24.872C101.831 24.8554 101.725 24.8372 101.572 24.8173C101.42 24.7941 101.267 24.7825 101.115 24.7825C100.763 24.7825 100.45 24.8571 100.175 25.0062C99.9033 25.152 99.6878 25.3559 99.5287 25.6177C99.3696 25.8762 99.2901 26.1712 99.2901 26.5027V31.166H97.8036Z" fill="#121212"/>
</svg>
