<svg width="127" height="53" viewBox="0 0 127 53" fill="none" xmlns="http://www.w3.org/2000/svg">
<rect x="1" y="0.666016" width="125.333" height="51" rx="4.5" fill="white"/>
<rect x="1" y="0.666016" width="125.333" height="51" rx="4.5" stroke="#EDEDED"/>
<path d="M39.4722 24.2075H38.6667V24.166H29.6667V28.166H35.3182C34.4937 30.4945 32.2782 32.166 29.6667 32.166C26.3532 32.166 23.6667 29.4795 23.6667 26.166C23.6667 22.8525 26.3532 20.166 29.6667 20.166C31.1962 20.166 32.5877 20.743 33.6472 21.6855L36.4757 18.857C34.6897 17.1925 32.3007 16.166 29.6667 16.166C24.1442 16.166 19.6667 20.6435 19.6667 26.166C19.6667 31.6885 24.1442 36.166 29.6667 36.166C35.1892 36.166 39.6667 31.6885 39.6667 26.166C39.6667 25.4955 39.5977 24.841 39.4722 24.2075Z" fill="#FFC107"/>
<path d="M20.8198 21.5115L24.1053 23.921C24.9943 21.72 27.1473 20.166 29.6668 20.166C31.1963 20.166 32.5878 20.743 33.6473 21.6855L36.4758 18.857C34.6898 17.1925 32.3008 16.166 29.6668 16.166C25.8258 16.166 22.4948 18.3345 20.8198 21.5115Z" fill="#FF3D00"/>
<path d="M29.6667 36.1659C32.2497 36.1659 34.5967 35.1774 36.3712 33.5699L33.2762 30.9509C32.2384 31.7401 30.9704 32.1669 29.6667 32.1659C27.0657 32.1659 24.8572 30.5074 24.0252 28.1929L20.7642 30.7054C22.4192 33.9439 25.7802 36.1659 29.6667 36.1659Z" fill="#4CAF50"/>
<path d="M39.4722 24.2075H38.6667V24.166H29.6667V28.166H35.3182C34.9239 29.2742 34.2134 30.2426 33.2747 30.9515L33.2762 30.9505L36.3712 33.5695C36.1522 33.7685 39.6667 31.166 39.6667 26.166C39.6667 25.4955 39.5977 24.841 39.4722 24.2075Z" fill="#1976D2"/>
<path d="M60.9147 24.246C60.6267 23.6913 60.2267 23.2753 59.7147 22.998C59.2027 22.71 58.6107 22.566 57.9387 22.566C57.2027 22.566 56.5467 22.7313 55.9707 23.062C55.3947 23.3927 54.9414 23.862 54.6107 24.47C54.2907 25.078 54.1307 25.782 54.1307 26.582C54.1307 27.382 54.2907 28.0913 54.6107 28.71C54.9414 29.318 55.3947 29.7873 55.9707 30.118C56.5467 30.4487 57.2027 30.614 57.9387 30.614C58.9307 30.614 59.7361 30.3367 60.3547 29.782C60.9734 29.2273 61.3521 28.4753 61.4907 27.526H57.3147V26.07H63.4427V27.494C63.3254 28.358 63.0161 29.1527 62.5147 29.878C62.0241 30.6033 61.3787 31.1847 60.5787 31.622C59.7894 32.0487 58.9094 32.262 57.9387 32.262C56.8934 32.262 55.9387 32.022 55.0747 31.542C54.2107 31.0513 53.5227 30.374 53.0107 29.51C52.5094 28.646 52.2587 27.67 52.2587 26.582C52.2587 25.494 52.5094 24.518 53.0107 23.654C53.5227 22.79 54.2107 22.118 55.0747 21.638C55.9494 21.1473 56.9041 20.902 57.9387 20.902C59.1227 20.902 60.1734 21.1953 61.0907 21.782C62.0187 22.358 62.6907 23.1793 63.1067 24.246H60.9147ZM69.0657 32.31C68.2337 32.31 67.4817 32.1233 66.8097 31.75C66.1377 31.366 65.6097 30.8327 65.2257 30.15C64.8417 29.4567 64.6497 28.6567 64.6497 27.75C64.6497 26.854 64.8471 26.0593 65.2417 25.366C65.6364 24.6727 66.1751 24.1393 66.8577 23.766C67.5404 23.3927 68.3031 23.206 69.1457 23.206C69.9884 23.206 70.7511 23.3927 71.4337 23.766C72.1164 24.1393 72.6551 24.6727 73.0497 25.366C73.4444 26.0593 73.6417 26.854 73.6417 27.75C73.6417 28.646 73.4391 29.4407 73.0337 30.134C72.6284 30.8273 72.0737 31.366 71.3697 31.75C70.6764 32.1233 69.9084 32.31 69.0657 32.31ZM69.0657 30.726C69.5351 30.726 69.9724 30.614 70.3777 30.39C70.7937 30.166 71.1297 29.83 71.3857 29.382C71.6417 28.934 71.7697 28.39 71.7697 27.75C71.7697 27.11 71.6471 26.5713 71.4017 26.134C71.1564 25.686 70.8311 25.35 70.4257 25.126C70.0204 24.902 69.5831 24.79 69.1137 24.79C68.6444 24.79 68.2071 24.902 67.8017 25.126C67.4071 25.35 67.0924 25.686 66.8577 26.134C66.6231 26.5713 66.5057 27.11 66.5057 27.75C66.5057 28.6993 66.7457 29.4353 67.2257 29.958C67.7164 30.47 68.3297 30.726 69.0657 30.726ZM79.2689 32.31C78.4369 32.31 77.6849 32.1233 77.0129 31.75C76.3409 31.366 75.8129 30.8327 75.4289 30.15C75.0449 29.4567 74.8529 28.6567 74.8529 27.75C74.8529 26.854 75.0502 26.0593 75.4449 25.366C75.8395 24.6727 76.3782 24.1393 77.0609 23.766C77.7435 23.3927 78.5062 23.206 79.3489 23.206C80.1915 23.206 80.9542 23.3927 81.6369 23.766C82.3195 24.1393 82.8582 24.6727 83.2529 25.366C83.6475 26.0593 83.8449 26.854 83.8449 27.75C83.8449 28.646 83.6422 29.4407 83.2369 30.134C82.8315 30.8273 82.2769 31.366 81.5729 31.75C80.8795 32.1233 80.1115 32.31 79.2689 32.31ZM79.2689 30.726C79.7382 30.726 80.1755 30.614 80.5809 30.39C80.9969 30.166 81.3329 29.83 81.5889 29.382C81.8449 28.934 81.9729 28.39 81.9729 27.75C81.9729 27.11 81.8502 26.5713 81.6049 26.134C81.3595 25.686 81.0342 25.35 80.6289 25.126C80.2235 24.902 79.7862 24.79 79.3169 24.79C78.8475 24.79 78.4102 24.902 78.0049 25.126C77.6102 25.35 77.2955 25.686 77.0609 26.134C76.8262 26.5713 76.7089 27.11 76.7089 27.75C76.7089 28.6993 76.9489 29.4353 77.4289 29.958C77.9195 30.47 78.5329 30.726 79.2689 30.726ZM89.2 23.206C89.8827 23.206 90.4853 23.3447 91.008 23.622C91.5413 23.8887 91.9573 24.2247 92.256 24.63V23.35H94.096V32.31C94.096 33.1207 93.9253 33.8407 93.584 34.47C93.2427 35.11 92.7467 35.6113 92.096 35.974C91.456 36.3367 90.688 36.518 89.792 36.518C88.5973 36.518 87.6053 36.2353 86.816 35.67C86.0267 35.1153 85.5787 34.358 85.472 33.398H87.28C87.4187 33.8567 87.712 34.2247 88.16 34.502C88.6187 34.79 89.1627 34.934 89.792 34.934C90.528 34.934 91.12 34.71 91.568 34.262C92.0267 33.814 92.256 33.1633 92.256 32.31V30.838C91.9467 31.254 91.5253 31.606 90.992 31.894C90.4693 32.1713 89.872 32.31 89.2 32.31C88.432 32.31 87.728 32.118 87.088 31.734C86.4587 31.3393 85.9573 30.7953 85.584 30.102C85.2213 29.398 85.04 28.6033 85.04 27.718C85.04 26.8327 85.2213 26.0487 85.584 25.366C85.9573 24.6833 86.4587 24.1553 87.088 23.782C87.728 23.398 88.432 23.206 89.2 23.206ZM92.256 27.75C92.256 27.142 92.128 26.614 91.872 26.166C91.6267 25.718 91.3013 25.3767 90.896 25.142C90.4907 24.9073 90.0533 24.79 89.584 24.79C89.1147 24.79 88.6773 24.9073 88.272 25.142C87.8667 25.366 87.536 25.702 87.28 26.15C87.0347 26.5873 86.912 27.11 86.912 27.718C86.912 28.326 87.0347 28.8593 87.28 29.318C87.536 29.7767 87.8667 30.1287 88.272 30.374C88.688 30.6087 89.1253 30.726 89.584 30.726C90.0533 30.726 90.4907 30.6087 90.896 30.374C91.3013 30.1393 91.6267 29.798 91.872 29.35C92.128 28.8913 92.256 28.358 92.256 27.75ZM98.3157 20.326V32.166H96.4917V20.326H98.3157ZM108.79 27.542C108.79 27.8727 108.769 28.1713 108.726 28.438H101.99C102.044 29.142 102.305 29.7073 102.774 30.134C103.244 30.5607 103.82 30.774 104.502 30.774C105.484 30.774 106.177 30.3633 106.582 29.542H108.55C108.284 30.3527 107.798 31.0193 107.094 31.542C106.401 32.054 105.537 32.31 104.502 32.31C103.66 32.31 102.902 32.1233 102.23 31.75C101.569 31.366 101.046 30.8327 100.662 30.15C100.289 29.4567 100.102 28.6567 100.102 27.75C100.102 26.8433 100.284 26.0487 100.646 25.366C101.02 24.6727 101.537 24.1393 102.198 23.766C102.87 23.3927 103.638 23.206 104.502 23.206C105.334 23.206 106.076 23.3873 106.726 23.75C107.377 24.1127 107.884 24.6247 108.246 25.286C108.609 25.9367 108.79 26.6887 108.79 27.542ZM106.886 26.966C106.876 26.294 106.636 25.7553 106.166 25.35C105.697 24.9447 105.116 24.742 104.422 24.742C103.793 24.742 103.254 24.9447 102.806 25.35C102.358 25.7447 102.092 26.2833 102.006 26.966H106.886Z" fill="#121212"/>
</svg>
