<svg width="128" height="53" viewBox="0 0 128 53" fill="none" xmlns="http://www.w3.org/2000/svg">
<rect x="1.33325" y="0.666016" width="125.33" height="51" rx="4.5" fill="white"/>
<rect x="1.33325" y="0.666016" width="125.33" height="51" rx="4.5" stroke="#EDEDED"/>
<path d="M19.4983 16.2061C13.9983 16.2061 9.49829 20.6961 9.49829 26.2261C9.49829 31.2261 13.1583 35.3761 17.9383 36.1261V29.1261H15.3983V26.2261H17.9383V24.0161C17.9383 21.5061 19.4283 20.1261 21.7183 20.1261C22.8083 20.1261 23.9483 20.3161 23.9483 20.3161V22.7861H22.6883C21.4483 22.7861 21.0583 23.5561 21.0583 24.3461V26.2261H23.8383L23.3883 29.1261H21.0583V36.1261C23.4147 35.7539 25.5605 34.5516 27.1082 32.7361C28.6559 30.9207 29.5036 28.6117 29.4983 26.2261C29.4983 20.6961 24.9983 16.2061 19.4983 16.2061Z" fill="#1877F2"/>
<path d="M49.2423 21.046V22.534H44.5223V25.814H48.2023V27.302H44.5223V32.166H42.6983V21.046H49.2423ZM50.3247 27.718C50.3247 26.8327 50.506 26.0487 50.8687 25.366C51.242 24.6833 51.7433 24.1553 52.3727 23.782C53.0127 23.398 53.7167 23.206 54.4847 23.206C55.178 23.206 55.7807 23.3447 56.2927 23.622C56.8153 23.8887 57.2313 24.2247 57.5407 24.63V23.35H59.3807V32.166H57.5407V30.854C57.2313 31.27 56.81 31.6167 56.2767 31.894C55.7433 32.1713 55.1353 32.31 54.4527 32.31C53.6953 32.31 53.002 32.118 52.3727 31.734C51.7433 31.3393 51.242 30.7953 50.8687 30.102C50.506 29.398 50.3247 28.6033 50.3247 27.718ZM57.5407 27.75C57.5407 27.142 57.4127 26.614 57.1567 26.166C56.9113 25.718 56.586 25.3767 56.1807 25.142C55.7753 24.9073 55.338 24.79 54.8687 24.79C54.3993 24.79 53.962 24.9073 53.5567 25.142C53.1513 25.366 52.8207 25.702 52.5647 26.15C52.3193 26.5873 52.1967 27.11 52.1967 27.718C52.1967 28.326 52.3193 28.8593 52.5647 29.318C52.8207 29.7767 53.1513 30.1287 53.5567 30.374C53.9727 30.6087 54.41 30.726 54.8687 30.726C55.338 30.726 55.7753 30.6087 56.1807 30.374C56.586 30.1393 56.9113 29.798 57.1567 29.35C57.4127 28.8913 57.5407 28.358 57.5407 27.75ZM61.1684 27.75C61.1684 26.8433 61.3497 26.0487 61.7124 25.366C62.0857 24.6727 62.5977 24.1393 63.2484 23.766C63.8991 23.3927 64.6457 23.206 65.4884 23.206C66.5551 23.206 67.4351 23.462 68.1284 23.974C68.8324 24.4753 69.3071 25.1953 69.5524 26.134H67.5844C67.4244 25.6967 67.1684 25.3553 66.8164 25.11C66.4644 24.8647 66.0217 24.742 65.4884 24.742C64.7417 24.742 64.1444 25.0087 63.6964 25.542C63.2591 26.0647 63.0404 26.8007 63.0404 27.75C63.0404 28.6993 63.2591 29.4407 63.6964 29.974C64.1444 30.5073 64.7417 30.774 65.4884 30.774C66.5444 30.774 67.2431 30.31 67.5844 29.382H69.5524C69.2964 30.278 68.8164 30.9927 68.1124 31.526C67.4084 32.0487 66.5337 32.31 65.4884 32.31C64.6457 32.31 63.8991 32.1233 63.2484 31.75C62.5977 31.366 62.0857 30.8327 61.7124 30.15C61.3497 29.4567 61.1684 28.6567 61.1684 27.75ZM79.4502 27.542C79.4502 27.8727 79.4288 28.1713 79.3862 28.438H72.6502C72.7035 29.142 72.9648 29.7073 73.4342 30.134C73.9035 30.5607 74.4795 30.774 75.1622 30.774C76.1435 30.774 76.8368 30.3633 77.2422 29.542H79.2102C78.9435 30.3527 78.4582 31.0193 77.7542 31.542C77.0608 32.054 76.1968 32.31 75.1622 32.31C74.3195 32.31 73.5622 32.1233 72.8902 31.75C72.2288 31.366 71.7062 30.8327 71.3222 30.15C70.9488 29.4567 70.7622 28.6567 70.7622 27.75C70.7622 26.8433 70.9435 26.0487 71.3062 25.366C71.6795 24.6727 72.1968 24.1393 72.8582 23.766C73.5302 23.3927 74.2982 23.206 75.1622 23.206C75.9942 23.206 76.7355 23.3873 77.3862 23.75C78.0368 24.1127 78.5435 24.6247 78.9062 25.286C79.2688 25.9367 79.4502 26.6887 79.4502 27.542ZM77.5462 26.966C77.5355 26.294 77.2955 25.7553 76.8262 25.35C76.3568 24.9447 75.7755 24.742 75.0822 24.742C74.4528 24.742 73.9142 24.9447 73.4662 25.35C73.0182 25.7447 72.7515 26.2833 72.6662 26.966H77.5462ZM83.0692 24.662C83.3785 24.2353 83.7998 23.8887 84.3332 23.622C84.8772 23.3447 85.4798 23.206 86.1412 23.206C86.9198 23.206 87.6238 23.3927 88.2532 23.766C88.8825 24.1393 89.3785 24.6727 89.7412 25.366C90.1038 26.0487 90.2852 26.8327 90.2852 27.718C90.2852 28.6033 90.1038 29.398 89.7412 30.102C89.3785 30.7953 88.8772 31.3393 88.2372 31.734C87.6078 32.118 86.9092 32.31 86.1412 32.31C85.4585 32.31 84.8505 32.1767 84.3172 31.91C83.7945 31.6433 83.3785 31.302 83.0692 30.886V32.166H81.2452V20.326H83.0692V24.662ZM88.4292 27.718C88.4292 27.11 88.3012 26.5873 88.0452 26.15C87.7998 25.702 87.4692 25.366 87.0532 25.142C86.6478 24.9073 86.2105 24.79 85.7412 24.79C85.2825 24.79 84.8452 24.9073 84.4292 25.142C84.0238 25.3767 83.6932 25.718 83.4372 26.166C83.1918 26.614 83.0692 27.142 83.0692 27.75C83.0692 28.358 83.1918 28.8913 83.4372 29.35C83.6932 29.798 84.0238 30.1393 84.4292 30.374C84.8452 30.6087 85.2825 30.726 85.7412 30.726C86.2105 30.726 86.6478 30.6087 87.0532 30.374C87.4692 30.1287 87.7998 29.7767 88.0452 29.318C88.3012 28.8593 88.4292 28.326 88.4292 27.718ZM95.9129 32.31C95.0809 32.31 94.3289 32.1233 93.6569 31.75C92.9849 31.366 92.4569 30.8327 92.0729 30.15C91.6889 29.4567 91.4969 28.6567 91.4969 27.75C91.4969 26.854 91.6942 26.0593 92.0889 25.366C92.4836 24.6727 93.0222 24.1393 93.7049 23.766C94.3876 23.3927 95.1502 23.206 95.9929 23.206C96.8356 23.206 97.5982 23.3927 98.2809 23.766C98.9636 24.1393 99.5022 24.6727 99.8969 25.366C100.292 26.0593 100.489 26.854 100.489 27.75C100.489 28.646 100.286 29.4407 99.8809 30.134C99.4756 30.8273 98.9209 31.366 98.2169 31.75C97.5236 32.1233 96.7556 32.31 95.9129 32.31ZM95.9129 30.726C96.3822 30.726 96.8196 30.614 97.2249 30.39C97.6409 30.166 97.9769 29.83 98.2329 29.382C98.4889 28.934 98.6169 28.39 98.6169 27.75C98.6169 27.11 98.4942 26.5713 98.2489 26.134C98.0036 25.686 97.6782 25.35 97.2729 25.126C96.8676 24.902 96.4302 24.79 95.9609 24.79C95.4916 24.79 95.0542 24.902 94.6489 25.126C94.2542 25.35 93.9396 25.686 93.7049 26.134C93.4702 26.5713 93.3529 27.11 93.3529 27.75C93.3529 28.6993 93.5929 29.4353 94.0729 29.958C94.5636 30.47 95.1769 30.726 95.9129 30.726ZM106.116 32.31C105.284 32.31 104.532 32.1233 103.86 31.75C103.188 31.366 102.66 30.8327 102.276 30.15C101.892 29.4567 101.7 28.6567 101.7 27.75C101.7 26.854 101.897 26.0593 102.292 25.366C102.687 24.6727 103.225 24.1393 103.908 23.766C104.591 23.3927 105.353 23.206 106.196 23.206C107.039 23.206 107.801 23.3927 108.484 23.766C109.167 24.1393 109.705 24.6727 110.1 25.366C110.495 26.0593 110.692 26.854 110.692 27.75C110.692 28.646 110.489 29.4407 110.084 30.134C109.679 30.8273 109.124 31.366 108.42 31.75C107.727 32.1233 106.959 32.31 106.116 32.31ZM106.116 30.726C106.585 30.726 107.023 30.614 107.428 30.39C107.844 30.166 108.18 29.83 108.436 29.382C108.692 28.934 108.82 28.39 108.82 27.75C108.82 27.11 108.697 26.5713 108.452 26.134C108.207 25.686 107.881 25.35 107.476 25.126C107.071 24.902 106.633 24.79 106.164 24.79C105.695 24.79 105.257 24.902 104.852 25.126C104.457 25.35 104.143 25.686 103.908 26.134C103.673 26.5713 103.556 27.11 103.556 27.75C103.556 28.6993 103.796 29.4353 104.276 29.958C104.767 30.47 105.38 30.726 106.116 30.726ZM115.983 27.766L120.047 32.166H117.583L114.319 28.374V32.166H112.495V20.326H114.319V27.206L117.519 23.35H120.047L115.983 27.766Z" fill="#121212"/>
</svg>
