<svg width="23" height="19" viewBox="0 0 23 19" fill="none" xmlns="http://www.w3.org/2000/svg">
<path d="M22.9499 6.07827C22.9503 5.66714 22.854 5.26167 22.669 4.89453C22.484 4.52739 22.2153 4.20885 21.8846 3.96457C21.5539 3.72029 21.1704 3.5571 20.7651 3.48815C20.3598 3.41921 19.944 3.44643 19.5511 3.56762C19.1582 3.68882 18.7993 3.9006 18.5033 4.1859C18.2073 4.47121 17.9824 4.82205 17.8468 5.21018C17.7112 5.59831 17.6687 6.01286 17.7226 6.42044C17.7766 6.82802 17.9255 7.21723 18.1574 7.55671L15.6458 10.6505L13.3874 5.45952C13.7993 5.11285 14.0946 4.64792 14.2334 4.12774C14.3722 3.60756 14.3476 3.05729 14.1631 2.55153C13.9786 2.04577 13.643 1.60897 13.2019 1.30034C12.7608 0.991706 12.2355 0.826172 11.6971 0.826172C11.1587 0.826172 10.6334 0.991706 10.1923 1.30034C9.75114 1.60897 9.41558 2.04577 9.23107 2.55153C9.04656 3.05729 9.02202 3.60756 9.16078 4.12774C9.29954 4.64792 9.59488 5.11285 10.0068 5.45952L7.75397 10.6476L5.2424 7.5539C5.56504 7.08116 5.72432 6.51593 5.69601 5.94429C5.66769 5.37265 5.45332 4.82593 5.08555 4.38739C4.71777 3.94886 4.21675 3.64253 3.65878 3.51508C3.10081 3.38763 2.51648 3.44602 1.99477 3.68138C1.47306 3.91674 1.04257 4.31616 0.76886 4.8188C0.495148 5.32145 0.393217 5.89978 0.47859 6.46572C0.563962 7.03166 0.83196 7.55418 1.24177 7.95372C1.65158 8.35326 2.18073 8.60791 2.74866 8.6789L4.10616 16.8248C4.16451 17.175 4.34521 17.4932 4.61609 17.7227C4.88697 17.9522 5.23049 18.0782 5.58553 18.0783H17.8143C18.1693 18.0782 18.5128 17.9522 18.7837 17.7227C19.0546 17.4932 19.2353 17.175 19.2937 16.8248L20.6502 8.68265C21.2851 8.60336 21.8691 8.29495 22.2926 7.81537C22.7161 7.33579 22.9498 6.71806 22.9499 6.07827ZM11.6999 2.32827C11.9224 2.32827 12.1399 2.39425 12.3249 2.51787C12.5099 2.64149 12.6541 2.81719 12.7393 3.02275C12.8244 3.22832 12.8467 3.45452 12.8033 3.67275C12.7599 3.89098 12.6527 4.09143 12.4954 4.24877C12.3381 4.4061 12.1376 4.51325 11.9194 4.55666C11.7012 4.60006 11.475 4.57779 11.2694 4.49264C11.0638 4.40749 10.8881 4.26329 10.7645 4.07829C10.6409 3.89328 10.5749 3.67578 10.5749 3.45327C10.5749 3.1549 10.6934 2.86875 10.9044 2.65778C11.1154 2.4468 11.4015 2.32827 11.6999 2.32827ZM1.94991 6.07827C1.94991 5.85577 2.01589 5.63826 2.1395 5.45326C2.26312 5.26825 2.43882 5.12406 2.64439 5.03891C2.84995 4.95376 3.07615 4.93148 3.29438 4.97489C3.51261 5.0183 3.71307 5.12544 3.8704 5.28278C4.02773 5.44011 4.13488 5.64057 4.17829 5.85879C4.2217 6.07702 4.19942 6.30322 4.11427 6.50879C4.02912 6.71436 3.88493 6.89006 3.69992 7.01368C3.51492 7.13729 3.29741 7.20327 3.07491 7.20327C2.77654 7.20327 2.49039 7.08475 2.27941 6.87377C2.06843 6.66279 1.94991 6.37664 1.94991 6.07827ZM20.3249 7.20327C20.1024 7.20327 19.8849 7.13729 19.6999 7.01368C19.5149 6.89006 19.3707 6.71436 19.2855 6.50879C19.2004 6.30322 19.1781 6.07702 19.2215 5.85879C19.2649 5.64057 19.3721 5.44011 19.5294 5.28278C19.6867 5.12544 19.8872 5.0183 20.1054 4.97489C20.3237 4.93148 20.5499 4.95376 20.7554 5.03891C20.961 5.12406 21.1367 5.26825 21.2603 5.45326C21.3839 5.63826 21.4499 5.85577 21.4499 6.07827C21.4499 6.37664 21.3314 6.66279 21.1204 6.87377C20.9094 7.08475 20.6233 7.20327 20.3249 7.20327Z" fill="url(#paint0_linear_90_3811)"/>
<defs>
<linearGradient id="paint0_linear_90_3811" x1="0.449219" y1="9.45222" x2="22.9499" y2="9.45222" gradientUnits="userSpaceOnUse">
<stop stop-color="#26B7FF"/>
<stop offset="1" stop-color="#1D4AFE"/>
</linearGradient>
</defs>
</svg>
