<svg id="dashboard-icon-h" xmlns="http://www.w3.org/2000/svg" width="24" height="22.825" viewBox="0 0 24 22.825">
  <path id="Path_7" data-name="Path 7" d="M9.613,5.987V.015C9.728.01,9.828,0,9.928,0q6.36,0,12.719,0A1.212,1.212,0,0,1,24,1.357q0,2.167,0,4.334v.3Z" fill="#fff"/>
  <path id="Path_8" data-name="Path 8" d="M9.614,16.832H23.983c.006.1.015.188.015.279q0,2.181,0,4.362a1.209,1.209,0,0,1-1.335,1.345q-6.387,0-12.773,0c-.172,0-.3.007-.3-.24.009-1.857.005-3.714.006-5.571,0-.054.01-.108.017-.176Z" fill="#fff"/>
  <path id="Path_9" data-name="Path 9" d="M23.981,14.394H9.621V8.43h14.36Z" fill="#fff"/>
  <path id="Path_10" data-name="Path 10" d="M7.185.013V5.989H.017C.011,5.891,0,5.8,0,5.71q0-2.2,0-4.39A1.2,1.2,0,0,1,1.306,0q2.8,0,5.6,0c.083,0,.166.007.279.012Z" fill="#fff"/>
  <path id="Path_11" data-name="Path 11" d="M0,16.826H7.2V17.1c0,1.8,0,3.6.005,5.4,0,.238-.048.323-.307.321-1.857-.011-3.714,0-5.57-.007A1.2,1.2,0,0,1,0,21.493Q0,19.3,0,17.1v-.277Z" fill="#fff"/>
  <path id="Path_12" data-name="Path 12" d="M7.182,8.435V14.39H.019V8.435Z" fill="#fff"/>
</svg>
