<svg width="22" height="22" viewBox="0 0 22 22" fill="none" xmlns="http://www.w3.org/2000/svg">
<path d="M7.62598 12.2119C8.78912 12.212 9.72168 13.1538 9.72168 14.3252V17.1377C9.72163 18.3008 8.78909 19.2499 7.62598 19.25H4.83691C3.68209 19.2498 2.74224 18.3008 2.74219 17.1377V14.3252C2.74219 13.1538 3.68206 12.2121 4.83691 12.2119H7.62598ZM17.1465 12.2119C18.3014 12.212 19.2422 13.1537 19.2422 14.3252V17.1377C19.2421 18.3009 18.3014 19.2499 17.1465 19.25H14.3574C13.1944 19.2498 12.2627 18.3008 12.2627 17.1377V14.3252C12.2627 13.1538 13.1944 12.2121 14.3574 12.2119H17.1465ZM7.62598 2.75C8.78897 2.75013 9.72145 3.6985 9.72168 4.8623V7.6748C9.72168 8.84623 8.78912 9.78698 7.62598 9.78711H4.83691C3.68206 9.78693 2.74219 8.84619 2.74219 7.6748V4.8623C2.74242 3.69854 3.68221 2.75018 4.83691 2.75H7.62598ZM17.1465 2.75C18.3013 2.75008 19.242 3.69848 19.2422 4.8623V7.6748C19.2422 8.84626 18.3014 9.78703 17.1465 9.78711H14.3574C13.1944 9.78688 12.2627 8.84616 12.2627 7.6748V4.8623C12.2629 3.69857 13.1945 2.75023 14.3574 2.75H17.1465Z" fill="#030712"/>
</svg>
