<svg width="19" height="19" viewBox="0 0 19 19" fill="none" xmlns="http://www.w3.org/2000/svg">
<path d="M8.36035 2.1875C8.04969 2.1875 7.79785 2.43934 7.79785 2.75V3.3125H4.61035C4.29969 3.3125 4.04785 3.56434 4.04785 3.875C4.04785 4.18566 4.29969 4.4375 4.61035 4.4375H15.1104C15.421 4.4375 15.6729 4.18566 15.6729 3.875C15.6729 3.56434 15.421 3.3125 15.1104 3.3125H11.9229V2.75C11.9229 2.43934 11.671 2.1875 11.3604 2.1875H8.36035Z" fill="#FF4343"/>
<path d="M8.36035 8.4873C8.671 8.4873 8.92285 8.73915 8.92285 9.0498V14.2998C8.92285 14.6105 8.671 14.8623 8.36035 14.8623C8.04969 14.8623 7.79785 14.6105 7.79785 14.2998V9.0498C7.79785 8.73915 8.04969 8.4873 8.36035 8.4873Z" fill="#FF4343"/>
<path d="M11.9229 9.0498C11.9229 8.73915 11.671 8.4873 11.3604 8.4873C11.0497 8.4873 10.7979 8.73915 10.7979 9.0498V14.2998C10.7979 14.6105 11.0497 14.8623 11.3604 14.8623C11.671 14.8623 11.9229 14.6105 11.9229 14.2998V9.0498Z" fill="#FF4343"/>
<path fill-rule="evenodd" clip-rule="evenodd" d="M5.35419 6.43789C5.38585 6.15301 5.62664 5.9375 5.91326 5.9375H13.808C14.0946 5.9375 14.3354 6.15301 14.3671 6.43789L14.5172 7.78889C14.7893 10.2379 14.7893 12.7095 14.5172 15.1585L14.5024 15.2915C14.3944 16.2636 13.6409 17.0388 12.6723 17.1744C10.807 17.4355 8.91428 17.4355 7.04894 17.1744C6.08028 17.0388 5.32688 16.2636 5.21886 15.2915L5.20409 15.1585C4.93197 12.7095 4.93197 10.2379 5.20409 7.78889L5.35419 6.43789ZM6.41672 7.0625L6.3222 7.91313C6.05927 10.2796 6.05927 12.6679 6.3222 15.0343L6.33698 15.1672C6.38821 15.6283 6.74552 15.9959 7.20491 16.0603C8.96678 16.3069 10.7545 16.3069 12.5163 16.0603C12.9758 15.9959 13.3331 15.6283 13.3843 15.1672L13.3991 15.0343C13.662 12.6679 13.662 10.2796 13.3991 7.91313L13.3046 7.0625H6.41672Z" fill="#FF4343"/>
</svg>
