<svg width="22" height="22" viewBox="0 0 22 22" fill="none" xmlns="http://www.w3.org/2000/svg">
<path fill-rule="evenodd" clip-rule="evenodd" d="M1.146 5.49935C1.146 4.10713 2.27461 2.97852 3.66683 2.97852H18.3335C19.7257 2.97852 20.8543 4.10713 20.8543 5.49935V14.666C20.8543 16.0583 19.7257 17.1869 18.3335 17.1869H13.0292L13.7167 18.5619H15.5835C15.9632 18.5619 16.271 18.8697 16.271 19.2494C16.271 19.629 15.9632 19.9369 15.5835 19.9369H6.41683C6.03714 19.9369 5.72933 19.629 5.72933 19.2494C5.72933 18.8697 6.03714 18.5619 6.41683 18.5619H8.2836L8.9711 17.1869H3.66683C2.27461 17.1869 1.146 16.0583 1.146 14.666V5.49935ZM18.3335 15.8119H3.66683C3.034 15.8119 2.521 15.2989 2.521 14.666V5.49935C2.521 4.86652 3.034 4.35352 3.66683 4.35352H18.3335C18.9664 4.35352 19.4793 4.86652 19.4793 5.49935V14.666C19.4793 15.2989 18.9664 15.8119 18.3335 15.8119Z" fill="url(#paint0_linear_2251_258)"/>
<defs>
<linearGradient id="paint0_linear_2251_258" x1="1.146" y1="19.9369" x2="22.3186" y2="17.8526" gradientUnits="userSpaceOnUse">
<stop stop-color="#00CCFF"/>
<stop offset="1" stop-color="#1D4AFE"/>
</linearGradient>
</defs>
</svg>
