<svg width="18" height="18" viewBox="0 0 18 18" fill="none" xmlns="http://www.w3.org/2000/svg">
<g clip-path="url(#clip0_2439_748)">
<path d="M12.5191 8.4625C12.5191 8.09336 12.2203 7.79102 11.8476 7.79102H10.2585L11.6015 9.13398H11.8476C12.2167 9.13398 12.5191 8.83516 12.5191 8.4625Z" fill="black"/>
<path d="M15.7395 6.24727C16.3512 6.85898 16.657 7.59727 16.657 8.46211C16.6676 9.19688 16.3934 9.91055 15.8977 10.452C15.3914 11.018 14.7551 11.3766 13.9957 11.5277L15.0926 12.6246C15.9363 12.2836 16.6676 11.7105 17.1949 10.9688C17.7258 10.241 18.007 9.36562 18 8.46563C18 7.22813 17.5641 6.17344 16.6922 5.29805C15.8203 4.42266 14.7656 3.99023 13.5246 3.99023H10.0547V5.3332H13.5246C14.3895 5.32969 15.1277 5.63555 15.7395 6.24727Z" fill="black"/>
<path d="M0.200344 1.55762L2.87573 4.23301C2.17964 4.50371 1.5855 4.94668 1.09331 5.55488C0.42886 6.37402 0.0983909 7.32324 0.0983909 8.39551C0.0983909 9.63301 0.534328 10.6877 1.4062 11.5631C2.27808 12.435 3.33277 12.8709 4.57378 12.8709H8.37769V11.5279H4.60191C3.75816 11.5314 2.95308 11.201 2.35542 10.6104C1.73667 9.9916 1.43433 9.24277 1.44136 8.36738C1.44839 7.54473 1.77886 6.75723 2.36245 6.17715C2.823 5.72012 3.35386 5.43184 3.95855 5.32285L6.36323 7.72754H6.25073C5.88159 7.72754 5.57925 8.02637 5.57925 8.39902C5.57925 8.76816 5.87808 9.07051 6.25073 9.07051H7.7062L16.0417 17.4025C16.3089 17.6662 16.7378 17.6662 17.005 17.4025C17.2687 17.1354 17.2687 16.7064 17.005 16.4393L1.16011 0.597852C0.892922 0.330664 0.464016 0.330664 0.196828 0.597852C-0.0668435 0.865039 -0.0668435 1.29395 0.200344 1.55762Z" fill="black"/>
</g>
<defs>
<clipPath id="clip0_2439_748">
<rect width="18" height="18" fill="white"/>
</clipPath>
</defs>
</svg>
