<svg width="16" height="17" viewBox="0 0 16 17" fill="none" xmlns="http://www.w3.org/2000/svg">
<path d="M2.65594 5.38432C2.25452 5.38432 1.84642 5.43141 1.45375 5.37474C0.628399 5.25514 0.0218874 4.52592 0.00813151 3.69043C-0.00228965 3.06705 -0.00312334 2.44283 0.00813151 1.81945C0.0256391 0.883952 0.7893 0.11764 1.72387 0.0988881C2.35456 0.0863871 2.98608 0.0859704 3.61677 0.0988881C4.543 0.118473 5.30583 0.876868 5.32751 1.80236C5.34251 2.4395 5.34293 3.07788 5.32751 3.71502C5.305 4.63884 4.5405 5.39057 3.61302 5.41599C3.29413 5.42474 2.97524 5.41724 2.65594 5.41724C2.65594 5.4064 2.65594 5.39515 2.65594 5.38432Z" fill="black"/>
<path d="M2.65594 5.38432C2.25452 5.38432 1.84642 5.43141 1.45375 5.37474C0.628399 5.25514 0.0218874 4.52592 0.00813151 3.69043C-0.00228965 3.06705 -0.00312334 2.44283 0.00813151 1.81945C0.0256391 0.883952 0.7893 0.11764 1.72387 0.0988881C2.35456 0.0863871 2.98608 0.0859704 3.61677 0.0988881C4.543 0.118473 5.30583 0.876868 5.32751 1.80236C5.34251 2.4395 5.34293 3.07788 5.32751 3.71502C5.305 4.63884 4.5405 5.39057 3.61302 5.41599C3.29413 5.42474 2.97524 5.41724 2.65594 5.41724C2.65594 5.4064 2.65594 5.39515 2.65594 5.38432Z" fill="url(#paint0_linear_1128_501)" style="mix-blend-mode:lighten"/>
<path d="M2.68918 10.7523C3.04267 10.7523 3.39949 10.7227 3.74922 10.7581C4.55623 10.8402 5.2161 11.4253 5.28905 12.2341C5.35991 13.0162 5.36117 13.8155 5.28488 14.5968C5.20151 15.4502 4.44369 16.0523 3.58332 16.0652C2.97305 16.0744 2.36279 16.0748 1.75252 16.0652C0.784191 16.0498 0.0188623 15.2793 0.00594006 14.3097C-0.00198002 13.7067 -0.00198002 13.1037 0.00594006 12.5008C0.0188623 11.5307 0.784608 10.7636 1.75252 10.7452C2.06433 10.7394 2.37654 10.7444 2.68876 10.7444C2.68876 10.7469 2.68876 10.7498 2.68876 10.7523H2.68918Z" fill="black"/>
<path d="M2.68918 10.7523C3.04267 10.7523 3.39949 10.7227 3.74922 10.7581C4.55623 10.8402 5.2161 11.4253 5.28905 12.2341C5.35991 13.0162 5.36117 13.8155 5.28488 14.5968C5.20151 15.4502 4.44369 16.0523 3.58332 16.0652C2.97305 16.0744 2.36279 16.0748 1.75252 16.0652C0.784191 16.0498 0.0188623 15.2793 0.00594006 14.3097C-0.00198002 13.7067 -0.00198002 13.1037 0.00594006 12.5008C0.0188623 11.5307 0.784608 10.7636 1.75252 10.7452C2.06433 10.7394 2.37654 10.7444 2.68876 10.7444C2.68876 10.7469 2.68876 10.7498 2.68876 10.7523H2.68918Z" fill="url(#paint1_linear_1128_501)" style="mix-blend-mode:lighten"/>
<path d="M10.6962 13.4045C10.6962 12.9966 10.6483 12.5819 10.7062 12.1823C10.8237 11.3698 11.5532 10.7635 12.3786 10.7472C12.9818 10.7351 13.5854 10.7401 14.1885 10.7443C15.0998 10.7505 15.8588 11.3439 15.9468 12.2452C16.0231 13.0261 16.016 13.8266 15.9393 14.6079C15.8572 15.448 15.0981 16.051 14.249 16.0647C13.632 16.0747 13.0147 16.0756 12.3978 16.0647C11.4411 16.0476 10.6799 15.2776 10.662 14.3196C10.6562 14.0146 10.6612 13.7095 10.6612 13.4049C10.6728 13.4049 10.6845 13.4049 10.6962 13.4049V13.4045Z" fill="black"/>
<path d="M10.6962 13.4045C10.6962 12.9966 10.6483 12.5819 10.7062 12.1823C10.8237 11.3698 11.5532 10.7635 12.3786 10.7472C12.9818 10.7351 13.5854 10.7401 14.1885 10.7443C15.0998 10.7505 15.8588 11.3439 15.9468 12.2452C16.0231 13.0261 16.016 13.8266 15.9393 14.6079C15.8572 15.448 15.0981 16.051 14.249 16.0647C13.632 16.0747 13.0147 16.0756 12.3978 16.0647C11.4411 16.0476 10.6799 15.2776 10.662 14.3196C10.6562 14.0146 10.6612 13.7095 10.6612 13.4049C10.6728 13.4049 10.6845 13.4049 10.6962 13.4049V13.4045Z" fill="url(#paint2_linear_1128_501)" style="mix-blend-mode:lighten"/>
<path d="M7.99533 4.53505C7.99533 5.13843 7.99908 5.71848 7.99408 6.29853C7.99033 6.72314 7.71396 7.07275 7.32254 7.16568C6.78522 7.29319 6.25541 6.93983 6.23082 6.37895C6.2008 5.68848 6.19455 4.99217 6.24833 4.3042C6.31544 3.44329 7.06534 2.77615 7.92863 2.76199C8.84319 2.74698 9.75776 2.75282 10.6723 2.75949C11.1375 2.76282 11.5123 3.12493 11.5394 3.57372C11.5685 4.05418 11.2647 4.44004 10.792 4.51713C10.6969 4.53255 10.5989 4.53463 10.5022 4.53505C9.67813 4.5363 8.85361 4.53588 7.99491 4.53588L7.99533 4.53505Z" fill="black"/>
<path d="M7.99533 4.53505C7.99533 5.13843 7.99908 5.71848 7.99408 6.29853C7.99033 6.72314 7.71396 7.07275 7.32254 7.16568C6.78522 7.29319 6.25541 6.93983 6.23082 6.37895C6.2008 5.68848 6.19455 4.99217 6.24833 4.3042C6.31544 3.44329 7.06534 2.77615 7.92863 2.76199C8.84319 2.74698 9.75776 2.75282 10.6723 2.75949C11.1375 2.76282 11.5123 3.12493 11.5394 3.57372C11.5685 4.05418 11.2647 4.44004 10.792 4.51713C10.6969 4.53255 10.5989 4.53463 10.5022 4.53505C9.67813 4.5363 8.85361 4.53588 7.99491 4.53588L7.99533 4.53505Z" fill="url(#paint3_linear_1128_501)" style="mix-blend-mode:lighten"/>
<path d="M4.44723 8.08126C5.18213 8.08126 5.88785 8.08126 6.59357 8.08126C6.76698 8.08126 6.93997 8.07834 7.11338 8.08251C7.60526 8.09459 7.98125 8.46254 7.99376 8.95174C8.00168 9.26302 8.00251 9.57513 7.99292 9.88641C7.97917 10.3389 7.62693 10.704 7.18299 10.7406C6.73488 10.7773 6.33971 10.481 6.24133 10.0348C6.22966 9.98141 6.21591 9.92849 6.19882 9.85932C5.63524 9.85932 5.07458 9.86015 4.51434 9.85932C3.96785 9.85807 3.49723 9.67639 3.12582 9.26677C2.8357 8.94633 2.68313 8.56713 2.67063 8.13626C2.66146 7.8179 2.66271 7.49913 2.66938 7.18077C2.67938 6.70906 3.03328 6.34362 3.50432 6.30695C3.94868 6.27236 4.35761 6.59989 4.42639 7.05992C4.45056 7.22285 4.44306 7.3912 4.44598 7.55705C4.4489 7.72248 4.44681 7.88791 4.44681 8.08167L4.44723 8.08126Z" fill="black"/>
<path d="M4.44723 8.08126C5.18213 8.08126 5.88785 8.08126 6.59357 8.08126C6.76698 8.08126 6.93997 8.07834 7.11338 8.08251C7.60526 8.09459 7.98125 8.46254 7.99376 8.95174C8.00168 9.26302 8.00251 9.57513 7.99292 9.88641C7.97917 10.3389 7.62693 10.704 7.18299 10.7406C6.73488 10.7773 6.33971 10.481 6.24133 10.0348C6.22966 9.98141 6.21591 9.92849 6.19882 9.85932C5.63524 9.85932 5.07458 9.86015 4.51434 9.85932C3.96785 9.85807 3.49723 9.67639 3.12582 9.26677C2.8357 8.94633 2.68313 8.56713 2.67063 8.13626C2.66146 7.8179 2.66271 7.49913 2.66938 7.18077C2.67938 6.70906 3.03328 6.34362 3.50432 6.30695C3.94868 6.27236 4.35761 6.59989 4.42639 7.05992C4.45056 7.22285 4.44306 7.3912 4.44598 7.55705C4.4489 7.72248 4.44681 7.88791 4.44681 8.08167L4.44723 8.08126Z" fill="url(#paint4_linear_1128_501)" style="mix-blend-mode:lighten"/>
<path d="M15.988 7.20569C15.988 7.77366 15.9897 8.34162 15.9876 8.90917C15.9855 9.45629 15.6062 9.85924 15.0985 9.85799C14.6008 9.85674 14.2131 9.46005 14.2106 8.92667C14.2048 7.77032 14.2043 6.61356 14.2106 5.45722C14.2135 4.90759 14.6008 4.52673 15.1218 4.53631C15.6266 4.54589 15.9855 4.93551 15.9872 5.48097C15.9893 6.0556 15.9876 6.63065 15.9876 7.20528L15.988 7.20569Z" fill="black"/>
<path d="M15.988 7.20569C15.988 7.77366 15.9897 8.34162 15.9876 8.90917C15.9855 9.45629 15.6062 9.85924 15.0985 9.85799C14.6008 9.85674 14.2131 9.46005 14.2106 8.92667C14.2048 7.77032 14.2043 6.61356 14.2106 5.45722C14.2135 4.90759 14.6008 4.52673 15.1218 4.53631C15.6266 4.54589 15.9855 4.93551 15.9872 5.48097C15.9893 6.0556 15.9876 6.63065 15.9876 7.20528L15.988 7.20569Z" fill="url(#paint5_linear_1128_501)" style="mix-blend-mode:lighten"/>
<path d="M7.99571 14.2896C8.28291 14.2896 8.54469 14.2875 8.80689 14.2896C9.36963 14.2946 9.77689 14.6721 9.77355 15.1838C9.77022 15.6997 9.36713 16.0672 8.79897 16.0668C8.45965 16.0668 8.11659 16.091 7.78228 16.0489C6.87731 15.9355 6.25704 15.2342 6.22036 14.3121C6.20827 14.015 6.21035 13.7166 6.21911 13.4195C6.23495 12.8849 6.6197 12.5123 7.13325 12.5232C7.63013 12.5336 7.99154 12.9203 7.99612 13.4491C7.99821 13.7183 7.99612 13.9875 7.99612 14.2892L7.99571 14.2896Z" fill="black"/>
<path d="M7.99571 14.2896C8.28291 14.2896 8.54469 14.2875 8.80689 14.2896C9.36963 14.2946 9.77689 14.6721 9.77355 15.1838C9.77022 15.6997 9.36713 16.0672 8.79897 16.0668C8.45965 16.0668 8.11659 16.091 7.78228 16.0489C6.87731 15.9355 6.25704 15.2342 6.22036 14.3121C6.20827 14.015 6.21035 13.7166 6.21911 13.4195C6.23495 12.8849 6.6197 12.5123 7.13325 12.5232C7.63013 12.5336 7.99154 12.9203 7.99612 13.4491C7.99821 13.7183 7.99612 13.9875 7.99612 14.2892L7.99571 14.2896Z" fill="url(#paint6_linear_1128_501)" style="mix-blend-mode:lighten"/>
<path d="M11.1188 5.41893C11.5481 5.41893 11.9775 5.41601 12.4068 5.41976C12.9187 5.42393 13.3072 5.78854 13.3231 6.274C13.3393 6.76987 12.9683 7.18199 12.4502 7.19116C11.5573 7.20741 10.6636 7.20574 9.7707 7.19241C9.25423 7.1849 8.86823 6.77195 8.88324 6.28608C8.89866 5.78896 9.28758 5.42309 9.8103 5.41934C10.2463 5.41643 10.6828 5.41893 11.1192 5.41893H11.1188Z" fill="black"/>
<path d="M11.1188 5.41893C11.5481 5.41893 11.9775 5.41601 12.4068 5.41976C12.9187 5.42393 13.3072 5.78854 13.3231 6.274C13.3393 6.76987 12.9683 7.18199 12.4502 7.19116C11.5573 7.20741 10.6636 7.20574 9.7707 7.19241C9.25423 7.1849 8.86823 6.77195 8.88324 6.28608C8.89866 5.78896 9.28758 5.42309 9.8103 5.41934C10.2463 5.41643 10.6828 5.41893 11.1192 5.41893H11.1188Z" fill="url(#paint7_linear_1128_501)" style="mix-blend-mode:lighten"/>
<path d="M11.0891 9.85927C10.6735 9.85927 10.2584 9.86218 9.84276 9.85843C9.28294 9.85385 8.87484 9.46882 8.88193 8.95836C8.88943 8.44832 9.28752 8.08204 9.84026 8.08121C10.6852 8.07954 11.5297 8.07954 12.3747 8.08121C12.9249 8.08246 13.3222 8.45582 13.323 8.9667C13.3238 9.47632 12.9291 9.85177 12.3772 9.85802C11.9478 9.86302 11.5185 9.85885 11.0891 9.85885V9.85927Z" fill="black"/>
<path d="M11.0891 9.85927C10.6735 9.85927 10.2584 9.86218 9.84276 9.85843C9.28294 9.85385 8.87484 9.46882 8.88193 8.95836C8.88943 8.44832 9.28752 8.08204 9.84026 8.08121C10.6852 8.07954 11.5297 8.07954 12.3747 8.08121C12.9249 8.08246 13.3222 8.45582 13.323 8.9667C13.3238 9.47632 12.9291 9.85177 12.3772 9.85802C11.9478 9.86302 11.5185 9.85885 11.0891 9.85885V9.85927Z" fill="url(#paint8_linear_1128_501)" style="mix-blend-mode:lighten"/>
<path d="M14.1913 1.87236C13.905 1.87236 13.6353 1.87695 13.3651 1.87153C12.8145 1.86069 12.4318 1.48108 12.4406 0.961038C12.4493 0.455997 12.8399 0.0963844 13.3856 0.0947176C13.9404 0.0930508 14.4952 0.0922174 15.0505 0.0947176C15.6153 0.0972178 15.9829 0.468498 15.9867 1.03646C15.9884 1.3069 15.99 1.57734 15.9867 1.84736C15.9804 2.3324 15.644 2.70951 15.1834 2.75285C14.722 2.79619 14.3285 2.49241 14.2268 2.01446C14.218 1.97404 14.2072 1.93445 14.1913 1.87195V1.87236Z" fill="black"/>
<path d="M14.1913 1.87236C13.905 1.87236 13.6353 1.87695 13.3651 1.87153C12.8145 1.86069 12.4318 1.48108 12.4406 0.961038C12.4493 0.455997 12.8399 0.0963844 13.3856 0.0947176C13.9404 0.0930508 14.4952 0.0922174 15.0505 0.0947176C15.6153 0.0972178 15.9829 0.468498 15.9867 1.03646C15.9884 1.3069 15.99 1.57734 15.9867 1.84736C15.9804 2.3324 15.644 2.70951 15.1834 2.75285C14.722 2.79619 14.3285 2.49241 14.2268 2.01446C14.218 1.97404 14.2072 1.93445 14.1913 1.87195V1.87236Z" fill="url(#paint9_linear_1128_501)" style="mix-blend-mode:lighten"/>
<path d="M1.7835 8.08874C1.7835 8.36585 1.78767 8.64296 1.78267 8.92006C1.77308 9.46469 1.38208 9.86764 0.878946 9.85764C0.375396 9.84764 0.00690258 9.45219 0.00481835 8.91465C0.00273412 8.35335 0.00190042 7.79247 0.00481835 7.23118C0.00773627 6.70905 0.37623 6.3186 0.873527 6.30443C1.36082 6.29068 1.76099 6.67738 1.78017 7.19492C1.79142 7.49245 1.78225 7.7908 1.78225 8.08833H1.78309L1.7835 8.08874Z" fill="black"/>
<path d="M1.7835 8.08874C1.7835 8.36585 1.78767 8.64296 1.78267 8.92006C1.77308 9.46469 1.38208 9.86764 0.878946 9.85764C0.375396 9.84764 0.00690258 9.45219 0.00481835 8.91465C0.00273412 8.35335 0.00190042 7.79247 0.00481835 7.23118C0.00773627 6.70905 0.37623 6.3186 0.873527 6.30443C1.36082 6.29068 1.76099 6.67738 1.78017 7.19492C1.79142 7.49245 1.78225 7.7908 1.78225 8.08833H1.78309L1.7835 8.08874Z" fill="url(#paint10_linear_1128_501)" style="mix-blend-mode:lighten"/>
<path d="M10.2177 0.095074C10.3769 0.095074 10.5366 0.0896568 10.6954 0.0959073C11.1476 0.114659 11.5136 0.470105 11.5399 0.910974C11.5682 1.38393 11.2752 1.7948 10.8129 1.84272C10.4165 1.88355 10.0097 1.88272 9.61324 1.8423C9.16638 1.79646 8.84874 1.36184 8.88459 0.927225C8.92253 0.464271 9.28101 0.113826 9.73996 0.0963241C9.89878 0.0900736 10.0584 0.0954908 10.2177 0.0954908V0.095074Z" fill="black"/>
<path d="M10.2177 0.095074C10.3769 0.095074 10.5366 0.0896568 10.6954 0.0959073C11.1476 0.114659 11.5136 0.470105 11.5399 0.910974C11.5682 1.38393 11.2752 1.7948 10.8129 1.84272C10.4165 1.88355 10.0097 1.88272 9.61324 1.8423C9.16638 1.79646 8.84874 1.36184 8.88459 0.927225C8.92253 0.464271 9.28101 0.113826 9.73996 0.0963241C9.89878 0.0900736 10.0584 0.0954908 10.2177 0.0954908V0.095074Z" fill="url(#paint11_linear_1128_501)" style="mix-blend-mode:lighten"/>
<path d="M8.89324 10.7439C9.37678 10.7489 9.77695 11.1544 9.7732 11.6353C9.76903 12.1178 9.36552 12.5195 8.88365 12.5203C8.39302 12.5212 7.9891 12.1091 7.99619 11.6153C8.00369 11.1298 8.40594 10.7389 8.89324 10.7439Z" fill="black"/>
<path d="M8.89324 10.7439C9.37678 10.7489 9.77695 11.1544 9.7732 11.6353C9.76903 12.1178 9.36552 12.5195 8.88365 12.5203C8.39302 12.5212 7.9891 12.1091 7.99619 11.6153C8.00369 11.1298 8.40594 10.7389 8.89324 10.7439Z" fill="url(#paint12_linear_1128_501)" style="mix-blend-mode:lighten"/>
<path d="M7.11712 0.0947597C7.60358 0.0993435 7.99708 0.49896 7.995 0.985666C7.99291 1.46904 7.59108 1.87032 7.10837 1.87115C6.61982 1.87157 6.20714 1.45237 6.21798 0.966497C6.22924 0.479374 6.63066 0.0905927 7.11712 0.0947597Z" fill="black"/>
<path d="M7.11712 0.0947597C7.60358 0.0993435 7.99708 0.49896 7.995 0.985666C7.99291 1.46904 7.59108 1.87032 7.10837 1.87115C6.61982 1.87157 6.20714 1.45237 6.21798 0.966497C6.22924 0.479374 6.63066 0.0905927 7.11712 0.0947597Z" fill="url(#paint13_linear_1128_501)" style="mix-blend-mode:lighten"/>
<path d="M14.2072 3.64453C14.2072 4.13624 13.812 4.53335 13.3235 4.53294C12.8349 4.53252 12.441 4.13499 12.4414 3.64286C12.4414 3.15074 12.8345 2.75654 13.3251 2.75696C13.8149 2.75696 14.2076 3.15199 14.2072 3.64453Z" fill="black"/>
<path d="M14.2072 3.64453C14.2072 4.13624 13.812 4.53335 13.3235 4.53294C12.8349 4.53252 12.441 4.13499 12.4414 3.64286C12.4414 3.15074 12.8345 2.75654 13.3251 2.75696C13.8149 2.75696 14.2076 3.15199 14.2072 3.64453Z" fill="url(#paint14_linear_1128_501)" style="mix-blend-mode:lighten"/>
<defs>
<linearGradient id="paint0_linear_1128_501" x1="5.33892" y1="1.08889" x2="0.00517056" y2="4.76138" gradientUnits="userSpaceOnUse">
<stop stop-color="#00CCFF"/>
<stop offset="1" stop-color="#1D4AFE"/>
</linearGradient>
<linearGradient id="paint1_linear_1128_501" x1="5.34215" y1="11.7404" x2="0.00682163" y2="15.4157" gradientUnits="userSpaceOnUse">
<stop stop-color="#00CCFF"/>
<stop offset="1" stop-color="#1D4AFE"/>
</linearGradient>
<linearGradient id="paint2_linear_1128_501" x1="16.0005" y1="11.7395" x2="10.6646" y2="15.4138" gradientUnits="userSpaceOnUse">
<stop stop-color="#00CCFF"/>
<stop offset="1" stop-color="#1D4AFE"/>
</linearGradient>
<linearGradient id="paint3_linear_1128_501" x1="11.5413" y1="3.5849" x2="6.87245" y2="7.44125" gradientUnits="userSpaceOnUse">
<stop stop-color="#00CCFF"/>
<stop offset="1" stop-color="#1D4AFE"/>
</linearGradient>
<linearGradient id="paint4_linear_1128_501" x1="7.99991" y1="7.1368" x2="3.33055" y2="10.9953" gradientUnits="userSpaceOnUse">
<stop stop-color="#00CCFF"/>
<stop offset="1" stop-color="#1D4AFE"/>
</linearGradient>
<linearGradient id="paint5_linear_1128_501" x1="15.9887" y1="5.53398" x2="13.4957" y2="6.10807" gradientUnits="userSpaceOnUse">
<stop stop-color="#00CCFF"/>
<stop offset="1" stop-color="#1D4AFE"/>
</linearGradient>
<linearGradient id="paint6_linear_1128_501" x1="9.77357" y1="13.1887" x2="6.21893" y2="15.64" gradientUnits="userSpaceOnUse">
<stop stop-color="#00CCFF"/>
<stop offset="1" stop-color="#1D4AFE"/>
</linearGradient>
<linearGradient id="paint7_linear_1128_501" x1="13.3236" y1="5.75254" x2="11.6575" y2="8.60206" gradientUnits="userSpaceOnUse">
<stop stop-color="#00CCFF"/>
<stop offset="1" stop-color="#1D4AFE"/>
</linearGradient>
<linearGradient id="paint8_linear_1128_501" x1="13.323" y1="8.4138" x2="11.6633" y2="11.2599" gradientUnits="userSpaceOnUse">
<stop stop-color="#00CCFF"/>
<stop offset="1" stop-color="#1D4AFE"/>
</linearGradient>
<linearGradient id="paint9_linear_1128_501" x1="15.9886" y1="0.592605" x2="13.1466" y2="3.19515" gradientUnits="userSpaceOnUse">
<stop stop-color="#00CCFF"/>
<stop offset="1" stop-color="#1D4AFE"/>
</linearGradient>
<linearGradient id="paint10_linear_1128_501" x1="1.78577" y1="6.9704" x2="-0.560617" y2="7.77969" gradientUnits="userSpaceOnUse">
<stop stop-color="#00CCFF"/>
<stop offset="1" stop-color="#1D4AFE"/>
</linearGradient>
<linearGradient id="paint11_linear_1128_501" x1="11.5418" y1="0.426662" x2="9.63597" y2="2.38455" gradientUnits="userSpaceOnUse">
<stop stop-color="#00CCFF"/>
<stop offset="1" stop-color="#1D4AFE"/>
</linearGradient>
<linearGradient id="paint12_linear_1128_501" x1="9.77323" y1="11.077" x2="7.99654" y2="12.2989" gradientUnits="userSpaceOnUse">
<stop stop-color="#00CCFF"/>
<stop offset="1" stop-color="#1D4AFE"/>
</linearGradient>
<linearGradient id="paint13_linear_1128_501" x1="7.99501" y1="0.427807" x2="6.21829" y2="1.64985" gradientUnits="userSpaceOnUse">
<stop stop-color="#00CCFF"/>
<stop offset="1" stop-color="#1D4AFE"/>
</linearGradient>
<linearGradient id="paint14_linear_1128_501" x1="14.2072" y1="3.08995" x2="12.4349" y2="4.3014" gradientUnits="userSpaceOnUse">
<stop stop-color="#00CCFF"/>
<stop offset="1" stop-color="#1D4AFE"/>
</linearGradient>
</defs>
</svg>
