<svg width="18" height="18" viewBox="0 0 18 18" fill="none" xmlns="http://www.w3.org/2000/svg">
<path d="M2.82914 4.23977L2.5435 3.04304C2.46462 2.68593 2.13972 2.43771 1.77446 2.45557C1.29933 2.47825 0.964607 2.931 1.08305 3.39166L1.83012 6.48539C1.9271 6.88697 2.33052 7.13453 2.73246 7.03912L5.82768 6.29784C6.80229 6.06143 6.4478 4.59964 5.47319 4.83597L3.98491 5.1948C5.01525 3.89367 6.5336 2.9845 8.31791 2.79398C11.8464 2.4172 14.9958 4.96224 15.3726 8.4907C15.4536 9.51908 17.0068 9.3516 16.8667 8.32971C16.4328 4.26607 12.9736 1.23998 8.56767 1.28168C5.98112 1.53736 4.10089 2.64704 2.82914 4.23977ZM12.1602 11.6797C11.1455 11.8875 11.5117 13.4151 12.5103 13.1402L13.9971 12.7812C12.9668 14.082 11.4486 14.9872 9.6641 15.1777C6.13564 15.5545 2.98767 13.0153 2.61088 9.48682C2.57475 9.09405 2.24057 8.79634 1.84623 8.80567C1.40315 8.81701 1.0665 9.20813 1.12114 9.64798C1.584 13.9825 5.48923 17.1362 9.82377 16.6733C12.0045 16.4406 13.8826 15.3272 15.1543 13.7364L15.4444 14.9346C15.627 15.9836 17.2127 15.6039 16.9004 14.5859L16.1578 11.4907C16.0733 11.1337 15.743 10.8902 15.3133 10.926L12.1602 11.6797Z" fill="black"/>
</svg>
