<svg width="352" height="45" viewBox="0 0 352 45" fill="none" xmlns="http://www.w3.org/2000/svg">
<rect y="0.09375" width="352" height="44" rx="5" fill="black"/>
<rect y="0.09375" width="352" height="44" rx="5" stroke="#EDEDED"/>
<path d="M165.806 20.1353H165V20.0938H156V24.0938H161.652C160.827 26.4223 158.612 28.0938 156 28.0938C152.687 28.0938 150 25.4072 150 22.0938C150 18.7803 152.687 16.0938 156 16.0938C157.53 16.0938 158.921 16.6707 159.981 17.6132L162.809 14.7847C161.023 13.1202 158.634 12.0938 156 12.0938C150.477 12.0938 146 16.5712 146 22.0938C146 27.6163 150.477 32.0938 156 32.0938C161.523 32.0938 166 27.6163 166 22.0938C166 21.4233 165.931 20.7688 165.806 20.1353Z" fill="#FFC107"/>
<path d="M147.153 17.4392L150.438 19.8488C151.327 17.6478 153.48 16.0938 156 16.0938C157.53 16.0938 158.921 16.6707 159.981 17.6132L162.809 14.7847C161.023 13.1202 158.634 12.0938 156 12.0938C152.159 12.0938 148.828 14.2622 147.153 17.4392Z" fill="#FF3D00"/>
<path d="M156 32.0938C158.583 32.0938 160.93 31.1053 162.705 29.4978L159.61 26.8788C158.572 27.668 157.304 28.0948 156 28.0938C153.399 28.0938 151.191 26.4353 150.359 24.1208L147.098 26.6333C148.753 29.8718 152.114 32.0938 156 32.0938Z" fill="#4CAF50"/>
<path d="M165.806 20.1353H165V20.0938H156V24.0938H161.652C161.257 25.202 160.547 26.1703 159.608 26.8792L159.609 26.8783L162.705 29.4972C162.486 29.6962 166 27.0938 166 22.0938C166 21.4233 165.931 20.7688 165.806 20.1353Z" fill="#1976D2"/>
<path d="M186.976 20.2857C186.976 20.8511 186.843 21.3844 186.576 21.8857C186.309 22.3871 185.883 22.7977 185.296 23.1177C184.709 23.4271 183.957 23.5817 183.04 23.5817H181.024V28.0938H179.2V16.9737H183.04C183.893 16.9737 184.613 17.1231 185.2 17.4217C185.797 17.7097 186.24 18.1044 186.528 18.6057C186.827 19.1071 186.976 19.6671 186.976 20.2857ZM183.04 22.0937C183.733 22.0937 184.251 21.9391 184.592 21.6297C184.933 21.3097 185.104 20.8617 185.104 20.2857C185.104 19.0697 184.416 18.4617 183.04 18.4617H181.024V22.0937H183.04ZM188.108 23.6457C188.108 22.7604 188.289 21.9764 188.652 21.2937C189.025 20.6111 189.526 20.0831 190.156 19.7097C190.796 19.3257 191.5 19.1337 192.268 19.1337C192.961 19.1337 193.564 19.2724 194.076 19.5497C194.598 19.8164 195.014 20.1524 195.324 20.5577V19.2778H197.164V28.0938H195.324V26.7817C195.014 27.1977 194.593 27.5444 194.06 27.8217C193.526 28.0991 192.918 28.2378 192.236 28.2378C191.478 28.2378 190.785 28.0458 190.156 27.6617C189.526 27.2671 189.025 26.7231 188.652 26.0297C188.289 25.3257 188.108 24.5311 188.108 23.6457ZM195.324 23.6777C195.324 23.0697 195.196 22.5417 194.94 22.0937C194.694 21.6457 194.369 21.3044 193.964 21.0697C193.558 20.8351 193.121 20.7177 192.652 20.7177C192.182 20.7177 191.745 20.8351 191.34 21.0697C190.934 21.2937 190.604 21.6297 190.348 22.0777C190.102 22.5151 189.98 23.0377 189.98 23.6457C189.98 24.2537 190.102 24.7871 190.348 25.2457C190.604 25.7044 190.934 26.0564 191.34 26.3017C191.756 26.5364 192.193 26.6537 192.652 26.6537C193.121 26.6537 193.558 26.5364 193.964 26.3017C194.369 26.0671 194.694 25.7257 194.94 25.2777C195.196 24.8191 195.324 24.2857 195.324 23.6777ZM207.495 19.2778L202.087 32.2378H200.199L201.991 27.9497L198.519 19.2778H200.551L203.031 25.9977L205.607 19.2778H207.495Z" fill="white"/>
</svg>
