<svg width="16" height="17" viewBox="0 0 16 17" fill="none" xmlns="http://www.w3.org/2000/svg">
<path d="M15.9997 3.25721C15.948 3.33314 15.9079 3.42159 15.8428 3.48292C15.7017 3.61559 15.5294 3.64354 15.3503 3.56719C15.1588 3.48542 15.064 3.33106 15.0636 3.12454C15.0619 2.47913 15.0628 1.83372 15.0628 1.18873C15.0628 1.12657 15.0628 1.06399 15.0628 0.976794C15.0031 0.976794 14.9484 0.976794 14.8942 0.976794C14.2385 0.976794 13.5824 0.97888 12.9268 0.975959C12.5629 0.97429 12.3312 0.638861 12.4727 0.322623C12.552 0.145312 12.6952 0.0435153 12.8884 0.0422637C13.7732 0.0380917 14.6579 0.038509 15.5427 0.0414294C15.7748 0.0422638 15.9025 0.196211 16.0001 0.383534V3.25721H15.9997Z" fill="black"/>
<path d="M15.9997 3.25721C15.948 3.33314 15.9079 3.42159 15.8428 3.48292C15.7017 3.61559 15.5294 3.64354 15.3503 3.56719C15.1588 3.48542 15.064 3.33106 15.0636 3.12454C15.0619 2.47913 15.0628 1.83372 15.0628 1.18873C15.0628 1.12657 15.0628 1.06399 15.0628 0.976794C15.0031 0.976794 14.9484 0.976794 14.8942 0.976794C14.2385 0.976794 13.5824 0.97888 12.9268 0.975959C12.5629 0.97429 12.3312 0.638861 12.4727 0.322623C12.552 0.145312 12.6952 0.0435153 12.8884 0.0422637C13.7732 0.0380917 14.6579 0.038509 15.5427 0.0414294C15.7748 0.0422638 15.9025 0.196211 16.0001 0.383534V3.25721H15.9997Z" fill="url(#paint0_linear_1128_495)" style="mix-blend-mode:lighten"/>
<path d="M0.348246 16.0331C0.0778053 15.9084 -0.00441056 15.6944 0.000180258 15.404C0.013118 14.608 0.00435311 13.8115 0.00477046 13.0151C0.00477046 12.6793 0.182978 12.4702 0.469278 12.4682C0.762672 12.4661 0.941712 12.6755 0.941712 13.0222C0.941712 13.6518 0.941712 14.2817 0.941712 14.9113C0.941712 14.9672 0.941712 15.0231 0.941712 15.0957H1.35656C1.89285 15.0957 2.42872 15.0957 2.96501 15.0957C3.30849 15.0957 3.48836 15.2008 3.55555 15.4411C3.6215 15.676 3.51215 15.8704 3.22251 16.0327H0.348246V16.0331Z" fill="black"/>
<path d="M0.348246 16.0331C0.0778053 15.9084 -0.00441056 15.6944 0.000180258 15.404C0.013118 14.608 0.00435311 13.8115 0.00477046 13.0151C0.00477046 12.6793 0.182978 12.4702 0.469278 12.4682C0.762672 12.4661 0.941712 12.6755 0.941712 13.0222C0.941712 13.6518 0.941712 14.2817 0.941712 14.9113C0.941712 14.9672 0.941712 15.0231 0.941712 15.0957H1.35656C1.89285 15.0957 2.42872 15.0957 2.96501 15.0957C3.30849 15.0957 3.48836 15.2008 3.55555 15.4411C3.6215 15.676 3.51215 15.8704 3.22251 16.0327H0.348246V16.0331Z" fill="url(#paint1_linear_1128_495)" style="mix-blend-mode:lighten"/>
<path d="M12.7815 16.0331C12.7022 15.9776 12.6092 15.9338 12.5462 15.8637C12.4164 15.7198 12.3955 15.545 12.4769 15.3693C12.5612 15.1874 12.7131 15.0969 12.9134 15.0965C13.5691 15.0948 14.2243 15.0961 14.88 15.0957C14.9359 15.0957 14.9914 15.0957 15.0623 15.0957V14.5854C15.0623 14.081 15.0623 13.5762 15.0623 13.0718C15.0623 12.7297 15.1683 12.5491 15.4083 12.4819C15.6458 12.4151 15.8357 12.5224 15.9993 12.8157V15.6893C15.9246 15.8437 15.8098 15.958 15.6558 16.0331H12.7815Z" fill="black"/>
<path d="M12.7815 16.0331C12.7022 15.9776 12.6092 15.9338 12.5462 15.8637C12.4164 15.7198 12.3955 15.545 12.4769 15.3693C12.5612 15.1874 12.7131 15.0969 12.9134 15.0965C13.5691 15.0948 14.2243 15.0961 14.88 15.0957C14.9359 15.0957 14.9914 15.0957 15.0623 15.0957V14.5854C15.0623 14.081 15.0623 13.5762 15.0623 13.0718C15.0623 12.7297 15.1683 12.5491 15.4083 12.4819C15.6458 12.4151 15.8357 12.5224 15.9993 12.8157V15.6893C15.9246 15.8437 15.8098 15.958 15.6558 16.0331H12.7815Z" fill="url(#paint2_linear_1128_495)" style="mix-blend-mode:lighten"/>
<path d="M8.0182 2.79125C9.59035 2.79125 11.1629 2.79125 12.7351 2.79125C13.0347 2.79125 13.1173 2.87302 13.1173 3.16965C13.1173 4.08583 13.1178 5.002 13.1173 5.91817C13.1173 6.19645 13.0297 6.28406 12.7551 6.28448C12.3436 6.28489 11.9325 6.28489 11.521 6.28448C11.2564 6.28448 11.1692 6.19561 11.1679 5.92527C11.1667 5.63907 11.1692 5.35245 11.1671 5.06625C11.1654 4.83303 11.0769 4.73833 10.8495 4.73666C10.3291 4.73332 9.8082 4.73332 9.28777 4.73666C9.07159 4.73833 8.97435 4.83971 8.97435 5.05707C8.97351 7.45681 8.97351 9.85697 8.97435 12.2567C8.97435 12.4837 9.07033 12.5809 9.29612 12.585C9.50437 12.5888 9.71263 12.5838 9.92089 12.5867C10.1367 12.5896 10.2301 12.6768 10.2318 12.8875C10.2356 13.3352 10.2356 13.7828 10.2318 14.2305C10.2301 14.4299 10.13 14.5292 9.93132 14.5292C8.64547 14.5313 7.35921 14.5313 6.07337 14.5292C5.87429 14.5292 5.77538 14.4299 5.77329 14.2301C5.76954 13.7824 5.76954 13.3348 5.77329 12.8871C5.77496 12.676 5.86845 12.5892 6.08464 12.5867C6.29289 12.5838 6.50115 12.5888 6.7094 12.585C6.93519 12.5809 7.03118 12.4832 7.03118 12.2563C7.03201 9.86155 7.03201 7.46682 7.03118 5.07251C7.03118 4.83554 6.93686 4.73749 6.70147 4.73624C6.19106 4.73332 5.68106 4.73374 5.17065 4.73624C4.929 4.73749 4.83969 4.82761 4.83761 5.06667C4.83552 5.35287 4.8376 5.63948 4.83677 5.92568C4.83552 6.19603 4.74829 6.28406 4.48286 6.28448C4.06635 6.28489 3.64983 6.28531 3.23332 6.28448C2.97916 6.28406 2.88776 6.19227 2.88734 5.93319C2.88651 5.00117 2.88651 4.06956 2.88734 3.13753C2.88734 2.8822 2.98124 2.79125 3.23833 2.79083C4.83134 2.79042 6.42477 2.79083 8.01779 2.79083L8.0182 2.79125Z" fill="black"/>
<path d="M8.0182 2.79125C9.59035 2.79125 11.1629 2.79125 12.7351 2.79125C13.0347 2.79125 13.1173 2.87302 13.1173 3.16965C13.1173 4.08583 13.1178 5.002 13.1173 5.91817C13.1173 6.19645 13.0297 6.28406 12.7551 6.28448C12.3436 6.28489 11.9325 6.28489 11.521 6.28448C11.2564 6.28448 11.1692 6.19561 11.1679 5.92527C11.1667 5.63907 11.1692 5.35245 11.1671 5.06625C11.1654 4.83303 11.0769 4.73833 10.8495 4.73666C10.3291 4.73332 9.8082 4.73332 9.28777 4.73666C9.07159 4.73833 8.97435 4.83971 8.97435 5.05707C8.97351 7.45681 8.97351 9.85697 8.97435 12.2567C8.97435 12.4837 9.07033 12.5809 9.29612 12.585C9.50437 12.5888 9.71263 12.5838 9.92089 12.5867C10.1367 12.5896 10.2301 12.6768 10.2318 12.8875C10.2356 13.3352 10.2356 13.7828 10.2318 14.2305C10.2301 14.4299 10.13 14.5292 9.93132 14.5292C8.64547 14.5313 7.35921 14.5313 6.07337 14.5292C5.87429 14.5292 5.77538 14.4299 5.77329 14.2301C5.76954 13.7824 5.76954 13.3348 5.77329 12.8871C5.77496 12.676 5.86845 12.5892 6.08464 12.5867C6.29289 12.5838 6.50115 12.5888 6.7094 12.585C6.93519 12.5809 7.03118 12.4832 7.03118 12.2563C7.03201 9.86155 7.03201 7.46682 7.03118 5.07251C7.03118 4.83554 6.93686 4.73749 6.70147 4.73624C6.19106 4.73332 5.68106 4.73374 5.17065 4.73624C4.929 4.73749 4.83969 4.82761 4.83761 5.06667C4.83552 5.35287 4.8376 5.63948 4.83677 5.92568C4.83552 6.19603 4.74829 6.28406 4.48286 6.28448C4.06635 6.28489 3.64983 6.28531 3.23332 6.28448C2.97916 6.28406 2.88776 6.19227 2.88734 5.93319C2.88651 5.00117 2.88651 4.06956 2.88734 3.13753C2.88734 2.8822 2.98124 2.79125 3.23833 2.79083C4.83134 2.79042 6.42477 2.79083 8.01779 2.79083L8.0182 2.79125Z" fill="url(#paint3_linear_1128_495)" style="mix-blend-mode:lighten"/>
<path d="M0.941764 0.977201C0.941764 1.67977 0.941764 2.36064 0.941764 3.04151C0.941764 3.09867 0.94469 3.15708 0.935508 3.21298C0.895443 3.45287 0.690522 3.61516 0.447209 3.60431C0.210156 3.59347 0.0177626 3.40489 0.00691161 3.16083C-0.000600632 2.98435 0.00482284 2.80704 0.00482284 2.63015C0.00482284 1.93801 0.00398814 1.2463 0.00482284 0.554159C0.00565753 0.231246 0.196384 0.041002 0.520245 0.0405848C1.36329 0.0393332 2.20632 0.0397504 3.04937 0.0405848C3.36571 0.0405848 3.57314 0.23208 3.56938 0.515777C3.56604 0.791547 3.35987 0.976784 3.05062 0.977201C2.41041 0.978035 1.77062 0.977201 1.13041 0.977201C1.07406 0.977201 1.01772 0.977201 0.941346 0.977201H0.941764Z" fill="black"/>
<path d="M0.941764 0.977201C0.941764 1.67977 0.941764 2.36064 0.941764 3.04151C0.941764 3.09867 0.94469 3.15708 0.935508 3.21298C0.895443 3.45287 0.690522 3.61516 0.447209 3.60431C0.210156 3.59347 0.0177626 3.40489 0.00691161 3.16083C-0.000600632 2.98435 0.00482284 2.80704 0.00482284 2.63015C0.00482284 1.93801 0.00398814 1.2463 0.00482284 0.554159C0.00565753 0.231246 0.196384 0.041002 0.520245 0.0405848C1.36329 0.0393332 2.20632 0.0397504 3.04937 0.0405848C3.36571 0.0405848 3.57314 0.23208 3.56938 0.515777C3.56604 0.791547 3.35987 0.976784 3.05062 0.977201C2.41041 0.978035 1.77062 0.977201 1.13041 0.977201C1.07406 0.977201 1.01772 0.977201 0.941346 0.977201H0.941764Z" fill="url(#paint4_linear_1128_495)" style="mix-blend-mode:lighten"/>
<defs>
<linearGradient id="paint0_linear_1128_495" x1="16.0001" y1="0.708541" x2="12.4304" y2="3.16244" gradientUnits="userSpaceOnUse">
<stop stop-color="#00CCFF"/>
<stop offset="1" stop-color="#1D4AFE"/>
</linearGradient>
<linearGradient id="paint1_linear_1128_495" x1="3.57413" y1="13.1366" x2="0.00587302" y2="15.596" gradientUnits="userSpaceOnUse">
<stop stop-color="#00CCFF"/>
<stop offset="1" stop-color="#1D4AFE"/>
</linearGradient>
<linearGradient id="paint2_linear_1128_495" x1="15.9993" y1="13.1322" x2="12.4289" y2="15.587" gradientUnits="userSpaceOnUse">
<stop stop-color="#00CCFF"/>
<stop offset="1" stop-color="#1D4AFE"/>
</linearGradient>
<linearGradient id="paint3_linear_1128_495" x1="13.1175" y1="4.99192" x2="2.0306" y2="11.6343" gradientUnits="userSpaceOnUse">
<stop stop-color="#00CCFF"/>
<stop offset="1" stop-color="#1D4AFE"/>
</linearGradient>
<linearGradient id="paint4_linear_1128_495" x1="3.56943" y1="0.708238" x2="0.00387428" y2="3.16057" gradientUnits="userSpaceOnUse">
<stop stop-color="#00CCFF"/>
<stop offset="1" stop-color="#1D4AFE"/>
</linearGradient>
</defs>
</svg>
