<svg id="integrations-icon" xmlns="http://www.w3.org/2000/svg" width="24" height="23.922" viewBox="0 0 24 23.922">
  <path id="Path_13" data-name="Path 13" d="M24,18.336a3.5,3.5,0,1,1-3.511-3.5A3.492,3.492,0,0,1,24,18.336Z"/>
  <path id="Path_14" data-name="Path 14" d="M3.509,14.834A3.5,3.5,0,1,1,0,18.313a3.507,3.507,0,0,1,3.509-3.48Z"/>
  <path id="Path_15" data-name="Path 15" d="M12.019,0A3.5,3.5,0,1,1,8.494,3.49,3.5,3.5,0,0,1,12.019,0Z"/>
  <path id="Path_16" data-name="Path 16" d="M7.272,22.811l.6-1.2a9.321,9.321,0,0,0,8.252,0l.6,1.188c-1.914,1.487-7.263,1.494-9.453.007Z"/>
  <path id="Path_17" data-name="Path 17" d="M22.5,12.806l-1.337.067a9.327,9.327,0,0,0-4.125-7.14l.73-1.112C20.073,5.629,22.676,10.122,22.5,12.806Z"/>
  <path id="Path_18" data-name="Path 18" d="M6.208,4.592,6.96,5.731a9.319,9.319,0,0,0-4.127,7.142L1.478,12.8a9.793,9.793,0,0,1,.811-3.5A10.531,10.531,0,0,1,6.208,4.592Z"/>
</svg>
