<svg width="18" height="18" viewBox="0 0 18 18" fill="none" xmlns="http://www.w3.org/2000/svg">
<path d="M12.4639 0C12.5058 0 12.5477 0 12.592 0C12.6947 1.2694 12.2102 2.21789 11.6213 2.90476C11.0435 3.58688 10.2523 4.24845 8.97267 4.14807C8.88731 2.89685 9.37262 2.01871 9.96069 1.33342C10.5061 0.69477 11.5059 0.126466 12.4639 0Z" fill="black"/>
<path d="M16.3378 13.2118C16.3378 13.2244 16.3378 13.2355 16.3378 13.2474C15.9782 14.3366 15.4652 15.27 14.8392 16.1363C14.2677 16.9228 13.5674 17.9811 12.317 17.9811C11.2365 17.9811 10.5188 17.2864 9.41147 17.2674C8.24008 17.2484 7.5959 17.8483 6.5249 17.9993C6.40238 17.9993 6.27987 17.9993 6.15973 17.9993C5.37327 17.8855 4.73857 17.2626 4.27618 16.7015C2.91272 15.0432 1.85911 12.9012 1.66309 10.16C1.66309 9.89129 1.66309 9.62334 1.66309 9.3546C1.74608 7.3928 2.69931 5.79776 3.96634 5.02474C4.63503 4.61372 5.55427 4.26357 6.57785 4.42007C7.01653 4.48805 7.46469 4.63823 7.85753 4.78682C8.22981 4.92989 8.69536 5.18361 9.13641 5.17017C9.43518 5.16148 9.73238 5.00577 10.0335 4.8959C10.9156 4.57736 11.7803 4.21219 12.9201 4.38371C14.2899 4.5908 15.2621 5.19942 15.8628 6.13842C14.7041 6.87588 13.788 7.98719 13.9445 9.88496C14.0836 11.6088 15.0858 12.6174 16.3378 13.2118Z" fill="black"/>
</svg>
