<svg width="18" height="18" viewBox="0 0 18 18" fill="none" xmlns="http://www.w3.org/2000/svg">
<g clip-path="url(#clip0_2251_233)">
<path d="M16.5197 15.0714C16.4463 14.9877 16.3424 14.9057 16.2085 14.8253C16.1883 14.8122 16.1331 14.7803 16.0431 14.7303C15.9528 14.68 15.8808 14.6365 15.827 14.5996C15.7735 14.5627 15.7032 14.4992 15.616 14.4087C15.5291 14.3185 15.4605 14.2229 15.4102 14.1224C15.36 14.0221 15.3114 13.8866 15.2645 13.7158C15.2175 13.5449 15.191 13.3558 15.1842 13.1482C15.0904 13.2283 15.0386 13.3873 15.0285 13.6252C15.0184 13.8629 15.0688 14.1054 15.1793 14.3532C15.2896 14.6011 15.4554 14.7615 15.6763 14.8354C15.8905 14.9092 16.0629 14.9876 16.1937 15.0713C16.324 15.1551 16.4079 15.2504 16.4448 15.3575C16.4817 15.4649 16.4195 15.5804 16.2589 15.7041C16.0981 15.8281 15.8404 15.9502 15.4855 16.0711C14.9967 16.2383 14.6501 16.3808 14.4458 16.4978C14.2416 16.615 13.9422 16.8378 13.547 17.1657C13.279 17.3867 12.9945 17.5057 12.6931 17.5224C12.3919 17.5393 12.1473 17.4288 11.96 17.1911C11.7724 16.9535 11.712 16.6171 11.779 16.1816C11.9063 15.3447 11.9032 14.6918 11.7693 14.2231C11.6621 13.8548 11.6385 13.53 11.699 13.2488C11.7592 12.9678 11.8528 12.8039 11.9802 12.7569C12.1071 12.7098 12.2446 12.8104 12.3919 13.058C12.4051 13.0914 12.4354 13.1567 12.4821 13.2539C12.5289 13.3509 12.5674 13.4198 12.5978 13.4597C12.6279 13.5 12.6731 13.5518 12.7334 13.6156C12.7936 13.6793 12.8693 13.7244 12.9595 13.7513C13.0498 13.7781 13.1551 13.7948 13.2759 13.8014C13.5035 13.808 13.7076 13.7612 13.8885 13.6608C14.0693 13.5604 14.2051 13.4482 14.2953 13.3243C14.3856 13.2003 14.4761 13.0816 14.5665 12.9677C14.6567 12.8537 14.7355 12.7901 14.8025 12.7767C14.8761 12.7635 14.9432 12.6898 15.0035 12.5557C15.0637 12.4219 15.1039 12.2361 15.124 11.9984C15.1442 11.7607 15.1274 11.4777 15.0739 11.1498C14.9734 10.567 14.774 9.92761 14.4761 9.23126C14.1781 8.5348 13.8452 7.98909 13.4768 7.59398C12.8139 6.89098 12.3688 6.16114 12.1409 5.40442C11.9068 4.60766 11.8065 3.89115 11.8398 3.25499C11.8734 2.79962 11.7746 2.30577 11.5437 1.77339C11.3128 1.24108 11.0062 0.834294 10.6246 0.553066C10.3836 0.372346 10.0855 0.23342 9.73079 0.136253C9.3759 0.0390864 9.0209 -0.00597912 8.666 0.000634709C8.23086 0.000634709 7.88254 0.0708891 7.62151 0.211574C7.08582 0.499557 6.73103 0.849386 6.55682 1.2612C6.38261 1.67295 6.3024 2.18017 6.3157 2.78284C6.34261 4.10867 6.39605 5.14655 6.47647 5.89644C6.38265 6.24469 5.96759 6.89745 5.23096 7.85498C5.09696 7.98898 4.96637 8.16974 4.83913 8.39739C4.71195 8.62511 4.61148 8.8294 4.53785 9.01005C4.46411 9.19077 4.36539 9.45191 4.24152 9.79347C4.11759 10.1349 4.02897 10.376 3.97535 10.5166C3.92849 10.6373 3.85479 10.7777 3.75442 10.9386C3.65395 11.0992 3.57342 11.2567 3.5133 11.4104C3.45318 11.5644 3.41961 11.7385 3.41293 11.9327C3.40625 12.0801 3.41293 12.2073 3.43305 12.3144C3.45976 12.4753 3.5101 12.5254 3.58366 12.4652C3.88512 12.2375 4.26344 12.3714 4.7187 12.8671C5.04011 13.2152 5.60598 14.0255 6.41617 15.2978C6.48312 15.4116 6.55003 15.5337 6.61698 15.6647C6.6841 15.795 6.74753 15.969 6.80787 16.1867C6.86813 16.4046 6.89328 16.6002 6.88319 16.7744C6.87306 16.9486 6.79615 17.1094 6.65216 17.2564C6.50817 17.4037 6.2922 17.4974 6.00432 17.5376C5.85023 17.5576 5.66459 17.5444 5.44686 17.4974C5.22924 17.4505 4.953 17.3736 4.61827 17.2664C4.28346 17.1594 4.03576 17.0856 3.87502 17.0454C3.64079 16.9917 3.30767 16.9234 2.8757 16.8395C2.44376 16.7557 2.16077 16.6938 2.02688 16.6536C1.79923 16.5934 1.67539 16.5065 1.65534 16.3925C1.63522 16.2987 1.68208 16.1381 1.79595 15.9106C1.9099 15.6829 1.96672 15.5187 1.96672 15.4184C1.97333 15.3446 1.97003 15.2712 1.95659 15.1974C1.94329 15.1237 1.92823 15.0668 1.91145 15.0266C1.8947 14.9865 1.86624 14.9262 1.82603 14.8457C1.78582 14.7655 1.75909 14.705 1.74568 14.665C1.62523 14.3837 1.60845 14.1926 1.69548 14.0924C1.75567 14.0053 1.89967 13.9718 2.12731 13.992C2.46881 14.0255 2.74666 13.9752 2.96097 13.8412C3.31576 13.6203 3.42303 13.2654 3.28234 12.7764C3.28234 13.0041 3.24213 13.1747 3.16178 13.2887C3.08143 13.4025 2.94075 13.5197 2.73994 13.6404C2.62617 13.7073 2.42518 13.7474 2.13734 13.761C1.84946 13.7744 1.65854 13.8213 1.56482 13.9016C1.49791 13.9619 1.4628 14.0524 1.45942 14.1729C1.45612 14.2937 1.47128 14.4156 1.5047 14.5396C1.53812 14.6635 1.57165 14.8056 1.60507 14.9664C1.63859 15.1272 1.65189 15.2612 1.64528 15.3683C1.63859 15.4418 1.57816 15.6244 1.46438 15.9155C1.35061 16.2068 1.32718 16.4295 1.39413 16.5834C1.42766 16.6572 1.48447 16.7225 1.56486 16.7794C1.64517 16.8363 1.75733 16.8848 1.90128 16.9252C2.04513 16.9654 2.17745 16.9972 2.29804 17.0205C2.4185 17.0437 2.58589 17.0741 2.80013 17.1107C3.01441 17.1474 3.18514 17.1794 3.31239 17.206C3.74095 17.2932 4.2297 17.4372 4.77883 17.638C5.32788 17.8389 5.69945 17.9426 5.89365 17.9492C6.08115 17.9558 6.26022 17.9174 6.43102 17.8336C6.60175 17.7501 6.74736 17.6546 6.86792 17.5474C6.98838 17.4403 7.16751 17.3398 7.40515 17.2461C7.64297 17.1523 7.90911 17.1021 8.20377 17.0954C8.33767 17.0888 8.53186 17.0804 8.78628 17.0704C9.04074 17.0602 9.23152 17.0553 9.35877 17.0553C9.93459 17.0553 10.3698 17.0586 10.6644 17.0653C10.8653 17.0721 11.0227 17.1038 11.1365 17.1608C11.2503 17.2176 11.3241 17.283 11.3575 17.3565C11.3909 17.4303 11.4464 17.5155 11.5235 17.6127C11.6003 17.7097 11.699 17.7885 11.8194 17.8487C12.0738 17.9693 12.3719 18.0178 12.7135 17.9943C13.0549 17.971 13.2827 17.9056 13.3964 17.7985C13.5839 17.6178 13.8366 17.4034 14.1546 17.1557C14.4727 16.9081 14.7593 16.7205 15.0135 16.5933C15.067 16.5663 15.1574 16.5228 15.2847 16.4625C15.4118 16.4022 15.5188 16.3504 15.6058 16.3067C15.6929 16.2632 15.7985 16.2079 15.9221 16.141C16.0461 16.0739 16.1465 16.012 16.2236 15.9551C16.3006 15.8981 16.3791 15.833 16.4595 15.7592C16.5398 15.6856 16.5917 15.612 16.6153 15.5383C16.6384 15.4646 16.6471 15.3893 16.6404 15.3123C16.6335 15.2355 16.5935 15.1553 16.5197 15.0714ZM11.1363 5.36378C11.1563 5.35049 11.1698 5.34542 11.1764 5.34873C11.1832 5.3521 11.1965 5.36554 11.2165 5.38894C11.2367 5.41237 11.2549 5.43421 11.2719 5.4543C11.2885 5.47421 11.3119 5.50113 11.342 5.53455C11.372 5.56807 11.4038 5.59481 11.4372 5.6149C11.4776 5.64164 11.526 5.66018 11.583 5.67017C11.6399 5.68016 11.6835 5.6969 11.7137 5.7203C11.744 5.74369 11.7658 5.78218 11.7789 5.83583C11.7921 5.90957 11.7809 5.97637 11.7441 6.03664C11.707 6.09697 11.6586 6.12381 11.5982 6.11706C11.4777 6.09025 11.3471 5.98485 11.2066 5.80068C11.0661 5.61655 11.0425 5.47094 11.1363 5.36378ZM9.89076 1.46187C9.92411 1.41835 9.94423 1.38321 9.95084 1.35647C9.96421 1.31615 9.9659 1.27436 9.95591 1.23084C9.94592 1.18733 9.94919 1.14381 9.9659 1.10029C9.98275 1.05677 10.0213 1.03165 10.0816 1.02497C10.1418 1.02497 10.2222 1.07524 10.3226 1.17565C10.3426 1.18908 10.3744 1.20917 10.4177 1.23591C10.4613 1.26272 10.4914 1.28611 10.5081 1.30616C10.5249 1.32615 10.5332 1.34307 10.5332 1.35636C10.5198 1.38979 10.4897 1.41343 10.443 1.42672C10.3963 1.44002 10.3458 1.44685 10.2924 1.44685C10.239 1.44685 10.2086 1.45015 10.202 1.45684C10.1485 1.47696 10.0982 1.50704 10.0513 1.54718C10.0045 1.58739 9.96763 1.61751 9.94089 1.63759C9.91391 1.65765 9.8872 1.65765 9.86047 1.63759C9.83373 1.59738 9.82363 1.56892 9.83039 1.55225C9.83718 1.53557 9.8573 1.50539 9.89076 1.46187ZM5.02952 8.97986C5.07624 8.92635 5.10984 8.88284 5.12989 8.84931C5.14998 8.81578 5.16834 8.77058 5.18512 8.71373C5.20187 8.65673 5.21692 8.61483 5.23033 8.5881C5.2438 8.56118 5.26392 8.55119 5.29066 8.55788C5.30396 8.55457 5.31395 8.56118 5.32088 8.57797C5.32749 8.59471 5.33087 8.60312 5.33087 8.60312V8.63327C5.33087 8.6434 5.32915 8.6567 5.32581 8.67348C5.32243 8.69037 5.31736 8.70539 5.31075 8.71869C5.30396 8.73216 5.29731 8.75228 5.29066 8.77898C5.28398 8.80572 5.27736 8.82919 5.27054 8.84924C5.2438 8.91636 5.20187 8.97648 5.14505 9.0301C5.08809 9.08364 5.0462 9.10711 5.01942 9.10039C4.97925 9.08709 4.9827 9.04674 5.02952 8.97986ZM11.598 15.177C11.5846 15.3911 11.5394 15.6926 11.4624 16.081C11.3853 16.4692 11.3367 16.7271 11.3165 16.8542C11.1759 16.8474 11.0956 16.7955 11.0755 16.6984C11.0555 16.6012 11.0755 16.4758 11.1358 16.3217C11.2831 15.8729 11.3599 15.565 11.3667 15.3977C11.3803 15.0896 11.3467 14.9155 11.2665 14.8754C11.1926 14.8219 11.0789 14.9224 10.9249 15.1766C10.63 15.6588 10.0376 15.9499 9.14705 16.0506C8.34368 16.1577 7.78791 16.0372 7.4798 15.6888C7.41286 15.642 7.34591 15.6337 7.279 15.6639C7.21205 15.6937 7.16853 15.7258 7.14844 15.759C7.14183 15.7725 7.14844 15.7925 7.16857 15.8193C7.18865 15.8462 7.22046 15.8862 7.26398 15.9398C7.30749 15.9936 7.34264 16.047 7.36937 16.1008C7.63062 16.556 7.60723 16.8639 7.29912 17.0247C7.29912 16.7169 7.27569 16.4808 7.22887 16.3168C7.18197 16.1527 7.08832 15.972 6.94764 15.7743C6.80709 15.5768 6.71 15.4278 6.65649 15.3274C6.85729 15.3074 7.00966 15.2304 7.11348 15.0964C7.21726 14.9625 7.26408 14.8185 7.25409 14.6646C7.24403 14.5105 7.18549 14.3832 7.07833 14.2828C7.01807 14.2226 6.70662 13.9664 6.1442 13.5144C5.58181 13.0625 5.23356 12.7595 5.0997 12.6055C5.07279 12.5786 4.99255 12.5117 4.85858 12.4045C4.72458 12.2974 4.64085 12.2037 4.60743 12.1233C4.29936 11.4473 4.26594 10.8913 4.50696 10.4562L4.5471 10.406C4.58052 10.3994 4.5839 10.4596 4.55709 10.5869C4.51695 10.7744 4.50361 10.9618 4.51695 11.1493C4.54368 11.5713 4.66425 11.8859 4.87849 12.0933C5.01918 12.2342 5.1162 12.2241 5.16982 12.0633C5.21003 12.0096 5.22839 11.8122 5.22502 11.4705C5.22181 11.1292 5.22677 10.8982 5.24018 10.7775C5.29379 10.3959 5.45284 9.92371 5.71729 9.36149C5.98174 8.79897 6.19109 8.49761 6.34507 8.45747C6.22451 8.26328 6.18603 8.05234 6.22958 7.82466C6.27303 7.59697 6.34346 7.40267 6.44048 7.24208C6.53747 7.08141 6.63636 6.89566 6.7367 6.68469C6.83717 6.47375 6.88737 6.28455 6.88737 6.11716C6.88737 6.07037 6.89082 6.03685 6.89751 6.01676C6.91756 5.9565 7.00129 6.03013 7.14858 6.23765C7.42981 6.65288 7.64075 6.89735 7.7814 6.97098C7.9287 7.05123 8.09267 7.04792 8.2735 6.96085C8.45425 6.87381 8.67687 6.72982 8.94143 6.52901C9.2058 6.32821 9.4318 6.18084 9.61934 6.08719C9.63957 6.0804 9.67127 6.06534 9.71496 6.04191C9.75827 6.01862 9.79176 6.00177 9.81512 5.99164C9.83837 5.98165 9.86859 5.96663 9.90553 5.9465C9.94212 5.92642 9.97054 5.90967 9.99067 5.89623C10.0108 5.88276 10.0309 5.8677 10.0509 5.85096C10.0708 5.83414 10.0842 5.81754 10.0911 5.80075C10.0978 5.78401 10.1012 5.76899 10.1012 5.75555C10.0877 5.69525 10.0593 5.65838 10.0157 5.64508C9.97213 5.63171 9.91362 5.64002 9.83992 5.67024C9.76626 5.70039 9.68414 5.7406 9.59384 5.79076C9.50357 5.84096 9.40316 5.89789 9.29263 5.96153C9.1822 6.02517 9.07001 6.08367 8.95624 6.13732C8.84246 6.19094 8.72187 6.23779 8.59462 6.27801C8.46741 6.31811 8.34688 6.34165 8.23308 6.34833C7.95185 6.35505 7.72761 6.28152 7.56023 6.1274C7.4531 6.02686 7.39625 5.96329 7.38946 5.93651C7.38271 5.90981 7.41289 5.90313 7.4798 5.91643C7.84152 5.96332 8.10594 5.96993 8.27336 5.93651C8.44743 5.90981 8.68176 5.83273 8.97643 5.70549C9.03676 5.67875 9.18892 5.61339 9.43356 5.5096C9.67781 5.40596 9.86708 5.33395 10.001 5.29374C10.0815 5.27362 10.1368 5.24185 10.1669 5.19833C10.1969 5.15482 10.207 5.1146 10.1969 5.07774C10.1869 5.04097 10.1651 5.01255 10.1317 4.99246C10.0579 4.95225 9.99098 4.97909 9.93093 5.07281C9.89734 5.13307 9.82691 5.19175 9.71985 5.2486C9.61283 5.3056 9.51391 5.34904 9.42357 5.37916C9.33319 5.40924 9.21769 5.44442 9.07701 5.48456C8.93633 5.52477 8.85946 5.5482 8.84598 5.55488C8.47775 5.66865 8.13626 5.71893 7.82151 5.70549C7.67417 5.69887 7.55537 5.67703 7.46503 5.64019C7.37462 5.60347 7.31259 5.55995 7.27921 5.50964C7.24568 5.45951 7.19217 5.39587 7.11851 5.31882C7.04477 5.24178 6.96104 5.17652 6.86736 5.12287C6.80041 5.08945 6.77526 5.02919 6.79204 4.94215C6.80878 4.85512 6.86067 4.76463 6.94771 4.67091C6.95439 4.66416 7.02306 4.6224 7.15358 4.54536C7.28413 4.46831 7.37623 4.38962 7.42988 4.30926C7.49001 4.21555 7.59386 4.11838 7.74116 4.0179C7.74784 3.99117 7.75291 3.91754 7.75621 3.79701C7.75952 3.67655 7.72775 3.54597 7.6608 3.40535C7.59386 3.26467 7.50338 3.19445 7.38957 3.19445C7.22883 3.18776 7.11502 3.23459 7.04808 3.33506C6.98113 3.43539 6.95108 3.55933 6.95773 3.70663C6.96452 3.83381 6.99633 3.94589 7.05314 4.04306C7.1101 4.14022 7.16202 4.18881 7.20888 4.18881C7.28248 4.18202 7.30591 4.20872 7.27914 4.26905C7.239 4.34279 7.18535 4.38976 7.11844 4.40974C7.07144 4.42304 7.01951 4.3779 6.96269 4.27412C6.90574 4.17034 6.86226 4.04485 6.83214 3.89748C6.80206 3.75019 6.79024 3.62632 6.79703 3.52577C6.81033 3.31821 6.86553 3.11899 6.96269 2.92813C7.05986 2.73732 7.19879 2.64522 7.37951 2.65183C7.56702 2.65862 7.7178 2.77253 7.83157 2.99343C7.94552 3.21436 7.99902 3.51582 7.99234 3.89745C8.01246 3.94434 8.06432 3.96109 8.14808 3.94765C8.23163 3.93421 8.34221 3.93249 8.47944 3.94258C8.61661 3.95258 8.71536 3.98768 8.77566 4.04798C8.78245 4.04798 8.78579 3.99768 8.78579 3.89731C8.66523 3.05373 8.96317 2.60508 9.67971 2.55146C9.78662 2.57159 9.87704 2.59674 9.9506 2.62678C10.0245 2.65686 10.1029 2.7072 10.1867 2.77746C10.2706 2.84771 10.3406 2.94981 10.3976 3.08381C10.4546 3.21788 10.4998 3.38526 10.5332 3.58607V3.95764C10.5332 4.17189 10.4896 4.29245 10.4025 4.31926C10.262 4.36608 10.1617 4.36446 10.1015 4.31419C10.0412 4.26388 10.0477 4.17526 10.1215 4.04802C10.1884 3.88063 10.175 3.6863 10.0813 3.46537C9.98761 3.24447 9.81674 3.144 9.56911 3.16412C9.40165 3.17084 9.28112 3.26125 9.20746 3.43529C9.13379 3.60939 9.10709 3.78016 9.12718 3.94758C9.14726 4.11497 9.18399 4.202 9.23771 4.20865C9.27782 4.21544 9.39683 4.26895 9.59433 4.36942C9.79211 4.46986 9.94103 4.53009 10.0413 4.55018C10.3025 4.60365 10.4512 4.68738 10.4882 4.80126C10.5251 4.9152 10.51 5.08087 10.4431 5.29845C10.376 5.51618 10.356 5.69514 10.383 5.83583C10.4097 5.9833 10.46 6.11706 10.5337 6.23758C10.6074 6.35822 10.6859 6.46861 10.7697 6.56912C10.8534 6.66935 10.952 6.857 11.0661 7.13147C11.1797 7.40609 11.2835 7.75089 11.3772 8.16604C11.3838 8.17273 11.4088 8.19616 11.4525 8.23637C11.496 8.27651 11.5394 8.32671 11.5831 8.38697C11.6268 8.44727 11.6786 8.52928 11.7389 8.63306C11.7991 8.73691 11.8646 8.88924 11.9349 9.09019C12.0049 9.29099 12.0704 9.52216 12.1306 9.78316C12.2043 10.0914 12.2428 10.4493 12.2462 10.858C12.2496 11.2664 12.2763 11.546 12.3266 11.6967C12.3769 11.8475 12.5058 11.9094 12.7133 11.8826C12.9744 11.8692 13.142 11.7286 13.2153 11.4607C13.4364 10.6839 13.2558 9.75308 12.6731 8.66848C12.4521 8.24661 12.2614 7.96868 12.1005 7.83482C12.3348 7.96872 12.576 8.21973 12.8239 8.58813C13.0716 8.95647 13.2288 9.30141 13.2958 9.6226C13.3023 9.6562 13.3208 9.74496 13.3509 9.88877C13.381 10.0328 13.3978 10.1166 13.401 10.1399C13.4042 10.1634 13.4179 10.232 13.4411 10.3458C13.4647 10.4597 13.4763 10.5334 13.4763 10.5668C13.4763 10.6004 13.4795 10.6657 13.4864 10.7627C13.4932 10.8597 13.4914 10.9351 13.4813 10.9887C13.4712 11.0424 13.4613 11.1144 13.4512 11.2046C13.4411 11.2949 13.4245 11.382 13.401 11.4658C13.3779 11.5495 13.3527 11.6417 13.3259 11.742C13.694 11.9027 13.8782 12.0432 13.8782 12.1639C13.7377 12.05 13.5367 11.9747 13.2754 11.9383C13.0141 11.9013 12.7717 11.9364 12.5473 12.0436C12.3229 12.1507 12.2073 12.3281 12.2006 12.5757C11.9595 12.5757 11.7887 12.6359 11.6884 12.7567C11.5412 12.9306 11.4643 13.1666 11.4575 13.4647C11.4508 13.7625 11.4757 14.0875 11.5326 14.4388C11.5898 14.7903 11.6115 15.0362 11.598 15.177ZM7.38974 3.53576C7.36962 3.52915 7.35291 3.50892 7.33961 3.4755C7.33961 3.41538 7.36966 3.39177 7.42995 3.40525C7.47016 3.41854 7.50876 3.46882 7.54549 3.55585C7.58232 3.64289 7.59069 3.74336 7.57064 3.8572C7.57064 3.87729 7.56065 3.88742 7.54042 3.88725C7.46668 3.88725 7.43995 3.82033 7.46007 3.68644C7.48009 3.586 7.45666 3.53576 7.38974 3.53576ZM9.99116 3.69657L9.97118 3.72665C9.9177 3.76007 9.89114 3.76679 9.89114 3.74677C9.86416 3.56588 9.80393 3.4621 9.71028 3.43529L9.67007 3.41524C9.62311 3.37503 9.64647 3.3516 9.74012 3.34491C9.7602 3.33819 9.79032 3.34818 9.83053 3.37499C9.87074 3.40183 9.90757 3.4437 9.94106 3.50062C9.97441 3.55761 9.99116 3.6228 9.99116 3.69657Z" fill="black"/>
<path d="M7.65088 4.27955C7.65088 4.31976 7.66773 4.3365 7.70122 4.32985C7.72796 4.32985 7.75628 4.29802 7.7865 4.23441C7.81665 4.17095 7.86861 4.1358 7.94217 4.12901V4.12891H7.8417C7.71452 4.14899 7.65088 4.1992 7.65088 4.27955Z" fill="black"/>
<path d="M8.5249 4.16C8.59185 4.13987 8.65053 4.15507 8.70073 4.20527C8.75086 4.2554 8.78946 4.27725 8.81626 4.27046C8.8563 4.25048 8.86639 4.22026 8.84631 4.18012C8.79276 4.09305 8.68567 4.08636 8.5249 4.16Z" fill="black"/>
</g>
<defs>
<clipPath id="clip0_2251_233">
<rect width="18" height="18" fill="white"/>
</clipPath>
</defs>
</svg>
