<svg width="338" height="84" viewBox="0 0 338 84" fill="none" xmlns="http://www.w3.org/2000/svg">
<path d="M120.556 39.42C111.568 39.42 104.848 33.078 104.848 24.3C104.848 15.522 111.568 9.18 120.598 9.18C125.386 9.18 129.502 10.902 132.232 14.094L128.704 17.412C126.562 15.102 123.916 13.968 120.85 13.968C114.76 13.968 110.35 18.252 110.35 24.3C110.35 30.348 114.76 34.632 120.85 34.632C123.916 34.632 126.562 33.498 128.704 31.146L132.232 34.506C129.502 37.698 125.386 39.42 120.556 39.42ZM158.721 39.42C150.657 39.42 145.827 34.758 145.827 26.19V9.6H151.287V25.98C151.287 32.028 154.017 34.632 158.763 34.632C163.509 34.632 166.197 32.028 166.197 25.98V9.6H171.573V26.19C171.573 34.758 166.743 39.42 158.721 39.42ZM197.153 39.42C192.575 39.42 187.997 37.992 185.561 35.892L187.451 31.65C189.803 33.54 193.541 34.884 197.153 34.884C201.731 34.884 203.663 33.246 203.663 31.062C203.663 24.72 186.191 28.878 186.191 17.958C186.191 13.212 189.971 9.18 198.035 9.18C201.563 9.18 205.259 10.104 207.821 11.784L206.099 16.026C203.453 14.472 200.555 13.716 197.993 13.716C193.457 13.716 191.609 15.48 191.609 17.706C191.609 23.964 209.039 19.89 209.039 30.684C209.039 35.388 205.217 39.42 197.153 39.42ZM228.827 39V14.22H219.083V9.6H244.031V14.22H234.287V39H228.827ZM270.273 39.42C261.159 39.42 254.439 32.994 254.439 24.3C254.439 15.606 261.159 9.18 270.273 9.18C279.387 9.18 286.107 15.564 286.107 24.3C286.107 33.036 279.387 39.42 270.273 39.42ZM270.273 34.632C276.195 34.632 280.605 30.306 280.605 24.3C280.605 18.294 276.195 13.968 270.273 13.968C264.351 13.968 259.941 18.294 259.941 24.3C259.941 30.306 264.351 34.632 270.273 34.632ZM332.886 39H327.72L327.678 19.512L318.018 35.64H315.582L305.922 19.764V39H300.714V9.6H305.208L316.884 29.088L328.35 9.6H332.844L332.886 39Z" fill="black"/>
<path d="M109.498 71.804H120.73V73H108.172V54.8H120.34V55.996H109.498V63.172H119.196V64.342H109.498V71.804ZM136.849 73.13C134.145 73.13 131.545 72.116 130.219 70.66L130.817 69.672C132.065 70.972 134.379 71.96 136.823 71.96C140.463 71.96 142.075 70.374 142.075 68.398C142.075 62.938 130.713 66.214 130.713 59.506C130.713 56.932 132.689 54.67 137.161 54.67C139.163 54.67 141.243 55.294 142.647 56.308L142.153 57.374C140.645 56.334 138.799 55.84 137.161 55.84C133.625 55.84 132.039 57.478 132.039 59.48C132.039 64.94 143.401 61.716 143.401 68.32C143.401 70.894 141.347 73.13 136.849 73.13ZM154.408 73V54.8H155.734V73H154.408ZM181.576 70.244V63.978H182.85V70.79C181.212 72.35 178.846 73.13 176.35 73.13C170.864 73.13 166.834 69.204 166.834 63.9C166.834 58.596 170.864 54.67 176.376 54.67C179.002 54.67 181.316 55.502 182.928 57.166L182.096 58.05C180.51 56.49 178.612 55.892 176.402 55.892C171.67 55.892 168.16 59.324 168.16 63.9C168.16 68.45 171.67 71.908 176.402 71.908C178.326 71.908 180.094 71.44 181.576 70.244ZM208.68 54.8H210.006V73H208.914L196.512 57.192V73H195.186V54.8H196.304L208.68 70.608V54.8ZM236.459 73L234.119 67.878H223.563L221.249 73H219.819L228.191 54.8H229.517L237.889 73H236.459ZM224.083 66.76H233.625L228.841 56.256L224.083 66.76ZM250.263 73V55.996H243.711V54.8H258.141V55.996H251.589V73H250.263ZM274.698 73.13C270.174 73.13 267.418 70.478 267.418 65.278V54.8H268.744V65.226C268.744 69.776 270.928 71.908 274.724 71.908C278.52 71.908 280.678 69.776 280.678 65.226V54.8H282.004V65.278C282.004 70.478 279.222 73.13 274.698 73.13ZM308.836 73H307.328L302.986 66.916C302.414 66.994 301.842 67.046 301.218 67.046H296.018V73H294.692V54.8H301.218C305.794 54.8 308.55 57.088 308.55 60.936C308.55 63.822 306.99 65.824 304.286 66.63L308.836 73ZM296.018 65.876H301.218C305.118 65.876 307.198 64.056 307.198 60.936C307.198 57.79 305.118 55.996 301.218 55.996H296.018V65.876ZM321.23 71.804H332.462V73H319.904V54.8H332.072V55.996H321.23V63.172H330.928V64.342H321.23V71.804Z" fill="black"/>
<rect width="84" height="84" rx="5" fill="black"/>
<line y1="-5" x2="56" y2="-5" transform="matrix(1 0 -0.642788 0.766044 12 24)" stroke="url(#paint0_linear_2332_367)" stroke-width="10"/>
<line y1="-5" x2="40" y2="-5" transform="matrix(1 0 -0.642788 0.766044 12 45)" stroke="url(#paint1_linear_2332_367)" stroke-width="10"/>
<line y1="-5" x2="56" y2="-5" transform="matrix(1 0 -0.642788 0.766044 12 67)" stroke="url(#paint2_linear_2332_367)" stroke-width="10"/>
<defs>
<linearGradient id="paint0_linear_2332_367" x1="0" y1="0" x2="21.1106" y2="-27.1392" gradientUnits="userSpaceOnUse">
<stop stop-color="#58EDE7"/>
<stop offset="1" stop-color="#3BBADC"/>
</linearGradient>
<linearGradient id="paint1_linear_2332_367" x1="40" y1="0" x2="24.921" y2="19.3851" gradientUnits="userSpaceOnUse">
<stop stop-color="#3BBBDD"/>
<stop offset="1" stop-color="#57EBE7"/>
</linearGradient>
<linearGradient id="paint2_linear_2332_367" x1="0" y1="0" x2="21.1105" y2="-27.1392" gradientUnits="userSpaceOnUse">
<stop stop-color="#57EBE7"/>
<stop offset="1" stop-color="#3BBBDD"/>
</linearGradient>
</defs>
</svg>
