<svg width="16" height="17" viewBox="0 0 16 17" fill="none" xmlns="http://www.w3.org/2000/svg">
<path d="M1.31302 0.0994873C5.77118 0.0994873 10.2293 0.0994873 14.6875 0.0994873C14.7166 0.108877 14.7454 0.121709 14.7752 0.127656C15.3447 0.238453 15.7248 0.570531 15.923 1.11262C15.9549 1.19963 15.9746 1.29102 16 1.38022V10.8139C15.9922 10.8271 15.9806 10.8393 15.9771 10.8534C15.7999 11.6368 15.253 12.0834 14.4568 12.0837C10.1504 12.085 5.84445 12.0853 1.53814 12.0837C0.627029 12.0834 0.00209188 11.4499 0.0008395 10.5372C-9.97858e-05 9.62114 0.0008395 8.70503 0.0008395 7.78892C0.0008395 5.72259 -0.00198034 3.65594 0.00271608 1.58961C0.00396846 1.0181 0.260082 0.576165 0.759469 0.296355C0.927914 0.202147 1.12767 0.163649 1.31334 0.0998003L1.31302 0.0994873ZM5.01819 3.57551C5.01506 3.58897 5.01162 3.60242 5.00849 3.61588C3.73294 3.61369 2.65244 4.58614 2.52282 5.85279C2.33715 7.66529 4.18066 9.06684 5.87951 8.40863C5.9437 8.38391 6.03262 8.38234 6.09712 8.4055C6.69388 8.62084 7.28719 8.62178 7.88489 8.40957C7.95439 8.38485 8.04832 8.38516 8.11814 8.4102C8.71052 8.62084 9.29883 8.62021 9.8912 8.4102C9.96478 8.38422 10.0643 8.38641 10.1385 8.41301C10.5806 8.5717 11.0315 8.61458 11.4908 8.52287C12.9157 8.23774 13.7999 6.7905 13.3991 5.40679C12.9993 4.02621 11.4535 3.26628 10.1069 3.78489C10.0474 3.80774 9.96384 3.80493 9.9031 3.78302C9.30133 3.56455 8.70301 3.56487 8.10155 3.78458C8.04113 3.8068 7.95816 3.80586 7.89742 3.78396C7.29596 3.56518 6.69763 3.56487 6.09586 3.78333C6.03137 3.8068 5.94714 3.79554 5.8767 3.77989C5.58959 3.71604 5.30436 3.64436 5.01819 3.57551Z" fill="black"/>
<path d="M1.31302 0.0994873C5.77118 0.0994873 10.2293 0.0994873 14.6875 0.0994873C14.7166 0.108877 14.7454 0.121709 14.7752 0.127656C15.3447 0.238453 15.7248 0.570531 15.923 1.11262C15.9549 1.19963 15.9746 1.29102 16 1.38022V10.8139C15.9922 10.8271 15.9806 10.8393 15.9771 10.8534C15.7999 11.6368 15.253 12.0834 14.4568 12.0837C10.1504 12.085 5.84445 12.0853 1.53814 12.0837C0.627029 12.0834 0.00209188 11.4499 0.0008395 10.5372C-9.97858e-05 9.62114 0.0008395 8.70503 0.0008395 7.78892C0.0008395 5.72259 -0.00198034 3.65594 0.00271608 1.58961C0.00396846 1.0181 0.260082 0.576165 0.759469 0.296355C0.927914 0.202147 1.12767 0.163649 1.31334 0.0998003L1.31302 0.0994873ZM5.01819 3.57551C5.01506 3.58897 5.01162 3.60242 5.00849 3.61588C3.73294 3.61369 2.65244 4.58614 2.52282 5.85279C2.33715 7.66529 4.18066 9.06684 5.87951 8.40863C5.9437 8.38391 6.03262 8.38234 6.09712 8.4055C6.69388 8.62084 7.28719 8.62178 7.88489 8.40957C7.95439 8.38485 8.04832 8.38516 8.11814 8.4102C8.71052 8.62084 9.29883 8.62021 9.8912 8.4102C9.96478 8.38422 10.0643 8.38641 10.1385 8.41301C10.5806 8.5717 11.0315 8.61458 11.4908 8.52287C12.9157 8.23774 13.7999 6.7905 13.3991 5.40679C12.9993 4.02621 11.4535 3.26628 10.1069 3.78489C10.0474 3.80774 9.96384 3.80493 9.9031 3.78302C9.30133 3.56455 8.70301 3.56487 8.10155 3.78458C8.04113 3.8068 7.95816 3.80586 7.89742 3.78396C7.29596 3.56518 6.69763 3.56487 6.09586 3.78333C6.03137 3.8068 5.94714 3.79554 5.8767 3.77989C5.58959 3.71604 5.30436 3.64436 5.01819 3.57551Z" fill="url(#paint0_linear_1128_479)" style="mix-blend-mode:lighten"/>
<path d="M16.0001 14.7187C15.9049 15.0019 15.7033 15.0974 15.4118 15.0968C12.2874 15.0915 9.16305 15.0937 6.03868 15.0937H5.87305V14.1566H6.03836C9.16274 14.1566 12.2871 14.1585 15.4115 14.1534C15.702 14.1531 15.9056 14.247 16.0001 14.5312V14.7187Z" fill="black"/>
<path d="M16.0001 14.7187C15.9049 15.0019 15.7033 15.0974 15.4118 15.0968C12.2874 15.0915 9.16305 15.0937 6.03868 15.0937H5.87305V14.1566H6.03836C9.16274 14.1566 12.2871 14.1585 15.4115 14.1534C15.702 14.1531 15.9056 14.247 16.0001 14.5312V14.7187Z" fill="url(#paint1_linear_1128_479)" style="mix-blend-mode:lighten"/>
<path d="M4.95254 14.6273C4.93438 15.4805 4.29285 16.1059 3.45251 16.089C2.62093 16.0724 1.98377 15.4085 2.00851 14.5844C2.03324 13.7688 2.70734 13.1375 3.53422 13.1563C4.31539 13.1741 4.96882 13.8517 4.95254 14.6273Z" fill="black"/>
<path d="M4.95254 14.6273C4.93438 15.4805 4.29285 16.1059 3.45251 16.089C2.62093 16.0724 1.98377 15.4085 2.00851 14.5844C2.03324 13.7688 2.70734 13.1375 3.53422 13.1563C4.31539 13.1741 4.96882 13.8517 4.95254 14.6273Z" fill="url(#paint2_linear_1128_479)" style="mix-blend-mode:lighten"/>
<path d="M1.08764 14.1563V15.0872C0.867534 15.0872 0.628954 15.1031 0.393506 15.0828C0.157746 15.0621 -0.00256203 14.8505 0.00307368 14.6152C0.0087094 14.3726 0.18279 14.1798 0.429509 14.1613C0.594823 14.1491 0.761391 14.1573 0.927331 14.1563C0.983688 14.1563 1.04005 14.1563 1.08795 14.1563H1.08764Z" fill="black"/>
<path d="M1.08764 14.1563V15.0872C0.867534 15.0872 0.628954 15.1031 0.393506 15.0828C0.157746 15.0621 -0.00256203 14.8505 0.00307368 14.6152C0.0087094 14.3726 0.18279 14.1798 0.429509 14.1613C0.594823 14.1491 0.761391 14.1573 0.927331 14.1563C0.983688 14.1563 1.04005 14.1563 1.08795 14.1563H1.08764Z" fill="url(#paint3_linear_1128_479)" style="mix-blend-mode:lighten"/>
<path d="M11.0072 4.55824C11.8507 4.55449 12.547 5.23648 12.5529 6.07247C12.5592 6.94288 11.8879 7.62143 11.0185 7.62362C10.1474 7.62613 9.47927 6.9601 9.4727 6.08342C9.46644 5.25432 10.1631 4.562 11.0075 4.55824H11.0072Z" fill="black"/>
<path d="M11.0072 4.55824C11.8507 4.55449 12.547 5.23648 12.5529 6.07247C12.5592 6.94288 11.8879 7.62143 11.0185 7.62362C10.1474 7.62613 9.47927 6.9601 9.4727 6.08342C9.46644 5.25432 10.1631 4.562 11.0075 4.55824H11.0072Z" fill="url(#paint4_linear_1128_479)" style="mix-blend-mode:lighten"/>
<path d="M5.03097 4.55676C4.35312 5.59275 4.35437 6.60212 5.03065 7.62903C4.48493 7.61307 4.03 7.43717 3.72974 6.98021C3.38064 6.44876 3.3559 5.88163 3.65742 5.32326C3.9439 4.79275 4.42795 4.57961 5.03097 4.55676Z" fill="black"/>
<path d="M5.03097 4.55676C4.35312 5.59275 4.35437 6.60212 5.03065 7.62903C4.48493 7.61307 4.03 7.43717 3.72974 6.98021C3.38064 6.44876 3.3559 5.88163 3.65742 5.32326C3.9439 4.79275 4.42795 4.57961 5.03097 4.55676Z" fill="url(#paint5_linear_1128_479)" style="mix-blend-mode:lighten"/>
<path d="M9.0477 4.55737C8.36797 5.58804 8.3686 6.60211 9.04864 7.62995C8.47536 7.61149 8.00509 7.41744 7.71047 6.92386C7.38172 6.37332 7.37984 5.8018 7.71579 5.25314C8.01229 4.76895 8.47787 4.57647 9.0477 4.55769V4.55737Z" fill="black"/>
<path d="M9.0477 4.55737C8.36797 5.58804 8.3686 6.60211 9.04864 7.62995C8.47536 7.61149 8.00509 7.41744 7.71047 6.92386C7.38172 6.37332 7.37984 5.8018 7.71579 5.25314C8.01229 4.76895 8.47787 4.57647 9.0477 4.55769V4.55737Z" fill="url(#paint6_linear_1128_479)" style="mix-blend-mode:lighten"/>
<path d="M7.04124 4.55579C6.35963 5.59772 6.3637 6.60647 7.0403 7.62931C6.47485 7.61303 6.00834 7.42305 5.71184 6.93917C5.37683 6.3927 5.36963 5.82056 5.69775 5.26845C5.99143 4.77456 6.4617 4.58082 7.04124 4.5561V4.55579Z" fill="black"/>
<path d="M7.04124 4.55579C6.35963 5.59772 6.3637 6.60647 7.0403 7.62931C6.47485 7.61303 6.00834 7.42305 5.71184 6.93917C5.37683 6.3927 5.36963 5.82056 5.69775 5.26845C5.99143 4.77456 6.4617 4.58082 7.04124 4.5561V4.55579Z" fill="url(#paint7_linear_1128_479)" style="mix-blend-mode:lighten"/>
<defs>
<linearGradient id="paint0_linear_1128_479" x1="16" y1="2.34673" x2="3.21058" y2="14.0848" gradientUnits="userSpaceOnUse">
<stop stop-color="#00CCFF"/>
<stop offset="1" stop-color="#1D4AFE"/>
</linearGradient>
<linearGradient id="paint1_linear_1128_479" x1="16.0001" y1="14.3303" x2="15.7313" y2="16.3146" gradientUnits="userSpaceOnUse">
<stop stop-color="#00CCFF"/>
<stop offset="1" stop-color="#1D4AFE"/>
</linearGradient>
<linearGradient id="paint2_linear_1128_479" x1="4.95284" y1="13.7059" x2="2.01529" y2="15.7335" gradientUnits="userSpaceOnUse">
<stop stop-color="#00CCFF"/>
<stop offset="1" stop-color="#1D4AFE"/>
</linearGradient>
<linearGradient id="paint3_linear_1128_479" x1="1.08795" y1="14.3305" x2="0.108671" y2="15.1088" gradientUnits="userSpaceOnUse">
<stop stop-color="#00CCFF"/>
<stop offset="1" stop-color="#1D4AFE"/>
</linearGradient>
<linearGradient id="paint4_linear_1128_479" x1="12.553" y1="5.13299" x2="9.48227" y2="7.25437" gradientUnits="userSpaceOnUse">
<stop stop-color="#00CCFF"/>
<stop offset="1" stop-color="#1D4AFE"/>
</linearGradient>
<linearGradient id="paint5_linear_1128_479" x1="5.03097" y1="5.13281" x2="2.95995" y2="5.86632" gradientUnits="userSpaceOnUse">
<stop stop-color="#00CCFF"/>
<stop offset="1" stop-color="#1D4AFE"/>
</linearGradient>
<linearGradient id="paint6_linear_1128_479" x1="9.04864" y1="5.13348" x2="6.97549" y2="5.86862" gradientUnits="userSpaceOnUse">
<stop stop-color="#00CCFF"/>
<stop offset="1" stop-color="#1D4AFE"/>
</linearGradient>
<linearGradient id="paint7_linear_1128_479" x1="7.04124" y1="5.13207" x2="4.96753" y2="5.86737" gradientUnits="userSpaceOnUse">
<stop stop-color="#00CCFF"/>
<stop offset="1" stop-color="#1D4AFE"/>
</linearGradient>
</defs>
</svg>
