<svg width="22" height="22" viewBox="0 0 22 22" fill="none" xmlns="http://www.w3.org/2000/svg">
<path d="M15.6283 0H6.37197C5.4861 0 4.771 0.718315 4.771 1.60258V20.399C4.771 21.2825 5.4861 22 6.37197 22H15.6283C16.5126 22 17.2293 21.2825 17.2293 20.399V1.60258C17.2293 0.718315 16.5126 0 15.6283 0ZM8.71612 0.973253H13.2858C13.4012 0.973253 13.495 1.14562 13.495 1.35887C13.495 1.57212 13.4012 1.74528 13.2858 1.74528H8.71612C8.59987 1.74528 8.50768 1.57212 8.50768 1.35887C8.50768 1.14562 8.59987 0.973253 8.71612 0.973253ZM11.0009 20.4183C10.4373 20.4183 9.97878 19.9597 9.97878 19.3953C9.97878 18.8309 10.4373 18.374 11.0009 18.374C11.5629 18.374 12.0215 18.8309 12.0215 19.3953C12.0215 19.9597 11.5629 20.4183 11.0009 20.4183ZM16.0299 16.9157H5.97113V2.7041H16.0299V16.9157Z" fill="url(#paint0_linear_2251_267)"/>
<defs>
<linearGradient id="paint0_linear_2251_267" x1="4.771" y1="22" x2="18.2536" y2="21.3533" gradientUnits="userSpaceOnUse">
<stop stop-color="#00CCFF"/>
<stop offset="1" stop-color="#1D4AFE"/>
</linearGradient>
</defs>
</svg>
