<svg width="22" height="21" viewBox="0 0 22 21" fill="none" xmlns="http://www.w3.org/2000/svg">
<path d="M17.8338 4.60742H3.5415" stroke="#1E2939" stroke-width="1.2993" stroke-linecap="round" stroke-linejoin="round"/>
<path d="M8.73853 8.50537V13.7026" stroke="#1E2939" stroke-width="1.2993" stroke-linecap="round" stroke-linejoin="round"/>
<path d="M12.6365 8.50537V13.7026" stroke="#1E2939" stroke-width="1.2993" stroke-linecap="round" stroke-linejoin="round"/>
<path d="M16.5345 4.60742V16.9507C16.5345 17.123 16.466 17.2883 16.3442 17.4101C16.2224 17.5319 16.0571 17.6004 15.8848 17.6004H5.49047C5.31817 17.6004 5.15293 17.5319 5.0311 17.4101C4.90927 17.2883 4.84082 17.123 4.84082 16.9507V4.60742" stroke="#1E2939" stroke-width="1.2993" stroke-linecap="round" stroke-linejoin="round"/>
<path d="M13.9359 4.60738V3.30808C13.9359 2.96349 13.799 2.63301 13.5554 2.38934C13.3117 2.14568 12.9812 2.00879 12.6366 2.00879H8.73875C8.39415 2.00879 8.06367 2.14568 7.82001 2.38934C7.57634 2.63301 7.43945 2.96349 7.43945 3.30808V4.60738" stroke="#1E2939" stroke-width="1.2993" stroke-linecap="round" stroke-linejoin="round"/>
</svg>
