<svg width="16" height="16" viewBox="0 0 16 16" fill="none" xmlns="http://www.w3.org/2000/svg">
<path d="M5.55176 8.88281C6.3976 8.88281 7.07592 9.56716 7.07617 10.4189V12.4648C7.07616 13.3108 6.39775 14.001 5.55176 14.001H3.52441C2.68442 14.001 2.00002 13.3108 2 12.4648V10.4189C2.00025 9.56716 2.68457 8.88281 3.52441 8.88281H5.55176ZM12.4766 8.88281C13.3164 8.88286 13.9997 9.56719 14 10.4189V12.4648C14 13.3108 13.3165 14.0009 12.4766 14.001H10.4482C9.60236 14.0008 8.92482 13.3108 8.9248 12.4648V10.4189C8.92505 9.56724 9.60251 8.88294 10.4482 8.88281H12.4766ZM5.55176 2C6.3976 2 7.07592 2.68975 7.07617 3.53613V5.58203C7.07616 6.43402 6.39775 7.11816 5.55176 7.11816H3.52441C2.68442 7.11816 2.00002 6.43402 2 5.58203V3.53613C2.00025 2.68975 2.68457 2 3.52441 2H5.55176ZM12.4766 2C13.3164 2.00005 13.9997 2.68977 14 3.53613V5.58203C14 6.43399 13.3165 7.11812 12.4766 7.11816H10.4482C9.60236 7.11804 8.92482 6.43394 8.9248 5.58203V3.53613C8.92505 2.68983 9.60251 2.00013 10.4482 2H12.4766Z" fill="#6A7282"/>
</svg>
