<svg width="12" height="7" viewBox="0 0 12 7" fill="none" xmlns="http://www.w3.org/2000/svg">
<path d="M11.1823 1.48607L6.18227 6.48607C6.13583 6.53256 6.08069 6.56944 6.01999 6.5946C5.95929 6.61977 5.89423 6.63272 5.82852 6.63272C5.76281 6.63272 5.69775 6.61977 5.63705 6.5946C5.57635 6.56944 5.52121 6.53256 5.47477 6.48607L0.474769 1.48607C0.404763 1.41615 0.357079 1.32702 0.337754 1.22998C0.318429 1.13294 0.328331 1.03234 0.366207 0.940929C0.404084 0.849518 0.468231 0.7714 0.550528 0.716464C0.632825 0.661529 0.729571 0.632247 0.828519 0.632324H10.8285C10.9275 0.632247 11.0242 0.661529 11.1065 0.716464C11.1888 0.7714 11.253 0.849518 11.2908 0.940929C11.3287 1.03234 11.3386 1.13294 11.3193 1.22998C11.3 1.32702 11.2523 1.41615 11.1823 1.48607Z" fill="black"/>
</svg>
