<svg width="29" height="28" viewBox="0 0 29 28" fill="none" xmlns="http://www.w3.org/2000/svg">
<path d="M14.4593 13.0093C13.6522 13.0093 12.8633 13.2486 12.1922 13.697C11.5212 14.1454 10.9981 14.7827 10.6893 15.5283C10.3804 16.2739 10.2996 17.0944 10.4571 17.886C10.6145 18.6775 11.0032 19.4046 11.5738 19.9753C12.1445 20.546 12.8716 20.9346 13.6632 21.0921C14.4547 21.2495 15.2752 21.1687 16.0209 20.8599C16.7665 20.551 17.4038 20.028 17.8522 19.357C18.3006 18.6859 18.5399 17.897 18.5399 17.0899C18.5386 16.008 18.1083 14.9709 17.3433 14.2059C16.5783 13.4409 15.5411 13.0106 14.4593 13.0093ZM14.4593 19.5383C13.975 19.5383 13.5017 19.3947 13.099 19.1256C12.6964 18.8566 12.3826 18.4742 12.1973 18.0268C12.012 17.5795 11.9635 17.0872 12.058 16.6122C12.1524 16.1373 12.3856 15.701 12.728 15.3586C13.0704 15.0162 13.5067 14.783 13.9816 14.6886C14.4566 14.5941 14.9488 14.6426 15.3962 14.8279C15.8436 15.0132 16.226 15.327 16.495 15.7297C16.764 16.1323 16.9076 16.6056 16.9076 17.0899C16.9069 17.739 16.6487 18.3614 16.1897 18.8204C15.7307 19.2794 15.1084 19.5375 14.4593 19.5383ZM25.072 15.6322C22.3667 11.8907 18.4984 9.74479 14.4593 9.74479C10.4201 9.74479 6.55187 11.8907 3.8469 15.6322C3.53938 16.056 3.37378 16.5663 3.37378 17.0899C3.37378 17.6135 3.53938 18.1238 3.8469 18.5476C6.55227 22.2891 10.4201 24.435 14.4593 24.435C18.4984 24.435 22.3667 22.2891 25.0716 18.5476C25.3791 18.1238 25.5447 17.6136 25.5448 17.09C25.5449 16.5663 25.3794 16.0561 25.072 15.6322ZM23.749 17.5912C21.319 20.9517 18.0198 22.8027 14.4593 22.8027C10.8987 22.8027 7.59955 20.9517 5.16951 17.5912C5.06379 17.4454 5.0065 17.2699 5.00657 17.0898C5.00664 16.9097 5.06368 16.7343 5.16951 16.5886C7.59955 13.2281 10.8987 11.377 14.4593 11.377C18.0198 11.377 21.319 13.2281 23.7494 16.5886C23.8551 16.7344 23.912 16.9099 23.912 17.09C23.9119 17.27 23.8549 17.4455 23.749 17.5912ZM14.4593 8.92867C14.2428 8.92867 14.0352 8.84269 13.8822 8.68964C13.7291 8.53659 13.6431 8.329 13.6431 8.11255V4.03194C13.6431 3.81549 13.7291 3.60791 13.8822 3.45486C14.0352 3.3018 14.2428 3.21582 14.4593 3.21582C14.6757 3.21582 14.8833 3.3018 15.0364 3.45486C15.1894 3.60791 15.2754 3.81549 15.2754 4.03194V8.11255C15.2754 8.329 15.1894 8.53659 15.0364 8.68964C14.8833 8.84269 14.6757 8.92867 14.4593 8.92867ZM24.5571 7.07407L21.9342 10.1999C21.7945 10.3636 21.5958 10.4654 21.3813 10.4833C21.1669 10.5011 20.954 10.4336 20.7891 10.2953C20.6243 10.157 20.5207 9.95912 20.501 9.74482C20.4812 9.53052 20.547 9.31711 20.6838 9.15104L23.3067 6.02522C23.4458 5.8594 23.6451 5.75562 23.8607 5.73671C24.0763 5.7178 24.2906 5.78532 24.4564 5.9244C24.6222 6.06349 24.726 6.26275 24.7449 6.47835C24.7638 6.69396 24.6962 6.90824 24.5571 7.07407ZM8.95005 10.3007C8.86794 10.3696 8.77308 10.4216 8.67086 10.4538C8.56865 10.486 8.46109 10.4978 8.35434 10.4884C8.24758 10.479 8.14371 10.4487 8.04866 10.3992C7.95362 10.3497 7.86925 10.282 7.80039 10.1999L5.17752 7.07407C5.10865 6.99196 5.05663 6.89709 5.02442 6.79488C4.99222 6.69267 4.98046 6.58511 4.98982 6.47835C4.99919 6.3716 5.02948 6.26773 5.07899 6.17268C5.12849 6.07764 5.19623 5.99327 5.27834 5.9244C5.44416 5.78532 5.65845 5.7178 5.87405 5.73671C6.08966 5.75562 6.28892 5.8594 6.428 6.02522L9.05091 9.15104C9.11981 9.23313 9.17184 9.328 9.20406 9.43022C9.23628 9.53243 9.24804 9.64 9.23867 9.74676C9.2293 9.85353 9.19899 9.9574 9.14947 10.0524C9.09995 10.1475 9.03218 10.2318 8.95005 10.3007Z" fill="#6A7282"/>
</svg>
