<svg width="6" height="22" viewBox="0 0 6 22" fill="none" xmlns="http://www.w3.org/2000/svg">
<path d="M2.7872 11.9664C3.41733 11.9664 3.92816 11.4556 3.92816 10.8254C3.92816 10.1953 3.41733 9.68447 2.7872 9.68447C2.15706 9.68447 1.64624 10.1953 1.64624 10.8254C1.64624 11.4556 2.15706 11.9664 2.7872 11.9664Z" stroke="#99A1AF" stroke-width="2.28192" stroke-linecap="round" stroke-linejoin="round"/>
<path d="M2.7872 3.97967C3.41733 3.97967 3.92816 3.46885 3.92816 2.83871C3.92816 2.20858 3.41733 1.69775 2.7872 1.69775C2.15706 1.69775 1.64624 2.20858 1.64624 2.83871C1.64624 3.46885 2.15706 3.97967 2.7872 3.97967Z" stroke="#99A1AF" stroke-width="2.28192" stroke-linecap="round" stroke-linejoin="round"/>
<path d="M2.7872 19.9531C3.41733 19.9531 3.92816 19.4423 3.92816 18.8121C3.92816 18.182 3.41733 17.6712 2.7872 17.6712C2.15706 17.6712 1.64624 18.182 1.64624 18.8121C1.64624 19.4423 2.15706 19.9531 2.7872 19.9531Z" stroke="#99A1AF" stroke-width="2.28192" stroke-linecap="round" stroke-linejoin="round"/>
</svg>
