<svg width="17" height="17" viewBox="0 0 17 17" fill="none" xmlns="http://www.w3.org/2000/svg">
<path fill-rule="evenodd" clip-rule="evenodd" d="M13.4276 1.25766C14.0969 1.13886 14.7376 1.11272 15.2578 1.23961C15.3747 1.26768 15.4813 1.3283 15.5651 1.41447C15.648 1.49964 15.7054 1.60629 15.7308 1.72231C15.8529 2.25789 15.8276 2.90403 15.7084 3.57851C15.5878 4.26155 15.3648 5.00738 15.063 5.75604C14.4617 7.24791 13.5284 8.79773 12.4037 9.91657C12.0731 10.2491 11.7189 10.5571 11.3438 10.8381C11.3683 11.4505 11.2985 12.0841 11.0489 12.6568L11.0487 12.6574C10.6443 13.5823 9.9158 14.163 9.21414 14.5236C8.5145 14.8832 7.81131 15.0404 7.394 15.1075C7.27598 15.1266 7.15516 15.1182 7.04088 15.0831C6.9266 15.0481 6.8219 14.9872 6.73492 14.9052C6.6479 14.8232 6.5809 14.7223 6.53911 14.6103C6.49732 14.4983 6.48182 14.3782 6.49386 14.2593C6.49398 14.2579 6.49414 14.2565 6.49429 14.255L6.71411 12.2521C6.69187 12.2499 6.66961 12.2475 6.64737 12.2451C6.40244 12.2198 6.17379 12.1104 6.00038 11.9356C5.99998 11.9352 5.9996 11.9348 5.9992 11.9344L5.02426 10.9595C5.02388 10.9591 5.02348 10.9587 5.02307 10.9583C4.84826 10.785 4.73891 10.5564 4.71355 10.3116C4.71096 10.2883 4.7085 10.2649 4.70616 10.2414L2.70141 10.4615L2.69935 10.4618L2.6978 10.4619C2.57871 10.4741 2.45841 10.4587 2.34622 10.4169C2.23403 10.3751 2.13297 10.3081 2.05087 10.221C1.96877 10.1338 1.90784 10.029 1.87279 9.91451C1.83774 9.80005 1.82952 9.67904 1.84877 9.56089L1.84891 9.55999C1.91743 9.14402 2.07537 8.44189 2.43547 7.74266C2.7965 7.04162 3.37703 6.31361 4.30123 5.90725L4.30254 5.90668C4.87552 5.65673 5.51252 5.58696 6.12866 5.61388C6.40971 5.24014 6.71748 4.88714 7.04961 4.55766C8.1717 3.43663 9.74494 2.50379 11.2466 1.90287C12.0003 1.60127 12.7486 1.37815 13.4276 1.25766ZM11.6174 2.82948C10.2052 3.39462 8.75725 4.26224 7.75446 5.26428L7.75315 5.26559C7.39497 5.6208 7.06839 6.00652 6.77708 6.41834C6.67432 6.56362 6.50196 6.64318 6.32472 6.62715C5.71728 6.5722 5.15534 6.62372 4.70232 6.82115C4.05212 7.10725 3.61638 7.62948 3.32276 8.19961C3.09658 8.63879 2.96443 9.08863 2.88838 9.43695L5.12101 9.19186C5.2612 9.17645 5.40133 9.22112 5.50681 9.31475C5.61226 9.40841 5.67318 9.5423 5.67446 9.68331C5.67605 9.85709 5.68649 10.0307 5.70571 10.2034C5.70593 10.2052 5.70611 10.2069 5.70627 10.2087C5.70783 10.2242 5.71475 10.2387 5.72586 10.2496L5.72791 10.2517L6.70694 11.2307L6.70897 11.2328C6.71995 11.2439 6.73445 11.2508 6.74998 11.2523C6.75185 11.2525 6.75372 11.2527 6.75559 11.2529C6.92726 11.272 7.09977 11.2825 7.27246 11.2842C7.41343 11.2856 7.54727 11.3465 7.64083 11.4519C7.73443 11.5574 7.77903 11.6975 7.76366 11.8376L7.51879 14.0687C7.86708 13.9937 8.31795 13.8621 8.7579 13.6359C9.32841 13.3428 9.85002 12.9073 10.134 12.2579C10.332 11.8036 10.3834 11.2442 10.3313 10.6386C10.316 10.4618 10.3959 10.2901 10.541 10.1879C10.954 9.89689 11.3407 9.57037 11.6968 9.21201L11.6989 9.20992C12.7064 8.208 13.5735 6.78191 14.1373 5.38293C14.4183 4.68594 14.6191 4.00739 14.7256 3.40488C14.8119 2.9165 14.8323 2.49896 14.7953 2.17017C14.4856 2.13524 14.0823 2.1551 13.602 2.24035C13.0028 2.34668 12.3208 2.54801 11.6174 2.82948ZM7.23538 14.1221C7.23519 14.1221 7.235 14.1222 7.23478 14.1222L7.23525 14.1221L7.23538 14.1221ZM11.0967 5.04175C10.932 5.04175 10.771 5.09059 10.634 5.1821C10.4971 5.27361 10.3903 5.4037 10.3273 5.55587C10.2643 5.70804 10.2478 5.87549 10.28 6.03702C10.3121 6.19858 10.3914 6.34695 10.5079 6.46341L10.5083 6.46381C10.5856 6.54119 10.6772 6.60257 10.7782 6.64446C10.8792 6.68635 10.9874 6.7079 11.0967 6.7079C11.206 6.7079 11.3142 6.68635 11.4152 6.64446C11.5161 6.60257 11.6079 6.54119 11.6851 6.46381L11.6855 6.46341C11.802 6.34695 11.8813 6.19858 11.9134 6.03702C11.9456 5.87549 11.9291 5.70804 11.8661 5.55587C11.803 5.4037 11.6963 5.27361 11.5594 5.1821C11.4224 5.09059 11.2614 5.04175 11.0967 5.04175ZM10.0795 4.35228C10.3806 4.15108 10.7346 4.0437 11.0967 4.0437C11.4588 4.0437 11.8128 4.15108 12.1139 4.35228C12.415 4.55345 12.6496 4.83942 12.7882 5.17399C12.9267 5.50855 12.963 5.87668 12.8923 6.23183C12.8217 6.58679 12.6474 6.91284 12.3915 7.16881C12.2216 7.33907 12.0198 7.47415 11.7976 7.56632C11.5754 7.65851 11.3372 7.70595 11.0967 7.70595C10.8561 7.70595 10.618 7.65851 10.3958 7.56632C10.1737 7.47422 9.97197 7.3392 9.80211 7.16906C9.54611 6.91306 9.37177 6.58692 9.30112 6.23183C9.23045 5.87668 9.26666 5.50855 9.40523 5.17399C9.54377 4.83942 9.77844 4.55345 10.0795 4.35228Z" fill="black"/>
<path fill-rule="evenodd" clip-rule="evenodd" d="M4.55719 11.2547C4.59078 11.5282 4.39626 11.7772 4.12269 11.8108C3.92243 11.8354 3.73609 11.9261 3.5932 12.0685C3.54526 12.1169 3.46787 12.2495 3.39148 12.4996C3.31989 12.734 3.2663 13.0127 3.2273 13.2893C3.20298 13.4617 3.185 13.6285 3.17179 13.7763C3.31969 13.763 3.48659 13.7451 3.65918 13.7207C3.93578 13.6816 4.21445 13.628 4.44865 13.5564C4.69926 13.4797 4.83131 13.4022 4.87884 13.3546L4.87969 13.3538C5.02244 13.2116 5.1131 13.0255 5.13712 12.8255C5.16993 12.5519 5.41835 12.3566 5.69201 12.3894C5.96563 12.4223 6.16087 12.6707 6.12806 12.9443C6.07738 13.367 5.88579 13.7602 5.58422 14.0607C5.35684 14.2879 5.02756 14.423 4.74058 14.5108C4.43695 14.6037 4.10165 14.6662 3.79864 14.709C3.49335 14.752 3.20804 14.7768 2.99985 14.7908C2.8954 14.7978 2.80951 14.8022 2.74918 14.8049C2.719 14.8062 2.69516 14.8071 2.67855 14.8077C2.67023 14.8079 2.66372 14.8081 2.65912 14.8083L2.65366 14.8084L2.65129 14.8085C2.65129 14.8085 2.65114 14.8085 2.63843 14.3096C2.13956 14.2969 2.13957 14.2968 2.13957 14.2968L2.13963 14.2944L2.13979 14.2889C2.13993 14.2843 2.14013 14.2778 2.14041 14.2695C2.14098 14.2529 2.14187 14.2291 2.14319 14.1989C2.14584 14.1386 2.15022 14.0528 2.15725 13.9484C2.17126 13.7403 2.19599 13.4551 2.23903 13.1499C2.28175 12.847 2.34421 12.5117 2.43695 12.2081C2.52471 11.9208 2.65973 11.5913 2.8866 11.3637L2.88744 11.3628C3.18781 11.0629 3.57977 10.8719 4.00109 10.8202C4.27465 10.7866 4.52363 10.9811 4.55719 11.2547ZM2.63843 14.3096L2.13957 14.2968C2.13608 14.4335 2.18885 14.5658 2.28556 14.6625C2.38227 14.7592 2.51457 14.812 2.65129 14.8085L2.63843 14.3096Z" fill="black"/>
</svg>
