<svg width="28" height="28" viewBox="0 0 28 28" fill="none" xmlns="http://www.w3.org/2000/svg">
<path d="M11.3279 4.66656V3.84332C11.3279 3.62499 11.4146 3.41559 11.569 3.26121C11.7234 3.10682 11.9328 3.02009 12.1511 3.02009C12.3694 3.02009 12.5788 3.10682 12.7332 3.26121C12.8876 3.41559 12.9743 3.62499 12.9743 3.84332V4.66656C12.9743 4.88489 12.8876 5.09428 12.7332 5.24867C12.5788 5.40306 12.3694 5.48979 12.1511 5.48979C11.9328 5.48979 11.7234 5.40306 11.569 5.24867C11.4146 5.09428 11.3279 4.88489 11.3279 4.66656ZM3.91876 12.8989H4.742C4.96033 12.8989 5.16972 12.8122 5.32411 12.6578C5.4785 12.5034 5.56523 12.294 5.56523 12.0757C5.56523 11.8573 5.4785 11.6479 5.32411 11.4936C5.16972 11.3392 4.96033 11.2524 4.742 11.2524H3.91876C3.70043 11.2524 3.49103 11.3392 3.33665 11.4936C3.18226 11.6479 3.09553 11.8573 3.09553 12.0757C3.09553 12.294 3.18226 12.5034 3.33665 12.6578C3.49103 12.8122 3.70043 12.8989 3.91876 12.8989ZM15.0756 6.22659C15.1724 6.27503 15.2777 6.30394 15.3857 6.31164C15.4936 6.31935 15.602 6.3057 15.7046 6.27149C15.8073 6.23727 15.9021 6.18316 15.9839 6.11224C16.0656 6.04132 16.1325 5.95499 16.1808 5.85819L17.0041 4.21172C17.1018 4.01645 17.1179 3.79036 17.0489 3.58319C16.9799 3.37602 16.8315 3.20475 16.6362 3.10704C16.4409 3.00934 16.2148 2.99321 16.0077 3.0622C15.8005 3.13119 15.6292 3.27965 15.5315 3.47492L14.7083 5.12139C14.6598 5.21808 14.6308 5.32336 14.6231 5.43124C14.6153 5.53912 14.6288 5.64748 14.663 5.75011C14.6971 5.85275 14.7511 5.94766 14.8219 6.02941C14.8927 6.11117 14.9789 6.17817 15.0756 6.22659ZM5.19683 14.6328L3.55036 15.4561C3.35509 15.5538 3.20663 15.7251 3.13764 15.9322C3.06864 16.1394 3.08478 16.3655 3.18248 16.5608C3.28019 16.756 3.45146 16.9045 3.65863 16.9735C3.8658 17.0425 4.09188 17.0263 4.28716 16.9286L5.93363 16.1054C6.03032 16.057 6.11653 15.9901 6.18735 15.9084C6.25816 15.8267 6.31219 15.7318 6.34635 15.6293C6.38052 15.5267 6.39414 15.4184 6.38644 15.3105C6.37875 15.2027 6.34989 15.0974 6.30151 15.0007C6.25313 14.904 6.18618 14.8178 6.10448 14.747C6.02279 14.6762 5.92794 14.6222 5.82536 14.588C5.72278 14.5538 5.61448 14.5402 5.50664 14.5479C5.39879 14.5556 5.29352 14.5845 5.19683 14.6328ZM24.8402 21.1312C24.9932 21.2841 25.1145 21.4657 25.1972 21.6654C25.28 21.8652 25.3226 22.0794 25.3226 22.2956C25.3226 22.5119 25.28 22.726 25.1972 22.9258C25.1145 23.1256 24.9932 23.3071 24.8402 23.46L23.5354 24.7648C23.3825 24.9177 23.201 25.039 23.0012 25.1218C22.8014 25.2046 22.5873 25.2472 22.371 25.2472C22.1548 25.2472 21.9407 25.2046 21.7409 25.1218C21.5411 25.039 21.3596 24.9177 21.2067 24.7648L15.9277 19.4848L14.1063 24.2276C14.1063 24.2379 14.0981 24.2492 14.0929 24.2606C13.9669 24.5543 13.7573 24.8045 13.4901 24.98C13.223 25.1555 12.9101 25.2485 12.5905 25.2474H12.5092C12.1759 25.2333 11.8549 25.1172 11.5897 24.9147C11.3245 24.7123 11.1279 24.4333 11.0264 24.1155L5.64755 7.64255C5.55522 7.35446 5.54404 7.04649 5.61525 6.75246C5.68646 6.45843 5.83731 6.18971 6.05123 5.97579C6.26515 5.76187 6.53387 5.61102 6.8279 5.53981C7.12193 5.4686 7.42989 5.47978 7.71799 5.57211L24.1909 10.9509C24.5057 11.0562 24.7814 11.2543 24.9817 11.519C25.182 11.7838 25.2975 12.1029 25.3132 12.4345C25.3289 12.7661 25.244 13.0947 25.0696 13.3772C24.8952 13.6597 24.6395 13.8829 24.336 14.0175L24.3031 14.0308L19.5602 15.8512L24.8402 21.1312ZM23.6764 22.2951L18.3964 17.0151C18.2063 16.8254 18.0655 16.5921 17.9863 16.3355C17.9071 16.0789 17.8919 15.8069 17.9419 15.543C17.9919 15.2792 18.1057 15.0316 18.2733 14.8219C18.441 14.6121 18.6574 14.4465 18.9037 14.3396L18.9366 14.3252L23.6651 12.5099L7.2117 7.13626L12.5833 23.5865L14.3996 18.8529C14.3996 18.8416 14.4078 18.8303 14.4129 18.819C14.5199 18.5729 14.6855 18.3567 14.8951 18.1891C15.1048 18.0216 15.3522 17.9079 15.6159 17.8579C15.7177 17.839 15.821 17.8293 15.9246 17.829C16.3608 17.8295 16.7791 18.0031 17.0874 18.3117L22.3705 23.6009L23.6764 22.2951Z" fill="#6A7282"/>
</svg>
