<svg width="11" height="6" viewBox="0 0 11 6" fill="none" xmlns="http://www.w3.org/2000/svg">
<path d="M10.4344 1.30953L6.05939 5.68453C6.01876 5.72521 5.97051 5.75748 5.91739 5.7795C5.86428 5.80151 5.80735 5.81284 5.74986 5.81284C5.69236 5.81284 5.63543 5.80151 5.58232 5.7795C5.52921 5.75748 5.48096 5.72521 5.44033 5.68453L1.06533 1.30953C1.00407 1.24834 0.962347 1.17036 0.945437 1.08545C0.928528 1.00053 0.937192 0.912514 0.970334 0.832529C1.00348 0.752544 1.0596 0.684191 1.13161 0.636122C1.20362 0.588054 1.28828 0.562432 1.37486 0.5625H10.1249C10.2114 0.562432 10.2961 0.588054 10.3681 0.636122C10.4401 0.684191 10.4962 0.752544 10.5294 0.832529C10.5625 0.912514 10.5712 1.00053 10.5543 1.08545C10.5374 1.17036 10.4956 1.24834 10.4344 1.30953Z" fill="black"/>
</svg>