<svg width="16" height="16" viewBox="0 0 16 16" fill="none" xmlns="http://www.w3.org/2000/svg">
<path d="M13.2368 1.33203H2.7606C1.97298 1.33203 1.33203 1.97298 1.33203 2.7606V9.42727C1.33203 10.2149 1.97298 10.8558 2.7606 10.8558H13.2368C14.0244 10.8558 14.6654 10.2149 14.6654 9.42727V2.7606C14.6654 1.97298 14.0244 1.33203 13.2368 1.33203ZM13.713 9.42727C13.713 9.69013 13.4992 9.90346 13.2368 9.90346H2.7606C2.49822 9.90346 2.28441 9.69013 2.28441 9.42727V2.7606C2.28441 2.49822 2.49822 2.28441 2.7606 2.28441H13.2368C13.4992 2.28441 13.713 2.49822 13.713 2.7606V9.42727ZM14.1892 12.7606H5.05394C4.85679 12.2077 4.33298 11.8082 3.71298 11.8082C3.09298 11.8082 2.56917 12.2077 2.37203 12.7606H1.80822C1.54536 12.7606 1.33203 12.9735 1.33203 13.2368C1.33203 13.5001 1.54536 13.713 1.80822 13.713H2.37203C2.56917 14.2658 3.09298 14.6654 3.71298 14.6654C4.33298 14.6654 4.85679 14.2658 5.05394 13.713H14.1892C14.452 13.713 14.6654 13.5001 14.6654 13.2368C14.6654 12.9735 14.452 12.7606 14.1892 12.7606ZM3.71298 13.713C3.4506 13.713 3.23679 13.4997 3.23679 13.2368C3.23679 12.9739 3.4506 12.7606 3.71298 12.7606C3.97536 12.7606 4.18917 12.9739 4.18917 13.2368C4.18917 13.4997 3.97536 13.713 3.71298 13.713ZM7.04632 8.50108C6.88679 8.50108 6.72727 8.46156 6.58298 8.38108C6.28156 8.21298 6.09441 7.89441 6.09441 7.54917V4.63965C6.09441 4.29441 6.28203 3.97536 6.58298 3.80775C6.88441 3.63965 7.25441 3.64822 7.54727 3.82965L9.89917 5.28441C10.182 5.45965 10.3506 5.76203 10.3506 6.09441C10.3506 6.42679 10.182 6.72917 9.89965 6.90441L7.54775 8.35965C7.39489 8.45441 7.2206 8.50156 7.04679 8.50156L7.04632 8.50108ZM7.04394 4.63775L7.04632 7.5487L9.39822 6.09394L7.04394 4.63775Z" fill="#6A7282"/>
</svg>
