<svg width="18" height="19" viewBox="0 0 18 19" fill="none" xmlns="http://www.w3.org/2000/svg">
<path d="M11.4261 17.2637H6.57374C5.23596 17.2637 4.14758 16.1753 4.14758 14.8375V4.16242C4.14758 2.82464 5.23596 1.73627 6.57374 1.73627H11.4261C12.7638 1.73627 13.8522 2.82464 13.8522 4.16242V14.8375C13.8522 16.1753 12.7638 17.2637 11.4261 17.2637ZM6.57374 2.70673C5.77101 2.70673 5.11805 3.35969 5.11805 4.16242V14.8375C5.11805 15.6403 5.77101 16.2932 6.57374 16.2932H11.4261C12.2288 16.2932 12.8817 15.6403 12.8817 14.8375V4.16242C12.8817 3.35969 12.2288 2.70673 11.4261 2.70673H6.57374ZM9.97036 14.8375C9.97036 14.5693 9.75314 14.3523 9.48513 14.3523H8.51467C8.24666 14.3523 8.02943 14.5693 8.02943 14.8375C8.02943 15.1057 8.24666 15.3227 8.51467 15.3227H9.48513C9.75314 15.3227 9.97036 15.1057 9.97036 14.8375ZM10.4556 4.16242C10.4556 3.89425 10.2384 3.67719 9.97036 3.67719H8.02943C7.76142 3.67719 7.5442 3.89425 7.5442 4.16242C7.5442 4.4306 7.76142 4.64766 8.02943 4.64766H9.97036C10.2384 4.64766 10.4556 4.4306 10.4556 4.16242Z" fill="url(#paint0_linear_6393_9838)"/>
<defs>
<linearGradient id="paint0_linear_6393_9838" x1="4.14758" y1="9.49997" x2="13.8522" y2="9.49997" gradientUnits="userSpaceOnUse">
<stop stop-color="#26B7FF"/>
<stop offset="1" stop-color="#1D4AFE"/>
</linearGradient>
</defs>
</svg>
