<svg width="18" height="19" viewBox="0 0 18 19" fill="none" xmlns="http://www.w3.org/2000/svg">
<path d="M13.5 1.625H4.5C4.05245 1.625 3.62322 1.80279 3.30676 2.11926C2.99029 2.43572 2.8125 2.86495 2.8125 3.3125V15.6875C2.8125 16.1351 2.99029 16.5643 3.30676 16.8807C3.62322 17.1972 4.05245 17.375 4.5 17.375H13.5C13.9476 17.375 14.3768 17.1972 14.6932 16.8807C15.0097 16.5643 15.1875 16.1351 15.1875 15.6875V3.3125C15.1875 2.86495 15.0097 2.43572 14.6932 2.11926C14.3768 1.80279 13.9476 1.625 13.5 1.625ZM14.0625 15.6875C14.0625 15.8367 14.0032 15.9798 13.8977 16.0852C13.7923 16.1907 13.6492 16.25 13.5 16.25H4.5C4.35082 16.25 4.20774 16.1907 4.10225 16.0852C3.99676 15.9798 3.9375 15.8367 3.9375 15.6875V3.3125C3.9375 3.16332 3.99676 3.02024 4.10225 2.91475C4.20774 2.80926 4.35082 2.75 4.5 2.75H13.5C13.6492 2.75 13.7923 2.80926 13.8977 2.91475C14.0032 3.02024 14.0625 3.16332 14.0625 3.3125V15.6875Z" fill="url(#paint0_linear_6393_9849)"/>
<path d="M9.21378 3.92008C9.11134 3.877 8.99844 3.86523 8.88932 3.88626C8.7802 3.90728 8.67975 3.96015 8.60065 4.0382C8.49704 4.14546 8.43864 4.28845 8.43753 4.43758C8.43678 4.51166 8.45081 4.58514 8.47881 4.65372C8.50682 4.72231 8.54822 4.78462 8.6006 4.837C8.65299 4.88939 8.7153 4.93079 8.78388 4.95879C8.85247 4.98679 8.92595 5.00083 9.00003 5.00008C9.07353 4.99919 9.14615 4.9839 9.21378 4.95508C9.28192 4.92654 9.34469 4.8866 9.3994 4.83695C9.50398 4.73032 9.56256 4.58693 9.56256 4.43758C9.56256 4.28823 9.50398 4.14483 9.3994 4.0382C9.34469 3.98856 9.28192 3.94861 9.21378 3.92008Z" fill="url(#paint1_linear_6393_9849)"/>
<defs>
<linearGradient id="paint0_linear_6393_9849" x1="2.8125" y1="9.5" x2="15.1875" y2="9.5" gradientUnits="userSpaceOnUse">
<stop stop-color="#26B7FF"/>
<stop offset="1" stop-color="#1D4AFE"/>
</linearGradient>
<linearGradient id="paint1_linear_6393_9849" x1="8.4375" y1="4.4381" x2="9.56256" y2="4.4381" gradientUnits="userSpaceOnUse">
<stop stop-color="#26B7FF"/>
<stop offset="1" stop-color="#1D4AFE"/>
</linearGradient>
</defs>
</svg>
