<svg width="18" height="19" viewBox="0 0 18 19" fill="none" xmlns="http://www.w3.org/2000/svg">
<path d="M13.1505 1.54547H4.81652C1.83152 1.54547 0.921021 2.45597 0.921021 5.44097V10.1915C0.921021 13.1765 1.83152 14.087 4.81652 14.087H8.42102V16.5455H5.60852C5.45934 16.5455 5.31626 16.6047 5.21077 16.7102C5.10528 16.8157 5.04602 16.9588 5.04602 17.108C5.04602 17.2572 5.10528 17.4002 5.21077 17.5057C5.31626 17.6112 5.45934 17.6705 5.60852 17.6705H12.3585C12.5077 17.6705 12.6508 17.6112 12.7563 17.5057C12.8618 17.4002 12.921 17.2572 12.921 17.108C12.921 16.9588 12.8618 16.8157 12.7563 16.7102C12.6508 16.6047 12.5077 16.5455 12.3585 16.5455H9.54602V14.087H13.1505C16.1355 14.087 17.046 13.1765 17.046 10.1915V5.44097C17.046 2.45597 16.1355 1.54547 13.1505 1.54547ZM4.81652 2.67047H13.1505C15.507 2.67047 15.921 3.08447 15.921 5.44097V9.79547H2.04602V5.44097C2.04602 3.08447 2.46002 2.67047 4.81652 2.67047ZM13.1505 12.962H4.81652C2.72852 12.962 2.16677 12.6335 2.06552 10.9205H15.9C15.8003 12.6335 15.2385 12.962 13.1505 12.962Z" fill="url(#paint0_linear_6393_9829)"/>
<defs>
<linearGradient id="paint0_linear_6393_9829" x1="0.921021" y1="9.60797" x2="17.046" y2="9.60797" gradientUnits="userSpaceOnUse">
<stop stop-color="#26B7FF"/>
<stop offset="1" stop-color="#1D4AFE"/>
</linearGradient>
</defs>
</svg>
