<svg id="outlook-icon" xmlns="http://www.w3.org/2000/svg" width="30.484" height="30.821" viewBox="0 0 30.484 30.821">
  <path id="path3" d="M8.761,3V9.03l2.107,1.327a.539.539,0,0,0,.232,0l9.067-6.113A1.292,1.292,0,0,0,19.111,3Z" transform="translate(10.316 3.534)"/>
  <path id="path5" d="M8.762,9.29l1.923,1.321a.575.575,0,0,0,.6,0c-.325.2,8.887-5.92,8.887-5.92V15.771a1.55,1.55,0,0,1-1.64,1.712H8.761V9.29Z" transform="translate(10.315 5.523)"/>
  <g id="g23" transform="translate(0 0)">
    <path id="path25" d="M18.829,46.911a1.771,1.771,0,0,0-1.563.923,4.547,4.547,0,0,0-.579,2.441,4.458,4.458,0,0,0,.579,2.438,1.758,1.758,0,0,0,3.05.024,4.418,4.418,0,0,0,.567-2.419,4.81,4.81,0,0,0-.55-2.511A1.691,1.691,0,0,0,18.829,46.911Z" transform="translate(-9.707 -34.878)"/>
    <path id="path27" d="M13.481,44.857V68.444l17.943,3.762V41.384ZM25.488,60.638a3.556,3.556,0,0,1-2.967,1.5,3.511,3.511,0,0,1-2.906-1.45A6.009,6.009,0,0,1,18.493,56.9a6.46,6.46,0,0,1,1.14-3.98,3.6,3.6,0,0,1,3.021-1.52,3.429,3.429,0,0,1,2.873,1.454,6.207,6.207,0,0,1,1.1,3.835A6.346,6.346,0,0,1,25.488,60.638Z" transform="translate(-13.481 -41.384)"/>
  </g>
</svg>
