<svg width="233" height="53" viewBox="0 0 233 53" fill="none" xmlns="http://www.w3.org/2000/svg">
<rect x="0.833252" y="0.59375" width="231.667" height="51" fill="white"/>
<rect x="0.833252" y="0.59375" width="231.667" height="51" stroke="#EDEDED"/>
<path d="M96.9934 33.2576L91.0994 24.6949L97.6331 17.0938H96.1384L94.8589 18.5751L90.4329 23.7265L86.2168 17.6014L85.8675 17.0938H80.6868L81.9503 18.9299L87.5562 27.075L80.6665 35.0938H82.1612L88.2224 28.0424L92.7266 34.5867L93.076 35.0939H98.2568L96.9932 33.2578L96.9934 33.2576ZM93.6919 33.9219L89.0124 27.123L88.346 26.1551L82.9159 18.2656H85.2517L89.643 24.6459L90.3094 25.6138L96.0276 33.9217H93.6919V33.9219Z" fill="black"/>
<path d="M112.283 22.2344V20.9119H120.163V22.2344H116.986V31.0938H115.455V22.2344H112.283ZM122.005 31.0938L119.758 23.4574H121.295L122.791 29.0653H122.866L124.367 23.4574H125.903L127.395 29.0405H127.469L128.956 23.4574H130.492L128.25 31.0938H126.733L125.182 25.5803H125.068L123.517 31.0938H122.005ZM131.343 31.0938V23.4574H132.829V31.0938H131.343ZM132.093 22.2791C131.835 22.2791 131.613 22.1929 131.427 22.0206C131.245 21.8449 131.154 21.6361 131.154 21.3942C131.154 21.1489 131.245 20.9401 131.427 20.7678C131.613 20.5921 131.835 20.5043 132.093 20.5043C132.352 20.5043 132.572 20.5921 132.755 20.7678C132.94 20.9401 133.033 21.1489 133.033 21.3942C133.033 21.6361 132.94 21.8449 132.755 22.0206C132.572 22.1929 132.352 22.2791 132.093 22.2791ZM137.834 23.4574V24.6506H133.662V23.4574H137.834ZM134.781 21.6278H136.268V28.8516C136.268 29.1399 136.311 29.357 136.397 29.5028C136.483 29.6454 136.594 29.7431 136.73 29.7962C136.869 29.8459 137.02 29.8707 137.182 29.8707C137.302 29.8707 137.406 29.8625 137.496 29.8459C137.585 29.8293 137.655 29.8161 137.704 29.8061L137.973 31.0341C137.887 31.0672 137.764 31.1004 137.605 31.1335C137.446 31.17 137.247 31.1899 137.008 31.1932C136.617 31.1998 136.253 31.1302 135.915 30.9844C135.577 30.8385 135.303 30.6132 135.094 30.3082C134.885 30.0033 134.781 29.6205 134.781 29.1598V21.6278ZM142.483 23.4574V24.6506H138.311V23.4574H142.483ZM139.43 21.6278H140.917V28.8516C140.917 29.1399 140.96 29.357 141.046 29.5028C141.132 29.6454 141.243 29.7431 141.379 29.7962C141.518 29.8459 141.669 29.8707 141.831 29.8707C141.951 29.8707 142.055 29.8625 142.145 29.8459C142.234 29.8293 142.304 29.8161 142.353 29.8061L142.622 31.0341C142.536 31.0672 142.413 31.1004 142.254 31.1335C142.095 31.17 141.896 31.1899 141.657 31.1932C141.266 31.1998 140.902 31.1302 140.564 30.9844C140.226 30.8385 139.952 30.6132 139.743 30.3082C139.534 30.0033 139.43 29.6205 139.43 29.1598V21.6278ZM146.776 31.2479C146.024 31.2479 145.376 31.0871 144.832 30.7656C144.292 30.4408 143.874 29.9851 143.579 29.3984C143.288 28.8085 143.142 28.1174 143.142 27.3253C143.142 26.5431 143.288 25.8537 143.579 25.2571C143.874 24.6605 144.285 24.1948 144.812 23.8601C145.343 23.5253 145.962 23.358 146.672 23.358C147.103 23.358 147.52 23.4292 147.925 23.5717C148.329 23.7143 148.692 23.938 149.013 24.2429C149.335 24.5478 149.588 24.9439 149.774 25.4311C149.96 25.915 150.052 26.5033 150.052 27.196V27.723H143.982V26.6094H148.596C148.596 26.2183 148.516 25.8719 148.357 25.5703C148.198 25.2654 147.974 25.0251 147.686 24.8494C147.401 24.6738 147.066 24.5859 146.682 24.5859C146.264 24.5859 145.899 24.6887 145.588 24.8942C145.28 25.0964 145.041 25.3615 144.872 25.6896C144.706 26.0144 144.623 26.3674 144.623 26.7486V27.6186C144.623 28.129 144.713 28.5632 144.892 28.9212C145.074 29.2791 145.328 29.5526 145.653 29.7415C145.977 29.9271 146.357 30.0199 146.791 30.0199C147.073 30.0199 147.33 29.9801 147.562 29.9006C147.794 29.8177 147.994 29.6951 148.163 29.5327C148.332 29.3703 148.461 29.1697 148.551 28.9311L149.958 29.1847C149.845 29.599 149.643 29.9619 149.351 30.2734C149.063 30.5817 148.7 30.822 148.263 30.9943C147.828 31.1634 147.333 31.2479 146.776 31.2479ZM151.142 31.0938V23.4574H152.579V24.6705H152.658C152.797 24.2595 153.043 23.9363 153.394 23.701C153.749 23.4624 154.15 23.343 154.597 23.343C154.69 23.343 154.799 23.3464 154.925 23.353C155.054 23.3596 155.155 23.3679 155.228 23.3778V24.7997C155.169 24.7831 155.063 24.7649 154.91 24.745C154.758 24.7218 154.605 24.7102 154.453 24.7102C154.101 24.7102 153.788 24.7848 153.513 24.9339C153.241 25.0798 153.026 25.2836 152.867 25.5455C152.708 25.804 152.628 26.099 152.628 26.4304V31.0938H151.142Z" fill="#121212"/>
</svg>
