<svg width="233" height="53" viewBox="0 0 233 53" fill="none" xmlns="http://www.w3.org/2000/svg">
<rect x="0.5" y="0.59375" width="231.667" height="51" fill="white"/>
<rect x="0.5" y="0.59375" width="231.667" height="51" stroke="#EDEDED"/>
<path d="M92.1389 24.1353H91.3334V24.0938H82.3334V28.0938H87.9849C87.1604 30.4222 84.9449 32.0938 82.3334 32.0938C79.0199 32.0938 76.3334 29.4072 76.3334 26.0938C76.3334 22.7803 79.0199 20.0938 82.3334 20.0938C83.8629 20.0938 85.2544 20.6707 86.3139 21.6132L89.1424 18.7847C87.3564 17.1202 84.9674 16.0938 82.3334 16.0938C76.8109 16.0938 72.3334 20.5712 72.3334 26.0938C72.3334 31.6163 76.8109 36.0938 82.3334 36.0938C87.8559 36.0938 92.3334 31.6163 92.3334 26.0938C92.3334 25.4233 92.2644 24.7688 92.1389 24.1353Z" fill="#FFC107"/>
<path d="M73.4863 21.4392L76.7718 23.8488C77.6608 21.6477 79.8138 20.0938 82.3333 20.0938C83.8628 20.0938 85.2543 20.6707 86.3138 21.6132L89.1423 18.7847C87.3563 17.1202 84.9673 16.0938 82.3333 16.0938C78.4923 16.0938 75.1613 18.2622 73.4863 21.4392Z" fill="#FF3D00"/>
<path d="M82.3334 36.0941C84.9164 36.0941 87.2634 35.1056 89.0379 33.4981L85.9429 30.8791C84.9052 31.6683 83.6371 32.0951 82.3334 32.0941C79.7324 32.0941 77.5239 30.4356 76.6919 28.1211L73.4309 30.6336C75.0859 33.8721 78.4469 36.0941 82.3334 36.0941Z" fill="#4CAF50"/>
<path d="M92.1389 24.1353H91.3334V24.0938H82.3334V28.0938H87.9849C87.5905 29.202 86.8801 30.1703 85.9414 30.8792L85.9429 30.8783L89.0379 33.4972C88.8189 33.6962 92.3334 31.0938 92.3334 26.0938C92.3334 25.4232 92.2644 24.7688 92.1389 24.1353Z" fill="#1976D2"/>
<path d="M113.581 24.1737C113.293 23.6191 112.893 23.2031 112.381 22.9257C111.869 22.6377 111.277 22.4937 110.605 22.4937C109.869 22.4937 109.213 22.6591 108.637 22.9897C108.061 23.3204 107.608 23.7897 107.277 24.3977C106.957 25.0057 106.797 25.7097 106.797 26.5097C106.797 27.3097 106.957 28.0191 107.277 28.6377C107.608 29.2457 108.061 29.7151 108.637 30.0457C109.213 30.3764 109.869 30.5417 110.605 30.5417C111.597 30.5417 112.403 30.2644 113.021 29.7097C113.64 29.1551 114.019 28.4031 114.157 27.4537H109.981V25.9977H116.109V27.4217C115.992 28.2857 115.683 29.0804 115.181 29.8057C114.691 30.5311 114.045 31.1124 113.245 31.5497C112.456 31.9764 111.576 32.1898 110.605 32.1898C109.56 32.1898 108.605 31.9497 107.741 31.4697C106.877 30.9791 106.189 30.3017 105.677 29.4377C105.176 28.5737 104.925 27.5977 104.925 26.5097C104.925 25.4217 105.176 24.4457 105.677 23.5817C106.189 22.7177 106.877 22.0457 107.741 21.5657C108.616 21.0751 109.571 20.8297 110.605 20.8297C111.789 20.8297 112.84 21.1231 113.757 21.7097C114.685 22.2857 115.357 23.1071 115.773 24.1737H113.581ZM121.732 32.2378C120.9 32.2378 120.148 32.0511 119.476 31.6777C118.804 31.2937 118.276 30.7604 117.892 30.0777C117.508 29.3844 117.316 28.5844 117.316 27.6777C117.316 26.7817 117.514 25.9871 117.908 25.2937C118.303 24.6004 118.842 24.0671 119.524 23.6937C120.207 23.3204 120.97 23.1337 121.812 23.1337C122.655 23.1337 123.418 23.3204 124.1 23.6937C124.783 24.0671 125.322 24.6004 125.716 25.2937C126.111 25.9871 126.308 26.7817 126.308 27.6777C126.308 28.5737 126.106 29.3684 125.7 30.0617C125.295 30.7551 124.74 31.2937 124.036 31.6777C123.343 32.0511 122.575 32.2378 121.732 32.2378ZM121.732 30.6537C122.202 30.6537 122.639 30.5417 123.044 30.3177C123.46 30.0937 123.796 29.7577 124.052 29.3097C124.308 28.8617 124.436 28.3177 124.436 27.6777C124.436 27.0377 124.314 26.4991 124.068 26.0617C123.823 25.6137 123.498 25.2777 123.092 25.0537C122.687 24.8297 122.25 24.7177 121.78 24.7177C121.311 24.7177 120.874 24.8297 120.468 25.0537C120.074 25.2777 119.759 25.6137 119.524 26.0617C119.29 26.4991 119.172 27.0377 119.172 27.6777C119.172 28.6271 119.412 29.3631 119.892 29.8857C120.383 30.3977 120.996 30.6537 121.732 30.6537ZM131.935 32.2378C131.103 32.2378 130.351 32.0511 129.679 31.6777C129.007 31.2937 128.479 30.7604 128.095 30.0777C127.711 29.3844 127.519 28.5844 127.519 27.6777C127.519 26.7817 127.717 25.9871 128.111 25.2937C128.506 24.6004 129.045 24.0671 129.727 23.6937C130.41 23.3204 131.173 23.1337 132.015 23.1337C132.858 23.1337 133.621 23.3204 134.303 23.6937C134.986 24.0671 135.525 24.6004 135.919 25.2937C136.314 25.9871 136.511 26.7817 136.511 27.6777C136.511 28.5737 136.309 29.3684 135.903 30.0617C135.498 30.7551 134.943 31.2937 134.239 31.6777C133.546 32.0511 132.778 32.2378 131.935 32.2378ZM131.935 30.6537C132.405 30.6537 132.842 30.5417 133.247 30.3177C133.663 30.0937 133.999 29.7577 134.255 29.3097C134.511 28.8617 134.639 28.3177 134.639 27.6777C134.639 27.0377 134.517 26.4991 134.271 26.0617C134.026 25.6137 133.701 25.2777 133.295 25.0537C132.89 24.8297 132.453 24.7177 131.983 24.7177C131.514 24.7177 131.077 24.8297 130.671 25.0537C130.277 25.2777 129.962 25.6137 129.727 26.0617C129.493 26.4991 129.375 27.0377 129.375 27.6777C129.375 28.6271 129.615 29.3631 130.095 29.8857C130.586 30.3977 131.199 30.6537 131.935 30.6537ZM141.867 23.1337C142.549 23.1337 143.152 23.2724 143.675 23.5497C144.208 23.8164 144.624 24.1524 144.923 24.5577V23.2778H146.763V32.2378C146.763 33.0484 146.592 33.7684 146.251 34.3978C145.909 35.0378 145.413 35.5391 144.763 35.9018C144.123 36.2644 143.355 36.4458 142.459 36.4458C141.264 36.4458 140.272 36.1631 139.483 35.5978C138.693 35.0431 138.245 34.2858 138.139 33.3258H139.947C140.085 33.7844 140.379 34.1524 140.827 34.4298C141.285 34.7178 141.829 34.8618 142.459 34.8618C143.195 34.8618 143.787 34.6378 144.235 34.1898C144.693 33.7418 144.923 33.0911 144.923 32.2378V30.7657C144.613 31.1817 144.192 31.5337 143.659 31.8217C143.136 32.0991 142.539 32.2378 141.867 32.2378C141.099 32.2378 140.395 32.0458 139.755 31.6617C139.125 31.2671 138.624 30.7231 138.251 30.0297C137.888 29.3257 137.707 28.5311 137.707 27.6457C137.707 26.7604 137.888 25.9764 138.251 25.2937C138.624 24.6111 139.125 24.0831 139.755 23.7097C140.395 23.3257 141.099 23.1337 141.867 23.1337ZM144.923 27.6777C144.923 27.0697 144.795 26.5417 144.539 26.0937C144.293 25.6457 143.968 25.3044 143.563 25.0697C143.157 24.8351 142.72 24.7177 142.251 24.7177C141.781 24.7177 141.344 24.8351 140.939 25.0697C140.533 25.2937 140.203 25.6297 139.947 26.0777C139.701 26.5151 139.579 27.0377 139.579 27.6457C139.579 28.2537 139.701 28.7871 139.947 29.2457C140.203 29.7044 140.533 30.0564 140.939 30.3017C141.355 30.5364 141.792 30.6537 142.251 30.6537C142.72 30.6537 143.157 30.5364 143.563 30.3017C143.968 30.0671 144.293 29.7257 144.539 29.2777C144.795 28.8191 144.923 28.2857 144.923 27.6777ZM150.982 20.2537V32.0938H149.158V20.2537H150.982ZM161.457 27.4697C161.457 27.8004 161.436 28.0991 161.393 28.3657H154.657C154.71 29.0697 154.972 29.6351 155.441 30.0617C155.91 30.4884 156.486 30.7017 157.169 30.7017C158.15 30.7017 158.844 30.2911 159.249 29.4697H161.217C160.95 30.2804 160.465 30.9471 159.761 31.4697C159.068 31.9818 158.204 32.2378 157.169 32.2378C156.326 32.2378 155.569 32.0511 154.897 31.6777C154.236 31.2937 153.713 30.7604 153.329 30.0777C152.956 29.3844 152.769 28.5844 152.769 27.6777C152.769 26.7711 152.95 25.9764 153.313 25.2937C153.686 24.6004 154.204 24.0671 154.865 23.6937C155.537 23.3204 156.305 23.1337 157.169 23.1337C158.001 23.1337 158.742 23.3151 159.393 23.6777C160.044 24.0404 160.55 24.5524 160.913 25.2137C161.276 25.8644 161.457 26.6164 161.457 27.4697ZM159.553 26.8937C159.542 26.2217 159.302 25.6831 158.833 25.2777C158.364 24.8724 157.782 24.6697 157.089 24.6697C156.46 24.6697 155.921 24.8724 155.473 25.2777C155.025 25.6724 154.758 26.2111 154.673 26.8937H159.553Z" fill="#121212"/>
</svg>
