<svg width="234" height="53" viewBox="0 0 234 53" fill="none" xmlns="http://www.w3.org/2000/svg">
<rect x="1.16663" y="0.59375" width="231.667" height="51" fill="white"/>
<rect x="1.16663" y="0.59375" width="231.667" height="51" stroke="#EDEDED"/>
<path d="M72.5 16.1338C67 16.1338 62.5 20.6238 62.5 26.1538C62.5 31.1538 66.16 35.3038 70.94 36.0538V29.0538H68.4V26.1538H70.94V23.9438C70.94 21.4338 72.43 20.0538 74.72 20.0538C75.81 20.0538 76.95 20.2438 76.95 20.2438V22.7138H75.69C74.45 22.7138 74.06 23.4838 74.06 24.2738V26.1538H76.84L76.39 29.0538H74.06V36.0538C76.4164 35.6816 78.5622 34.4793 80.1099 32.6638C81.6576 30.8484 82.5054 28.5394 82.5 26.1538C82.5 20.6238 78 16.1338 72.5 16.1338Z" fill="#1877F2"/>
<path d="M102.244 20.9737V22.4617H97.524V25.7417H101.204V27.2297H97.524V32.0938H95.7V20.9737H102.244ZM103.326 27.6457C103.326 26.7604 103.508 25.9764 103.87 25.2937C104.244 24.6111 104.745 24.0831 105.374 23.7097C106.014 23.3257 106.718 23.1337 107.486 23.1337C108.18 23.1337 108.782 23.2724 109.294 23.5497C109.817 23.8164 110.233 24.1524 110.542 24.5577V23.2778H112.382V32.0938H110.542V30.7817C110.233 31.1977 109.812 31.5444 109.278 31.8217C108.745 32.0991 108.137 32.2378 107.454 32.2378C106.697 32.2378 106.004 32.0458 105.374 31.6617C104.745 31.2671 104.244 30.7231 103.87 30.0297C103.508 29.3257 103.326 28.5311 103.326 27.6457ZM110.542 27.6777C110.542 27.0697 110.414 26.5417 110.158 26.0937C109.913 25.6457 109.588 25.3044 109.182 25.0697C108.777 24.8351 108.34 24.7177 107.87 24.7177C107.401 24.7177 106.964 24.8351 106.558 25.0697C106.153 25.2937 105.822 25.6297 105.566 26.0777C105.321 26.5151 105.198 27.0377 105.198 27.6457C105.198 28.2537 105.321 28.7871 105.566 29.2457C105.822 29.7044 106.153 30.0564 106.558 30.3017C106.974 30.5364 107.412 30.6537 107.87 30.6537C108.34 30.6537 108.777 30.5364 109.182 30.3017C109.588 30.0671 109.913 29.7257 110.158 29.2777C110.414 28.8191 110.542 28.2857 110.542 27.6777ZM114.17 27.6777C114.17 26.7711 114.351 25.9764 114.714 25.2937C115.087 24.6004 115.599 24.0671 116.25 23.6937C116.901 23.3204 117.647 23.1337 118.49 23.1337C119.557 23.1337 120.437 23.3897 121.13 23.9017C121.834 24.4031 122.309 25.1231 122.554 26.0617H120.586C120.426 25.6244 120.17 25.2831 119.818 25.0377C119.466 24.7924 119.023 24.6697 118.49 24.6697C117.743 24.6697 117.146 24.9364 116.698 25.4697C116.261 25.9924 116.042 26.7284 116.042 27.6777C116.042 28.6271 116.261 29.3684 116.698 29.9017C117.146 30.4351 117.743 30.7017 118.49 30.7017C119.546 30.7017 120.245 30.2377 120.586 29.3097H122.554C122.298 30.2057 121.818 30.9204 121.114 31.4537C120.41 31.9764 119.535 32.2378 118.49 32.2378C117.647 32.2378 116.901 32.0511 116.25 31.6777C115.599 31.2937 115.087 30.7604 114.714 30.0777C114.351 29.3844 114.17 28.5844 114.17 27.6777ZM132.452 27.4697C132.452 27.8004 132.431 28.0991 132.388 28.3657H125.652C125.705 29.0697 125.967 29.6351 126.436 30.0617C126.905 30.4884 127.481 30.7017 128.164 30.7017C129.145 30.7017 129.839 30.2911 130.244 29.4697H132.212C131.945 30.2804 131.46 30.9471 130.756 31.4697C130.063 31.9818 129.199 32.2378 128.164 32.2378C127.321 32.2378 126.564 32.0511 125.892 31.6777C125.231 31.2937 124.708 30.7604 124.324 30.0777C123.951 29.3844 123.764 28.5844 123.764 27.6777C123.764 26.7711 123.945 25.9764 124.308 25.2937C124.681 24.6004 125.199 24.0671 125.86 23.6937C126.532 23.3204 127.3 23.1337 128.164 23.1337C128.996 23.1337 129.737 23.3151 130.388 23.6777C131.039 24.0404 131.545 24.5524 131.908 25.2137C132.271 25.8644 132.452 26.6164 132.452 27.4697ZM130.548 26.8937C130.537 26.2217 130.297 25.6831 129.828 25.2777C129.359 24.8724 128.777 24.6697 128.084 24.6697C127.455 24.6697 126.916 24.8724 126.468 25.2777C126.02 25.6724 125.753 26.2111 125.668 26.8937H130.548ZM136.071 24.5897C136.38 24.1631 136.802 23.8164 137.335 23.5497C137.879 23.2724 138.482 23.1337 139.143 23.1337C139.922 23.1337 140.626 23.3204 141.255 23.6937C141.884 24.0671 142.38 24.6004 142.743 25.2937C143.106 25.9764 143.287 26.7604 143.287 27.6457C143.287 28.5311 143.106 29.3257 142.743 30.0297C142.38 30.7231 141.879 31.2671 141.239 31.6617C140.61 32.0458 139.911 32.2378 139.143 32.2378C138.46 32.2378 137.852 32.1044 137.319 31.8377C136.796 31.5711 136.38 31.2297 136.071 30.8137V32.0938H134.247V20.2537H136.071V24.5897ZM141.431 27.6457C141.431 27.0377 141.303 26.5151 141.047 26.0777C140.802 25.6297 140.471 25.2937 140.055 25.0697C139.65 24.8351 139.212 24.7177 138.743 24.7177C138.284 24.7177 137.847 24.8351 137.431 25.0697C137.026 25.3044 136.695 25.6457 136.439 26.0937C136.194 26.5417 136.071 27.0697 136.071 27.6777C136.071 28.2857 136.194 28.8191 136.439 29.2777C136.695 29.7257 137.026 30.0671 137.431 30.3017C137.847 30.5364 138.284 30.6537 138.743 30.6537C139.212 30.6537 139.65 30.5364 140.055 30.3017C140.471 30.0564 140.802 29.7044 141.047 29.2457C141.303 28.7871 141.431 28.2537 141.431 27.6457ZM148.915 32.2378C148.083 32.2378 147.331 32.0511 146.659 31.6777C145.987 31.2937 145.459 30.7604 145.075 30.0777C144.691 29.3844 144.499 28.5844 144.499 27.6777C144.499 26.7817 144.696 25.9871 145.091 25.2937C145.485 24.6004 146.024 24.0671 146.707 23.6937C147.389 23.3204 148.152 23.1337 148.995 23.1337C149.837 23.1337 150.6 23.3204 151.283 23.6937C151.965 24.0671 152.504 24.6004 152.899 25.2937C153.293 25.9871 153.491 26.7817 153.491 27.6777C153.491 28.5737 153.288 29.3684 152.883 30.0617C152.477 30.7551 151.923 31.2937 151.219 31.6777C150.525 32.0511 149.757 32.2378 148.915 32.2378ZM148.915 30.6537C149.384 30.6537 149.821 30.5417 150.227 30.3177C150.643 30.0937 150.979 29.7577 151.235 29.3097C151.491 28.8617 151.619 28.3177 151.619 27.6777C151.619 27.0377 151.496 26.4991 151.251 26.0617C151.005 25.6137 150.68 25.2777 150.275 25.0537C149.869 24.8297 149.432 24.7177 148.963 24.7177C148.493 24.7177 148.056 24.8297 147.651 25.0537C147.256 25.2777 146.941 25.6137 146.707 26.0617C146.472 26.4991 146.355 27.0377 146.355 27.6777C146.355 28.6271 146.595 29.3631 147.075 29.8857C147.565 30.3977 148.179 30.6537 148.915 30.6537ZM159.118 32.2378C158.286 32.2378 157.534 32.0511 156.862 31.6777C156.19 31.2937 155.662 30.7604 155.278 30.0777C154.894 29.3844 154.702 28.5844 154.702 27.6777C154.702 26.7817 154.899 25.9871 155.294 25.2937C155.688 24.6004 156.227 24.0671 156.91 23.6937C157.592 23.3204 158.355 23.1337 159.198 23.1337C160.04 23.1337 160.803 23.3204 161.486 23.6937C162.168 24.0671 162.707 24.6004 163.102 25.2937C163.496 25.9871 163.694 26.7817 163.694 27.6777C163.694 28.5737 163.491 29.3684 163.086 30.0617C162.68 30.7551 162.126 31.2937 161.422 31.6777C160.728 32.0511 159.96 32.2378 159.118 32.2378ZM159.118 30.6537C159.587 30.6537 160.024 30.5417 160.43 30.3177C160.846 30.0937 161.182 29.7577 161.438 29.3097C161.694 28.8617 161.822 28.3177 161.822 27.6777C161.822 27.0377 161.699 26.4991 161.454 26.0617C161.208 25.6137 160.883 25.2777 160.478 25.0537C160.072 24.8297 159.635 24.7177 159.166 24.7177C158.696 24.7177 158.259 24.8297 157.854 25.0537C157.459 25.2777 157.144 25.6137 156.91 26.0617C156.675 26.4991 156.558 27.0377 156.558 27.6777C156.558 28.6271 156.798 29.3631 157.278 29.8857C157.768 30.3977 158.382 30.6537 159.118 30.6537ZM168.985 27.6937L173.049 32.0938H170.585L167.321 28.3017V32.0938H165.497V20.2537H167.321V27.1337L170.521 23.2778H173.049L168.985 27.6937Z" fill="#121212"/>
</svg>
