<svg width="22" height="22" viewBox="0 0 22 22" fill="none" xmlns="http://www.w3.org/2000/svg">
<g id="Iconly/Curved/Setting">
<g id="Setting">
<path id="Stroke 1" fill-rule="evenodd" clip-rule="evenodd" d="M10.9997 8.70837C12.2655 8.70837 13.2913 9.73423 13.2913 11C13.2913 12.2658 12.2655 13.2917 10.9997 13.2917C9.73387 13.2917 8.70801 12.2658 8.70801 11C8.70801 9.73423 9.73387 8.70837 10.9997 8.70837Z" stroke="black" stroke-width="1.5" stroke-linecap="round" stroke-linejoin="round"/>
<path id="Stroke 3" fill-rule="evenodd" clip-rule="evenodd" d="M18.487 6.64608V6.64608C17.8604 5.55318 16.4733 5.17922 15.3891 5.81033C14.4461 6.35814 13.2676 5.6727 13.2676 4.57618C13.2676 3.31487 12.2517 2.29169 10.9995 2.29169V2.29169C9.74719 2.29169 8.73135 3.31487 8.73135 4.57618C8.73135 5.6727 7.55279 6.35814 6.61067 5.81033C5.52561 5.17922 4.13849 5.55318 3.51191 6.64608C2.88622 7.73898 3.2575 9.13612 4.34256 9.76632C5.28468 10.315 5.28468 11.685 4.34256 12.2337C3.2575 12.8648 2.88622 14.262 3.51191 15.354C4.13849 16.4469 5.52561 16.8208 6.60977 16.1906H6.61067C7.55279 15.6419 8.73135 16.3273 8.73135 17.4239V17.4239C8.73135 18.6852 9.74719 19.7084 10.9995 19.7084V19.7084C12.2517 19.7084 13.2676 18.6852 13.2676 17.4239V17.4239C13.2676 16.3273 14.4461 15.6419 15.3891 16.1906C16.4733 16.8208 17.8604 16.4469 18.487 15.354C19.1136 14.262 18.7414 12.8648 17.6573 12.2337H17.6564C16.7142 11.685 16.7142 10.315 17.6573 9.76632C18.7414 9.13612 19.1136 7.73898 18.487 6.64608Z" stroke="black" stroke-width="1.5" stroke-linecap="round" stroke-linejoin="round"/>
</g>
</g>
</svg>
