<svg width="30" height="30" viewBox="0 0 30 30" fill="none" xmlns="http://www.w3.org/2000/svg">
<rect width="30" height="30" rx="5" fill="white"/>
<path d="M12.1484 11.2246L9.32422 19H8.16992L11.4219 10.4688H12.166L12.1484 11.2246ZM14.5156 19L11.6855 11.2246L11.668 10.4688H12.4121L15.6758 19H14.5156ZM14.3691 15.8418V16.7676H9.57617V15.8418H14.3691ZM19.6126 17.916V14.6523C19.6126 14.4023 19.5618 14.1855 19.4602 14.002C19.3626 13.8145 19.2141 13.6699 19.0149 13.5684C18.8157 13.4668 18.5696 13.416 18.2766 13.416C18.0032 13.416 17.763 13.4629 17.5559 13.5566C17.3528 13.6504 17.1927 13.7734 17.0755 13.9258C16.9622 14.0781 16.9055 14.2422 16.9055 14.418H15.8216C15.8216 14.1914 15.8802 13.9668 15.9973 13.7441C16.1145 13.5215 16.2825 13.3203 16.5013 13.1406C16.7239 12.957 16.9895 12.8125 17.2981 12.707C17.6106 12.5977 17.9583 12.543 18.3411 12.543C18.802 12.543 19.2083 12.6211 19.5598 12.7773C19.9153 12.9336 20.1927 13.1699 20.3919 13.4863C20.595 13.7988 20.6966 14.1914 20.6966 14.6641V17.6172C20.6966 17.8281 20.7141 18.0527 20.7493 18.291C20.7884 18.5293 20.845 18.7344 20.9192 18.9062V19H19.7884C19.7337 18.875 19.6907 18.709 19.6595 18.502C19.6282 18.291 19.6126 18.0957 19.6126 17.916ZM19.8001 15.1562L19.8118 15.918H18.7161C18.4075 15.918 18.1321 15.9434 17.8899 15.9941C17.6477 16.041 17.4446 16.1133 17.2805 16.2109C17.1165 16.3086 16.9915 16.4316 16.9055 16.5801C16.8196 16.7246 16.7766 16.8945 16.7766 17.0898C16.7766 17.2891 16.8216 17.4707 16.9114 17.6348C17.0013 17.7988 17.136 17.9297 17.3157 18.0273C17.4993 18.1211 17.7239 18.168 17.9895 18.168C18.3216 18.168 18.6145 18.0977 18.8684 17.957C19.1223 17.8164 19.3235 17.6445 19.472 17.4414C19.6243 17.2383 19.7063 17.041 19.718 16.8496L20.1809 17.3711C20.1536 17.5352 20.0794 17.7168 19.9583 17.916C19.8372 18.1152 19.6751 18.3066 19.472 18.4902C19.2727 18.6699 19.0345 18.8203 18.7571 18.9414C18.4837 19.0586 18.1751 19.1172 17.8313 19.1172C17.4016 19.1172 17.0247 19.0332 16.7005 18.8652C16.3802 18.6973 16.1302 18.4727 15.9505 18.1914C15.7747 17.9062 15.6868 17.5879 15.6868 17.2363C15.6868 16.8965 15.7532 16.5977 15.886 16.3398C16.0188 16.0781 16.2102 15.8613 16.4602 15.6895C16.7102 15.5137 17.011 15.3809 17.3626 15.291C17.7141 15.2012 18.1067 15.1562 18.5403 15.1562H19.8001Z" fill="black"/>
</svg>
