<svg width="380" height="48" viewBox="0 0 380 48" fill="none" xmlns="http://www.w3.org/2000/svg">
<rect width="380" height="48" rx="10" fill="#CEDAE6" fill-opacity="0.3"/>
<g clip-path="url(#clip0_263_140)">
<path d="M125.288 24.2252C125.288 23.5668 125.23 22.9418 125.13 22.3335H115.713V26.0918H121.105C120.863 27.3252 120.155 28.3668 119.105 29.0752V31.5752H122.321C124.205 29.8335 125.288 27.2668 125.288 24.2252Z" fill="#4285F4"/>
<path d="M115.713 33.9999C118.413 33.9999 120.671 33.0999 122.321 31.5749L119.105 29.0749C118.205 29.6749 117.063 30.0415 115.713 30.0415C113.105 30.0415 110.896 28.2832 110.105 25.9082H106.788V28.4832C108.43 31.7499 111.805 33.9999 115.713 33.9999Z" fill="#34A853"/>
<path d="M110.105 25.9083C109.896 25.3083 109.788 24.6666 109.788 23.9999C109.788 23.3333 109.905 22.6916 110.105 22.0916V19.5166H106.788C106.105 20.8666 105.713 22.3833 105.713 23.9999C105.713 25.6166 106.105 27.1333 106.788 28.4833L110.105 25.9083Z" fill="#FBBC05"/>
<path d="M115.713 17.9583C117.188 17.9583 118.505 18.4667 119.546 19.4583L122.396 16.6083C120.671 14.9917 118.413 14 115.713 14C111.805 14 108.43 16.25 106.788 19.5167L110.105 22.0917C110.896 19.7167 113.105 17.9583 115.713 17.9583Z" fill="#EA4335"/>
</g>
<path d="M144.883 26.125C144.883 25.8594 144.841 25.625 144.758 25.4219C144.68 25.2135 144.539 25.026 144.336 24.8594C144.138 24.6927 143.862 24.5339 143.508 24.3828C143.159 24.2318 142.716 24.0781 142.18 23.9219C141.617 23.7552 141.109 23.5703 140.656 23.3672C140.203 23.1589 139.815 22.9219 139.492 22.6562C139.169 22.3906 138.922 22.0859 138.75 21.7422C138.578 21.3984 138.492 21.0052 138.492 20.5625C138.492 20.1198 138.583 19.7109 138.766 19.3359C138.948 18.9609 139.208 18.6354 139.547 18.3594C139.891 18.0781 140.299 17.8594 140.773 17.7031C141.247 17.5469 141.776 17.4688 142.359 17.4688C143.214 17.4688 143.938 17.6328 144.531 17.9609C145.13 18.2839 145.586 18.7083 145.898 19.2344C146.211 19.7552 146.367 20.3125 146.367 20.9062H144.867C144.867 20.4792 144.776 20.1016 144.594 19.7734C144.411 19.4401 144.135 19.1797 143.766 18.9922C143.396 18.7995 142.927 18.7031 142.359 18.7031C141.823 18.7031 141.38 18.7839 141.031 18.9453C140.682 19.1068 140.422 19.3255 140.25 19.6016C140.083 19.8776 140 20.1927 140 20.5469C140 20.7865 140.049 21.0052 140.148 21.2031C140.253 21.3958 140.411 21.5755 140.625 21.7422C140.844 21.9089 141.12 22.0625 141.453 22.2031C141.792 22.3438 142.195 22.4792 142.664 22.6094C143.31 22.7917 143.867 22.9948 144.336 23.2188C144.805 23.4427 145.19 23.6953 145.492 23.9766C145.799 24.2526 146.026 24.5677 146.172 24.9219C146.323 25.2708 146.398 25.6667 146.398 26.1094C146.398 26.5729 146.305 26.9922 146.117 27.3672C145.93 27.7422 145.661 28.0625 145.312 28.3281C144.964 28.5938 144.544 28.7995 144.055 28.9453C143.57 29.0859 143.029 29.1562 142.43 29.1562C141.904 29.1562 141.385 29.0833 140.875 28.9375C140.37 28.7917 139.909 28.5729 139.492 28.2812C139.081 27.9896 138.75 27.6302 138.5 27.2031C138.255 26.7708 138.133 26.2708 138.133 25.7031H139.633C139.633 26.0938 139.708 26.4297 139.859 26.7109C140.01 26.987 140.216 27.2161 140.477 27.3984C140.742 27.5807 141.042 27.7161 141.375 27.8047C141.714 27.888 142.065 27.9297 142.43 27.9297C142.956 27.9297 143.401 27.8568 143.766 27.7109C144.13 27.5651 144.406 27.3568 144.594 27.0859C144.786 26.8151 144.883 26.4948 144.883 26.125ZM149.672 20.5469V29H148.219V20.5469H149.672ZM148.109 18.3047C148.109 18.0703 148.18 17.8724 148.32 17.7109C148.466 17.5495 148.68 17.4688 148.961 17.4688C149.237 17.4688 149.448 17.5495 149.594 17.7109C149.745 17.8724 149.82 18.0703 149.82 18.3047C149.82 18.5286 149.745 18.7214 149.594 18.8828C149.448 19.0391 149.237 19.1172 148.961 19.1172C148.68 19.1172 148.466 19.0391 148.32 18.8828C148.18 18.7214 148.109 18.5286 148.109 18.3047ZM157.469 20.5469H158.781V28.8203C158.781 29.5651 158.63 30.2005 158.328 30.7266C158.026 31.2526 157.604 31.651 157.062 31.9219C156.526 32.1979 155.906 32.3359 155.203 32.3359C154.911 32.3359 154.568 32.2891 154.172 32.1953C153.781 32.1068 153.396 31.9531 153.016 31.7344C152.641 31.5208 152.326 31.2318 152.07 30.8672L152.828 30.0078C153.182 30.4349 153.552 30.7318 153.938 30.8984C154.328 31.0651 154.714 31.1484 155.094 31.1484C155.552 31.1484 155.948 31.0625 156.281 30.8906C156.615 30.7188 156.872 30.4635 157.055 30.125C157.242 29.7917 157.336 29.3802 157.336 28.8906V22.4062L157.469 20.5469ZM151.648 24.8672V24.7031C151.648 24.0573 151.724 23.4714 151.875 22.9453C152.031 22.4141 152.253 21.9583 152.539 21.5781C152.831 21.1979 153.182 20.9062 153.594 20.7031C154.005 20.4948 154.469 20.3906 154.984 20.3906C155.516 20.3906 155.979 20.4844 156.375 20.6719C156.776 20.8542 157.115 21.1224 157.391 21.4766C157.672 21.8255 157.893 22.2474 158.055 22.7422C158.216 23.237 158.328 23.7969 158.391 24.4219V25.1406C158.333 25.7604 158.221 26.3177 158.055 26.8125C157.893 27.3073 157.672 27.7292 157.391 28.0781C157.115 28.4271 156.776 28.6953 156.375 28.8828C155.974 29.0651 155.505 29.1562 154.969 29.1562C154.464 29.1562 154.005 29.0495 153.594 28.8359C153.188 28.6224 152.839 28.3229 152.547 27.9375C152.255 27.5521 152.031 27.099 151.875 26.5781C151.724 26.0521 151.648 25.4818 151.648 24.8672ZM153.094 24.7031V24.8672C153.094 25.2891 153.135 25.6849 153.219 26.0547C153.307 26.4245 153.44 26.75 153.617 27.0312C153.799 27.3125 154.031 27.5339 154.312 27.6953C154.594 27.8516 154.93 27.9297 155.32 27.9297C155.799 27.9297 156.195 27.8281 156.508 27.625C156.82 27.4219 157.068 27.1536 157.25 26.8203C157.438 26.487 157.583 26.125 157.688 25.7344V23.8516C157.63 23.5651 157.542 23.2891 157.422 23.0234C157.307 22.7526 157.156 22.513 156.969 22.3047C156.786 22.0911 156.56 21.9219 156.289 21.7969C156.018 21.6719 155.701 21.6094 155.336 21.6094C154.94 21.6094 154.599 21.6927 154.312 21.8594C154.031 22.0208 153.799 22.2448 153.617 22.5312C153.44 22.8125 153.307 23.1406 153.219 23.5156C153.135 23.8854 153.094 24.2812 153.094 24.7031ZM162.422 22.3516V29H160.977V20.5469H162.344L162.422 22.3516ZM162.078 24.4531L161.477 24.4297C161.482 23.8516 161.568 23.3177 161.734 22.8281C161.901 22.3333 162.135 21.9036 162.438 21.5391C162.74 21.1745 163.099 20.8932 163.516 20.6953C163.938 20.4922 164.404 20.3906 164.914 20.3906C165.331 20.3906 165.706 20.4479 166.039 20.5625C166.372 20.6719 166.656 20.849 166.891 21.0938C167.13 21.3385 167.312 21.6562 167.438 22.0469C167.562 22.4323 167.625 22.9036 167.625 23.4609V29H166.172V23.4453C166.172 23.0026 166.107 22.6484 165.977 22.3828C165.846 22.112 165.656 21.9167 165.406 21.7969C165.156 21.6719 164.849 21.6094 164.484 21.6094C164.125 21.6094 163.797 21.6849 163.5 21.8359C163.208 21.987 162.956 22.1953 162.742 22.4609C162.534 22.7266 162.37 23.0312 162.25 23.375C162.135 23.7135 162.078 24.0729 162.078 24.4531ZM175.359 20.5469V29H173.906V20.5469H175.359ZM173.797 18.3047C173.797 18.0703 173.867 17.8724 174.008 17.7109C174.154 17.5495 174.367 17.4688 174.648 17.4688C174.924 17.4688 175.135 17.5495 175.281 17.7109C175.432 17.8724 175.508 18.0703 175.508 18.3047C175.508 18.5286 175.432 18.7214 175.281 18.8828C175.135 19.0391 174.924 19.1172 174.648 19.1172C174.367 19.1172 174.154 19.0391 174.008 18.8828C173.867 18.7214 173.797 18.5286 173.797 18.3047ZM179.125 22.3516V29H177.68V20.5469H179.047L179.125 22.3516ZM178.781 24.4531L178.18 24.4297C178.185 23.8516 178.271 23.3177 178.438 22.8281C178.604 22.3333 178.839 21.9036 179.141 21.5391C179.443 21.1745 179.802 20.8932 180.219 20.6953C180.641 20.4922 181.107 20.3906 181.617 20.3906C182.034 20.3906 182.409 20.4479 182.742 20.5625C183.076 20.6719 183.359 20.849 183.594 21.0938C183.833 21.3385 184.016 21.6562 184.141 22.0469C184.266 22.4323 184.328 22.9036 184.328 23.4609V29H182.875V23.4453C182.875 23.0026 182.81 22.6484 182.68 22.3828C182.549 22.112 182.359 21.9167 182.109 21.7969C181.859 21.6719 181.552 21.6094 181.188 21.6094C180.828 21.6094 180.5 21.6849 180.203 21.8359C179.911 21.987 179.659 22.1953 179.445 22.4609C179.237 22.7266 179.073 23.0312 178.953 23.375C178.839 23.7135 178.781 24.0729 178.781 24.4531ZM192.633 27.5L194.805 20.5469H195.758L195.57 21.9297L193.359 29H192.43L192.633 27.5ZM191.172 20.5469L193.023 27.5781L193.156 29H192.18L189.727 20.5469H191.172ZM197.836 27.5234L199.602 20.5469H201.039L198.586 29H197.617L197.836 27.5234ZM195.969 20.5469L198.094 27.3828L198.336 29H197.414L195.141 21.9141L194.953 20.5469H195.969ZM204.094 20.5469V29H202.641V20.5469H204.094ZM202.531 18.3047C202.531 18.0703 202.602 17.8724 202.742 17.7109C202.888 17.5495 203.102 17.4688 203.383 17.4688C203.659 17.4688 203.87 17.5495 204.016 17.7109C204.167 17.8724 204.242 18.0703 204.242 18.3047C204.242 18.5286 204.167 18.7214 204.016 18.8828C203.87 19.0391 203.659 19.1172 203.383 19.1172C203.102 19.1172 202.888 19.0391 202.742 18.8828C202.602 18.7214 202.531 18.5286 202.531 18.3047ZM209.953 20.5469V21.6562H205.383V20.5469H209.953ZM206.93 18.4922H208.375V26.9062C208.375 27.1927 208.419 27.4089 208.508 27.5547C208.596 27.7005 208.711 27.7969 208.852 27.8438C208.992 27.8906 209.143 27.9141 209.305 27.9141C209.424 27.9141 209.549 27.9036 209.68 27.8828C209.815 27.8568 209.917 27.8359 209.984 27.8203L209.992 29C209.878 29.0365 209.727 29.0703 209.539 29.1016C209.357 29.138 209.135 29.1562 208.875 29.1562C208.521 29.1562 208.195 29.0859 207.898 28.9453C207.602 28.8047 207.365 28.5703 207.188 28.2422C207.016 27.9089 206.93 27.4609 206.93 26.8984V18.4922ZM213.094 17V29H211.648V17H213.094ZM212.75 24.4531L212.148 24.4297C212.154 23.8516 212.24 23.3177 212.406 22.8281C212.573 22.3333 212.807 21.9036 213.109 21.5391C213.411 21.1745 213.771 20.8932 214.188 20.6953C214.609 20.4922 215.076 20.3906 215.586 20.3906C216.003 20.3906 216.378 20.4479 216.711 20.5625C217.044 20.6719 217.328 20.849 217.562 21.0938C217.802 21.3385 217.984 21.6562 218.109 22.0469C218.234 22.4323 218.297 22.9036 218.297 23.4609V29H216.844V23.4453C216.844 23.0026 216.779 22.6484 216.648 22.3828C216.518 22.112 216.328 21.9167 216.078 21.7969C215.828 21.6719 215.521 21.6094 215.156 21.6094C214.797 21.6094 214.469 21.6849 214.172 21.8359C213.88 21.987 213.628 22.1953 213.414 22.4609C213.206 22.7266 213.042 23.0312 212.922 23.375C212.807 23.7135 212.75 24.0729 212.75 24.4531ZM233.055 23.3359V27.5C232.914 27.7083 232.69 27.9427 232.383 28.2031C232.076 28.4583 231.651 28.6823 231.109 28.875C230.573 29.0625 229.88 29.1562 229.031 29.1562C228.339 29.1562 227.701 29.0365 227.117 28.7969C226.539 28.5521 226.036 28.1979 225.609 27.7344C225.188 27.2656 224.859 26.6979 224.625 26.0312C224.396 25.3594 224.281 24.599 224.281 23.75V22.8672C224.281 22.0182 224.38 21.2604 224.578 20.5938C224.781 19.9271 225.078 19.362 225.469 18.8984C225.859 18.4297 226.339 18.0755 226.906 17.8359C227.474 17.5911 228.125 17.4688 228.859 17.4688C229.729 17.4688 230.456 17.6198 231.039 17.9219C231.628 18.2188 232.086 18.6302 232.414 19.1562C232.747 19.6823 232.961 20.2812 233.055 20.9531H231.547C231.479 20.5417 231.344 20.1667 231.141 19.8281C230.943 19.4896 230.659 19.2188 230.289 19.0156C229.919 18.8073 229.443 18.7031 228.859 18.7031C228.333 18.7031 227.878 18.7995 227.492 18.9922C227.107 19.1849 226.789 19.4609 226.539 19.8203C226.289 20.1797 226.102 20.6146 225.977 21.125C225.857 21.6354 225.797 22.2109 225.797 22.8516V23.75C225.797 24.4062 225.872 24.9922 226.023 25.5078C226.18 26.0234 226.401 26.4635 226.688 26.8281C226.974 27.1875 227.315 27.4609 227.711 27.6484C228.112 27.8359 228.555 27.9297 229.039 27.9297C229.576 27.9297 230.01 27.8854 230.344 27.7969C230.677 27.7031 230.938 27.5938 231.125 27.4688C231.312 27.3385 231.456 27.2161 231.555 27.1016V24.5547H228.922V23.3359H233.055ZM234.953 24.8672V24.6875C234.953 24.0781 235.042 23.513 235.219 22.9922C235.396 22.4661 235.651 22.0104 235.984 21.625C236.318 21.2344 236.721 20.9323 237.195 20.7188C237.669 20.5 238.201 20.3906 238.789 20.3906C239.383 20.3906 239.917 20.5 240.391 20.7188C240.87 20.9323 241.276 21.2344 241.609 21.625C241.948 22.0104 242.206 22.4661 242.383 22.9922C242.56 23.513 242.648 24.0781 242.648 24.6875V24.8672C242.648 25.4766 242.56 26.0417 242.383 26.5625C242.206 27.0833 241.948 27.5391 241.609 27.9297C241.276 28.3151 240.872 28.6172 240.398 28.8359C239.93 29.0495 239.398 29.1562 238.805 29.1562C238.211 29.1562 237.677 29.0495 237.203 28.8359C236.729 28.6172 236.323 28.3151 235.984 27.9297C235.651 27.5391 235.396 27.0833 235.219 26.5625C235.042 26.0417 234.953 25.4766 234.953 24.8672ZM236.398 24.6875V24.8672C236.398 25.2891 236.448 25.6875 236.547 26.0625C236.646 26.4323 236.794 26.7604 236.992 27.0469C237.195 27.3333 237.448 27.5599 237.75 27.7266C238.052 27.888 238.404 27.9688 238.805 27.9688C239.201 27.9688 239.547 27.888 239.844 27.7266C240.146 27.5599 240.396 27.3333 240.594 27.0469C240.792 26.7604 240.94 26.4323 241.039 26.0625C241.143 25.6875 241.195 25.2891 241.195 24.8672V24.6875C241.195 24.2708 241.143 23.8776 241.039 23.5078C240.94 23.1328 240.789 22.8021 240.586 22.5156C240.388 22.224 240.138 21.9948 239.836 21.8281C239.539 21.6615 239.19 21.5781 238.789 21.5781C238.393 21.5781 238.044 21.6615 237.742 21.8281C237.445 21.9948 237.195 22.224 236.992 22.5156C236.794 22.8021 236.646 23.1328 236.547 23.5078C236.448 23.8776 236.398 24.2708 236.398 24.6875ZM244.078 24.8672V24.6875C244.078 24.0781 244.167 23.513 244.344 22.9922C244.521 22.4661 244.776 22.0104 245.109 21.625C245.443 21.2344 245.846 20.9323 246.32 20.7188C246.794 20.5 247.326 20.3906 247.914 20.3906C248.508 20.3906 249.042 20.5 249.516 20.7188C249.995 20.9323 250.401 21.2344 250.734 21.625C251.073 22.0104 251.331 22.4661 251.508 22.9922C251.685 23.513 251.773 24.0781 251.773 24.6875V24.8672C251.773 25.4766 251.685 26.0417 251.508 26.5625C251.331 27.0833 251.073 27.5391 250.734 27.9297C250.401 28.3151 249.997 28.6172 249.523 28.8359C249.055 29.0495 248.523 29.1562 247.93 29.1562C247.336 29.1562 246.802 29.0495 246.328 28.8359C245.854 28.6172 245.448 28.3151 245.109 27.9297C244.776 27.5391 244.521 27.0833 244.344 26.5625C244.167 26.0417 244.078 25.4766 244.078 24.8672ZM245.523 24.6875V24.8672C245.523 25.2891 245.573 25.6875 245.672 26.0625C245.771 26.4323 245.919 26.7604 246.117 27.0469C246.32 27.3333 246.573 27.5599 246.875 27.7266C247.177 27.888 247.529 27.9688 247.93 27.9688C248.326 27.9688 248.672 27.888 248.969 27.7266C249.271 27.5599 249.521 27.3333 249.719 27.0469C249.917 26.7604 250.065 26.4323 250.164 26.0625C250.268 25.6875 250.32 25.2891 250.32 24.8672V24.6875C250.32 24.2708 250.268 23.8776 250.164 23.5078C250.065 23.1328 249.914 22.8021 249.711 22.5156C249.513 22.224 249.263 21.9948 248.961 21.8281C248.664 21.6615 248.315 21.5781 247.914 21.5781C247.518 21.5781 247.169 21.6615 246.867 21.8281C246.57 21.9948 246.32 22.224 246.117 22.5156C245.919 22.8021 245.771 23.1328 245.672 23.5078C245.573 23.8776 245.523 24.2708 245.523 24.6875ZM259.062 20.5469H260.375V28.8203C260.375 29.5651 260.224 30.2005 259.922 30.7266C259.62 31.2526 259.198 31.651 258.656 31.9219C258.12 32.1979 257.5 32.3359 256.797 32.3359C256.505 32.3359 256.161 32.2891 255.766 32.1953C255.375 32.1068 254.99 31.9531 254.609 31.7344C254.234 31.5208 253.919 31.2318 253.664 30.8672L254.422 30.0078C254.776 30.4349 255.146 30.7318 255.531 30.8984C255.922 31.0651 256.307 31.1484 256.688 31.1484C257.146 31.1484 257.542 31.0625 257.875 30.8906C258.208 30.7188 258.466 30.4635 258.648 30.125C258.836 29.7917 258.93 29.3802 258.93 28.8906V22.4062L259.062 20.5469ZM253.242 24.8672V24.7031C253.242 24.0573 253.318 23.4714 253.469 22.9453C253.625 22.4141 253.846 21.9583 254.133 21.5781C254.424 21.1979 254.776 20.9062 255.188 20.7031C255.599 20.4948 256.062 20.3906 256.578 20.3906C257.109 20.3906 257.573 20.4844 257.969 20.6719C258.37 20.8542 258.708 21.1224 258.984 21.4766C259.266 21.8255 259.487 22.2474 259.648 22.7422C259.81 23.237 259.922 23.7969 259.984 24.4219V25.1406C259.927 25.7604 259.815 26.3177 259.648 26.8125C259.487 27.3073 259.266 27.7292 258.984 28.0781C258.708 28.4271 258.37 28.6953 257.969 28.8828C257.568 29.0651 257.099 29.1562 256.562 29.1562C256.057 29.1562 255.599 29.0495 255.188 28.8359C254.781 28.6224 254.432 28.3229 254.141 27.9375C253.849 27.5521 253.625 27.099 253.469 26.5781C253.318 26.0521 253.242 25.4818 253.242 24.8672ZM254.688 24.7031V24.8672C254.688 25.2891 254.729 25.6849 254.812 26.0547C254.901 26.4245 255.034 26.75 255.211 27.0312C255.393 27.3125 255.625 27.5339 255.906 27.6953C256.188 27.8516 256.523 27.9297 256.914 27.9297C257.393 27.9297 257.789 27.8281 258.102 27.625C258.414 27.4219 258.661 27.1536 258.844 26.8203C259.031 26.487 259.177 26.125 259.281 25.7344V23.8516C259.224 23.5651 259.135 23.2891 259.016 23.0234C258.901 22.7526 258.75 22.513 258.562 22.3047C258.38 22.0911 258.154 21.9219 257.883 21.7969C257.612 21.6719 257.294 21.6094 256.93 21.6094C256.534 21.6094 256.193 21.6927 255.906 21.8594C255.625 22.0208 255.393 22.2448 255.211 22.5312C255.034 22.8125 254.901 23.1406 254.812 23.5156C254.729 23.8854 254.688 24.2812 254.688 24.7031ZM264.141 17V29H262.688V17H264.141ZM269.969 29.1562C269.38 29.1562 268.846 29.0573 268.367 28.8594C267.893 28.6562 267.484 28.3724 267.141 28.0078C266.802 27.6432 266.542 27.2109 266.359 26.7109C266.177 26.2109 266.086 25.6641 266.086 25.0703V24.7422C266.086 24.0547 266.188 23.4427 266.391 22.9062C266.594 22.3646 266.87 21.9062 267.219 21.5312C267.568 21.1562 267.964 20.8724 268.406 20.6797C268.849 20.487 269.307 20.3906 269.781 20.3906C270.385 20.3906 270.906 20.4948 271.344 20.7031C271.786 20.9115 272.148 21.2031 272.43 21.5781C272.711 21.9479 272.919 22.3854 273.055 22.8906C273.19 23.3906 273.258 23.9375 273.258 24.5312V25.1797H266.945V24H271.812V23.8906C271.792 23.5156 271.714 23.151 271.578 22.7969C271.448 22.4427 271.24 22.151 270.953 21.9219C270.667 21.6927 270.276 21.5781 269.781 21.5781C269.453 21.5781 269.151 21.6484 268.875 21.7891C268.599 21.9245 268.362 22.1276 268.164 22.3984C267.966 22.6693 267.812 23 267.703 23.3906C267.594 23.7812 267.539 24.2318 267.539 24.7422V25.0703C267.539 25.4714 267.594 25.849 267.703 26.2031C267.818 26.5521 267.982 26.8594 268.195 27.125C268.414 27.3906 268.677 27.599 268.984 27.75C269.297 27.901 269.651 27.9766 270.047 27.9766C270.557 27.9766 270.99 27.8724 271.344 27.6641C271.698 27.4557 272.008 27.1771 272.273 26.8281L273.148 27.5234C272.966 27.7995 272.734 28.0625 272.453 28.3125C272.172 28.5625 271.826 28.7656 271.414 28.9219C271.008 29.0781 270.526 29.1562 269.969 29.1562Z" fill="black"/>
<defs>
<clipPath id="clip0_263_140">
<rect width="20" height="20" fill="white" transform="translate(105.5 14)"/>
</clipPath>
</defs>
</svg>
