<svg width="16" height="17" viewBox="0 0 16 17" fill="none" xmlns="http://www.w3.org/2000/svg">
<path d="M13.0625 16.098C12.955 16.098 12.8482 16.0835 12.7444 16.0559C12.5435 16.0021 12.3402 15.9538 12.1509 15.873C10.907 15.3425 10.2465 14.0089 10.5612 12.6909C10.5672 12.6658 10.5703 12.6397 10.5772 12.5982C10.5332 12.5775 10.4883 12.5542 10.4421 12.5347C8.5641 11.734 6.68551 10.9355 4.80974 10.1301C4.68872 10.0783 4.61956 10.1 4.52336 10.177C3.68246 10.8491 2.74222 11.0207 1.74288 10.6251C0.7514 10.2323 0.163868 9.47556 0.023979 8.41309C-0.138543 7.17779 0.537952 6.01382 1.66241 5.5349C2.81138 5.04562 4.10904 5.36867 4.90499 6.3422C4.92794 6.37049 4.9512 6.39845 4.9861 6.44119C6.85369 5.50159 8.72191 4.56137 10.6014 3.6158C10.3575 2.74251 10.4773 1.92672 11.0026 1.18604C11.3958 0.631398 11.9356 0.283841 12.5932 0.115091C13.867 -0.21204 15.2269 0.466104 15.7682 1.70047C16.3083 2.93137 15.8676 4.37722 14.7227 5.11507C13.5907 5.84475 11.973 5.68323 10.9972 4.41147C9.13309 5.34981 7.2655 6.28972 5.38816 7.23466C5.60758 7.95775 5.54157 8.65317 5.20866 9.3354C5.53811 9.47681 5.85812 9.61445 6.17845 9.75115C7.72006 10.4089 9.26198 11.065 10.802 11.7265C10.9167 11.7758 10.9755 11.7699 11.0573 11.6627C11.736 10.7712 12.8906 10.3853 13.9685 10.6794C15.037 10.9711 15.8311 11.8783 15.9754 12.9716C16.1731 14.4696 15.1596 15.8312 13.6708 16.0691C13.6708 16.0691 13.6702 16.0691 13.6699 16.0691C13.5822 16.0835 13.4948 16.098 13.4058 16.098H13.0613H13.0625Z" fill="black"/>
<path d="M13.0625 16.098C12.955 16.098 12.8482 16.0835 12.7444 16.0559C12.5435 16.0021 12.3402 15.9538 12.1509 15.873C10.907 15.3425 10.2465 14.0089 10.5612 12.6909C10.5672 12.6658 10.5703 12.6397 10.5772 12.5982C10.5332 12.5775 10.4883 12.5542 10.4421 12.5347C8.5641 11.734 6.68551 10.9355 4.80974 10.1301C4.68872 10.0783 4.61956 10.1 4.52336 10.177C3.68246 10.8491 2.74222 11.0207 1.74288 10.6251C0.7514 10.2323 0.163868 9.47556 0.023979 8.41309C-0.138543 7.17779 0.537952 6.01382 1.66241 5.5349C2.81138 5.04562 4.10904 5.36867 4.90499 6.3422C4.92794 6.37049 4.9512 6.39845 4.9861 6.44119C6.85369 5.50159 8.72191 4.56137 10.6014 3.6158C10.3575 2.74251 10.4773 1.92672 11.0026 1.18604C11.3958 0.631398 11.9356 0.283841 12.5932 0.115091C13.867 -0.21204 15.2269 0.466104 15.7682 1.70047C16.3083 2.93137 15.8676 4.37722 14.7227 5.11507C13.5907 5.84475 11.973 5.68323 10.9972 4.41147C9.13309 5.34981 7.2655 6.28972 5.38816 7.23466C5.60758 7.95775 5.54157 8.65317 5.20866 9.3354C5.53811 9.47681 5.85812 9.61445 6.17845 9.75115C7.72006 10.4089 9.26198 11.065 10.802 11.7265C10.9167 11.7758 10.9755 11.7699 11.0573 11.6627C11.736 10.7712 12.8906 10.3853 13.9685 10.6794C15.037 10.9711 15.8311 11.8783 15.9754 12.9716C16.1731 14.4696 15.1596 15.8312 13.6708 16.0691C13.6708 16.0691 13.6702 16.0691 13.6699 16.0691C13.5822 16.0835 13.4948 16.098 13.4058 16.098H13.0613H13.0625Z" fill="url(#paint0_linear_1128_517)" style="mix-blend-mode:lighten"/>
<defs>
<linearGradient id="paint0_linear_1128_517" x1="16" y1="3.04535" x2="-0.0414438" y2="14.0294" gradientUnits="userSpaceOnUse">
<stop stop-color="#00CCFF"/>
<stop offset="1" stop-color="#1D4AFE"/>
</linearGradient>
</defs>
</svg>
