<svg xmlns="http://www.w3.org/2000/svg" width="32.662" height="34.839" viewBox="0 0 32.662 34.839">
  <path id="Shape" d="M25.077,11.447V7.341a3.146,3.146,0,0,0,1.835-2.862V4.355A3.267,3.267,0,0,0,23.732,1.12h-.122a3.267,3.267,0,0,0-3.181,3.235v.124a3.146,3.146,0,0,0,1.835,2.862v4.106A9.012,9.012,0,0,0,18.1,13.314L6.973,4.479A2.151,2.151,0,0,0,7.1,3.608,3.581,3.581,0,0,0,3.548,0,3.581,3.581,0,0,0,0,3.608,3.581,3.581,0,0,0,3.548,7.217a2.774,2.774,0,0,0,1.713-.5l11.01,8.71A8.79,8.79,0,0,0,14.8,20.406a9.4,9.4,0,0,0,1.59,5.226l-3.3,3.359a1.786,1.786,0,0,0-.856-.124,2.987,2.987,0,0,0,0,5.972,3,3,0,0,0,2.936-2.986,2.151,2.151,0,0,0-.122-.871l3.3-3.359a9.107,9.107,0,0,0,5.383,1.866,9.084,9.084,0,0,0,1.346-18.042Zm-1.126,12.5A4.355,4.355,0,1,1,28.307,19.6,4.273,4.273,0,0,1,23.952,23.952Z"/>
</svg>
