<svg width="18" height="18" viewBox="0 0 18 18" fill="none" xmlns="http://www.w3.org/2000/svg">
<path fill-rule="evenodd" clip-rule="evenodd" d="M2 0C0.895431 0 0 0.89543 0 2V16C0 17.1046 0.89543 18 2 18H16C17.1046 18 18 17.1046 18 16V2C18 0.895431 17.1046 0 16 0H2ZM13.8421 4.52355L10.2423 2.34641C9.8796 2.12704 9.46527 2.00763 9.04144 2.00035C8.61762 1.99307 8.19944 2.09817 7.82942 2.30497L7.75814 2.34826C7.65275 2.41201 7.55279 2.48354 7.45902 2.5621L7.45565 2.56447C7.55062 2.48444 7.65178 2.41206 7.75818 2.348L7.8255 2.30708L7.81511 2.31306L7.81509 2.31308L7.81508 2.31308C7.79606 2.32403 7.77693 2.33503 7.75818 2.34642L4.15813 4.52355C3.80464 4.73727 3.5123 5.03862 3.30941 5.39843C3.10652 5.75824 2.99995 6.16433 3 6.57741V10.6199C3.00003 11.0328 3.10656 11.4386 3.3093 11.7983C3.51204 12.1579 3.80413 12.4592 4.15734 12.673L4.24432 12.7256L4.24074 12.7237L5.35639 13.3989L7.75737 14.8522C8.1322 15.0791 8.56198 15.199 9.00011 15.199C9.43825 15.199 9.86803 15.0791 10.2429 14.8522L13.8426 12.673C14.1959 12.4592 14.4879 12.1579 14.6907 11.7983C14.8934 11.4386 15 11.0328 15 10.6199V9.64922L15 9.64918V6.57714C14.9999 6.16419 14.8933 5.75823 14.6905 5.39852C14.4877 5.03882 14.1954 4.73727 13.8421 4.52355ZM6.60032 8.44409V7.24659L7.75787 6.54625C8.13256 6.31966 8.56208 6.19988 8.99995 6.19988C9.43782 6.19988 9.86735 6.31966 10.242 6.54625L11.3999 7.24666V8.44331C11.3999 9.2828 10.9612 10.0616 10.2429 10.4964L8.99964 11.2489L7.75739 10.4972C7.40421 10.2834 7.11216 9.9821 6.90946 9.62245C6.70677 9.26279 6.60029 8.85693 6.60032 8.44409Z" fill="#8B8B8B"/>
</svg>
