<svg width="22" height="22" viewBox="0 0 22 22" fill="none" xmlns="http://www.w3.org/2000/svg">
<path d="M17.5548 0H4.44437C3.61793 0 2.95264 0.66853 2.95264 1.49432V20.5063C2.95264 21.3295 3.61793 22 4.44437 22H17.5548C18.3787 22 19.0472 21.3302 19.0472 20.5063V1.49432C19.0485 0.66853 18.3793 0 17.5548 0ZM11.0002 21.4402C10.5097 21.4402 10.113 21.0435 10.113 20.5536C10.113 20.063 10.5097 19.6656 11.0002 19.6656C11.4895 19.6656 11.8875 20.063 11.8875 20.5536C11.8875 21.0435 11.4895 21.4402 11.0002 21.4402ZM17.5373 18.8884H4.46314V1.79526H17.5373V18.8884Z" fill="url(#paint0_linear_2251_277)"/>
<defs>
<linearGradient id="paint0_linear_2251_277" x1="2.95264" y1="22" x2="20.3437" y2="20.9223" gradientUnits="userSpaceOnUse">
<stop stop-color="#00CCFF"/>
<stop offset="1" stop-color="#1D4AFE"/>
</linearGradient>
</defs>
</svg>
