<svg width="20" height="20" viewBox="0 0 20 20" fill="none" xmlns="http://www.w3.org/2000/svg">
<rect width="20" height="20" rx="2" fill="url(#paint0_linear_2251_88)"/>
<path d="M17.7333 4C12.8975 4 7.86795 4.09748 2.26667 4C2.12 4 2 4.19516 2 4.43368V15.5663C2 15.8048 2.12 16 2.26667 16H17.7333C17.88 16 18 15.8048 18 15.5663V4.43368C18 4.19516 17.88 4 17.7333 4ZM4 11.0473L4.97333 9.10445C5.06133 8.93097 5.192 8.82689 5.33067 8.82689H5.33333C5.472 8.82689 5.60267 8.93097 5.69067 9.10445C5.79738 9.31736 6.10127 9.31735 6.20797 9.10443L6.76 8.00289C6.93867 7.65161 7.30133 7.65161 7.47733 8.00289L9.00533 11.0473C9.11733 11.2729 9.14133 11.5808 9.064 11.8453C8.98667 12.1099 8.82667 12.2747 8.64533 12.2747H4.35733C4.176 12.2747 4.016 12.1099 3.94133 11.8453C3.864 11.5808 3.88533 11.2729 4 11.0473ZM10.4507 12.3874C10.4507 12.1489 10.568 11.9537 10.7173 11.9537H15.8373C15.9867 11.9537 16.104 12.1489 16.104 12.3874C16.104 12.6259 15.9867 12.8211 15.8373 12.8211H10.7173C10.568 12.8211 10.4507 12.6259 10.4507 12.3874ZM15.8373 10.4315H10.7173C10.568 10.4315 10.4507 10.2407 10.4507 9.99783C10.4507 9.75497 10.568 9.56415 10.7173 9.56415H15.8373C15.9867 9.56415 16.104 9.75931 16.104 9.99783C16.104 10.2364 15.9867 10.4315 15.8373 10.4315ZM11.264 7.61258C11.264 7.37405 11.384 7.17889 11.5307 7.17889H15.024C15.1707 7.17889 15.2907 7.37405 15.2907 7.61258C15.2907 7.8511 15.1707 8.04626 15.024 8.04626H11.5307C11.384 8.04626 11.264 7.8511 11.264 7.61258Z" fill="white"/>
<defs>
<linearGradient id="paint0_linear_2251_88" x1="-2.98023e-07" y1="20" x2="21.5396" y2="18.1754" gradientUnits="userSpaceOnUse">
<stop stop-color="#00CCFF"/>
<stop offset="1" stop-color="#1D4AFE"/>
</linearGradient>
</defs>
</svg>
