<svg width="16" height="17" viewBox="0 0 16 17" fill="none" xmlns="http://www.w3.org/2000/svg">
<path d="M8.02062 8.19048C7.75273 8.11515 7.48083 8.08111 7.24824 7.96673C4.92935 6.82546 2.61723 5.67068 0.303098 4.5204C0.113571 4.42605 -0.00485453 4.28689 0.000152789 4.06539C0.00490974 3.85141 0.125337 3.72151 0.308355 3.63041C2.61272 2.48514 4.91584 1.33786 7.22045 0.193339C7.72469 -0.0571893 8.24219 -0.0674507 8.74518 0.181326C11.0616 1.32735 13.3737 2.48188 15.6881 3.63191C15.8731 3.72376 15.9915 3.86192 15.994 4.0704C15.9965 4.28664 15.8748 4.42905 15.6846 4.52365C13.3902 5.66392 11.0981 6.80894 8.80026 7.94195C8.56191 8.05958 8.28876 8.10714 8.02112 8.19048H8.02062Z" fill="black"/>
<path d="M8.02062 8.19048C7.75273 8.11515 7.48083 8.08111 7.24824 7.96673C4.92935 6.82546 2.61723 5.67068 0.303098 4.5204C0.113571 4.42605 -0.00485453 4.28689 0.000152789 4.06539C0.00490974 3.85141 0.125337 3.72151 0.308355 3.63041C2.61272 2.48514 4.91584 1.33786 7.22045 0.193339C7.72469 -0.0571893 8.24219 -0.0674507 8.74518 0.181326C11.0616 1.32735 13.3737 2.48188 15.6881 3.63191C15.8731 3.72376 15.9915 3.86192 15.994 4.0704C15.9965 4.28664 15.8748 4.42905 15.6846 4.52365C13.3902 5.66392 11.0981 6.80894 8.80026 7.94195C8.56191 8.05958 8.28876 8.10714 8.02112 8.19048H8.02062Z" fill="url(#paint0_linear_1128_491)" style="mix-blend-mode:lighten"/>
<path d="M7.98116 16.0392C7.72379 15.9618 7.44914 15.9193 7.21154 15.8022C4.90342 14.6642 2.60156 13.5131 0.297189 12.3674C0.111668 12.2753 -0.000499062 12.1391 1.66949e-06 11.9261C0.000502401 11.7126 0.11542 11.578 0.300441 11.4869C0.926856 11.1775 1.55328 10.8674 2.17619 10.5513C2.27107 10.503 2.34092 10.5033 2.43606 10.5508C3.85463 11.2606 5.27797 11.9606 6.69428 12.6744C7.56055 13.1109 8.41705 13.1157 9.28281 12.6825C10.6966 11.9752 12.1129 11.2729 13.5263 10.5646C13.6407 10.5073 13.7321 10.5048 13.8475 10.5636C14.4454 10.8679 15.0465 11.1665 15.6489 11.4618C15.8482 11.5595 15.9939 11.6939 15.9936 11.9274C15.9934 12.1604 15.8487 12.2938 15.6491 12.3929C13.3738 13.5221 11.0997 14.6544 8.8259 15.7867C8.56351 15.9173 8.29036 15.9999 7.99443 15.9929C7.98993 16.0084 7.98542 16.0237 7.98091 16.0392H7.98116Z" fill="black"/>
<path d="M7.98116 16.0392C7.72379 15.9618 7.44914 15.9193 7.21154 15.8022C4.90342 14.6642 2.60156 13.5131 0.297189 12.3674C0.111668 12.2753 -0.000499062 12.1391 1.66949e-06 11.9261C0.000502401 11.7126 0.11542 11.578 0.300441 11.4869C0.926856 11.1775 1.55328 10.8674 2.17619 10.5513C2.27107 10.503 2.34092 10.5033 2.43606 10.5508C3.85463 11.2606 5.27797 11.9606 6.69428 12.6744C7.56055 13.1109 8.41705 13.1157 9.28281 12.6825C10.6966 11.9752 12.1129 11.2729 13.5263 10.5646C13.6407 10.5073 13.7321 10.5048 13.8475 10.5636C14.4454 10.8679 15.0465 11.1665 15.6489 11.4618C15.8482 11.5595 15.9939 11.6939 15.9936 11.9274C15.9934 12.1604 15.8487 12.2938 15.6491 12.3929C13.3738 13.5221 11.0997 14.6544 8.8259 15.7867C8.56351 15.9173 8.29036 15.9999 7.99443 15.9929C7.98993 16.0084 7.98542 16.0237 7.98091 16.0392H7.98116Z" fill="url(#paint1_linear_1128_491)" style="mix-blend-mode:lighten"/>
<path d="M7.97744 12.1094C7.72983 12.0373 7.46494 11.9997 7.23711 11.8874C4.91872 10.7449 2.6066 9.58982 0.292215 8.43904C0.106694 8.34668 -0.002219 8.20753 3.42909e-05 7.99454C0.00203722 7.78831 0.11195 7.65316 0.28996 7.56481C0.925638 7.24896 1.56282 6.93561 2.19574 6.61426C2.29038 6.5662 2.35773 6.58598 2.44085 6.62752C3.86017 7.33606 5.28275 8.03809 6.69982 8.75113C7.56609 9.18712 8.42234 9.18787 9.28785 8.75414C10.7012 8.04585 12.118 7.34457 13.5316 6.63703C13.6392 6.58322 13.7241 6.57471 13.837 6.63253C14.4542 6.94813 15.0776 7.25147 15.6965 7.56356C15.9734 7.70322 16.0795 7.97277 15.9363 8.21028C15.875 8.31215 15.7656 8.40174 15.6574 8.45631C14.3195 9.12905 12.9777 9.79429 11.637 10.4615C10.7084 10.9235 9.77982 11.3853 8.85197 11.8488C8.57982 11.9847 8.29791 12.0758 7.98946 12.0656C7.98545 12.0801 7.98145 12.0946 7.97744 12.1094Z" fill="black"/>
<path d="M7.97744 12.1094C7.72983 12.0373 7.46494 11.9997 7.23711 11.8874C4.91872 10.7449 2.6066 9.58982 0.292215 8.43904C0.106694 8.34668 -0.002219 8.20753 3.42909e-05 7.99454C0.00203722 7.78831 0.11195 7.65316 0.28996 7.56481C0.925638 7.24896 1.56282 6.93561 2.19574 6.61426C2.29038 6.5662 2.35773 6.58598 2.44085 6.62752C3.86017 7.33606 5.28275 8.03809 6.69982 8.75113C7.56609 9.18712 8.42234 9.18787 9.28785 8.75414C10.7012 8.04585 12.118 7.34457 13.5316 6.63703C13.6392 6.58322 13.7241 6.57471 13.837 6.63253C14.4542 6.94813 15.0776 7.25147 15.6965 7.56356C15.9734 7.70322 16.0795 7.97277 15.9363 8.21028C15.875 8.31215 15.7656 8.40174 15.6574 8.45631C14.3195 9.12905 12.9777 9.79429 11.637 10.4615C10.7084 10.9235 9.77982 11.3853 8.85197 11.8488C8.57982 11.9847 8.29791 12.0758 7.98946 12.0656C7.98545 12.0801 7.98145 12.0946 7.97744 12.1094Z" fill="url(#paint2_linear_1128_491)" style="mix-blend-mode:lighten"/>
<defs>
<linearGradient id="paint0_linear_1128_491" x1="15.9941" y1="1.53572" x2="7.58912" y2="12.8195" gradientUnits="userSpaceOnUse">
<stop stop-color="#00CCFF"/>
<stop offset="1" stop-color="#1D4AFE"/>
</linearGradient>
<linearGradient id="paint1_linear_1128_491" x1="15.9936" y1="11.5509" x2="11.247" y2="20.999" gradientUnits="userSpaceOnUse">
<stop stop-color="#00CCFF"/>
<stop offset="1" stop-color="#1D4AFE"/>
</linearGradient>
<linearGradient id="paint2_linear_1128_491" x1="16" y1="7.62178" x2="11.2557" y2="17.0705" gradientUnits="userSpaceOnUse">
<stop stop-color="#00CCFF"/>
<stop offset="1" stop-color="#1D4AFE"/>
</linearGradient>
</defs>
</svg>
