<svg width="20" height="20" viewBox="0 0 20 20" fill="none" xmlns="http://www.w3.org/2000/svg">
<rect width="20" height="20" rx="2" fill="url(#paint0_linear_2251_2237)"/>
<path d="M16.9841 4.20117H3.01589C2.45487 4.20117 2 4.65601 2 5.21703V15.6297C2 16.1907 2.45487 16.6456 3.01589 16.6456H16.9841C17.5451 16.6456 18 16.1907 18 15.6297V5.21703C18 4.65601 17.5452 4.20117 16.9841 4.20117ZM16.9841 5.21703V12.6052L14.9821 10.785C14.6811 10.5115 14.2184 10.5224 13.9309 10.8102L11.9047 12.836L7.90959 8.064C7.6076 7.70336 7.05446 7.69981 6.74794 8.05612L3.01589 12.3934V5.21703H16.9841ZM12.6667 7.88369C12.6667 7.11213 13.2919 6.48686 14.0634 6.48686C14.835 6.48686 15.4603 7.11213 15.4603 7.88369C15.4603 8.65525 14.8351 9.28049 14.0634 9.28049C13.2919 9.28052 12.6667 8.65525 12.6667 7.88369Z" fill="white"/>
<defs>
<linearGradient id="paint0_linear_2251_2237" x1="-2.98023e-07" y1="20" x2="21.5396" y2="18.1754" gradientUnits="userSpaceOnUse">
<stop stop-color="#00CCFF"/>
<stop offset="1" stop-color="#1D4AFE"/>
</linearGradient>
</defs>
</svg>
