<svg width="44" height="44" viewBox="0 0 44 44" fill="none" xmlns="http://www.w3.org/2000/svg">
<rect x="0.307678" width="43.6923" height="43.6923" rx="21.8462" fill="white"/>
<rect x="0.730755" y="0.423077" width="42.8462" height="42.8462" rx="21.4231" stroke="url(#paint0_linear_6393_3595)" stroke-opacity="0.2" stroke-width="0.846154"/>
<path d="M20.0171 14.8252V14.2146C20.0171 14.0527 20.0814 13.8974 20.1959 13.7829C20.3104 13.6684 20.4657 13.6041 20.6276 13.6041C20.7895 13.6041 20.9448 13.6684 21.0593 13.7829C21.1738 13.8974 21.2381 14.0527 21.2381 14.2146V14.8252C21.2381 14.9871 21.1738 15.1424 21.0593 15.2569C20.9448 15.3714 20.7895 15.4357 20.6276 15.4357C20.4657 15.4357 20.3104 15.3714 20.1959 15.2569C20.0814 15.1424 20.0171 14.9871 20.0171 14.8252ZM14.5224 20.9304H15.1329C15.2948 20.9304 15.4501 20.8661 15.5646 20.7516C15.6791 20.6371 15.7434 20.4818 15.7434 20.3199C15.7434 20.158 15.6791 20.0027 15.5646 19.8882C15.4501 19.7737 15.2948 19.7094 15.1329 19.7094H14.5224C14.3605 19.7094 14.2052 19.7737 14.0907 19.8882C13.9762 20.0027 13.9119 20.158 13.9119 20.3199C13.9119 20.4818 13.9762 20.6371 14.0907 20.7516C14.2052 20.8661 14.3605 20.9304 14.5224 20.9304ZM22.7965 15.9821C22.8683 16.018 22.9464 16.0395 23.0264 16.0452C23.1065 16.0509 23.1868 16.0408 23.263 16.0154C23.3391 15.99 23.4095 15.9499 23.4701 15.8973C23.5307 15.8447 23.5803 15.7807 23.6161 15.7089L24.2267 14.4878C24.2991 14.343 24.3111 14.1754 24.2599 14.0217C24.2087 13.8681 24.0986 13.7411 23.9538 13.6686C23.809 13.5961 23.6413 13.5842 23.4877 13.6353C23.3341 13.6865 23.207 13.7966 23.1346 13.9414L22.5241 15.1625C22.4881 15.2342 22.4666 15.3123 22.4609 15.3923C22.4551 15.4723 22.4651 15.5526 22.4904 15.6287C22.5157 15.7049 22.5558 15.7752 22.6083 15.8359C22.6608 15.8965 22.7248 15.9462 22.7965 15.9821ZM15.4702 22.2163L14.2492 22.8268C14.1044 22.8993 13.9942 23.0263 13.9431 23.18C13.8919 23.3336 13.9039 23.5013 13.9763 23.6461C14.0488 23.7909 14.1758 23.901 14.3295 23.9522C14.4831 24.0033 14.6508 23.9914 14.7956 23.9189L16.0166 23.3084C16.0883 23.2725 16.1523 23.2229 16.2048 23.1623C16.2573 23.1017 16.2974 23.0313 16.3227 22.9553C16.3481 22.8792 16.3582 22.7989 16.3525 22.7189C16.3467 22.6389 16.3253 22.5609 16.2895 22.4891C16.2536 22.4174 16.2039 22.3535 16.1433 22.301C16.0828 22.2485 16.0124 22.2084 15.9363 22.1831C15.8603 22.1577 15.78 22.1476 15.7 22.1533C15.62 22.159 15.5419 22.1804 15.4702 22.2163ZM30.0381 27.0356C30.1515 27.149 30.2415 27.2837 30.3028 27.4318C30.3642 27.58 30.3958 27.7388 30.3958 27.8992C30.3958 28.0595 30.3642 28.2183 30.3028 28.3665C30.2415 28.5147 30.1515 28.6493 30.0381 28.7627L29.0704 29.7303C28.957 29.8438 28.8224 29.9337 28.6742 29.9951C28.5261 30.0565 28.3673 30.0881 28.2069 30.0881C28.0465 30.0881 27.8877 30.0565 27.7396 29.9951C27.5914 29.9337 27.4568 29.8438 27.3434 29.7303L23.4284 25.8146L22.0776 29.332C22.0776 29.3396 22.0715 29.348 22.0677 29.3564C21.9743 29.5742 21.8188 29.7598 21.6207 29.8899C21.4226 30.0201 21.1905 30.089 20.9535 30.0883H20.8932C20.646 30.0778 20.408 29.9917 20.2113 29.8415C20.0146 29.6914 19.8688 29.4845 19.7935 29.2488L15.8045 17.0322C15.736 16.8186 15.7277 16.5902 15.7805 16.3721C15.8333 16.154 15.9452 15.9548 16.1039 15.7961C16.2625 15.6375 16.4618 15.5256 16.6798 15.4728C16.8979 15.42 17.1263 15.4283 17.3399 15.4967L29.5565 19.4858C29.79 19.5639 29.9944 19.7107 30.143 19.9071C30.2915 20.1034 30.3772 20.3401 30.3888 20.586C30.4005 20.8319 30.3375 21.0756 30.2082 21.2851C30.0788 21.4946 29.8892 21.6602 29.6641 21.76L29.6397 21.7699L26.1223 23.1199L30.0381 27.0356ZM29.175 27.8988L25.2592 23.983C25.1183 23.8423 25.0139 23.6693 24.9551 23.479C24.8964 23.2888 24.885 23.087 24.9221 22.8913C24.9592 22.6957 25.0436 22.5121 25.168 22.3565C25.2923 22.2009 25.4528 22.0781 25.6354 21.9988L25.6599 21.9881L29.1666 20.6419L16.9645 16.6567L20.9481 28.8565L22.2951 25.346C22.2951 25.3376 22.3012 25.3292 22.305 25.3208C22.3844 25.1383 22.5072 24.978 22.6626 24.8537C22.8181 24.7295 23.0016 24.6452 23.1972 24.608C23.2727 24.594 23.3493 24.5869 23.4261 24.5867C23.7496 24.587 24.0598 24.7158 24.2885 24.9446L28.2065 28.8672L29.175 27.8988Z" fill="black"/>
<defs>
<linearGradient id="paint0_linear_6393_3595" x1="0.307678" y1="21.8462" x2="44" y2="21.8462" gradientUnits="userSpaceOnUse">
<stop stop-color="#26B7FF"/>
<stop offset="1" stop-color="#1D4AFE"/>
</linearGradient>
</defs>
</svg>
