<svg width="32" height="32" viewBox="0 0 32 32" fill="none" xmlns="http://www.w3.org/2000/svg">
<rect width="32" height="32" rx="16" fill="url(#paint0_linear_6393_3600)" fill-opacity="0.1"/>
<path d="M14.1061 9.77686V9.23571C14.1061 9.09219 14.1631 8.95455 14.2646 8.85306C14.366 8.75158 14.5037 8.69456 14.6472 8.69456C14.7907 8.69456 14.9284 8.75158 15.0299 8.85306C15.1313 8.95455 15.1884 9.09219 15.1884 9.23571V9.77686C15.1884 9.92038 15.1313 10.058 15.0299 10.1595C14.9284 10.261 14.7907 10.318 14.6472 10.318C14.5037 10.318 14.366 10.261 14.2646 10.1595C14.1631 10.058 14.1061 9.92038 14.1061 9.77686ZM9.23575 15.1883H9.77689C9.92042 15.1883 10.0581 15.1313 10.1595 15.0298C10.261 14.9283 10.318 14.7907 10.318 14.6472C10.318 14.5037 10.261 14.366 10.1595 14.2645C10.0581 14.163 9.92042 14.106 9.77689 14.106H9.23575C9.09223 14.106 8.95458 14.163 8.8531 14.2645C8.75162 14.366 8.6946 14.5037 8.6946 14.6472C8.6946 14.7907 8.75162 14.9283 8.8531 15.0298C8.95458 15.1313 9.09223 15.1883 9.23575 15.1883ZM16.5696 10.8023C16.6332 10.8342 16.7025 10.8532 16.7734 10.8582C16.8444 10.8633 16.9156 10.8543 16.9831 10.8318C17.0505 10.8094 17.1129 10.7738 17.1666 10.7272C17.2204 10.6805 17.2644 10.6238 17.2961 10.5602L17.8373 9.47787C17.9015 9.34951 17.9121 9.20089 17.8667 9.06471C17.8214 8.92853 17.7238 8.81595 17.5954 8.75172C17.4671 8.6875 17.3185 8.67689 17.1823 8.72224C17.0461 8.76759 16.9335 8.86519 16.8693 8.99355L16.3281 10.0758C16.2963 10.1394 16.2772 10.2086 16.2721 10.2795C16.267 10.3504 16.2759 10.4217 16.2984 10.4891C16.3208 10.5566 16.3563 10.619 16.4028 10.6727C16.4494 10.7265 16.5061 10.7705 16.5696 10.8023ZM10.0759 16.3281L8.99359 16.8693C8.86522 16.9335 8.76763 17.0461 8.72228 17.1822C8.67693 17.3184 8.68753 17.467 8.75176 17.5954C8.81599 17.7238 8.92857 17.8214 9.06475 17.8667C9.20093 17.9121 9.34955 17.9015 9.47791 17.8372L10.5602 17.2961C10.6238 17.2643 10.6804 17.2203 10.727 17.1666C10.7735 17.1129 10.8091 17.0505 10.8315 16.9831C10.854 16.9157 10.8629 16.8445 10.8579 16.7736C10.8528 16.7027 10.8338 16.6335 10.802 16.5699C10.7702 16.5064 10.7262 16.4497 10.6725 16.4032C10.6188 16.3566 10.5565 16.3211 10.489 16.2986C10.4216 16.2762 10.3504 16.2672 10.2795 16.2723C10.2086 16.2773 10.1394 16.2963 10.0759 16.3281ZM22.9883 20.5998C23.0888 20.7003 23.1686 20.8196 23.223 20.9509C23.2774 21.0823 23.3054 21.223 23.3054 21.3652C23.3054 21.5073 23.2774 21.6481 23.223 21.7794C23.1686 21.9107 23.0888 22.03 22.9883 22.1305L22.1306 22.9883C22.0301 23.0888 21.9108 23.1685 21.7794 23.2229C21.6481 23.2773 21.5074 23.3054 21.3652 23.3054C21.2231 23.3054 21.0823 23.2773 20.951 23.2229C20.8196 23.1685 20.7003 23.0888 20.5998 22.9883L17.1297 19.5175L15.9324 22.6352C15.9324 22.6419 15.927 22.6494 15.9236 22.6568C15.8408 22.8499 15.703 23.0144 15.5274 23.1297C15.3518 23.2451 15.1461 23.3062 14.936 23.3055H14.8826C14.6635 23.2962 14.4525 23.2199 14.2782 23.0868C14.1039 22.9537 13.9746 22.7704 13.9079 22.5614L10.3722 11.7331C10.3115 11.5437 10.3041 11.3413 10.3509 11.148C10.3977 10.9547 10.4969 10.7781 10.6375 10.6375C10.7781 10.4969 10.9548 10.3977 11.148 10.3509C11.3413 10.3041 11.5438 10.3114 11.7331 10.3721L22.5615 13.9078C22.7684 13.9771 22.9496 14.1072 23.0813 14.2813C23.2129 14.4553 23.2889 14.6651 23.2992 14.8831C23.3095 15.101 23.2537 15.3171 23.1391 15.5027C23.0244 15.6884 22.8563 15.8351 22.6569 15.9236L22.6352 15.9324L19.5175 17.129L22.9883 20.5998ZM22.2233 21.3648L18.7525 17.8941C18.6276 17.7694 18.535 17.616 18.4829 17.4473C18.4309 17.2787 18.4208 17.0998 18.4537 16.9264C18.4866 16.753 18.5614 16.5903 18.6716 16.4524C18.7818 16.3145 18.9241 16.2056 19.086 16.1353L19.1076 16.1259L22.2158 14.9326L11.4003 11.4003L14.9313 22.2138L16.1252 19.1022C16.1252 19.0947 16.1306 19.0873 16.134 19.0798C16.2043 18.9181 16.3132 18.7759 16.451 18.6658C16.5888 18.5557 16.7514 18.4809 16.9248 18.448C16.9917 18.4356 17.0596 18.4293 17.1277 18.4291C17.4144 18.4294 17.6894 18.5435 17.8921 18.7464L21.3649 22.2232L22.2233 21.3648Z" fill="black"/>
<defs>
<linearGradient id="paint0_linear_6393_3600" x1="0" y1="16" x2="32" y2="16" gradientUnits="userSpaceOnUse">
<stop stop-color="#26B7FF"/>
<stop offset="1" stop-color="#1D4AFE"/>
</linearGradient>
</defs>
</svg>
