<svg width="32" height="32" viewBox="0 0 32 32" fill="none" xmlns="http://www.w3.org/2000/svg">
<rect width="32" height="32" rx="16" fill="url(#paint0_linear_6393_3604)" fill-opacity="0.1"/>
<path d="M16 15.4872C15.5146 15.4872 15.0402 15.6375 14.6366 15.9193C14.233 16.201 13.9185 16.6015 13.7328 17.07C13.547 17.5385 13.4984 18.0541 13.5931 18.5515C13.6878 19.0489 13.9215 19.5058 14.2647 19.8644C14.6079 20.223 15.0452 20.4672 15.5212 20.5661C15.9973 20.665 16.4907 20.6143 16.9391 20.4202C17.3875 20.2261 17.7708 19.8975 18.0404 19.4758C18.3101 19.0541 18.454 18.5584 18.454 18.0513C18.4532 17.3715 18.1944 16.7197 17.7344 16.239C17.2743 15.7584 16.6506 15.488 16 15.4872ZM16 19.5897C15.7088 19.5897 15.4241 19.4995 15.182 19.3304C14.9398 19.1614 14.7511 18.9211 14.6396 18.64C14.5282 18.3589 14.499 18.0496 14.5559 17.7511C14.6127 17.4527 14.7529 17.1786 14.9588 16.9634C15.1647 16.7482 15.4271 16.6017 15.7127 16.5424C15.9983 16.483 16.2944 16.5135 16.5634 16.6299C16.8325 16.7463 17.0625 16.9435 17.2242 17.1965C17.386 17.4495 17.4724 17.747 17.4724 18.0513C17.472 18.4591 17.3167 18.8502 17.0407 19.1386C16.7646 19.427 16.3904 19.5893 16 19.5897ZM22.3823 17.1353C20.7554 14.7843 18.4291 13.4359 16 13.4359C13.5709 13.4359 11.2446 14.7843 9.61785 17.1353C9.43292 17.4016 9.33333 17.7222 9.33333 18.0513C9.33333 18.3803 9.43292 18.7009 9.61785 18.9672C11.2448 21.3182 13.5709 22.6666 16 22.6666C18.4291 22.6666 20.7554 21.3182 22.3821 18.9672C22.567 18.7009 22.6666 18.3803 22.6667 18.0513C22.6667 17.7223 22.5672 17.4017 22.3823 17.1353ZM21.5867 18.3663C20.1253 20.4779 18.1413 21.641 16 21.641C13.8587 21.641 11.8746 20.4779 10.4133 18.3663C10.3497 18.2747 10.3152 18.1644 10.3153 18.0512C10.3153 17.9381 10.3496 17.8278 10.4133 17.7363C11.8746 15.6246 13.8587 14.4615 16 14.4615C18.1413 14.4615 20.1253 15.6246 21.5869 17.7363C21.6505 17.8279 21.6847 17.9381 21.6847 18.0513C21.6847 18.1645 21.6504 18.2747 21.5867 18.3663ZM16 12.9231C15.8698 12.9231 15.745 12.869 15.6529 12.7729C15.5609 12.6767 15.5092 12.5462 15.5092 12.4102V9.84613C15.5092 9.71012 15.5609 9.57969 15.6529 9.48351C15.745 9.38734 15.8698 9.33331 16 9.33331C16.1301 9.33331 16.255 9.38734 16.347 9.48351C16.4391 9.57969 16.4908 9.71012 16.4908 9.84613V12.4102C16.4908 12.5462 16.4391 12.6767 16.347 12.7729C16.255 12.869 16.1301 12.9231 16 12.9231ZM22.0727 11.7577L20.4953 13.7218C20.4113 13.8247 20.2918 13.8887 20.1628 13.8999C20.0338 13.9111 19.9058 13.8687 19.8067 13.7818C19.7075 13.6949 19.6452 13.5706 19.6334 13.4359C19.6215 13.3012 19.661 13.1671 19.7433 13.0628L21.3207 11.0986C21.4044 10.9944 21.5242 10.9292 21.6539 10.9173C21.7835 10.9055 21.9124 10.9479 22.0121 11.0353C22.1118 11.1227 22.1742 11.2479 22.1856 11.3834C22.197 11.5188 22.1563 11.6535 22.0727 11.7577ZM12.6868 13.7852C12.6374 13.8285 12.5804 13.8612 12.5189 13.8814C12.4574 13.9016 12.3928 13.909 12.3286 13.9031C12.2644 13.8973 12.2019 13.8782 12.1447 13.8471C12.0876 13.816 12.0368 13.7734 11.9954 13.7218L10.4181 11.7577C10.3767 11.7061 10.3454 11.6465 10.326 11.5823C10.3066 11.518 10.2996 11.4504 10.3052 11.3834C10.3108 11.3163 10.329 11.251 10.3588 11.1913C10.3886 11.1316 10.4293 11.0786 10.4787 11.0353C10.5784 10.9479 10.7073 10.9055 10.837 10.9173C10.9666 10.9292 11.0864 10.9944 11.1701 11.0986L12.7475 13.0628C12.7889 13.1144 12.8202 13.174 12.8396 13.2382C12.8589 13.3024 12.866 13.37 12.8604 13.4371C12.8548 13.5042 12.8365 13.5695 12.8067 13.6292C12.777 13.6889 12.7362 13.7419 12.6868 13.7852Z" fill="black"/>
<defs>
<linearGradient id="paint0_linear_6393_3604" x1="0" y1="16" x2="32" y2="16" gradientUnits="userSpaceOnUse">
<stop stop-color="#26B7FF"/>
<stop offset="1" stop-color="#1D4AFE"/>
</linearGradient>
</defs>
</svg>
