<svg width="20" height="20" viewBox="0 0 20 20" fill="none" xmlns="http://www.w3.org/2000/svg">
<rect width="20" height="20" rx="2" fill="url(#paint0_linear_2251_2235)"/>
<path d="M8.07299 9.14099L9.67466 16.5487C9.7414 16.8824 10.0751 17.1493 10.4088 17.2161C10.7424 17.2828 11.1429 17.0826 11.3431 16.7489L12.2774 15.0138L14.8801 17.6165C15.2138 17.9502 15.8144 17.9502 16.1481 17.6165L17.7497 16.0148C18.0834 15.6811 18.0834 15.0805 17.7497 14.7468L15.0803 12.2776L16.7487 11.3433C17.0824 11.1431 17.2826 10.8094 17.2158 10.409C17.1491 10.0086 16.8822 9.74161 16.5485 9.67488L9.14077 8.13995C8.54015 8.00647 7.93952 8.6071 8.07299 9.14099Z" fill="white"/>
<path d="M8.9408 5.33681C9.34122 5.33681 9.60816 5.00313 9.60816 4.66945V2.66736C9.60816 2.26694 9.27448 2 8.9408 2C8.54038 2 8.27344 2.33368 8.27344 2.66736V4.66945C8.27344 5.00313 8.54038 5.33681 8.9408 5.33681Z" fill="white"/>
<path d="M6.47121 5.40367L5.00301 4.00221C4.73606 3.66853 4.26891 3.66853 4.00197 4.00221C3.73502 4.26916 3.73502 4.66958 4.00197 4.93652L5.40343 6.33798C5.67037 6.60493 6.13752 6.60493 6.40447 6.33798C6.73815 6.13777 6.73815 5.67062 6.47121 5.40367Z" fill="white"/>
<path d="M2 8.87439C2 9.27481 2.33368 9.54175 2.66736 9.54175H4.66945C5.06986 9.54175 5.33681 9.20807 5.33681 8.87439C5.33681 8.54071 5.00313 8.20703 4.66945 8.20703H2.66736C2.26694 8.20703 2 8.54071 2 8.87439Z" fill="white"/>
<path d="M5.47032 11.4092L4.06886 12.8107C3.80192 13.0776 3.80192 13.5448 4.06886 13.8117C4.33581 14.0786 4.80296 14.0786 5.0699 13.8117L6.47136 12.4102C6.73831 12.1433 6.73831 11.6761 6.47136 11.4092C6.13768 11.1422 5.73727 11.1422 5.47032 11.4092Z" fill="white"/>
<path d="M12.4776 6.40382L13.8791 4.93563C14.146 4.66868 14.146 4.20153 13.8791 3.93458C13.6121 3.66764 13.145 3.66764 12.878 3.93458L11.4766 5.33604C11.2096 5.60299 11.2096 6.07014 11.4766 6.33709C11.7435 6.67077 12.2107 6.67077 12.4776 6.40382Z" fill="white"/>
<defs>
<linearGradient id="paint0_linear_2251_2235" x1="-2.98023e-07" y1="20" x2="21.5396" y2="18.1754" gradientUnits="userSpaceOnUse">
<stop stop-color="#00CCFF"/>
<stop offset="1" stop-color="#1D4AFE"/>
</linearGradient>
</defs>
</svg>
