<svg xmlns="http://www.w3.org/2000/svg" width="24" height="23.984" viewBox="0 0 24 23.984">
  <g id="tutorial-icon-h" transform="translate(0 -0.825)">
    <path id="Path_34" data-name="Path 34" d="M12,.825H21.26A2.573,2.573,0,0,1,24,3.555q0,5.836,0,11.671a2.58,2.58,0,0,1-2.733,2.735H2.736A2.582,2.582,0,0,1,0,15.229Q0,9.38,0,3.531A2.572,2.572,0,0,1,2.707.826q4.645,0,9.29,0ZM8.57,9.386c0,.856,0,1.712,0,2.569a1.72,1.72,0,0,0,2.658,1.486c1.373-.847,2.75-1.689,4.115-2.548a1.707,1.707,0,0,0-.011-3.007c-1.352-.847-2.714-1.679-4.07-2.52A1.725,1.725,0,0,0,8.568,6.87c0,.839,0,1.677,0,2.516Z" fill="#fff"/>
    <path id="Path_35" data-name="Path 35" d="M15.009,23.1q-4,0-8.006,0a.392.392,0,0,0-.423.253,2.428,2.428,0,0,1-2.31,1.456,2.443,2.443,0,0,1-2.3-1.481.324.324,0,0,0-.357-.228c-.24.016-.482.007-.723,0A.864.864,0,0,1,0,22.236a.855.855,0,0,1,.886-.844c.232,0,.465-.014.7,0a.35.35,0,0,0,.4-.246,2.535,2.535,0,0,1,3.627-1.1,2.354,2.354,0,0,1,.981,1.1.359.359,0,0,0,.4.244c2.276-.007,4.552,0,6.828,0q4.619,0,9.238,0a.856.856,0,0,1,.868,1.186.873.873,0,0,1-.881.529c-1.74,0-3.481,0-5.222,0H15.009Z" fill="#fff"/>
    <path id="Path_36" data-name="Path 36" d="M14.517,9.392,10.3,12V6.783Z" fill="#fff"/>
  </g>
</svg>
