<svg width="41" height="41" viewBox="0 0 41 41" fill="none" xmlns="http://www.w3.org/2000/svg">
<rect x="1.24609" y="1.25" width="39" height="39" rx="19.5" stroke="url(#paint0_linear_3712_534)" stroke-opacity="0.2"/>
<g clip-path="url(#clip0_3712_534)">
<path d="M25.5903 14.5762C25.633 14.5983 25.633 14.5983 25.6766 14.6209C26.0552 14.8467 26.3671 15.2138 26.6504 15.547C26.7486 15.6603 26.8506 15.7699 26.9526 15.8799C27.1215 16.0621 27.2887 16.2456 27.4545 16.4306C27.5551 16.5422 27.6566 16.653 27.7583 16.7637C27.9181 16.9376 28.0766 17.1128 28.2344 17.2886C28.3355 17.4006 28.4374 17.5119 28.5396 17.6231C28.6995 17.7971 28.8582 17.9723 29.0158 18.1484C29.0974 18.2387 29.1804 18.3276 29.2636 18.4163C30.3526 19.5854 30.7985 20.9243 30.7534 22.5139C30.6992 23.6905 30.1159 24.7464 29.3258 25.5892C29.3022 25.6145 29.2786 25.6397 29.2543 25.6657C29.0087 25.9267 28.7569 26.1812 28.5031 26.4342C28.4263 26.5107 28.3498 26.5874 28.2733 26.6642C27.9568 26.981 27.6424 27.2894 27.2749 27.5474C27.2392 27.5725 27.2392 27.5725 27.2027 27.5981C27.1342 27.6458 27.0654 27.6931 26.9966 27.7403C26.9654 27.7621 26.9342 27.7839 26.902 27.8063C26.2076 28.2582 25.3203 28.488 24.4986 28.4884C24.4601 28.4886 24.4216 28.4888 24.3819 28.489C24.2532 28.4895 24.1245 28.4897 23.9958 28.49C23.9034 28.4903 23.811 28.4906 23.7186 28.4909C23.4416 28.4919 23.1646 28.4925 22.8876 28.493C22.8093 28.4931 22.731 28.4933 22.6527 28.4934C22.1656 28.4944 21.6785 28.4953 21.1914 28.4958C21.0788 28.4959 20.9662 28.496 20.8535 28.4961C20.8255 28.4961 20.7975 28.4962 20.7687 28.4962C20.3154 28.4967 19.862 28.498 19.4087 28.4996C18.9426 28.5013 18.4764 28.5022 18.0103 28.5024C17.7488 28.5025 17.4874 28.503 17.226 28.5043C16.98 28.5055 16.734 28.5057 16.4879 28.5052C16.3979 28.5052 16.3078 28.5056 16.2177 28.5062C15.2639 28.5131 15.2639 28.5131 14.8335 28.1992C14.5269 27.878 14.3562 27.5314 14.3623 27.086C14.3626 27.0553 14.3629 27.0246 14.3632 26.993C14.3768 26.5079 14.5803 26.0525 14.9034 25.6893C15.3433 25.2743 15.8372 25.1112 16.4229 25.0181C16.4766 25.0095 16.5303 25.0008 16.584 24.9922C17.1983 24.8937 17.8128 24.7962 18.4273 24.6987C18.5704 24.676 18.7135 24.6533 18.8566 24.6306C19.135 24.5864 19.4135 24.5422 19.6919 24.4981C19.6449 24.4512 19.6449 24.4512 19.5969 24.4034C18.8333 23.6424 18.0701 22.8811 17.3072 22.1194C16.9383 21.7511 16.5692 21.3829 16.1999 21.0149C15.878 20.6942 15.5562 20.3732 15.2347 20.0519C15.0646 19.8819 14.8943 19.712 14.7238 19.5423C14.5631 19.3825 14.4027 19.2223 14.2426 19.062C14.1839 19.0033 14.1251 18.9448 14.0662 18.8863C13.5583 18.3822 13.0845 17.8918 13.0781 17.1348C13.077 16.7022 13.1917 16.3746 13.4419 16.0215C13.4653 15.9877 13.4886 15.9538 13.5127 15.919C13.8154 15.5903 14.2414 15.3807 14.6884 15.3495C15.2953 15.3405 15.7382 15.5064 16.1791 15.9291C16.2462 15.9964 16.3128 16.0642 16.3791 16.1323C16.4335 16.1872 16.4879 16.2421 16.5423 16.297C16.6173 16.3728 16.6919 16.4489 16.7664 16.5251C16.8983 16.6596 17.0308 16.7935 17.1633 16.9274C17.2335 16.9985 17.3036 17.0697 17.3736 17.1411C17.4208 17.1891 17.4208 17.1891 17.4689 17.238C17.4966 17.2662 17.5243 17.2945 17.5528 17.3235C17.618 17.3916 17.618 17.3916 17.6997 17.4278C17.7042 17.3994 17.7087 17.371 17.7133 17.3417C17.7979 16.979 18.0717 16.7035 18.3638 16.4903C18.7659 16.2551 19.2431 16.14 19.7026 16.2464C19.9393 16.3152 20.1493 16.3947 20.356 16.5293C20.3712 16.4972 20.3864 16.4651 20.402 16.432C20.6669 15.9034 21.0104 15.5635 21.5788 15.3651C22.0691 15.234 22.5849 15.3149 23.0244 15.5625C23.0591 15.5851 23.0937 15.6076 23.1294 15.6309C23.1342 15.61 23.1391 15.5892 23.1441 15.5677C23.2528 15.1749 23.5228 14.861 23.8716 14.6543C24.4084 14.3796 25.0358 14.2856 25.5903 14.5762ZM24.1694 15.648C24.0201 15.84 23.9704 16.0001 23.9764 16.2429C24.0053 16.4555 24.1235 16.6204 24.25 16.7881C24.339 16.9099 24.3794 16.9994 24.3794 17.1543C24.3332 17.3059 24.2951 17.3995 24.1743 17.5034C24.0356 17.557 23.9414 17.5631 23.7935 17.5449C23.622 17.4441 23.4885 17.3263 23.3507 17.1838C23.3119 17.1442 23.2731 17.1047 23.2344 17.0651C23.1746 17.0036 23.1148 16.942 23.0552 16.8803C22.63 16.4256 22.63 16.4256 22.0535 16.2505C21.8163 16.2637 21.6172 16.3618 21.4497 16.5293C21.297 16.7414 21.2465 16.9316 21.2544 17.1934C21.3318 17.5933 21.6962 17.8706 21.9745 18.1469C22.0043 18.1766 22.0342 18.2062 22.0649 18.2368C22.1244 18.2956 22.1841 18.3543 22.2441 18.4126C22.2716 18.4397 22.2992 18.4668 22.3276 18.4946C22.3522 18.5187 22.3769 18.5427 22.4023 18.5674C22.506 18.6847 22.5408 18.7709 22.5581 18.9268C22.5402 19.1 22.5058 19.1752 22.3872 19.3028C22.2831 19.356 22.1918 19.3843 22.0747 19.3809C21.8764 19.3086 21.7517 19.2334 21.6018 19.0807C21.5839 19.0627 21.5659 19.0446 21.5474 19.026C21.4888 18.9669 21.4307 18.9072 21.3727 18.8476C21.3316 18.806 21.2905 18.7645 21.2494 18.7231C21.1416 18.6142 21.0342 18.505 20.927 18.3956C20.7553 18.2205 20.5832 18.046 20.4107 17.8718C20.3508 17.8111 20.2913 17.7502 20.2317 17.6893C20.1947 17.6517 20.1577 17.6142 20.1207 17.5767C20.0727 17.5278 20.0727 17.5278 20.0238 17.4779C19.8161 17.2879 19.6206 17.1772 19.3403 17.1543C19.0831 17.1768 18.8897 17.2924 18.708 17.4741C18.5475 17.7233 18.4987 17.9307 18.5541 18.2226C18.6982 18.5613 18.9981 18.814 19.2557 19.0681C19.2964 19.1086 19.3371 19.1491 19.3779 19.1897C19.4842 19.2955 19.5908 19.4011 19.6974 19.5067C19.8688 19.6763 20.0399 19.8463 20.2109 20.0164C20.2705 20.0756 20.3303 20.1348 20.3901 20.1939C20.4261 20.2296 20.4621 20.2654 20.4992 20.3022C20.531 20.3337 20.5629 20.3652 20.5956 20.3976C20.7282 20.5378 20.7226 20.6598 20.7216 20.8463C20.7075 20.9434 20.7075 20.9434 20.6148 21.063C20.4531 21.1823 20.3631 21.1943 20.1607 21.1778C19.8659 21.0491 19.6594 20.8081 19.4374 20.5825C19.3924 20.5372 19.3474 20.492 19.3024 20.4468C19.2057 20.3496 19.1093 20.2524 19.013 20.1549C18.8607 20.0008 18.7078 19.8471 18.5549 19.6935C18.1753 19.3121 17.7963 18.93 17.4174 18.5478C17.1227 18.2505 16.8279 17.9534 16.5325 17.6569C16.3806 17.5043 16.229 17.3513 16.0777 17.1981C15.9835 17.1028 15.8889 17.0079 15.7942 16.913C15.7505 16.869 15.7069 16.8249 15.6634 16.7806C15.6039 16.7201 15.544 16.6601 15.4839 16.6002C15.4338 16.5496 15.4338 16.5496 15.3827 16.4981C15.2027 16.3505 15.0127 16.2704 14.7743 16.2815C14.5106 16.3245 14.3128 16.4438 14.151 16.6549C14.0272 16.8467 14.0007 17.0471 14.0278 17.2715C14.1378 17.6337 14.444 17.8889 14.7062 18.1493C14.7338 18.1769 14.7614 18.2045 14.7899 18.233C14.8817 18.3247 14.9737 18.4163 15.0656 18.5078C15.1318 18.5739 15.198 18.6399 15.2642 18.706C15.4062 18.8478 15.5483 18.9895 15.6905 19.1312C15.8961 19.3361 16.1015 19.5412 16.307 19.7463C16.6404 20.0793 16.9739 20.4123 17.3075 20.7451C17.3274 20.765 17.3474 20.7849 17.3679 20.8054C17.6513 21.0881 17.9347 21.3708 18.2181 21.6535C18.2381 21.6735 18.2581 21.6934 18.2787 21.714C18.2987 21.7339 18.3187 21.7538 18.3393 21.7743C18.672 22.1062 19.0046 22.4382 19.3371 22.7703C19.5237 22.9567 19.7103 23.143 19.8972 23.3291C20.0726 23.5038 20.2478 23.6787 20.4229 23.8538C20.4873 23.9181 20.5518 23.9824 20.6164 24.0466C20.7042 24.1339 20.7918 24.2215 20.8793 24.3091C20.9051 24.3347 20.931 24.3603 20.9576 24.3867C20.9809 24.4101 21.0042 24.4336 21.0282 24.4577C21.0586 24.488 21.0586 24.488 21.0896 24.5189C21.1902 24.64 21.182 24.7717 21.1853 24.9226C21.1737 25.0294 21.1476 25.1055 21.0982 25.2012C20.7395 25.3853 20.2058 25.3898 19.8117 25.4502C19.6735 25.4713 19.5354 25.4928 19.3972 25.5143C19.0544 25.5676 18.7114 25.6205 18.3685 25.6734C18.078 25.7182 17.7875 25.7632 17.4971 25.8084C17.3616 25.8294 17.2261 25.8502 17.0905 25.8709C17.0068 25.8839 16.923 25.897 16.8393 25.91C16.8021 25.9156 16.7649 25.9212 16.7266 25.927C16.2744 25.9983 15.8258 26.074 15.5261 26.4492C15.3657 26.6919 15.2783 26.9426 15.3169 27.2324C15.3811 27.3607 15.4274 27.4414 15.5538 27.5116C15.714 27.5582 15.8648 27.556 16.0307 27.5554C16.0857 27.5556 16.0857 27.5556 16.1417 27.5559C16.2645 27.5564 16.3873 27.5564 16.5102 27.5563C16.5982 27.5565 16.6862 27.5568 16.7743 27.5571C17.0137 27.5578 17.2531 27.558 17.4925 27.558C17.6423 27.5581 17.7922 27.5582 17.942 27.5584C18.4384 27.5591 18.9347 27.5595 19.4311 27.5594C19.4579 27.5594 19.4846 27.5594 19.5122 27.5594C19.539 27.5594 19.5658 27.5594 19.5934 27.5594C20.026 27.5594 20.4587 27.5601 20.8914 27.5612C21.3367 27.5623 21.782 27.5629 22.2273 27.5628C22.4769 27.5628 22.7264 27.563 22.976 27.5638C23.2113 27.5646 23.4466 27.5646 23.6819 27.564C23.7677 27.564 23.8535 27.5641 23.9392 27.5646C24.6033 27.5681 25.2817 27.5266 25.8955 27.2471C25.9408 27.2271 25.9408 27.2271 25.987 27.2068C26.7846 26.842 27.3708 26.2021 27.9825 25.5918C28.0781 25.4966 28.1741 25.4018 28.2702 25.307C28.9306 24.6511 29.4398 24.0008 29.6919 23.0918C29.7044 23.0471 29.7169 23.0024 29.7297 22.9563C29.974 21.9339 29.7714 20.8784 29.2608 19.9725C29.0119 19.574 28.7006 19.2324 28.3792 18.8921C28.3003 18.808 28.2234 18.7222 28.1465 18.6362C27.9473 18.4141 27.7454 18.1944 27.5435 17.9746C27.3119 17.7226 27.0811 17.47 26.8525 17.2153C26.7514 17.1033 26.6495 16.992 26.5474 16.8809C26.3877 16.7071 26.2294 16.5322 26.0719 16.3566C26.0051 16.2826 25.938 16.209 25.8705 16.1356C25.8515 16.115 25.8326 16.0944 25.813 16.0732C25.7594 16.015 25.7057 15.9569 25.652 15.8988C25.5817 15.8208 25.5146 15.7429 25.4484 15.6615C25.3055 15.4934 25.1423 15.3724 24.9185 15.3481C24.6002 15.3386 24.3855 15.4089 24.1694 15.648Z" fill="black"/>
<path d="M17.419 13.893C17.4872 13.9517 17.5548 14.011 17.6217 14.0712C17.6517 14.098 17.6817 14.1248 17.7126 14.1524C18.0983 14.5165 18.5794 15.0937 18.6373 15.6337C18.5973 15.8297 18.523 15.9423 18.3638 16.0634C18.2084 16.1157 18.0865 16.1123 17.9293 16.0683C17.7432 15.9308 17.6418 15.7406 17.5309 15.5404C17.1389 14.844 16.4911 14.3469 15.732 14.1079C14.862 13.8817 13.9949 13.9726 13.2145 14.425C12.4895 14.8717 12.0001 15.5519 11.7891 16.3759C11.6013 17.1843 11.7307 18.0181 12.1517 18.7331C12.4612 19.2041 12.8336 19.5737 13.3248 19.8525C13.3973 19.8946 13.4698 19.9369 13.5421 19.9794C13.5735 19.9974 13.605 20.0153 13.6374 20.0338C13.7567 20.115 13.7907 20.1928 13.8253 20.331C13.8353 20.5322 13.7849 20.6737 13.6495 20.8242C13.4978 20.898 13.3344 20.9308 13.1702 20.8866C13.0921 20.8534 13.0184 20.8161 12.9439 20.7753C12.9168 20.761 12.8897 20.7467 12.8618 20.732C11.9212 20.2212 11.2153 19.3539 10.8883 18.3364C10.7698 17.935 10.7325 17.5452 10.7344 17.1279C10.7347 17.0795 10.7349 17.0311 10.7351 16.9813C10.75 15.8562 11.232 14.8573 12.0357 14.0712C12.5404 13.6306 13.1068 13.3095 13.7545 13.1337C13.7978 13.1213 13.8411 13.1089 13.8857 13.0961C15.1069 12.7963 16.4415 13.1127 17.419 13.893Z" fill="black"/>
</g>
<defs>
<linearGradient id="paint0_linear_3712_534" x1="0.746094" y1="20.75" x2="40.7461" y2="20.75" gradientUnits="userSpaceOnUse">
<stop stop-color="#26B7FF"/>
<stop offset="1" stop-color="#1D4AFE"/>
</linearGradient>
<clipPath id="clip0_3712_534">
<rect width="20" height="20" fill="white" transform="translate(10.7461 10.75)"/>
</clipPath>
</defs>
</svg>
