<svg width="64" height="34" viewBox="0 0 64 34" fill="none" xmlns="http://www.w3.org/2000/svg">
<circle cx="12.9668" cy="9.02274" r="3.72391" fill="#D9D9D9"/>
<circle cx="12.9668" cy="9.02274" r="3.72391" fill="url(#paint0_linear_2565_804)"/>
<mask id="mask0_2565_804" style="mask-type:alpha" maskUnits="userSpaceOnUse" x="0" y="0" width="64" height="34">
<rect x="0.139893" y="0.333984" width="63.7203" height="33.1015" rx="3.44807" fill="#F3F9FF"/>
</mask>
<g mask="url(#mask0_2565_804)">
<path d="M15.0432 19.7268C16.4231 18.4147 18.6059 18.4692 19.9182 19.8489L33.2834 33.9016H0.139893L15.0432 19.7268Z" fill="#00CCFF"/>
<path d="M36.3212 10.121C37.6902 8.79756 39.8735 8.83505 41.1971 10.204L64.1102 33.9022H11.7255L36.3212 10.121Z" fill="#D9D9D9"/>
<path d="M36.3212 10.121C37.6902 8.79756 39.8735 8.83505 41.1971 10.204L64.1102 33.9022H11.7255L36.3212 10.121Z" fill="url(#paint1_linear_2565_804)"/>
</g>
<defs>
<linearGradient id="paint0_linear_2565_804" x1="16.6907" y1="9.02274" x2="9.24292" y2="9.02274" gradientUnits="userSpaceOnUse">
<stop stop-color="#00CCFF"/>
<stop offset="1" stop-color="#1D4AFE"/>
</linearGradient>
<linearGradient id="paint1_linear_2565_804" x1="57.711" y1="68.2083" x2="18.0771" y2="27.6893" gradientUnits="userSpaceOnUse">
<stop stop-color="#00CCFF"/>
<stop offset="1" stop-color="#1D4AFE"/>
</linearGradient>
</defs>
</svg>
