<svg width="17" height="18" viewBox="0 0 17 18" fill="none" xmlns="http://www.w3.org/2000/svg">
<path fill-rule="evenodd" clip-rule="evenodd" d="M6.02427 7.90566C6.38617 7.86948 6.70886 8.13351 6.74504 8.49544L7.18406 12.8857C7.22032 13.2475 6.95621 13.5703 6.59436 13.6065C6.23246 13.6427 5.90974 13.3786 5.87356 13.0167L5.43453 8.62645C5.39834 8.26461 5.66238 7.94183 6.02427 7.90566Z" fill="black"/>
<path fill-rule="evenodd" clip-rule="evenodd" d="M10.5456 7.90566C10.9074 7.94183 11.1714 8.26461 11.1353 8.62645L10.6962 13.0167C10.6601 13.3786 10.3374 13.6427 9.97544 13.6065C9.6136 13.5703 9.34957 13.2475 9.38575 12.8857L9.82477 8.49544C9.86095 8.13351 10.1836 7.86948 10.5456 7.90566Z" fill="black"/>
<path fill-rule="evenodd" clip-rule="evenodd" d="M6.63748 1.69664e-05H9.6066C9.79661 -0.00010596 9.96212 -0.000211335 10.1184 0.0247516C10.7359 0.123356 11.2703 0.508521 11.5591 1.06318C11.6323 1.20357 11.6845 1.36063 11.7445 1.54092L11.8425 1.83498C11.8591 1.88476 11.8638 1.89885 11.8678 1.90995C12.0216 2.33502 12.4202 2.62237 12.8722 2.63383C12.884 2.63413 12.8986 2.63418 12.9513 2.63418H15.5854C15.9492 2.63418 16.2439 2.92901 16.2439 3.29272C16.2439 3.65641 15.9492 3.95125 15.5854 3.95125H0.658537C0.29484 3.95125 0 3.65641 0 3.29272C0 2.92901 0.29484 2.63418 0.658537 2.63418H3.29276C3.34548 2.63418 3.36003 2.63413 3.37192 2.63383C3.82381 2.62237 4.22246 2.33505 4.37622 1.90997C4.38026 1.89879 4.38491 1.885 4.40159 1.83498L4.49958 1.54094C4.55955 1.36066 4.6118 1.20357 4.68491 1.06318C4.97373 0.508521 5.50811 0.123356 6.12565 0.0247516C6.28196 -0.000211335 6.44749 -0.00010596 6.63748 1.69664e-05ZM5.49496 2.63418C5.54019 2.54548 5.58027 2.4533 5.61475 2.35798C5.62522 2.32903 5.63549 2.29822 5.64868 2.25864L5.73632 1.99573C5.81637 1.75558 5.8348 1.7066 5.85308 1.67149C5.94936 1.4866 6.12749 1.35822 6.33333 1.32534C6.37243 1.3191 6.42471 1.31711 6.67787 1.31711H9.56621C9.81935 1.31711 9.87159 1.3191 9.91076 1.32534C10.1166 1.35822 10.2947 1.4866 10.391 1.67149C10.4092 1.7066 10.4277 1.75557 10.5077 1.99573L10.5953 2.25848L10.6294 2.358C10.6638 2.45331 10.7039 2.54548 10.7491 2.63418H5.49496Z" fill="black"/>
<path fill-rule="evenodd" clip-rule="evenodd" d="M2.24108 5.70851C2.60397 5.68432 2.91777 5.95889 2.94197 6.32179L3.34582 12.3795C3.42471 13.563 3.48093 14.3865 3.60436 15.006C3.72408 15.6071 3.8912 15.9252 4.13128 16.1498C4.37135 16.3743 4.69988 16.52 5.30749 16.5994C5.93389 16.6813 6.75928 16.6827 7.94535 16.6827H8.62443C9.8105 16.6827 10.6359 16.6813 11.2623 16.5994C11.8699 16.52 12.1984 16.3743 12.4385 16.1498C12.6786 15.9252 12.8457 15.6071 12.9654 15.006C13.0889 14.3865 13.1451 13.563 13.224 12.3795L13.6278 6.32179C13.652 5.95889 13.9658 5.68432 14.3287 5.70851C14.6916 5.7327 14.9661 6.0465 14.942 6.4094L14.535 12.5133C14.4599 13.6397 14.3994 14.5494 14.2571 15.2634C14.1092 16.0056 13.8578 16.6256 13.3383 17.1115C12.8189 17.5975 12.1835 17.8072 11.4331 17.9053C10.7113 17.9997 9.79952 17.9997 8.6707 17.9997H7.89907C6.77025 17.9997 5.85844 17.9997 5.13665 17.9053C4.38623 17.8072 3.75092 17.5975 3.23147 17.1115C2.71202 16.6256 2.46053 16.0056 2.31267 15.2634C2.17045 14.5494 2.10981 13.6397 2.03474 12.5133L1.62781 6.4094C1.60361 6.0465 1.87819 5.7327 2.24108 5.70851Z" fill="black"/>
</svg>
