<svg width="41" height="41" viewBox="0 0 41 41" fill="none" xmlns="http://www.w3.org/2000/svg">
<rect x="1.10417" y="0.897135" width="39.1667" height="39.1667" rx="19.5833" stroke="url(#paint0_linear_6393_8508)" stroke-opacity="0.2" stroke-width="0.833333"/>
<path d="M26.4166 15.9805V23.293C26.4166 23.4422 26.3574 23.5852 26.2519 23.6907C26.1464 23.7962 26.0033 23.8555 25.8541 23.8555C25.7049 23.8555 25.5619 23.7962 25.4564 23.6907C25.3509 23.5852 25.2916 23.4422 25.2916 23.293V17.3382L17.2521 25.3784C17.1466 25.484 17.0034 25.5433 16.8541 25.5433C16.7049 25.5433 16.5617 25.484 16.4562 25.3784C16.3506 25.2729 16.2913 25.1297 16.2913 24.9805C16.2913 24.8312 16.3506 24.688 16.4562 24.5825L24.4964 16.543H18.5416C18.3924 16.543 18.2494 16.4837 18.1439 16.3782C18.0384 16.2727 17.9791 16.1297 17.9791 15.9805C17.9791 15.8313 18.0384 15.6882 18.1439 15.5827C18.2494 15.4772 18.3924 15.418 18.5416 15.418H25.8541C26.0033 15.418 26.1464 15.4772 26.2519 15.5827C26.3574 15.6882 26.4166 15.8313 26.4166 15.9805Z" fill="black"/>
<defs>
<linearGradient id="paint0_linear_6393_8508" x1="0.6875" y1="20.4805" x2="40.6875" y2="20.4805" gradientUnits="userSpaceOnUse">
<stop stop-color="#26B7FF"/>
<stop offset="1" stop-color="#1D4AFE"/>
</linearGradient>
</defs>
</svg>
