<?xml version="1.0" standalone="no"?>
<!DOCTYPE svg PUBLIC "-//W3C//DTD SVG 20010904//EN"
 "http://www.w3.org/TR/2001/REC-SVG-20010904/DTD/svg10.dtd">
<svg version="1.0" xmlns="http://www.w3.org/2000/svg"
 width="500.000000pt" height="124.000000pt" viewBox="0 0 500.000000 124.000000"
 preserveAspectRatio="xMidYMid meet">

<g transform="translate(0.000000,124.000000) scale(0.100000,-0.100000)"
fill="#000000" stroke="none">
<path d="M46 1198 c-14 -20 -16 -92 -16 -580 0 -545 0 -558 20 -578 20 -20 33
-20 584 -20 l565 0 15 22 c14 20 16 92 16 584 0 531 -1 562 -18 577 -17 15
-72 17 -585 17 l-566 0 -15 -22z m882 -195 l151 -6 -47 -49 -47 -48 -397 -7
c-228 -3 -398 -2 -398 3 0 4 23 32 52 61 l52 53 242 0 c132 0 309 -3 392 -7z
m-68 -321 c0 -4 -21 -29 -48 -55 l-47 -46 -288 -3 c-158 -2 -287 -1 -287 2 0
2 23 28 52 57 l52 53 283 0 c156 0 283 -4 283 -8z m199 -349 c-13 -15 -36 -40
-51 -55 l-26 -28 -397 0 -397 0 47 55 47 55 401 0 400 0 -24 -27z"/>
<path d="M1560 1109 c-61 -12 -118 -54 -147 -109 -35 -64 -30 -168 10 -228 55
-84 193 -118 292 -73 36 16 74 48 64 54 -2 1 -14 10 -25 20 -21 17 -23 17 -55
-2 -41 -25 -117 -28 -160 -6 -94 49 -92 211 3 261 47 25 122 22 160 -6 l30
-22 24 23 c28 26 21 40 -35 68 -47 24 -105 31 -161 20z"/>
<path d="M2708 1109 c-64 -10 -105 -41 -119 -90 -24 -80 21 -125 163 -164 53
-14 88 -36 88 -55 0 -4 -8 -18 -18 -30 -26 -32 -85 -36 -161 -10 -68 22 -80
19 -81 -23 0 -47 190 -78 260 -42 71 37 95 131 46 180 -21 21 -137 65 -171 65
-7 0 -23 8 -35 18 -32 26 -21 66 21 81 44 15 82 14 129 -5 46 -19 46 -19 55
18 5 21 2 29 -15 38 -33 18 -110 27 -162 19z"/>
<path d="M3773 1110 c-109 -22 -183 -108 -183 -214 0 -80 54 -165 124 -197 51
-23 153 -25 204 -3 173 72 175 327 2 397 -50 21 -99 26 -147 17z m129 -87 c56
-28 85 -131 54 -191 -29 -55 -62 -76 -129 -80 -57 -4 -66 -2 -96 24 -58 49
-74 112 -46 181 33 81 130 110 217 66z"/>
<path d="M1990 962 c0 -134 2 -152 23 -192 34 -67 65 -84 155 -88 67 -3 81 -1
111 20 72 49 76 61 79 244 l3 165 -38 -3 -38 -3 -5 -150 c-6 -192 -13 -205
-105 -205 -32 0 -52 7 -72 24 l-28 24 -3 156 -3 156 -40 0 -39 0 0 -148z"/>
<path d="M3070 1075 l0 -35 70 0 70 0 0 -180 0 -180 40 0 40 0 0 180 0 180 70
0 70 0 0 35 0 35 -180 0 -180 0 0 -35z"/>
<path d="M4270 895 l0 -215 40 0 40 0 0 137 0 138 68 -112 c52 -88 71 -112 87
-110 13 1 41 38 85 111 l65 108 3 -136 3 -136 39 0 40 0 0 215 0 215 -34 0
c-33 0 -36 -3 -116 -140 -45 -77 -83 -140 -85 -140 -1 0 -40 63 -86 140 -80
134 -85 140 -116 140 l-33 0 0 -215z"/>
<path d="M1844 443 c-35 -7 -56 -37 -52 -75 3 -30 8 -35 63 -56 33 -12 67 -26
75 -31 21 -12 24 -46 5 -65 -19 -18 -86 -22 -116 -5 -11 6 -25 8 -32 6 -19 -8
59 -37 98 -37 25 0 44 8 60 25 45 44 27 88 -44 109 -78 23 -93 34 -89 64 5 41
46 59 100 45 47 -12 60 -10 31 5 -24 13 -73 20 -99 15z"/>
<path d="M2419 441 c-71 -22 -99 -61 -99 -137 0 -39 5 -51 33 -79 42 -42 95
-54 152 -34 39 14 40 15 43 67 2 31 -1 52 -7 52 -6 0 -11 -20 -11 -45 0 -51
-16 -65 -75 -65 -73 0 -115 45 -115 121 0 78 86 128 163 95 21 -8 37 -11 37
-6 0 23 -80 43 -121 31z"/>
<path d="M1460 310 l0 -130 90 0 c53 0 90 4 90 10 0 6 -33 10 -80 10 l-80 0 0
55 0 54 73 4 72 3 -72 2 -73 2 0 55 0 54 78 4 77 3 -87 2 -88 2 0 -130z"/>
<path d="M2130 310 c0 -80 4 -130 10 -130 6 0 10 50 10 130 0 80 -4 130 -10
130 -6 0 -10 -50 -10 -130z"/>
<path d="M2730 310 c0 -160 18 -177 22 -20 l3 111 85 -110 c47 -61 88 -110 93
-111 4 0 7 58 7 130 0 159 -18 177 -22 23 l-3 -108 -84 108 c-46 59 -88 107
-92 107 -5 0 -9 -58 -9 -130z"/>
<path d="M3151 323 c-67 -148 -65 -143 -53 -143 5 0 15 15 23 33 7 17 17 35
22 38 4 3 39 7 77 8 l69 2 22 -43 c12 -24 24 -38 26 -32 5 16 -105 249 -120
252 -9 2 -33 -40 -66 -115z m123 -30 c7 -22 5 -23 -59 -23 -37 0 -65 4 -63 8
2 4 16 39 32 76 l30 68 27 -54 c14 -29 30 -63 33 -75z"/>
<path d="M3478 433 l52 -4 0 -125 c0 -76 4 -124 10 -124 6 0 10 48 10 124 l0
125 48 4 c26 2 -2 3 -63 3 -60 0 -86 -1 -57 -3z"/>
<path d="M3780 350 c0 -49 5 -101 12 -115 32 -71 154 -71 186 0 15 32 16 205
2 205 -6 0 -10 -38 -10 -94 0 -79 -3 -97 -21 -120 -29 -37 -99 -37 -128 0 -18
23 -21 41 -21 120 0 56 -4 94 -10 94 -6 0 -10 -37 -10 -90z"/>
<path d="M4180 309 c0 -84 4 -128 10 -124 6 3 10 24 10 46 l0 39 48 0 c46 0
50 -2 80 -45 17 -25 36 -45 42 -45 6 0 -3 20 -20 45 l-31 45 27 24 c39 33 39
89 0 122 -23 20 -38 24 -97 24 l-69 0 0 -131z m134 107 c38 -16 52 -50 36 -90
-10 -27 -58 -46 -117 -46 l-33 0 0 75 0 75 40 0 c22 0 56 -6 74 -14z"/>
<path d="M4542 313 l3 -128 84 -3 c49 -2 88 1 95 8 7 7 -17 10 -78 10 l-87 0
3 53 3 52 70 5 70 6 -70 4 -70 5 0 50 0 50 80 6 80 5 -93 2 -93 2 3 -127z"/>
</g>
</svg>
